M48
; DRILL file {KiCad 9.0.6} date 2025-12-14T11:18:04-0800
; FORMAT={-:-/ absolute / metric / decimal}
; #@! TF.CreationDate,2025-12-14T11:18:04-08:00
; #@! TF.GenerationSoftware,Kicad,Pcbnew,9.0.6
; #@! TF.FileFunction,Plated,1,2,PTH
FMAT,2
METRIC
; #@! TA.AperFunction,Plated,PTH,ViaDrill
T1C0.300
; #@! TA.AperFunction,Plated,PTH,ComponentDrill
T2C0.600
; #@! TA.AperFunction,Plated,PTH,ComponentDrill
T3C1.000
%
G90
G05
T1
X73.96Y-75.81
X75.3Y-86.7
X75.62Y-105.51
X75.76Y-88.6
X76.02Y-56.96
X77.004Y-83.06
X77.004Y-83.92
X77.29Y-80.25
X77.79Y-82.912
X77.86Y-65.72
X78.439Y-78.979
X78.73Y-95.45
X79.27Y-73.9
X79.53Y-102.1
X79.76Y-87.86
X79.94Y-71.389
X80.041Y-65.96
X80.96Y-69.37
X81.011Y-88.053
X81.75Y-74.4
X82.12Y-76.61
X82.22Y-87.62
X82.57Y-81.49
X83.069Y-87.62
X83.345Y-78.386
X83.68Y-77.66
X83.85Y-83.45
X83.868Y-87.66
X84.27Y-85.211
X84.5Y-69.98
X84.69Y-87.521
X84.81Y-79.88
X86.47Y-63.03
X86.56Y-95.38
X86.92Y-78.92
X87.409Y-87.511
X88.21Y-88.07
X88.4Y-84.62
X88.73Y-105.56
X89.02Y-86.72
X89.09Y-88.98
X89.38Y-57.24
X89.64Y-98.83
X89.707Y-83.703
X89.98Y-75.86
X90.23Y-80.81
T3
X73.28Y-56.89
X73.28Y-59.43
X73.28Y-61.97
X73.28Y-64.51
X73.28Y-67.05
X73.28Y-69.59
X73.28Y-72.13
X73.28Y-74.67
X73.28Y-77.21
X73.28Y-79.75
X73.28Y-82.29
X73.28Y-84.83
X73.28Y-87.37
X73.28Y-89.91
X73.28Y-92.45
X73.28Y-94.99
X73.28Y-97.53
X73.28Y-100.07
X73.28Y-102.61
X73.28Y-105.15
X79.58Y-104.9
X82.12Y-104.9
X84.66Y-104.9
X91.06Y-56.89
X91.06Y-59.43
X91.06Y-61.97
X91.06Y-64.51
X91.06Y-67.05
X91.06Y-69.59
X91.06Y-72.13
X91.06Y-74.67
X91.06Y-77.21
X91.06Y-79.75
X91.06Y-82.29
X91.06Y-84.83
X91.06Y-87.37
X91.06Y-89.91
X91.06Y-92.45
X91.06Y-94.99
X91.06Y-97.53
X91.06Y-100.07
X91.06Y-102.61
X91.06Y-105.15
T2
G00X77.85Y-57.27
M15
G01X77.85Y-56.67
M16
G05
G00X77.85Y-61.7
M15
G01X77.85Y-60.6
M16
G05
G00X86.49Y-57.27
M15
G01X86.49Y-56.67
M16
G05
G00X86.49Y-61.7
M15
G01X86.49Y-60.6
M16
G05
M30
