%TF.GenerationSoftware,KiCad,Pcbnew,9.0.6*%
%TF.CreationDate,2025-12-14T11:18:03-08:00*%
%TF.ProjectId,devboard,64657662-6f61-4726-942e-6b696361645f,rev?*%
%TF.SameCoordinates,Original*%
%TF.FileFunction,Legend,Top*%
%TF.FilePolarity,Positive*%
%FSLAX46Y46*%
G04 Gerber Fmt 4.6, Leading zero omitted, Abs format (unit mm)*
G04 Created by KiCad (PCBNEW 9.0.6) date 2025-12-14 11:18:03*
%MOMM*%
%LPD*%
G01*
G04 APERTURE LIST*
%ADD10C,0.000000*%
%ADD11C,0.087500*%
%ADD12C,0.150000*%
%ADD13C,0.120000*%
G04 APERTURE END LIST*
D10*
G36*
X83731941Y-72744942D02*
G01*
X83748540Y-72746206D01*
X83764899Y-72748288D01*
X83780998Y-72751166D01*
X83796815Y-72754821D01*
X83812330Y-72759231D01*
X83827523Y-72764377D01*
X83842372Y-72770236D01*
X83856858Y-72776790D01*
X83870959Y-72784017D01*
X83884655Y-72791896D01*
X83897925Y-72800407D01*
X83910749Y-72809530D01*
X83923106Y-72819243D01*
X83934976Y-72829527D01*
X83946337Y-72840360D01*
X83957170Y-72851721D01*
X83967453Y-72863591D01*
X83977166Y-72875949D01*
X83986288Y-72888773D01*
X83994799Y-72902044D01*
X84002678Y-72915741D01*
X84009905Y-72929843D01*
X84016458Y-72944329D01*
X84022318Y-72959179D01*
X84027463Y-72974373D01*
X84031874Y-72989889D01*
X84035528Y-73005707D01*
X84038407Y-73021807D01*
X84040488Y-73038168D01*
X84041752Y-73054768D01*
X84042178Y-73071589D01*
X84041752Y-73088408D01*
X84040488Y-73105007D01*
X84038407Y-73121366D01*
X84035528Y-73137465D01*
X84031874Y-73153282D01*
X84027463Y-73168797D01*
X84022318Y-73183990D01*
X84016458Y-73198839D01*
X84009905Y-73213325D01*
X84002678Y-73227426D01*
X83994799Y-73241122D01*
X83986288Y-73254392D01*
X83977166Y-73267216D01*
X83967453Y-73279573D01*
X83957170Y-73291443D01*
X83946337Y-73302804D01*
X83934976Y-73313637D01*
X83923106Y-73323920D01*
X83910749Y-73333633D01*
X83897925Y-73342755D01*
X83884655Y-73351266D01*
X83870959Y-73359145D01*
X83856858Y-73366372D01*
X83842372Y-73372925D01*
X83827523Y-73378785D01*
X83812330Y-73383930D01*
X83796815Y-73388341D01*
X83780998Y-73391995D01*
X83764899Y-73394874D01*
X83748540Y-73396955D01*
X83731941Y-73398219D01*
X83715122Y-73398645D01*
X83698301Y-73398219D01*
X83681701Y-73396955D01*
X83665340Y-73394874D01*
X83649240Y-73391995D01*
X83633422Y-73388341D01*
X83617906Y-73383930D01*
X83602712Y-73378785D01*
X83587862Y-73372925D01*
X83573376Y-73366372D01*
X83559274Y-73359145D01*
X83545577Y-73351266D01*
X83532306Y-73342755D01*
X83519482Y-73333633D01*
X83507124Y-73323920D01*
X83495254Y-73313637D01*
X83483892Y-73302804D01*
X83473060Y-73291443D01*
X83462776Y-73279573D01*
X83453063Y-73267216D01*
X83443940Y-73254392D01*
X83435429Y-73241122D01*
X83427550Y-73227426D01*
X83420323Y-73213325D01*
X83413769Y-73198839D01*
X83407910Y-73183990D01*
X83402764Y-73168797D01*
X83398354Y-73153282D01*
X83394699Y-73137465D01*
X83391821Y-73121366D01*
X83389739Y-73105007D01*
X83388475Y-73088408D01*
X83388049Y-73071589D01*
X83388475Y-73054768D01*
X83389739Y-73038168D01*
X83391821Y-73021807D01*
X83394699Y-73005707D01*
X83398354Y-72989889D01*
X83402764Y-72974373D01*
X83407910Y-72959179D01*
X83413769Y-72944329D01*
X83420323Y-72929843D01*
X83427550Y-72915741D01*
X83435429Y-72902044D01*
X83443940Y-72888773D01*
X83453063Y-72875949D01*
X83462776Y-72863591D01*
X83473060Y-72851721D01*
X83483892Y-72840360D01*
X83495254Y-72829527D01*
X83507124Y-72819243D01*
X83519482Y-72809530D01*
X83532306Y-72800407D01*
X83545577Y-72791896D01*
X83559274Y-72784017D01*
X83573376Y-72776790D01*
X83587862Y-72770236D01*
X83602712Y-72764377D01*
X83617906Y-72759231D01*
X83633422Y-72754821D01*
X83649240Y-72751166D01*
X83665340Y-72748288D01*
X83681701Y-72746206D01*
X83698301Y-72744942D01*
X83715122Y-72744516D01*
X83731941Y-72744942D01*
G37*
G36*
X85638790Y-71080499D02*
G01*
X85777928Y-71301124D01*
X85909007Y-71517766D01*
X86031724Y-71731548D01*
X86145777Y-71943595D01*
X86250862Y-72155030D01*
X86299946Y-72260869D01*
X86346676Y-72366977D01*
X86391012Y-72473493D01*
X86432916Y-72580560D01*
X86472352Y-72688316D01*
X86509280Y-72796904D01*
X87773803Y-72340291D01*
X87838509Y-72519457D01*
X86564938Y-72979339D01*
X86595243Y-73091682D01*
X86622864Y-73205388D01*
X86647762Y-73320602D01*
X86669899Y-73437470D01*
X86689237Y-73556136D01*
X86705736Y-73676745D01*
X86719360Y-73799444D01*
X86730070Y-73924378D01*
X87272106Y-73994879D01*
X87247531Y-74183776D01*
X86740642Y-74117847D01*
X86741627Y-74147343D01*
X86744579Y-74242545D01*
X86554175Y-74248450D01*
X86551222Y-74153248D01*
X86550200Y-74122990D01*
X86548999Y-74092923D01*
X85108693Y-73905582D01*
X85133266Y-73716670D01*
X86537014Y-73899263D01*
X86526502Y-73786657D01*
X86513501Y-73675919D01*
X86498046Y-73566935D01*
X86480168Y-73459590D01*
X86459900Y-73353769D01*
X86437276Y-73249357D01*
X86412329Y-73146239D01*
X86385091Y-73044300D01*
X85181749Y-73478814D01*
X85117043Y-73299649D01*
X86329829Y-72861706D01*
X86295902Y-72761301D01*
X86259759Y-72661658D01*
X86221432Y-72562658D01*
X86180958Y-72464181D01*
X86093698Y-72268324D01*
X85998250Y-72073133D01*
X85894885Y-71877657D01*
X85783875Y-71680944D01*
X85665489Y-71482042D01*
X85540000Y-71280000D01*
X84452324Y-72300397D01*
X84401795Y-72287618D01*
X84112127Y-72219689D01*
X83826428Y-72163390D01*
X83544634Y-72118535D01*
X83266679Y-72084935D01*
X82992500Y-72062402D01*
X82722031Y-72050750D01*
X82455208Y-72049790D01*
X82191967Y-72059335D01*
X81932243Y-72079198D01*
X81675972Y-72109191D01*
X81423089Y-72149126D01*
X81173530Y-72198817D01*
X80927230Y-72258074D01*
X80684124Y-72326711D01*
X80444149Y-72404540D01*
X80207239Y-72491373D01*
X80153153Y-72512360D01*
X78827003Y-71338960D01*
X78746602Y-71552655D01*
X78672755Y-71763586D01*
X78605624Y-71972584D01*
X78545373Y-72180481D01*
X78492164Y-72388109D01*
X78446161Y-72596300D01*
X78407526Y-72805884D01*
X78376423Y-73017693D01*
X79588019Y-73461162D01*
X79522534Y-73640057D01*
X78354849Y-73212654D01*
X78346063Y-73316592D01*
X78339091Y-73421499D01*
X78333949Y-73527466D01*
X78330655Y-73634582D01*
X78329228Y-73742936D01*
X78329685Y-73852620D01*
X78332044Y-73963722D01*
X78336323Y-74076333D01*
X79460653Y-74048362D01*
X79465384Y-74238814D01*
X78347689Y-74266612D01*
X78351636Y-74318307D01*
X78355974Y-74370344D01*
X78360702Y-74422736D01*
X78365818Y-74475495D01*
X78375328Y-74570268D01*
X78185780Y-74589286D01*
X78176271Y-74494513D01*
X78170808Y-74438120D01*
X78165778Y-74382135D01*
X78161175Y-74326547D01*
X78156999Y-74271342D01*
X77220723Y-74294630D01*
X77215992Y-74104194D01*
X78145759Y-74081064D01*
X78141203Y-73958765D01*
X78138844Y-73838193D01*
X78138661Y-73719239D01*
X78140634Y-73601792D01*
X78144741Y-73485742D01*
X78150963Y-73370978D01*
X78159278Y-73257390D01*
X78169667Y-73144868D01*
X76609694Y-72573876D01*
X76675179Y-72394997D01*
X78192717Y-72950447D01*
X78227941Y-72723284D01*
X78271587Y-72498402D01*
X78323469Y-72274819D01*
X78383402Y-72051557D01*
X78451200Y-71827633D01*
X78526677Y-71602068D01*
X78609646Y-71373882D01*
X78699924Y-71142094D01*
X78750247Y-71016697D01*
X80192666Y-72292968D01*
X80430768Y-72207805D01*
X80671879Y-72131456D01*
X80916059Y-72064101D01*
X81163371Y-72005926D01*
X81413877Y-71957112D01*
X81667638Y-71917842D01*
X81924716Y-71888298D01*
X82185173Y-71868665D01*
X82449070Y-71859123D01*
X82716469Y-71859857D01*
X82987433Y-71871049D01*
X83262022Y-71892882D01*
X83540299Y-71925538D01*
X83822326Y-71969201D01*
X84108163Y-72024052D01*
X84397874Y-72090276D01*
X85576957Y-70984122D01*
X85638790Y-71080499D01*
G37*
G36*
X82523036Y-73739784D02*
G01*
X82533692Y-73788637D01*
X82547112Y-73836183D01*
X82563349Y-73882402D01*
X82582452Y-73927272D01*
X82604473Y-73970775D01*
X82629463Y-74012889D01*
X82657472Y-74053595D01*
X82688551Y-74092871D01*
X82722751Y-74130699D01*
X82760123Y-74167057D01*
X82800719Y-74201925D01*
X82844587Y-74235283D01*
X82891781Y-74267111D01*
X82942350Y-74297388D01*
X82996345Y-74326094D01*
X83053817Y-74353209D01*
X83148114Y-74395103D01*
X83064326Y-74583714D01*
X82970029Y-74541804D01*
X82920044Y-74518597D01*
X82872227Y-74494372D01*
X82826550Y-74469143D01*
X82782986Y-74442923D01*
X82741506Y-74415728D01*
X82702083Y-74387570D01*
X82664689Y-74358464D01*
X82629296Y-74328424D01*
X82595876Y-74297464D01*
X82564402Y-74265598D01*
X82534846Y-74232840D01*
X82507181Y-74199203D01*
X82481377Y-74164703D01*
X82457409Y-74129352D01*
X82435247Y-74093165D01*
X82414864Y-74056156D01*
X82393193Y-74094071D01*
X82370259Y-74130838D01*
X82346095Y-74166486D01*
X82320732Y-74201043D01*
X82294202Y-74234540D01*
X82266536Y-74267005D01*
X82237767Y-74298466D01*
X82207925Y-74328954D01*
X82177044Y-74358497D01*
X82145153Y-74387124D01*
X82112286Y-74414864D01*
X82078474Y-74441747D01*
X82043748Y-74467801D01*
X82008140Y-74493055D01*
X81971683Y-74517538D01*
X81934407Y-74541280D01*
X81846730Y-74595684D01*
X81737906Y-74420329D01*
X81825584Y-74365925D01*
X81869244Y-74337872D01*
X81911600Y-74308628D01*
X81952570Y-74278119D01*
X81992071Y-74246272D01*
X82030021Y-74213013D01*
X82066340Y-74178269D01*
X82100945Y-74141965D01*
X82133753Y-74104027D01*
X82164684Y-74064383D01*
X82193655Y-74022957D01*
X82220585Y-73979678D01*
X82245391Y-73934469D01*
X82267991Y-73887259D01*
X82288305Y-73837973D01*
X82306249Y-73786537D01*
X82321741Y-73732878D01*
X82523036Y-73739784D01*
G37*
G36*
X81024334Y-72909979D02*
G01*
X81040934Y-72911243D01*
X81057295Y-72913324D01*
X81073395Y-72916203D01*
X81089213Y-72919857D01*
X81104729Y-72924268D01*
X81119923Y-72929413D01*
X81134773Y-72935273D01*
X81149259Y-72941826D01*
X81163361Y-72949053D01*
X81177058Y-72956932D01*
X81190329Y-72965443D01*
X81203153Y-72974566D01*
X81215511Y-72984279D01*
X81227381Y-72994562D01*
X81238743Y-73005394D01*
X81249576Y-73016755D01*
X81259859Y-73028625D01*
X81269572Y-73040982D01*
X81278695Y-73053806D01*
X81287206Y-73067076D01*
X81295085Y-73080772D01*
X81302312Y-73094873D01*
X81308866Y-73109359D01*
X81314725Y-73124208D01*
X81319871Y-73139401D01*
X81324281Y-73154916D01*
X81327936Y-73170733D01*
X81330814Y-73186832D01*
X81332896Y-73203191D01*
X81334160Y-73219791D01*
X81334586Y-73236609D01*
X81334160Y-73253430D01*
X81332896Y-73270030D01*
X81330814Y-73286391D01*
X81327936Y-73302491D01*
X81324281Y-73318309D01*
X81319871Y-73333825D01*
X81314725Y-73349019D01*
X81308866Y-73363869D01*
X81302312Y-73378355D01*
X81295085Y-73392457D01*
X81287206Y-73406154D01*
X81278695Y-73419425D01*
X81269572Y-73432249D01*
X81259859Y-73444607D01*
X81249576Y-73456477D01*
X81238743Y-73467839D01*
X81227381Y-73478671D01*
X81215511Y-73488955D01*
X81203153Y-73498668D01*
X81190329Y-73507791D01*
X81177058Y-73516302D01*
X81163361Y-73524181D01*
X81149259Y-73531408D01*
X81134773Y-73537962D01*
X81119923Y-73543822D01*
X81104729Y-73548967D01*
X81089213Y-73553377D01*
X81073395Y-73557032D01*
X81057295Y-73559910D01*
X81040934Y-73561992D01*
X81024334Y-73563256D01*
X81007513Y-73563682D01*
X80990694Y-73563256D01*
X80974095Y-73561992D01*
X80957736Y-73559910D01*
X80941637Y-73557032D01*
X80925820Y-73553377D01*
X80910305Y-73548967D01*
X80895112Y-73543822D01*
X80880263Y-73537962D01*
X80865777Y-73531408D01*
X80851676Y-73524181D01*
X80837980Y-73516302D01*
X80824710Y-73507791D01*
X80811886Y-73498668D01*
X80799529Y-73488955D01*
X80787659Y-73478671D01*
X80776298Y-73467839D01*
X80765466Y-73456477D01*
X80755182Y-73444607D01*
X80745469Y-73432249D01*
X80736347Y-73419425D01*
X80727836Y-73406154D01*
X80719957Y-73392457D01*
X80712730Y-73378355D01*
X80706177Y-73363869D01*
X80700317Y-73349019D01*
X80695172Y-73333825D01*
X80690761Y-73318309D01*
X80687107Y-73302491D01*
X80684228Y-73286391D01*
X80682147Y-73270030D01*
X80680883Y-73253430D01*
X80680457Y-73236609D01*
X80680883Y-73219791D01*
X80682147Y-73203191D01*
X80684228Y-73186832D01*
X80687107Y-73170733D01*
X80690761Y-73154916D01*
X80695172Y-73139401D01*
X80700317Y-73124208D01*
X80706177Y-73109359D01*
X80712730Y-73094873D01*
X80719957Y-73080772D01*
X80727836Y-73067076D01*
X80736347Y-73053806D01*
X80745469Y-73040982D01*
X80755182Y-73028625D01*
X80765466Y-73016755D01*
X80776298Y-73005394D01*
X80787659Y-72994562D01*
X80799529Y-72984279D01*
X80811886Y-72974566D01*
X80824710Y-72965443D01*
X80837980Y-72956932D01*
X80851676Y-72949053D01*
X80865777Y-72941826D01*
X80880263Y-72935273D01*
X80895112Y-72929413D01*
X80910305Y-72924268D01*
X80925820Y-72919857D01*
X80941637Y-72916203D01*
X80957736Y-72913324D01*
X80974095Y-72911243D01*
X80990694Y-72909979D01*
X81007513Y-72909553D01*
X81024334Y-72909979D01*
G37*
D11*
X87627565Y-66699783D02*
X88060898Y-66699783D01*
X88060898Y-66699783D02*
X87827565Y-66966450D01*
X87827565Y-66966450D02*
X87927565Y-66966450D01*
X87927565Y-66966450D02*
X87994231Y-66999783D01*
X87994231Y-66999783D02*
X88027565Y-67033116D01*
X88027565Y-67033116D02*
X88060898Y-67099783D01*
X88060898Y-67099783D02*
X88060898Y-67266450D01*
X88060898Y-67266450D02*
X88027565Y-67333116D01*
X88027565Y-67333116D02*
X87994231Y-67366450D01*
X87994231Y-67366450D02*
X87927565Y-67399783D01*
X87927565Y-67399783D02*
X87727565Y-67399783D01*
X87727565Y-67399783D02*
X87660898Y-67366450D01*
X87660898Y-67366450D02*
X87627565Y-67333116D01*
X88260898Y-66699783D02*
X88494232Y-67399783D01*
X88494232Y-67399783D02*
X88727565Y-66699783D01*
X88894232Y-66699783D02*
X89327565Y-66699783D01*
X89327565Y-66699783D02*
X89094232Y-66966450D01*
X89094232Y-66966450D02*
X89194232Y-66966450D01*
X89194232Y-66966450D02*
X89260898Y-66999783D01*
X89260898Y-66999783D02*
X89294232Y-67033116D01*
X89294232Y-67033116D02*
X89327565Y-67099783D01*
X89327565Y-67099783D02*
X89327565Y-67266450D01*
X89327565Y-67266450D02*
X89294232Y-67333116D01*
X89294232Y-67333116D02*
X89260898Y-67366450D01*
X89260898Y-67366450D02*
X89194232Y-67399783D01*
X89194232Y-67399783D02*
X88994232Y-67399783D01*
X88994232Y-67399783D02*
X88927565Y-67366450D01*
X88927565Y-67366450D02*
X88894232Y-67333116D01*
X75160898Y-64136450D02*
X75194231Y-64103116D01*
X75194231Y-64103116D02*
X75260898Y-64069783D01*
X75260898Y-64069783D02*
X75427565Y-64069783D01*
X75427565Y-64069783D02*
X75494231Y-64103116D01*
X75494231Y-64103116D02*
X75527565Y-64136450D01*
X75527565Y-64136450D02*
X75560898Y-64203116D01*
X75560898Y-64203116D02*
X75560898Y-64269783D01*
X75560898Y-64269783D02*
X75527565Y-64369783D01*
X75527565Y-64369783D02*
X75127565Y-64769783D01*
X75127565Y-64769783D02*
X75560898Y-64769783D01*
X75540898Y-86913116D02*
X75474231Y-86879783D01*
X75474231Y-86879783D02*
X75374231Y-86879783D01*
X75374231Y-86879783D02*
X75274231Y-86913116D01*
X75274231Y-86913116D02*
X75207565Y-86979783D01*
X75207565Y-86979783D02*
X75174231Y-87046450D01*
X75174231Y-87046450D02*
X75140898Y-87179783D01*
X75140898Y-87179783D02*
X75140898Y-87279783D01*
X75140898Y-87279783D02*
X75174231Y-87413116D01*
X75174231Y-87413116D02*
X75207565Y-87479783D01*
X75207565Y-87479783D02*
X75274231Y-87546450D01*
X75274231Y-87546450D02*
X75374231Y-87579783D01*
X75374231Y-87579783D02*
X75440898Y-87579783D01*
X75440898Y-87579783D02*
X75540898Y-87546450D01*
X75540898Y-87546450D02*
X75574231Y-87513116D01*
X75574231Y-87513116D02*
X75574231Y-87279783D01*
X75574231Y-87279783D02*
X75440898Y-87279783D01*
X75874231Y-87579783D02*
X75874231Y-86879783D01*
X75874231Y-86879783D02*
X76274231Y-87579783D01*
X76274231Y-87579783D02*
X76274231Y-86879783D01*
X76607564Y-87579783D02*
X76607564Y-86879783D01*
X76607564Y-86879783D02*
X76774231Y-86879783D01*
X76774231Y-86879783D02*
X76874231Y-86913116D01*
X76874231Y-86913116D02*
X76940898Y-86979783D01*
X76940898Y-86979783D02*
X76974231Y-87046450D01*
X76974231Y-87046450D02*
X77007564Y-87179783D01*
X77007564Y-87179783D02*
X77007564Y-87279783D01*
X77007564Y-87279783D02*
X76974231Y-87413116D01*
X76974231Y-87413116D02*
X76940898Y-87479783D01*
X76940898Y-87479783D02*
X76874231Y-87546450D01*
X76874231Y-87546450D02*
X76774231Y-87579783D01*
X76774231Y-87579783D02*
X76607564Y-87579783D01*
X88120898Y-89606450D02*
X88154231Y-89573116D01*
X88154231Y-89573116D02*
X88220898Y-89539783D01*
X88220898Y-89539783D02*
X88387565Y-89539783D01*
X88387565Y-89539783D02*
X88454231Y-89573116D01*
X88454231Y-89573116D02*
X88487565Y-89606450D01*
X88487565Y-89606450D02*
X88520898Y-89673116D01*
X88520898Y-89673116D02*
X88520898Y-89739783D01*
X88520898Y-89739783D02*
X88487565Y-89839783D01*
X88487565Y-89839783D02*
X88087565Y-90239783D01*
X88087565Y-90239783D02*
X88520898Y-90239783D01*
X89187565Y-90239783D02*
X88787565Y-90239783D01*
X88987565Y-90239783D02*
X88987565Y-89539783D01*
X88987565Y-89539783D02*
X88920898Y-89639783D01*
X88920898Y-89639783D02*
X88854232Y-89706450D01*
X88854232Y-89706450D02*
X88787565Y-89739783D01*
X88500898Y-97869783D02*
X88100898Y-97869783D01*
X88300898Y-97869783D02*
X88300898Y-97169783D01*
X88300898Y-97169783D02*
X88234231Y-97269783D01*
X88234231Y-97269783D02*
X88167565Y-97336450D01*
X88167565Y-97336450D02*
X88100898Y-97369783D01*
X88900898Y-97469783D02*
X88834232Y-97436450D01*
X88834232Y-97436450D02*
X88800898Y-97403116D01*
X88800898Y-97403116D02*
X88767565Y-97336450D01*
X88767565Y-97336450D02*
X88767565Y-97303116D01*
X88767565Y-97303116D02*
X88800898Y-97236450D01*
X88800898Y-97236450D02*
X88834232Y-97203116D01*
X88834232Y-97203116D02*
X88900898Y-97169783D01*
X88900898Y-97169783D02*
X89034232Y-97169783D01*
X89034232Y-97169783D02*
X89100898Y-97203116D01*
X89100898Y-97203116D02*
X89134232Y-97236450D01*
X89134232Y-97236450D02*
X89167565Y-97303116D01*
X89167565Y-97303116D02*
X89167565Y-97336450D01*
X89167565Y-97336450D02*
X89134232Y-97403116D01*
X89134232Y-97403116D02*
X89100898Y-97436450D01*
X89100898Y-97436450D02*
X89034232Y-97469783D01*
X89034232Y-97469783D02*
X88900898Y-97469783D01*
X88900898Y-97469783D02*
X88834232Y-97503116D01*
X88834232Y-97503116D02*
X88800898Y-97536450D01*
X88800898Y-97536450D02*
X88767565Y-97603116D01*
X88767565Y-97603116D02*
X88767565Y-97736450D01*
X88767565Y-97736450D02*
X88800898Y-97803116D01*
X88800898Y-97803116D02*
X88834232Y-97836450D01*
X88834232Y-97836450D02*
X88900898Y-97869783D01*
X88900898Y-97869783D02*
X89034232Y-97869783D01*
X89034232Y-97869783D02*
X89100898Y-97836450D01*
X89100898Y-97836450D02*
X89134232Y-97803116D01*
X89134232Y-97803116D02*
X89167565Y-97736450D01*
X89167565Y-97736450D02*
X89167565Y-97603116D01*
X89167565Y-97603116D02*
X89134232Y-97536450D01*
X89134232Y-97536450D02*
X89100898Y-97503116D01*
X89100898Y-97503116D02*
X89034232Y-97469783D01*
X88460898Y-95319783D02*
X88060898Y-95319783D01*
X88260898Y-95319783D02*
X88260898Y-94619783D01*
X88260898Y-94619783D02*
X88194231Y-94719783D01*
X88194231Y-94719783D02*
X88127565Y-94786450D01*
X88127565Y-94786450D02*
X88060898Y-94819783D01*
X88794232Y-95319783D02*
X88927565Y-95319783D01*
X88927565Y-95319783D02*
X88994232Y-95286450D01*
X88994232Y-95286450D02*
X89027565Y-95253116D01*
X89027565Y-95253116D02*
X89094232Y-95153116D01*
X89094232Y-95153116D02*
X89127565Y-95019783D01*
X89127565Y-95019783D02*
X89127565Y-94753116D01*
X89127565Y-94753116D02*
X89094232Y-94686450D01*
X89094232Y-94686450D02*
X89060898Y-94653116D01*
X89060898Y-94653116D02*
X88994232Y-94619783D01*
X88994232Y-94619783D02*
X88860898Y-94619783D01*
X88860898Y-94619783D02*
X88794232Y-94653116D01*
X88794232Y-94653116D02*
X88760898Y-94686450D01*
X88760898Y-94686450D02*
X88727565Y-94753116D01*
X88727565Y-94753116D02*
X88727565Y-94919783D01*
X88727565Y-94919783D02*
X88760898Y-94986450D01*
X88760898Y-94986450D02*
X88794232Y-95019783D01*
X88794232Y-95019783D02*
X88860898Y-95053116D01*
X88860898Y-95053116D02*
X88994232Y-95053116D01*
X88994232Y-95053116D02*
X89060898Y-95019783D01*
X89060898Y-95019783D02*
X89094232Y-94986450D01*
X89094232Y-94986450D02*
X89127565Y-94919783D01*
X75500898Y-97749783D02*
X75100898Y-97749783D01*
X75300898Y-97749783D02*
X75300898Y-97049783D01*
X75300898Y-97049783D02*
X75234231Y-97149783D01*
X75234231Y-97149783D02*
X75167565Y-97216450D01*
X75167565Y-97216450D02*
X75100898Y-97249783D01*
X75734232Y-97049783D02*
X76167565Y-97049783D01*
X76167565Y-97049783D02*
X75934232Y-97316450D01*
X75934232Y-97316450D02*
X76034232Y-97316450D01*
X76034232Y-97316450D02*
X76100898Y-97349783D01*
X76100898Y-97349783D02*
X76134232Y-97383116D01*
X76134232Y-97383116D02*
X76167565Y-97449783D01*
X76167565Y-97449783D02*
X76167565Y-97616450D01*
X76167565Y-97616450D02*
X76134232Y-97683116D01*
X76134232Y-97683116D02*
X76100898Y-97716450D01*
X76100898Y-97716450D02*
X76034232Y-97749783D01*
X76034232Y-97749783D02*
X75834232Y-97749783D01*
X75834232Y-97749783D02*
X75767565Y-97716450D01*
X75767565Y-97716450D02*
X75734232Y-97683116D01*
X75470898Y-74333116D02*
X75404231Y-74299783D01*
X75404231Y-74299783D02*
X75304231Y-74299783D01*
X75304231Y-74299783D02*
X75204231Y-74333116D01*
X75204231Y-74333116D02*
X75137565Y-74399783D01*
X75137565Y-74399783D02*
X75104231Y-74466450D01*
X75104231Y-74466450D02*
X75070898Y-74599783D01*
X75070898Y-74599783D02*
X75070898Y-74699783D01*
X75070898Y-74699783D02*
X75104231Y-74833116D01*
X75104231Y-74833116D02*
X75137565Y-74899783D01*
X75137565Y-74899783D02*
X75204231Y-74966450D01*
X75204231Y-74966450D02*
X75304231Y-74999783D01*
X75304231Y-74999783D02*
X75370898Y-74999783D01*
X75370898Y-74999783D02*
X75470898Y-74966450D01*
X75470898Y-74966450D02*
X75504231Y-74933116D01*
X75504231Y-74933116D02*
X75504231Y-74699783D01*
X75504231Y-74699783D02*
X75370898Y-74699783D01*
X75804231Y-74999783D02*
X75804231Y-74299783D01*
X75804231Y-74299783D02*
X76204231Y-74999783D01*
X76204231Y-74999783D02*
X76204231Y-74299783D01*
X76537564Y-74999783D02*
X76537564Y-74299783D01*
X76537564Y-74299783D02*
X76704231Y-74299783D01*
X76704231Y-74299783D02*
X76804231Y-74333116D01*
X76804231Y-74333116D02*
X76870898Y-74399783D01*
X76870898Y-74399783D02*
X76904231Y-74466450D01*
X76904231Y-74466450D02*
X76937564Y-74599783D01*
X76937564Y-74599783D02*
X76937564Y-74699783D01*
X76937564Y-74699783D02*
X76904231Y-74833116D01*
X76904231Y-74833116D02*
X76870898Y-74899783D01*
X76870898Y-74899783D02*
X76804231Y-74966450D01*
X76804231Y-74966450D02*
X76704231Y-74999783D01*
X76704231Y-74999783D02*
X76537564Y-74999783D01*
X86884231Y-56629783D02*
X87117565Y-57329783D01*
X87117565Y-57329783D02*
X87350898Y-56629783D01*
X87817565Y-56963116D02*
X87917565Y-56996450D01*
X87917565Y-56996450D02*
X87950898Y-57029783D01*
X87950898Y-57029783D02*
X87984231Y-57096450D01*
X87984231Y-57096450D02*
X87984231Y-57196450D01*
X87984231Y-57196450D02*
X87950898Y-57263116D01*
X87950898Y-57263116D02*
X87917565Y-57296450D01*
X87917565Y-57296450D02*
X87850898Y-57329783D01*
X87850898Y-57329783D02*
X87584231Y-57329783D01*
X87584231Y-57329783D02*
X87584231Y-56629783D01*
X87584231Y-56629783D02*
X87817565Y-56629783D01*
X87817565Y-56629783D02*
X87884231Y-56663116D01*
X87884231Y-56663116D02*
X87917565Y-56696450D01*
X87917565Y-56696450D02*
X87950898Y-56763116D01*
X87950898Y-56763116D02*
X87950898Y-56829783D01*
X87950898Y-56829783D02*
X87917565Y-56896450D01*
X87917565Y-56896450D02*
X87884231Y-56929783D01*
X87884231Y-56929783D02*
X87817565Y-56963116D01*
X87817565Y-56963116D02*
X87584231Y-56963116D01*
X88284231Y-56629783D02*
X88284231Y-57196450D01*
X88284231Y-57196450D02*
X88317565Y-57263116D01*
X88317565Y-57263116D02*
X88350898Y-57296450D01*
X88350898Y-57296450D02*
X88417565Y-57329783D01*
X88417565Y-57329783D02*
X88550898Y-57329783D01*
X88550898Y-57329783D02*
X88617565Y-57296450D01*
X88617565Y-57296450D02*
X88650898Y-57263116D01*
X88650898Y-57263116D02*
X88684231Y-57196450D01*
X88684231Y-57196450D02*
X88684231Y-56629783D01*
X88984231Y-57296450D02*
X89084231Y-57329783D01*
X89084231Y-57329783D02*
X89250898Y-57329783D01*
X89250898Y-57329783D02*
X89317564Y-57296450D01*
X89317564Y-57296450D02*
X89350898Y-57263116D01*
X89350898Y-57263116D02*
X89384231Y-57196450D01*
X89384231Y-57196450D02*
X89384231Y-57129783D01*
X89384231Y-57129783D02*
X89350898Y-57063116D01*
X89350898Y-57063116D02*
X89317564Y-57029783D01*
X89317564Y-57029783D02*
X89250898Y-56996450D01*
X89250898Y-56996450D02*
X89117564Y-56963116D01*
X89117564Y-56963116D02*
X89050898Y-56929783D01*
X89050898Y-56929783D02*
X89017564Y-56896450D01*
X89017564Y-56896450D02*
X88984231Y-56829783D01*
X88984231Y-56829783D02*
X88984231Y-56763116D01*
X88984231Y-56763116D02*
X89017564Y-56696450D01*
X89017564Y-56696450D02*
X89050898Y-56663116D01*
X89050898Y-56663116D02*
X89117564Y-56629783D01*
X89117564Y-56629783D02*
X89284231Y-56629783D01*
X89284231Y-56629783D02*
X89384231Y-56663116D01*
X75167565Y-85109783D02*
X75300898Y-85109783D01*
X75300898Y-85109783D02*
X75367565Y-85076450D01*
X75367565Y-85076450D02*
X75400898Y-85043116D01*
X75400898Y-85043116D02*
X75467565Y-84943116D01*
X75467565Y-84943116D02*
X75500898Y-84809783D01*
X75500898Y-84809783D02*
X75500898Y-84543116D01*
X75500898Y-84543116D02*
X75467565Y-84476450D01*
X75467565Y-84476450D02*
X75434231Y-84443116D01*
X75434231Y-84443116D02*
X75367565Y-84409783D01*
X75367565Y-84409783D02*
X75234231Y-84409783D01*
X75234231Y-84409783D02*
X75167565Y-84443116D01*
X75167565Y-84443116D02*
X75134231Y-84476450D01*
X75134231Y-84476450D02*
X75100898Y-84543116D01*
X75100898Y-84543116D02*
X75100898Y-84709783D01*
X75100898Y-84709783D02*
X75134231Y-84776450D01*
X75134231Y-84776450D02*
X75167565Y-84809783D01*
X75167565Y-84809783D02*
X75234231Y-84843116D01*
X75234231Y-84843116D02*
X75367565Y-84843116D01*
X75367565Y-84843116D02*
X75434231Y-84809783D01*
X75434231Y-84809783D02*
X75467565Y-84776450D01*
X75467565Y-84776450D02*
X75500898Y-84709783D01*
X75137565Y-66549783D02*
X75570898Y-66549783D01*
X75570898Y-66549783D02*
X75337565Y-66816450D01*
X75337565Y-66816450D02*
X75437565Y-66816450D01*
X75437565Y-66816450D02*
X75504231Y-66849783D01*
X75504231Y-66849783D02*
X75537565Y-66883116D01*
X75537565Y-66883116D02*
X75570898Y-66949783D01*
X75570898Y-66949783D02*
X75570898Y-67116450D01*
X75570898Y-67116450D02*
X75537565Y-67183116D01*
X75537565Y-67183116D02*
X75504231Y-67216450D01*
X75504231Y-67216450D02*
X75437565Y-67249783D01*
X75437565Y-67249783D02*
X75237565Y-67249783D01*
X75237565Y-67249783D02*
X75170898Y-67216450D01*
X75170898Y-67216450D02*
X75137565Y-67183116D01*
X87910898Y-59103116D02*
X87844231Y-59069783D01*
X87844231Y-59069783D02*
X87744231Y-59069783D01*
X87744231Y-59069783D02*
X87644231Y-59103116D01*
X87644231Y-59103116D02*
X87577565Y-59169783D01*
X87577565Y-59169783D02*
X87544231Y-59236450D01*
X87544231Y-59236450D02*
X87510898Y-59369783D01*
X87510898Y-59369783D02*
X87510898Y-59469783D01*
X87510898Y-59469783D02*
X87544231Y-59603116D01*
X87544231Y-59603116D02*
X87577565Y-59669783D01*
X87577565Y-59669783D02*
X87644231Y-59736450D01*
X87644231Y-59736450D02*
X87744231Y-59769783D01*
X87744231Y-59769783D02*
X87810898Y-59769783D01*
X87810898Y-59769783D02*
X87910898Y-59736450D01*
X87910898Y-59736450D02*
X87944231Y-59703116D01*
X87944231Y-59703116D02*
X87944231Y-59469783D01*
X87944231Y-59469783D02*
X87810898Y-59469783D01*
X88244231Y-59769783D02*
X88244231Y-59069783D01*
X88244231Y-59069783D02*
X88644231Y-59769783D01*
X88644231Y-59769783D02*
X88644231Y-59069783D01*
X88977564Y-59769783D02*
X88977564Y-59069783D01*
X88977564Y-59069783D02*
X89144231Y-59069783D01*
X89144231Y-59069783D02*
X89244231Y-59103116D01*
X89244231Y-59103116D02*
X89310898Y-59169783D01*
X89310898Y-59169783D02*
X89344231Y-59236450D01*
X89344231Y-59236450D02*
X89377564Y-59369783D01*
X89377564Y-59369783D02*
X89377564Y-59469783D01*
X89377564Y-59469783D02*
X89344231Y-59603116D01*
X89344231Y-59603116D02*
X89310898Y-59669783D01*
X89310898Y-59669783D02*
X89244231Y-59736450D01*
X89244231Y-59736450D02*
X89144231Y-59769783D01*
X89144231Y-59769783D02*
X88977564Y-59769783D01*
X88170898Y-79456450D02*
X88204231Y-79423116D01*
X88204231Y-79423116D02*
X88270898Y-79389783D01*
X88270898Y-79389783D02*
X88437565Y-79389783D01*
X88437565Y-79389783D02*
X88504231Y-79423116D01*
X88504231Y-79423116D02*
X88537565Y-79456450D01*
X88537565Y-79456450D02*
X88570898Y-79523116D01*
X88570898Y-79523116D02*
X88570898Y-79589783D01*
X88570898Y-79589783D02*
X88537565Y-79689783D01*
X88537565Y-79689783D02*
X88137565Y-80089783D01*
X88137565Y-80089783D02*
X88570898Y-80089783D01*
X88804232Y-79389783D02*
X89237565Y-79389783D01*
X89237565Y-79389783D02*
X89004232Y-79656450D01*
X89004232Y-79656450D02*
X89104232Y-79656450D01*
X89104232Y-79656450D02*
X89170898Y-79689783D01*
X89170898Y-79689783D02*
X89204232Y-79723116D01*
X89204232Y-79723116D02*
X89237565Y-79789783D01*
X89237565Y-79789783D02*
X89237565Y-79956450D01*
X89237565Y-79956450D02*
X89204232Y-80023116D01*
X89204232Y-80023116D02*
X89170898Y-80056450D01*
X89170898Y-80056450D02*
X89104232Y-80089783D01*
X89104232Y-80089783D02*
X88904232Y-80089783D01*
X88904232Y-80089783D02*
X88837565Y-80056450D01*
X88837565Y-80056450D02*
X88804232Y-80023116D01*
X88060898Y-92136450D02*
X88094231Y-92103116D01*
X88094231Y-92103116D02*
X88160898Y-92069783D01*
X88160898Y-92069783D02*
X88327565Y-92069783D01*
X88327565Y-92069783D02*
X88394231Y-92103116D01*
X88394231Y-92103116D02*
X88427565Y-92136450D01*
X88427565Y-92136450D02*
X88460898Y-92203116D01*
X88460898Y-92203116D02*
X88460898Y-92269783D01*
X88460898Y-92269783D02*
X88427565Y-92369783D01*
X88427565Y-92369783D02*
X88027565Y-92769783D01*
X88027565Y-92769783D02*
X88460898Y-92769783D01*
X88894232Y-92069783D02*
X88960898Y-92069783D01*
X88960898Y-92069783D02*
X89027565Y-92103116D01*
X89027565Y-92103116D02*
X89060898Y-92136450D01*
X89060898Y-92136450D02*
X89094232Y-92203116D01*
X89094232Y-92203116D02*
X89127565Y-92336450D01*
X89127565Y-92336450D02*
X89127565Y-92503116D01*
X89127565Y-92503116D02*
X89094232Y-92636450D01*
X89094232Y-92636450D02*
X89060898Y-92703116D01*
X89060898Y-92703116D02*
X89027565Y-92736450D01*
X89027565Y-92736450D02*
X88960898Y-92769783D01*
X88960898Y-92769783D02*
X88894232Y-92769783D01*
X88894232Y-92769783D02*
X88827565Y-92736450D01*
X88827565Y-92736450D02*
X88794232Y-92703116D01*
X88794232Y-92703116D02*
X88760898Y-92636450D01*
X88760898Y-92636450D02*
X88727565Y-92503116D01*
X88727565Y-92503116D02*
X88727565Y-92336450D01*
X88727565Y-92336450D02*
X88760898Y-92203116D01*
X88760898Y-92203116D02*
X88794232Y-92136450D01*
X88794232Y-92136450D02*
X88827565Y-92103116D01*
X88827565Y-92103116D02*
X88894232Y-92069783D01*
X88180898Y-76856450D02*
X88214231Y-76823116D01*
X88214231Y-76823116D02*
X88280898Y-76789783D01*
X88280898Y-76789783D02*
X88447565Y-76789783D01*
X88447565Y-76789783D02*
X88514231Y-76823116D01*
X88514231Y-76823116D02*
X88547565Y-76856450D01*
X88547565Y-76856450D02*
X88580898Y-76923116D01*
X88580898Y-76923116D02*
X88580898Y-76989783D01*
X88580898Y-76989783D02*
X88547565Y-77089783D01*
X88547565Y-77089783D02*
X88147565Y-77489783D01*
X88147565Y-77489783D02*
X88580898Y-77489783D01*
X89180898Y-77023116D02*
X89180898Y-77489783D01*
X89014232Y-76756450D02*
X88847565Y-77256450D01*
X88847565Y-77256450D02*
X89280898Y-77256450D01*
X88200898Y-69286450D02*
X88234231Y-69253116D01*
X88234231Y-69253116D02*
X88300898Y-69219783D01*
X88300898Y-69219783D02*
X88467565Y-69219783D01*
X88467565Y-69219783D02*
X88534231Y-69253116D01*
X88534231Y-69253116D02*
X88567565Y-69286450D01*
X88567565Y-69286450D02*
X88600898Y-69353116D01*
X88600898Y-69353116D02*
X88600898Y-69419783D01*
X88600898Y-69419783D02*
X88567565Y-69519783D01*
X88567565Y-69519783D02*
X88167565Y-69919783D01*
X88167565Y-69919783D02*
X88600898Y-69919783D01*
X88834232Y-69219783D02*
X89300898Y-69219783D01*
X89300898Y-69219783D02*
X89000898Y-69919783D01*
X88490898Y-105319783D02*
X88090898Y-105319783D01*
X88290898Y-105319783D02*
X88290898Y-104619783D01*
X88290898Y-104619783D02*
X88224231Y-104719783D01*
X88224231Y-104719783D02*
X88157565Y-104786450D01*
X88157565Y-104786450D02*
X88090898Y-104819783D01*
X89090898Y-104619783D02*
X88957565Y-104619783D01*
X88957565Y-104619783D02*
X88890898Y-104653116D01*
X88890898Y-104653116D02*
X88857565Y-104686450D01*
X88857565Y-104686450D02*
X88790898Y-104786450D01*
X88790898Y-104786450D02*
X88757565Y-104919783D01*
X88757565Y-104919783D02*
X88757565Y-105186450D01*
X88757565Y-105186450D02*
X88790898Y-105253116D01*
X88790898Y-105253116D02*
X88824232Y-105286450D01*
X88824232Y-105286450D02*
X88890898Y-105319783D01*
X88890898Y-105319783D02*
X89024232Y-105319783D01*
X89024232Y-105319783D02*
X89090898Y-105286450D01*
X89090898Y-105286450D02*
X89124232Y-105253116D01*
X89124232Y-105253116D02*
X89157565Y-105186450D01*
X89157565Y-105186450D02*
X89157565Y-105019783D01*
X89157565Y-105019783D02*
X89124232Y-104953116D01*
X89124232Y-104953116D02*
X89090898Y-104919783D01*
X89090898Y-104919783D02*
X89024232Y-104886450D01*
X89024232Y-104886450D02*
X88890898Y-104886450D01*
X88890898Y-104886450D02*
X88824232Y-104919783D01*
X88824232Y-104919783D02*
X88790898Y-104953116D01*
X88790898Y-104953116D02*
X88757565Y-105019783D01*
X75277565Y-56549783D02*
X75344231Y-56549783D01*
X75344231Y-56549783D02*
X75410898Y-56583116D01*
X75410898Y-56583116D02*
X75444231Y-56616450D01*
X75444231Y-56616450D02*
X75477565Y-56683116D01*
X75477565Y-56683116D02*
X75510898Y-56816450D01*
X75510898Y-56816450D02*
X75510898Y-56983116D01*
X75510898Y-56983116D02*
X75477565Y-57116450D01*
X75477565Y-57116450D02*
X75444231Y-57183116D01*
X75444231Y-57183116D02*
X75410898Y-57216450D01*
X75410898Y-57216450D02*
X75344231Y-57249783D01*
X75344231Y-57249783D02*
X75277565Y-57249783D01*
X75277565Y-57249783D02*
X75210898Y-57216450D01*
X75210898Y-57216450D02*
X75177565Y-57183116D01*
X75177565Y-57183116D02*
X75144231Y-57116450D01*
X75144231Y-57116450D02*
X75110898Y-56983116D01*
X75110898Y-56983116D02*
X75110898Y-56816450D01*
X75110898Y-56816450D02*
X75144231Y-56683116D01*
X75144231Y-56683116D02*
X75177565Y-56616450D01*
X75177565Y-56616450D02*
X75210898Y-56583116D01*
X75210898Y-56583116D02*
X75277565Y-56549783D01*
X87830898Y-74313116D02*
X87764231Y-74279783D01*
X87764231Y-74279783D02*
X87664231Y-74279783D01*
X87664231Y-74279783D02*
X87564231Y-74313116D01*
X87564231Y-74313116D02*
X87497565Y-74379783D01*
X87497565Y-74379783D02*
X87464231Y-74446450D01*
X87464231Y-74446450D02*
X87430898Y-74579783D01*
X87430898Y-74579783D02*
X87430898Y-74679783D01*
X87430898Y-74679783D02*
X87464231Y-74813116D01*
X87464231Y-74813116D02*
X87497565Y-74879783D01*
X87497565Y-74879783D02*
X87564231Y-74946450D01*
X87564231Y-74946450D02*
X87664231Y-74979783D01*
X87664231Y-74979783D02*
X87730898Y-74979783D01*
X87730898Y-74979783D02*
X87830898Y-74946450D01*
X87830898Y-74946450D02*
X87864231Y-74913116D01*
X87864231Y-74913116D02*
X87864231Y-74679783D01*
X87864231Y-74679783D02*
X87730898Y-74679783D01*
X88164231Y-74979783D02*
X88164231Y-74279783D01*
X88164231Y-74279783D02*
X88564231Y-74979783D01*
X88564231Y-74979783D02*
X88564231Y-74279783D01*
X88897564Y-74979783D02*
X88897564Y-74279783D01*
X88897564Y-74279783D02*
X89064231Y-74279783D01*
X89064231Y-74279783D02*
X89164231Y-74313116D01*
X89164231Y-74313116D02*
X89230898Y-74379783D01*
X89230898Y-74379783D02*
X89264231Y-74446450D01*
X89264231Y-74446450D02*
X89297564Y-74579783D01*
X89297564Y-74579783D02*
X89297564Y-74679783D01*
X89297564Y-74679783D02*
X89264231Y-74813116D01*
X89264231Y-74813116D02*
X89230898Y-74879783D01*
X89230898Y-74879783D02*
X89164231Y-74946450D01*
X89164231Y-74946450D02*
X89064231Y-74979783D01*
X89064231Y-74979783D02*
X88897564Y-74979783D01*
X75460898Y-61583116D02*
X75394231Y-61549783D01*
X75394231Y-61549783D02*
X75294231Y-61549783D01*
X75294231Y-61549783D02*
X75194231Y-61583116D01*
X75194231Y-61583116D02*
X75127565Y-61649783D01*
X75127565Y-61649783D02*
X75094231Y-61716450D01*
X75094231Y-61716450D02*
X75060898Y-61849783D01*
X75060898Y-61849783D02*
X75060898Y-61949783D01*
X75060898Y-61949783D02*
X75094231Y-62083116D01*
X75094231Y-62083116D02*
X75127565Y-62149783D01*
X75127565Y-62149783D02*
X75194231Y-62216450D01*
X75194231Y-62216450D02*
X75294231Y-62249783D01*
X75294231Y-62249783D02*
X75360898Y-62249783D01*
X75360898Y-62249783D02*
X75460898Y-62216450D01*
X75460898Y-62216450D02*
X75494231Y-62183116D01*
X75494231Y-62183116D02*
X75494231Y-61949783D01*
X75494231Y-61949783D02*
X75360898Y-61949783D01*
X75794231Y-62249783D02*
X75794231Y-61549783D01*
X75794231Y-61549783D02*
X76194231Y-62249783D01*
X76194231Y-62249783D02*
X76194231Y-61549783D01*
X76527564Y-62249783D02*
X76527564Y-61549783D01*
X76527564Y-61549783D02*
X76694231Y-61549783D01*
X76694231Y-61549783D02*
X76794231Y-61583116D01*
X76794231Y-61583116D02*
X76860898Y-61649783D01*
X76860898Y-61649783D02*
X76894231Y-61716450D01*
X76894231Y-61716450D02*
X76927564Y-61849783D01*
X76927564Y-61849783D02*
X76927564Y-61949783D01*
X76927564Y-61949783D02*
X76894231Y-62083116D01*
X76894231Y-62083116D02*
X76860898Y-62149783D01*
X76860898Y-62149783D02*
X76794231Y-62216450D01*
X76794231Y-62216450D02*
X76694231Y-62249783D01*
X76694231Y-62249783D02*
X76527564Y-62249783D01*
X87770898Y-99753116D02*
X87704231Y-99719783D01*
X87704231Y-99719783D02*
X87604231Y-99719783D01*
X87604231Y-99719783D02*
X87504231Y-99753116D01*
X87504231Y-99753116D02*
X87437565Y-99819783D01*
X87437565Y-99819783D02*
X87404231Y-99886450D01*
X87404231Y-99886450D02*
X87370898Y-100019783D01*
X87370898Y-100019783D02*
X87370898Y-100119783D01*
X87370898Y-100119783D02*
X87404231Y-100253116D01*
X87404231Y-100253116D02*
X87437565Y-100319783D01*
X87437565Y-100319783D02*
X87504231Y-100386450D01*
X87504231Y-100386450D02*
X87604231Y-100419783D01*
X87604231Y-100419783D02*
X87670898Y-100419783D01*
X87670898Y-100419783D02*
X87770898Y-100386450D01*
X87770898Y-100386450D02*
X87804231Y-100353116D01*
X87804231Y-100353116D02*
X87804231Y-100119783D01*
X87804231Y-100119783D02*
X87670898Y-100119783D01*
X88104231Y-100419783D02*
X88104231Y-99719783D01*
X88104231Y-99719783D02*
X88504231Y-100419783D01*
X88504231Y-100419783D02*
X88504231Y-99719783D01*
X88837564Y-100419783D02*
X88837564Y-99719783D01*
X88837564Y-99719783D02*
X89004231Y-99719783D01*
X89004231Y-99719783D02*
X89104231Y-99753116D01*
X89104231Y-99753116D02*
X89170898Y-99819783D01*
X89170898Y-99819783D02*
X89204231Y-99886450D01*
X89204231Y-99886450D02*
X89237564Y-100019783D01*
X89237564Y-100019783D02*
X89237564Y-100119783D01*
X89237564Y-100119783D02*
X89204231Y-100253116D01*
X89204231Y-100253116D02*
X89170898Y-100319783D01*
X89170898Y-100319783D02*
X89104231Y-100386450D01*
X89104231Y-100386450D02*
X89004231Y-100419783D01*
X89004231Y-100419783D02*
X88837564Y-100419783D01*
X88230898Y-61646450D02*
X88264231Y-61613116D01*
X88264231Y-61613116D02*
X88330898Y-61579783D01*
X88330898Y-61579783D02*
X88497565Y-61579783D01*
X88497565Y-61579783D02*
X88564231Y-61613116D01*
X88564231Y-61613116D02*
X88597565Y-61646450D01*
X88597565Y-61646450D02*
X88630898Y-61713116D01*
X88630898Y-61713116D02*
X88630898Y-61779783D01*
X88630898Y-61779783D02*
X88597565Y-61879783D01*
X88597565Y-61879783D02*
X88197565Y-62279783D01*
X88197565Y-62279783D02*
X88630898Y-62279783D01*
X88964232Y-62279783D02*
X89097565Y-62279783D01*
X89097565Y-62279783D02*
X89164232Y-62246450D01*
X89164232Y-62246450D02*
X89197565Y-62213116D01*
X89197565Y-62213116D02*
X89264232Y-62113116D01*
X89264232Y-62113116D02*
X89297565Y-61979783D01*
X89297565Y-61979783D02*
X89297565Y-61713116D01*
X89297565Y-61713116D02*
X89264232Y-61646450D01*
X89264232Y-61646450D02*
X89230898Y-61613116D01*
X89230898Y-61613116D02*
X89164232Y-61579783D01*
X89164232Y-61579783D02*
X89030898Y-61579783D01*
X89030898Y-61579783D02*
X88964232Y-61613116D01*
X88964232Y-61613116D02*
X88930898Y-61646450D01*
X88930898Y-61646450D02*
X88897565Y-61713116D01*
X88897565Y-61713116D02*
X88897565Y-61879783D01*
X88897565Y-61879783D02*
X88930898Y-61946450D01*
X88930898Y-61946450D02*
X88964232Y-61979783D01*
X88964232Y-61979783D02*
X89030898Y-62013116D01*
X89030898Y-62013116D02*
X89164232Y-62013116D01*
X89164232Y-62013116D02*
X89230898Y-61979783D01*
X89230898Y-61979783D02*
X89264232Y-61946450D01*
X89264232Y-61946450D02*
X89297565Y-61879783D01*
X75137565Y-79309783D02*
X75604231Y-79309783D01*
X75604231Y-79309783D02*
X75304231Y-80009783D01*
X87814231Y-82689783D02*
X87580898Y-82356450D01*
X87414231Y-82689783D02*
X87414231Y-81989783D01*
X87414231Y-81989783D02*
X87680898Y-81989783D01*
X87680898Y-81989783D02*
X87747565Y-82023116D01*
X87747565Y-82023116D02*
X87780898Y-82056450D01*
X87780898Y-82056450D02*
X87814231Y-82123116D01*
X87814231Y-82123116D02*
X87814231Y-82223116D01*
X87814231Y-82223116D02*
X87780898Y-82289783D01*
X87780898Y-82289783D02*
X87747565Y-82323116D01*
X87747565Y-82323116D02*
X87680898Y-82356450D01*
X87680898Y-82356450D02*
X87414231Y-82356450D01*
X88114231Y-81989783D02*
X88114231Y-82556450D01*
X88114231Y-82556450D02*
X88147565Y-82623116D01*
X88147565Y-82623116D02*
X88180898Y-82656450D01*
X88180898Y-82656450D02*
X88247565Y-82689783D01*
X88247565Y-82689783D02*
X88380898Y-82689783D01*
X88380898Y-82689783D02*
X88447565Y-82656450D01*
X88447565Y-82656450D02*
X88480898Y-82623116D01*
X88480898Y-82623116D02*
X88514231Y-82556450D01*
X88514231Y-82556450D02*
X88514231Y-81989783D01*
X88847564Y-82689783D02*
X88847564Y-81989783D01*
X88847564Y-81989783D02*
X89247564Y-82689783D01*
X89247564Y-82689783D02*
X89247564Y-81989783D01*
X87740898Y-87033116D02*
X87674231Y-86999783D01*
X87674231Y-86999783D02*
X87574231Y-86999783D01*
X87574231Y-86999783D02*
X87474231Y-87033116D01*
X87474231Y-87033116D02*
X87407565Y-87099783D01*
X87407565Y-87099783D02*
X87374231Y-87166450D01*
X87374231Y-87166450D02*
X87340898Y-87299783D01*
X87340898Y-87299783D02*
X87340898Y-87399783D01*
X87340898Y-87399783D02*
X87374231Y-87533116D01*
X87374231Y-87533116D02*
X87407565Y-87599783D01*
X87407565Y-87599783D02*
X87474231Y-87666450D01*
X87474231Y-87666450D02*
X87574231Y-87699783D01*
X87574231Y-87699783D02*
X87640898Y-87699783D01*
X87640898Y-87699783D02*
X87740898Y-87666450D01*
X87740898Y-87666450D02*
X87774231Y-87633116D01*
X87774231Y-87633116D02*
X87774231Y-87399783D01*
X87774231Y-87399783D02*
X87640898Y-87399783D01*
X88074231Y-87699783D02*
X88074231Y-86999783D01*
X88074231Y-86999783D02*
X88474231Y-87699783D01*
X88474231Y-87699783D02*
X88474231Y-86999783D01*
X88807564Y-87699783D02*
X88807564Y-86999783D01*
X88807564Y-86999783D02*
X88974231Y-86999783D01*
X88974231Y-86999783D02*
X89074231Y-87033116D01*
X89074231Y-87033116D02*
X89140898Y-87099783D01*
X89140898Y-87099783D02*
X89174231Y-87166450D01*
X89174231Y-87166450D02*
X89207564Y-87299783D01*
X89207564Y-87299783D02*
X89207564Y-87399783D01*
X89207564Y-87399783D02*
X89174231Y-87533116D01*
X89174231Y-87533116D02*
X89140898Y-87599783D01*
X89140898Y-87599783D02*
X89074231Y-87666450D01*
X89074231Y-87666450D02*
X88974231Y-87699783D01*
X88974231Y-87699783D02*
X88807564Y-87699783D01*
X88050898Y-84516450D02*
X88084231Y-84483116D01*
X88084231Y-84483116D02*
X88150898Y-84449783D01*
X88150898Y-84449783D02*
X88317565Y-84449783D01*
X88317565Y-84449783D02*
X88384231Y-84483116D01*
X88384231Y-84483116D02*
X88417565Y-84516450D01*
X88417565Y-84516450D02*
X88450898Y-84583116D01*
X88450898Y-84583116D02*
X88450898Y-84649783D01*
X88450898Y-84649783D02*
X88417565Y-84749783D01*
X88417565Y-84749783D02*
X88017565Y-85149783D01*
X88017565Y-85149783D02*
X88450898Y-85149783D01*
X88717565Y-84516450D02*
X88750898Y-84483116D01*
X88750898Y-84483116D02*
X88817565Y-84449783D01*
X88817565Y-84449783D02*
X88984232Y-84449783D01*
X88984232Y-84449783D02*
X89050898Y-84483116D01*
X89050898Y-84483116D02*
X89084232Y-84516450D01*
X89084232Y-84516450D02*
X89117565Y-84583116D01*
X89117565Y-84583116D02*
X89117565Y-84649783D01*
X89117565Y-84649783D02*
X89084232Y-84749783D01*
X89084232Y-84749783D02*
X88684232Y-85149783D01*
X88684232Y-85149783D02*
X89117565Y-85149783D01*
X88550898Y-102869783D02*
X88150898Y-102869783D01*
X88350898Y-102869783D02*
X88350898Y-102169783D01*
X88350898Y-102169783D02*
X88284231Y-102269783D01*
X88284231Y-102269783D02*
X88217565Y-102336450D01*
X88217565Y-102336450D02*
X88150898Y-102369783D01*
X88784232Y-102169783D02*
X89250898Y-102169783D01*
X89250898Y-102169783D02*
X88950898Y-102869783D01*
X75490898Y-92669783D02*
X75090898Y-92669783D01*
X75290898Y-92669783D02*
X75290898Y-91969783D01*
X75290898Y-91969783D02*
X75224231Y-92069783D01*
X75224231Y-92069783D02*
X75157565Y-92136450D01*
X75157565Y-92136450D02*
X75090898Y-92169783D01*
X76157565Y-92669783D02*
X75757565Y-92669783D01*
X75957565Y-92669783D02*
X75957565Y-91969783D01*
X75957565Y-91969783D02*
X75890898Y-92069783D01*
X75890898Y-92069783D02*
X75824232Y-92136450D01*
X75824232Y-92136450D02*
X75757565Y-92169783D01*
X75534231Y-69343116D02*
X75534231Y-69809783D01*
X75367565Y-69076450D02*
X75200898Y-69576450D01*
X75200898Y-69576450D02*
X75634231Y-69576450D01*
X75547565Y-71769783D02*
X75214231Y-71769783D01*
X75214231Y-71769783D02*
X75180898Y-72103116D01*
X75180898Y-72103116D02*
X75214231Y-72069783D01*
X75214231Y-72069783D02*
X75280898Y-72036450D01*
X75280898Y-72036450D02*
X75447565Y-72036450D01*
X75447565Y-72036450D02*
X75514231Y-72069783D01*
X75514231Y-72069783D02*
X75547565Y-72103116D01*
X75547565Y-72103116D02*
X75580898Y-72169783D01*
X75580898Y-72169783D02*
X75580898Y-72336450D01*
X75580898Y-72336450D02*
X75547565Y-72403116D01*
X75547565Y-72403116D02*
X75514231Y-72436450D01*
X75514231Y-72436450D02*
X75447565Y-72469783D01*
X75447565Y-72469783D02*
X75280898Y-72469783D01*
X75280898Y-72469783D02*
X75214231Y-72436450D01*
X75214231Y-72436450D02*
X75180898Y-72403116D01*
X75544231Y-76849783D02*
X75410898Y-76849783D01*
X75410898Y-76849783D02*
X75344231Y-76883116D01*
X75344231Y-76883116D02*
X75310898Y-76916450D01*
X75310898Y-76916450D02*
X75244231Y-77016450D01*
X75244231Y-77016450D02*
X75210898Y-77149783D01*
X75210898Y-77149783D02*
X75210898Y-77416450D01*
X75210898Y-77416450D02*
X75244231Y-77483116D01*
X75244231Y-77483116D02*
X75277565Y-77516450D01*
X75277565Y-77516450D02*
X75344231Y-77549783D01*
X75344231Y-77549783D02*
X75477565Y-77549783D01*
X75477565Y-77549783D02*
X75544231Y-77516450D01*
X75544231Y-77516450D02*
X75577565Y-77483116D01*
X75577565Y-77483116D02*
X75610898Y-77416450D01*
X75610898Y-77416450D02*
X75610898Y-77249783D01*
X75610898Y-77249783D02*
X75577565Y-77183116D01*
X75577565Y-77183116D02*
X75544231Y-77149783D01*
X75544231Y-77149783D02*
X75477565Y-77116450D01*
X75477565Y-77116450D02*
X75344231Y-77116450D01*
X75344231Y-77116450D02*
X75277565Y-77149783D01*
X75277565Y-77149783D02*
X75244231Y-77183116D01*
X75244231Y-77183116D02*
X75210898Y-77249783D01*
X88250898Y-64196450D02*
X88284231Y-64163116D01*
X88284231Y-64163116D02*
X88350898Y-64129783D01*
X88350898Y-64129783D02*
X88517565Y-64129783D01*
X88517565Y-64129783D02*
X88584231Y-64163116D01*
X88584231Y-64163116D02*
X88617565Y-64196450D01*
X88617565Y-64196450D02*
X88650898Y-64263116D01*
X88650898Y-64263116D02*
X88650898Y-64329783D01*
X88650898Y-64329783D02*
X88617565Y-64429783D01*
X88617565Y-64429783D02*
X88217565Y-64829783D01*
X88217565Y-64829783D02*
X88650898Y-64829783D01*
X89050898Y-64429783D02*
X88984232Y-64396450D01*
X88984232Y-64396450D02*
X88950898Y-64363116D01*
X88950898Y-64363116D02*
X88917565Y-64296450D01*
X88917565Y-64296450D02*
X88917565Y-64263116D01*
X88917565Y-64263116D02*
X88950898Y-64196450D01*
X88950898Y-64196450D02*
X88984232Y-64163116D01*
X88984232Y-64163116D02*
X89050898Y-64129783D01*
X89050898Y-64129783D02*
X89184232Y-64129783D01*
X89184232Y-64129783D02*
X89250898Y-64163116D01*
X89250898Y-64163116D02*
X89284232Y-64196450D01*
X89284232Y-64196450D02*
X89317565Y-64263116D01*
X89317565Y-64263116D02*
X89317565Y-64296450D01*
X89317565Y-64296450D02*
X89284232Y-64363116D01*
X89284232Y-64363116D02*
X89250898Y-64396450D01*
X89250898Y-64396450D02*
X89184232Y-64429783D01*
X89184232Y-64429783D02*
X89050898Y-64429783D01*
X89050898Y-64429783D02*
X88984232Y-64463116D01*
X88984232Y-64463116D02*
X88950898Y-64496450D01*
X88950898Y-64496450D02*
X88917565Y-64563116D01*
X88917565Y-64563116D02*
X88917565Y-64696450D01*
X88917565Y-64696450D02*
X88950898Y-64763116D01*
X88950898Y-64763116D02*
X88984232Y-64796450D01*
X88984232Y-64796450D02*
X89050898Y-64829783D01*
X89050898Y-64829783D02*
X89184232Y-64829783D01*
X89184232Y-64829783D02*
X89250898Y-64796450D01*
X89250898Y-64796450D02*
X89284232Y-64763116D01*
X89284232Y-64763116D02*
X89317565Y-64696450D01*
X89317565Y-64696450D02*
X89317565Y-64563116D01*
X89317565Y-64563116D02*
X89284232Y-64496450D01*
X89284232Y-64496450D02*
X89250898Y-64463116D01*
X89250898Y-64463116D02*
X89184232Y-64429783D01*
X75490898Y-99693116D02*
X75424231Y-99659783D01*
X75424231Y-99659783D02*
X75324231Y-99659783D01*
X75324231Y-99659783D02*
X75224231Y-99693116D01*
X75224231Y-99693116D02*
X75157565Y-99759783D01*
X75157565Y-99759783D02*
X75124231Y-99826450D01*
X75124231Y-99826450D02*
X75090898Y-99959783D01*
X75090898Y-99959783D02*
X75090898Y-100059783D01*
X75090898Y-100059783D02*
X75124231Y-100193116D01*
X75124231Y-100193116D02*
X75157565Y-100259783D01*
X75157565Y-100259783D02*
X75224231Y-100326450D01*
X75224231Y-100326450D02*
X75324231Y-100359783D01*
X75324231Y-100359783D02*
X75390898Y-100359783D01*
X75390898Y-100359783D02*
X75490898Y-100326450D01*
X75490898Y-100326450D02*
X75524231Y-100293116D01*
X75524231Y-100293116D02*
X75524231Y-100059783D01*
X75524231Y-100059783D02*
X75390898Y-100059783D01*
X75824231Y-100359783D02*
X75824231Y-99659783D01*
X75824231Y-99659783D02*
X76224231Y-100359783D01*
X76224231Y-100359783D02*
X76224231Y-99659783D01*
X76557564Y-100359783D02*
X76557564Y-99659783D01*
X76557564Y-99659783D02*
X76724231Y-99659783D01*
X76724231Y-99659783D02*
X76824231Y-99693116D01*
X76824231Y-99693116D02*
X76890898Y-99759783D01*
X76890898Y-99759783D02*
X76924231Y-99826450D01*
X76924231Y-99826450D02*
X76957564Y-99959783D01*
X76957564Y-99959783D02*
X76957564Y-100059783D01*
X76957564Y-100059783D02*
X76924231Y-100193116D01*
X76924231Y-100193116D02*
X76890898Y-100259783D01*
X76890898Y-100259783D02*
X76824231Y-100326450D01*
X76824231Y-100326450D02*
X76724231Y-100359783D01*
X76724231Y-100359783D02*
X76557564Y-100359783D01*
X75470898Y-102809783D02*
X75070898Y-102809783D01*
X75270898Y-102809783D02*
X75270898Y-102109783D01*
X75270898Y-102109783D02*
X75204231Y-102209783D01*
X75204231Y-102209783D02*
X75137565Y-102276450D01*
X75137565Y-102276450D02*
X75070898Y-102309783D01*
X76070898Y-102343116D02*
X76070898Y-102809783D01*
X75904232Y-102076450D02*
X75737565Y-102576450D01*
X75737565Y-102576450D02*
X76170898Y-102576450D01*
X88230898Y-71876450D02*
X88264231Y-71843116D01*
X88264231Y-71843116D02*
X88330898Y-71809783D01*
X88330898Y-71809783D02*
X88497565Y-71809783D01*
X88497565Y-71809783D02*
X88564231Y-71843116D01*
X88564231Y-71843116D02*
X88597565Y-71876450D01*
X88597565Y-71876450D02*
X88630898Y-71943116D01*
X88630898Y-71943116D02*
X88630898Y-72009783D01*
X88630898Y-72009783D02*
X88597565Y-72109783D01*
X88597565Y-72109783D02*
X88197565Y-72509783D01*
X88197565Y-72509783D02*
X88630898Y-72509783D01*
X89230898Y-71809783D02*
X89097565Y-71809783D01*
X89097565Y-71809783D02*
X89030898Y-71843116D01*
X89030898Y-71843116D02*
X88997565Y-71876450D01*
X88997565Y-71876450D02*
X88930898Y-71976450D01*
X88930898Y-71976450D02*
X88897565Y-72109783D01*
X88897565Y-72109783D02*
X88897565Y-72376450D01*
X88897565Y-72376450D02*
X88930898Y-72443116D01*
X88930898Y-72443116D02*
X88964232Y-72476450D01*
X88964232Y-72476450D02*
X89030898Y-72509783D01*
X89030898Y-72509783D02*
X89164232Y-72509783D01*
X89164232Y-72509783D02*
X89230898Y-72476450D01*
X89230898Y-72476450D02*
X89264232Y-72443116D01*
X89264232Y-72443116D02*
X89297565Y-72376450D01*
X89297565Y-72376450D02*
X89297565Y-72209783D01*
X89297565Y-72209783D02*
X89264232Y-72143116D01*
X89264232Y-72143116D02*
X89230898Y-72109783D01*
X89230898Y-72109783D02*
X89164232Y-72076450D01*
X89164232Y-72076450D02*
X89030898Y-72076450D01*
X89030898Y-72076450D02*
X88964232Y-72109783D01*
X88964232Y-72109783D02*
X88930898Y-72143116D01*
X88930898Y-72143116D02*
X88897565Y-72209783D01*
X75450898Y-95209783D02*
X75050898Y-95209783D01*
X75250898Y-95209783D02*
X75250898Y-94509783D01*
X75250898Y-94509783D02*
X75184231Y-94609783D01*
X75184231Y-94609783D02*
X75117565Y-94676450D01*
X75117565Y-94676450D02*
X75050898Y-94709783D01*
X75717565Y-94576450D02*
X75750898Y-94543116D01*
X75750898Y-94543116D02*
X75817565Y-94509783D01*
X75817565Y-94509783D02*
X75984232Y-94509783D01*
X75984232Y-94509783D02*
X76050898Y-94543116D01*
X76050898Y-94543116D02*
X76084232Y-94576450D01*
X76084232Y-94576450D02*
X76117565Y-94643116D01*
X76117565Y-94643116D02*
X76117565Y-94709783D01*
X76117565Y-94709783D02*
X76084232Y-94809783D01*
X76084232Y-94809783D02*
X75684232Y-95209783D01*
X75684232Y-95209783D02*
X76117565Y-95209783D01*
X75314231Y-82199783D02*
X75247565Y-82166450D01*
X75247565Y-82166450D02*
X75214231Y-82133116D01*
X75214231Y-82133116D02*
X75180898Y-82066450D01*
X75180898Y-82066450D02*
X75180898Y-82033116D01*
X75180898Y-82033116D02*
X75214231Y-81966450D01*
X75214231Y-81966450D02*
X75247565Y-81933116D01*
X75247565Y-81933116D02*
X75314231Y-81899783D01*
X75314231Y-81899783D02*
X75447565Y-81899783D01*
X75447565Y-81899783D02*
X75514231Y-81933116D01*
X75514231Y-81933116D02*
X75547565Y-81966450D01*
X75547565Y-81966450D02*
X75580898Y-82033116D01*
X75580898Y-82033116D02*
X75580898Y-82066450D01*
X75580898Y-82066450D02*
X75547565Y-82133116D01*
X75547565Y-82133116D02*
X75514231Y-82166450D01*
X75514231Y-82166450D02*
X75447565Y-82199783D01*
X75447565Y-82199783D02*
X75314231Y-82199783D01*
X75314231Y-82199783D02*
X75247565Y-82233116D01*
X75247565Y-82233116D02*
X75214231Y-82266450D01*
X75214231Y-82266450D02*
X75180898Y-82333116D01*
X75180898Y-82333116D02*
X75180898Y-82466450D01*
X75180898Y-82466450D02*
X75214231Y-82533116D01*
X75214231Y-82533116D02*
X75247565Y-82566450D01*
X75247565Y-82566450D02*
X75314231Y-82599783D01*
X75314231Y-82599783D02*
X75447565Y-82599783D01*
X75447565Y-82599783D02*
X75514231Y-82566450D01*
X75514231Y-82566450D02*
X75547565Y-82533116D01*
X75547565Y-82533116D02*
X75580898Y-82466450D01*
X75580898Y-82466450D02*
X75580898Y-82333116D01*
X75580898Y-82333116D02*
X75547565Y-82266450D01*
X75547565Y-82266450D02*
X75514231Y-82233116D01*
X75514231Y-82233116D02*
X75447565Y-82199783D01*
X75490898Y-90199783D02*
X75090898Y-90199783D01*
X75290898Y-90199783D02*
X75290898Y-89499783D01*
X75290898Y-89499783D02*
X75224231Y-89599783D01*
X75224231Y-89599783D02*
X75157565Y-89666450D01*
X75157565Y-89666450D02*
X75090898Y-89699783D01*
X75924232Y-89499783D02*
X75990898Y-89499783D01*
X75990898Y-89499783D02*
X76057565Y-89533116D01*
X76057565Y-89533116D02*
X76090898Y-89566450D01*
X76090898Y-89566450D02*
X76124232Y-89633116D01*
X76124232Y-89633116D02*
X76157565Y-89766450D01*
X76157565Y-89766450D02*
X76157565Y-89933116D01*
X76157565Y-89933116D02*
X76124232Y-90066450D01*
X76124232Y-90066450D02*
X76090898Y-90133116D01*
X76090898Y-90133116D02*
X76057565Y-90166450D01*
X76057565Y-90166450D02*
X75990898Y-90199783D01*
X75990898Y-90199783D02*
X75924232Y-90199783D01*
X75924232Y-90199783D02*
X75857565Y-90166450D01*
X75857565Y-90166450D02*
X75824232Y-90133116D01*
X75824232Y-90133116D02*
X75790898Y-90066450D01*
X75790898Y-90066450D02*
X75757565Y-89933116D01*
X75757565Y-89933116D02*
X75757565Y-89766450D01*
X75757565Y-89766450D02*
X75790898Y-89633116D01*
X75790898Y-89633116D02*
X75824232Y-89566450D01*
X75824232Y-89566450D02*
X75857565Y-89533116D01*
X75857565Y-89533116D02*
X75924232Y-89499783D01*
X75480898Y-59699783D02*
X75080898Y-59699783D01*
X75280898Y-59699783D02*
X75280898Y-58999783D01*
X75280898Y-58999783D02*
X75214231Y-59099783D01*
X75214231Y-59099783D02*
X75147565Y-59166450D01*
X75147565Y-59166450D02*
X75080898Y-59199783D01*
X75500898Y-105429783D02*
X75100898Y-105429783D01*
X75300898Y-105429783D02*
X75300898Y-104729783D01*
X75300898Y-104729783D02*
X75234231Y-104829783D01*
X75234231Y-104829783D02*
X75167565Y-104896450D01*
X75167565Y-104896450D02*
X75100898Y-104929783D01*
X76134232Y-104729783D02*
X75800898Y-104729783D01*
X75800898Y-104729783D02*
X75767565Y-105063116D01*
X75767565Y-105063116D02*
X75800898Y-105029783D01*
X75800898Y-105029783D02*
X75867565Y-104996450D01*
X75867565Y-104996450D02*
X76034232Y-104996450D01*
X76034232Y-104996450D02*
X76100898Y-105029783D01*
X76100898Y-105029783D02*
X76134232Y-105063116D01*
X76134232Y-105063116D02*
X76167565Y-105129783D01*
X76167565Y-105129783D02*
X76167565Y-105296450D01*
X76167565Y-105296450D02*
X76134232Y-105363116D01*
X76134232Y-105363116D02*
X76100898Y-105396450D01*
X76100898Y-105396450D02*
X76034232Y-105429783D01*
X76034232Y-105429783D02*
X75867565Y-105429783D01*
X75867565Y-105429783D02*
X75800898Y-105396450D01*
X75800898Y-105396450D02*
X75767565Y-105363116D01*
D12*
X82914819Y-100228094D02*
X81914819Y-100228094D01*
X81914819Y-100228094D02*
X81914819Y-99989999D01*
X81914819Y-99989999D02*
X81962438Y-99847142D01*
X81962438Y-99847142D02*
X82057676Y-99751904D01*
X82057676Y-99751904D02*
X82152914Y-99704285D01*
X82152914Y-99704285D02*
X82343390Y-99656666D01*
X82343390Y-99656666D02*
X82486247Y-99656666D01*
X82486247Y-99656666D02*
X82676723Y-99704285D01*
X82676723Y-99704285D02*
X82771961Y-99751904D01*
X82771961Y-99751904D02*
X82867200Y-99847142D01*
X82867200Y-99847142D02*
X82914819Y-99989999D01*
X82914819Y-99989999D02*
X82914819Y-100228094D01*
X82010057Y-99275713D02*
X81962438Y-99228094D01*
X81962438Y-99228094D02*
X81914819Y-99132856D01*
X81914819Y-99132856D02*
X81914819Y-98894761D01*
X81914819Y-98894761D02*
X81962438Y-98799523D01*
X81962438Y-98799523D02*
X82010057Y-98751904D01*
X82010057Y-98751904D02*
X82105295Y-98704285D01*
X82105295Y-98704285D02*
X82200533Y-98704285D01*
X82200533Y-98704285D02*
X82343390Y-98751904D01*
X82343390Y-98751904D02*
X82914819Y-99323332D01*
X82914819Y-99323332D02*
X82914819Y-98704285D01*
X80197704Y-95718571D02*
X80197704Y-95261428D01*
X80197704Y-95490000D02*
X80997704Y-95490000D01*
X80997704Y-95490000D02*
X80883419Y-95413809D01*
X80883419Y-95413809D02*
X80807228Y-95337619D01*
X80807228Y-95337619D02*
X80769133Y-95261428D01*
X81944819Y-100188094D02*
X80944819Y-100188094D01*
X80944819Y-100188094D02*
X80944819Y-99949999D01*
X80944819Y-99949999D02*
X80992438Y-99807142D01*
X80992438Y-99807142D02*
X81087676Y-99711904D01*
X81087676Y-99711904D02*
X81182914Y-99664285D01*
X81182914Y-99664285D02*
X81373390Y-99616666D01*
X81373390Y-99616666D02*
X81516247Y-99616666D01*
X81516247Y-99616666D02*
X81706723Y-99664285D01*
X81706723Y-99664285D02*
X81801961Y-99711904D01*
X81801961Y-99711904D02*
X81897200Y-99807142D01*
X81897200Y-99807142D02*
X81944819Y-99949999D01*
X81944819Y-99949999D02*
X81944819Y-100188094D01*
X81944819Y-98664285D02*
X81944819Y-99235713D01*
X81944819Y-98949999D02*
X80944819Y-98949999D01*
X80944819Y-98949999D02*
X81087676Y-99045237D01*
X81087676Y-99045237D02*
X81182914Y-99140475D01*
X81182914Y-99140475D02*
X81230533Y-99235713D01*
X83752295Y-103221428D02*
X83752295Y-103678571D01*
X83752295Y-103449999D02*
X82952295Y-103449999D01*
X82952295Y-103449999D02*
X83066580Y-103526190D01*
X83066580Y-103526190D02*
X83142771Y-103602380D01*
X83142771Y-103602380D02*
X83180866Y-103678571D01*
X78598095Y-89534819D02*
X78598095Y-90344342D01*
X78598095Y-90344342D02*
X78645714Y-90439580D01*
X78645714Y-90439580D02*
X78693333Y-90487200D01*
X78693333Y-90487200D02*
X78788571Y-90534819D01*
X78788571Y-90534819D02*
X78979047Y-90534819D01*
X78979047Y-90534819D02*
X79074285Y-90487200D01*
X79074285Y-90487200D02*
X79121904Y-90439580D01*
X79121904Y-90439580D02*
X79169523Y-90344342D01*
X79169523Y-90344342D02*
X79169523Y-89534819D01*
X80169523Y-90534819D02*
X79598095Y-90534819D01*
X79883809Y-90534819D02*
X79883809Y-89534819D01*
X79883809Y-89534819D02*
X79788571Y-89677676D01*
X79788571Y-89677676D02*
X79693333Y-89772914D01*
X79693333Y-89772914D02*
X79598095Y-89820533D01*
X80814819Y-67971904D02*
X81624342Y-67971904D01*
X81624342Y-67971904D02*
X81719580Y-67924285D01*
X81719580Y-67924285D02*
X81767200Y-67876666D01*
X81767200Y-67876666D02*
X81814819Y-67781428D01*
X81814819Y-67781428D02*
X81814819Y-67590952D01*
X81814819Y-67590952D02*
X81767200Y-67495714D01*
X81767200Y-67495714D02*
X81719580Y-67448095D01*
X81719580Y-67448095D02*
X81624342Y-67400476D01*
X81624342Y-67400476D02*
X80814819Y-67400476D01*
X80910057Y-66971904D02*
X80862438Y-66924285D01*
X80862438Y-66924285D02*
X80814819Y-66829047D01*
X80814819Y-66829047D02*
X80814819Y-66590952D01*
X80814819Y-66590952D02*
X80862438Y-66495714D01*
X80862438Y-66495714D02*
X80910057Y-66448095D01*
X80910057Y-66448095D02*
X81005295Y-66400476D01*
X81005295Y-66400476D02*
X81100533Y-66400476D01*
X81100533Y-66400476D02*
X81243390Y-66448095D01*
X81243390Y-66448095D02*
X81814819Y-67019523D01*
X81814819Y-67019523D02*
X81814819Y-66400476D01*
X83993809Y-94418628D02*
X83993809Y-94894819D01*
X83660476Y-93894819D02*
X83993809Y-94418628D01*
X83993809Y-94418628D02*
X84327142Y-93894819D01*
X85184285Y-94894819D02*
X84612857Y-94894819D01*
X84898571Y-94894819D02*
X84898571Y-93894819D01*
X84898571Y-93894819D02*
X84803333Y-94037676D01*
X84803333Y-94037676D02*
X84708095Y-94132914D01*
X84708095Y-94132914D02*
X84612857Y-94180533D01*
X79428095Y-79184819D02*
X79428095Y-79994342D01*
X79428095Y-79994342D02*
X79475714Y-80089580D01*
X79475714Y-80089580D02*
X79523333Y-80137200D01*
X79523333Y-80137200D02*
X79618571Y-80184819D01*
X79618571Y-80184819D02*
X79809047Y-80184819D01*
X79809047Y-80184819D02*
X79904285Y-80137200D01*
X79904285Y-80137200D02*
X79951904Y-80089580D01*
X79951904Y-80089580D02*
X79999523Y-79994342D01*
X79999523Y-79994342D02*
X79999523Y-79184819D01*
X80380476Y-79184819D02*
X80999523Y-79184819D01*
X80999523Y-79184819D02*
X80666190Y-79565771D01*
X80666190Y-79565771D02*
X80809047Y-79565771D01*
X80809047Y-79565771D02*
X80904285Y-79613390D01*
X80904285Y-79613390D02*
X80951904Y-79661009D01*
X80951904Y-79661009D02*
X80999523Y-79756247D01*
X80999523Y-79756247D02*
X80999523Y-79994342D01*
X80999523Y-79994342D02*
X80951904Y-80089580D01*
X80951904Y-80089580D02*
X80904285Y-80137200D01*
X80904285Y-80137200D02*
X80809047Y-80184819D01*
X80809047Y-80184819D02*
X80523333Y-80184819D01*
X80523333Y-80184819D02*
X80428095Y-80137200D01*
X80428095Y-80137200D02*
X80380476Y-80089580D01*
X83867200Y-68713332D02*
X83914819Y-68570475D01*
X83914819Y-68570475D02*
X83914819Y-68332380D01*
X83914819Y-68332380D02*
X83867200Y-68237142D01*
X83867200Y-68237142D02*
X83819580Y-68189523D01*
X83819580Y-68189523D02*
X83724342Y-68141904D01*
X83724342Y-68141904D02*
X83629104Y-68141904D01*
X83629104Y-68141904D02*
X83533866Y-68189523D01*
X83533866Y-68189523D02*
X83486247Y-68237142D01*
X83486247Y-68237142D02*
X83438628Y-68332380D01*
X83438628Y-68332380D02*
X83391009Y-68522856D01*
X83391009Y-68522856D02*
X83343390Y-68618094D01*
X83343390Y-68618094D02*
X83295771Y-68665713D01*
X83295771Y-68665713D02*
X83200533Y-68713332D01*
X83200533Y-68713332D02*
X83105295Y-68713332D01*
X83105295Y-68713332D02*
X83010057Y-68665713D01*
X83010057Y-68665713D02*
X82962438Y-68618094D01*
X82962438Y-68618094D02*
X82914819Y-68522856D01*
X82914819Y-68522856D02*
X82914819Y-68284761D01*
X82914819Y-68284761D02*
X82962438Y-68141904D01*
X82914819Y-67808570D02*
X83914819Y-67570475D01*
X83914819Y-67570475D02*
X83200533Y-67379999D01*
X83200533Y-67379999D02*
X83914819Y-67189523D01*
X83914819Y-67189523D02*
X82914819Y-66951428D01*
X83914819Y-66046666D02*
X83914819Y-66618094D01*
X83914819Y-66332380D02*
X82914819Y-66332380D01*
X82914819Y-66332380D02*
X83057676Y-66427618D01*
X83057676Y-66427618D02*
X83152914Y-66522856D01*
X83152914Y-66522856D02*
X83200533Y-66618094D01*
X81856666Y-63054819D02*
X81856666Y-63769104D01*
X81856666Y-63769104D02*
X81809047Y-63911961D01*
X81809047Y-63911961D02*
X81713809Y-64007200D01*
X81713809Y-64007200D02*
X81570952Y-64054819D01*
X81570952Y-64054819D02*
X81475714Y-64054819D01*
X82856666Y-64054819D02*
X82285238Y-64054819D01*
X82570952Y-64054819D02*
X82570952Y-63054819D01*
X82570952Y-63054819D02*
X82475714Y-63197676D01*
X82475714Y-63197676D02*
X82380476Y-63292914D01*
X82380476Y-63292914D02*
X82285238Y-63340533D01*
D13*
%TO.C,D2*%
X81710000Y-95990000D02*
X76210000Y-95990000D01*
X81710000Y-95990000D02*
X81710000Y-102990000D01*
X76210000Y-95990000D02*
X76210000Y-102540000D01*
X78060000Y-96790000D02*
X79860000Y-96790000D01*
X78060000Y-102190000D02*
X79860000Y-102190000D01*
X76210000Y-102540000D02*
X76660000Y-102990000D01*
X76660000Y-102990000D02*
X81710000Y-102990000D01*
%TO.C,D1*%
X82240000Y-102950000D02*
X87740000Y-102950000D01*
X82240000Y-102950000D02*
X82240000Y-95950000D01*
X87740000Y-102950000D02*
X87740000Y-96400000D01*
X85890000Y-102150000D02*
X84090000Y-102150000D01*
X85890000Y-96750000D02*
X84090000Y-96750000D01*
X87740000Y-96400000D02*
X87290000Y-95950000D01*
X87290000Y-95950000D02*
X82240000Y-95950000D01*
%TO.C,U1*%
X78560000Y-81910000D02*
X79210000Y-81910000D01*
X78560000Y-82560000D02*
X78560000Y-81910000D01*
X78560000Y-89130000D02*
X78560000Y-88480000D01*
X79210000Y-89130000D02*
X78560000Y-89130000D01*
X85130000Y-81910000D02*
X85780000Y-81910000D01*
X85780000Y-81910000D02*
X85780000Y-82560000D01*
X85780000Y-88480000D02*
X85780000Y-89130000D01*
X85780000Y-89130000D02*
X85130000Y-89130000D01*
X78030000Y-82920000D02*
X77700000Y-83160000D01*
X77700000Y-82680000D01*
X78030000Y-82920000D01*
G36*
X78030000Y-82920000D02*
G01*
X77700000Y-83160000D01*
X77700000Y-82680000D01*
X78030000Y-82920000D01*
G37*
%TO.C,C10*%
X85518601Y-78142282D02*
X85671104Y-77989779D01*
X86027718Y-78651399D02*
X86180221Y-78498896D01*
%TO.C,R5*%
X82483641Y-90480000D02*
X82176359Y-90480000D01*
X82483641Y-91240000D02*
X82176359Y-91240000D01*
%TO.C,C4*%
X86320000Y-80567836D02*
X86320000Y-80352164D01*
X87040000Y-80567836D02*
X87040000Y-80352164D01*
%TO.C,U2*%
X77350000Y-66447500D02*
X78350000Y-66447500D01*
X77350000Y-67967500D02*
X77350000Y-66447500D01*
X77400000Y-67967500D02*
X77350000Y-67967500D01*
X79300000Y-67967500D02*
X78520000Y-67967500D01*
X79470000Y-66447500D02*
X80470000Y-66447500D01*
X80470000Y-66447500D02*
X80470000Y-67967500D01*
X80470000Y-67967500D02*
X80420000Y-67967500D01*
X78860000Y-68747500D02*
X78530000Y-68507500D01*
X78860000Y-68267500D01*
X78860000Y-68747500D01*
G36*
X78860000Y-68747500D02*
G01*
X78530000Y-68507500D01*
X78860000Y-68267500D01*
X78860000Y-68747500D01*
G37*
%TO.C,C11*%
X84380000Y-90922164D02*
X84380000Y-91137836D01*
X85100000Y-90922164D02*
X85100000Y-91137836D01*
%TO.C,R2*%
X80430000Y-64896359D02*
X80430000Y-65203641D01*
X81190000Y-64896359D02*
X81190000Y-65203641D01*
%TO.C,Y1*%
X83250000Y-91520000D02*
X83250000Y-94940000D01*
X83250000Y-94940000D02*
X79130000Y-94940000D01*
%TO.C,U3*%
X78254432Y-76552500D02*
X81050000Y-76552500D01*
X81050000Y-78822500D02*
X77830000Y-78822500D01*
X77960000Y-76547500D02*
X77820000Y-76357500D01*
X78100000Y-76357500D01*
X77960000Y-76547500D01*
G36*
X77960000Y-76547500D02*
G01*
X77820000Y-76357500D01*
X78100000Y-76357500D01*
X77960000Y-76547500D01*
G37*
%TO.C,SW1*%
X84260000Y-64630000D02*
X84560000Y-64630000D01*
X84260000Y-68770000D02*
X84260000Y-64630000D01*
X84560000Y-68770000D02*
X84260000Y-68770000D01*
X87100000Y-64630000D02*
X87400000Y-64630000D01*
X87400000Y-64630000D02*
X87400000Y-68770000D01*
X87400000Y-68770000D02*
X87100000Y-68770000D01*
%TO.C,R4*%
X83460000Y-80056359D02*
X83460000Y-80363641D01*
X84220000Y-80056359D02*
X84220000Y-80363641D01*
%TO.C,C8*%
X86762164Y-81550000D02*
X86977836Y-81550000D01*
X86762164Y-82270000D02*
X86977836Y-82270000D01*
%TO.C,C1*%
X80147836Y-74710000D02*
X79932164Y-74710000D01*
X80147836Y-75430000D02*
X79932164Y-75430000D01*
%TO.C,C3*%
X85360000Y-80367836D02*
X85360000Y-80152164D01*
X86080000Y-80367836D02*
X86080000Y-80152164D01*
%TO.C,C16*%
X83430000Y-92977836D02*
X83430000Y-92762164D01*
X84150000Y-92977836D02*
X84150000Y-92762164D01*
%TO.C,C15*%
X78180000Y-93162164D02*
X78180000Y-93377836D01*
X78900000Y-93162164D02*
X78900000Y-93377836D01*
%TO.C,R3*%
X82490000Y-80066359D02*
X82490000Y-80373641D01*
X83250000Y-80066359D02*
X83250000Y-80373641D01*
%TO.C,C9*%
X83420000Y-90932164D02*
X83420000Y-91147836D01*
X84140000Y-90932164D02*
X84140000Y-91147836D01*
%TO.C,R1*%
X83070000Y-64136359D02*
X83070000Y-64443641D01*
X83830000Y-64136359D02*
X83830000Y-64443641D01*
%TO.C,J1*%
X77470000Y-56020000D02*
X77470000Y-54120000D01*
X77470000Y-59920000D02*
X77470000Y-57920000D01*
X86870000Y-54120000D02*
X77470000Y-54120000D01*
X86870000Y-56020000D02*
X86870000Y-54120000D01*
X86870000Y-59920000D02*
X86870000Y-57920000D01*
%TO.C,R6*%
X78243641Y-75360000D02*
X77936359Y-75360000D01*
X78243641Y-76120000D02*
X77936359Y-76120000D01*
%TO.C,C7*%
X83440000Y-74397836D02*
X83440000Y-74182164D01*
X84160000Y-74397836D02*
X84160000Y-74182164D01*
%TO.C,R7*%
X85943641Y-69550000D02*
X85636359Y-69550000D01*
X85943641Y-70310000D02*
X85636359Y-70310000D01*
%TO.C,C5*%
X77017836Y-86450000D02*
X76802164Y-86450000D01*
X77017836Y-87170000D02*
X76802164Y-87170000D01*
%TO.C,C6*%
X87202164Y-86390000D02*
X87417836Y-86390000D01*
X87202164Y-87110000D02*
X87417836Y-87110000D01*
%TO.C,C17*%
X83420000Y-76657836D02*
X83420000Y-76442164D01*
X84140000Y-76657836D02*
X84140000Y-76442164D01*
%TO.C,C2*%
X77570000Y-81687836D02*
X77570000Y-81472164D01*
X78290000Y-81687836D02*
X78290000Y-81472164D01*
%TO.C,C14*%
X79055580Y-69580000D02*
X78774420Y-69580000D01*
X79055580Y-70600000D02*
X78774420Y-70600000D01*
%TO.C,J4*%
X78200000Y-103520000D02*
X78200000Y-106280000D01*
X83390000Y-103520000D02*
X78200000Y-103520000D01*
X83390000Y-103520000D02*
X83390000Y-106280000D01*
X83390000Y-106280000D02*
X78200000Y-106280000D01*
X84660000Y-103520000D02*
X86040000Y-103520000D01*
X86040000Y-103520000D02*
X86040000Y-104900000D01*
%TO.C,J2*%
X89680000Y-55510000D02*
X91060000Y-55510000D01*
X89680000Y-56890000D02*
X89680000Y-55510000D01*
X89680000Y-58160000D02*
X89680000Y-106530000D01*
X89680000Y-58160000D02*
X92440000Y-58160000D01*
X89680000Y-106530000D02*
X92440000Y-106530000D01*
X92440000Y-58160000D02*
X92440000Y-106530000D01*
%TO.C,J3*%
X71900000Y-55510000D02*
X73280000Y-55510000D01*
X71900000Y-56890000D02*
X71900000Y-55510000D01*
X71900000Y-58160000D02*
X71900000Y-106530000D01*
X71900000Y-58160000D02*
X74660000Y-58160000D01*
X71900000Y-106530000D02*
X74660000Y-106530000D01*
X74660000Y-58160000D02*
X74660000Y-106530000D01*
%TO.C,C12*%
X82460000Y-77987836D02*
X82460000Y-77772164D01*
X83180000Y-77987836D02*
X83180000Y-77772164D01*
%TO.C,C13*%
X78890580Y-63850000D02*
X78609420Y-63850000D01*
X78890580Y-64870000D02*
X78609420Y-64870000D01*
%TD*%
M02*
