%TF.GenerationSoftware,KiCad,Pcbnew,9.0.6*%
%TF.CreationDate,2025-12-14T11:18:03-08:00*%
%TF.ProjectId,devboard,64657662-6f61-4726-942e-6b696361645f,rev?*%
%TF.SameCoordinates,Original*%
%TF.FileFunction,Legend,Bot*%
%TF.FilePolarity,Positive*%
%FSLAX46Y46*%
G04 Gerber Fmt 4.6, Leading zero omitted, Abs format (unit mm)*
G04 Created by KiCad (PCBNEW 9.0.6) date 2025-12-14 11:18:03*
%MOMM*%
%LPD*%
G01*
G04 APERTURE LIST*
%ADD10C,0.000000*%
G04 APERTURE END LIST*
D10*
G36*
X78948975Y-90126682D02*
G01*
X79121595Y-90139807D01*
X79291704Y-90161421D01*
X79459089Y-90191310D01*
X79623536Y-90229261D01*
X79784832Y-90275061D01*
X79942764Y-90328496D01*
X80097117Y-90389353D01*
X80247679Y-90457417D01*
X80394235Y-90532476D01*
X80536573Y-90614315D01*
X80674478Y-90702722D01*
X80807738Y-90797483D01*
X80936138Y-90898384D01*
X81059465Y-91005212D01*
X81177507Y-91117754D01*
X81290048Y-91235795D01*
X81396876Y-91359123D01*
X81497777Y-91487523D01*
X81592538Y-91620783D01*
X81680945Y-91758688D01*
X81762785Y-91901026D01*
X81837844Y-92047582D01*
X81905908Y-92198143D01*
X81966764Y-92352497D01*
X82020199Y-92510428D01*
X82065999Y-92671724D01*
X82103951Y-92836172D01*
X82133840Y-93003556D01*
X82155454Y-93173666D01*
X82168579Y-93346285D01*
X82173001Y-93521202D01*
X82177424Y-93346285D01*
X82190549Y-93173666D01*
X82212163Y-93003556D01*
X82242052Y-92836172D01*
X82280004Y-92671724D01*
X82325804Y-92510428D01*
X82379239Y-92352497D01*
X82440095Y-92198143D01*
X82508159Y-92047582D01*
X82583218Y-91901026D01*
X82665058Y-91758688D01*
X82753465Y-91620783D01*
X82848226Y-91487523D01*
X82949127Y-91359123D01*
X83055955Y-91235795D01*
X83168496Y-91117754D01*
X83286538Y-91005212D01*
X83409865Y-90898384D01*
X83538265Y-90797483D01*
X83671525Y-90702722D01*
X83809430Y-90614315D01*
X83951768Y-90532476D01*
X84098324Y-90457417D01*
X84248886Y-90389353D01*
X84403239Y-90328496D01*
X84561171Y-90275061D01*
X84722467Y-90229261D01*
X84886914Y-90191310D01*
X85054299Y-90161421D01*
X85224408Y-90139807D01*
X85397028Y-90126682D01*
X85571945Y-90122259D01*
X85572685Y-90122259D01*
X85747569Y-90126682D01*
X85920161Y-90139807D01*
X86090245Y-90161421D01*
X86257609Y-90191310D01*
X86422040Y-90229261D01*
X86583322Y-90275061D01*
X86741243Y-90328496D01*
X86895588Y-90389353D01*
X87046144Y-90457417D01*
X87192698Y-90532476D01*
X87335035Y-90614315D01*
X87472942Y-90702722D01*
X87606206Y-90797483D01*
X87734611Y-90898384D01*
X87857945Y-91005212D01*
X87975995Y-91117754D01*
X88088545Y-91235795D01*
X88195383Y-91359123D01*
X88296295Y-91487523D01*
X88391067Y-91620783D01*
X88479486Y-91758688D01*
X88561337Y-91901026D01*
X88636407Y-92047582D01*
X88704482Y-92198143D01*
X88765349Y-92352497D01*
X88818794Y-92510428D01*
X88864603Y-92671724D01*
X88902562Y-92836172D01*
X88932458Y-93003556D01*
X88954076Y-93173666D01*
X88967204Y-93346285D01*
X88971628Y-93521202D01*
X88971628Y-96920516D01*
X88971258Y-96920516D01*
X88796341Y-96916094D01*
X88623722Y-96902969D01*
X88453613Y-96881355D01*
X88286228Y-96851465D01*
X88121781Y-96813514D01*
X87960484Y-96767714D01*
X87802553Y-96714279D01*
X87648200Y-96653423D01*
X87497638Y-96585358D01*
X87351082Y-96510300D01*
X87208744Y-96428460D01*
X87070839Y-96340053D01*
X86937579Y-96245292D01*
X86809179Y-96144391D01*
X86685851Y-96037563D01*
X86567810Y-95925021D01*
X86455269Y-95806980D01*
X86348441Y-95683653D01*
X86247539Y-95555252D01*
X86152778Y-95421993D01*
X86064371Y-95284087D01*
X85982532Y-95141750D01*
X85907473Y-94995193D01*
X85839409Y-94844632D01*
X85778552Y-94690279D01*
X85725117Y-94532347D01*
X85679317Y-94371051D01*
X85641366Y-94206604D01*
X85611476Y-94039219D01*
X85589862Y-93869110D01*
X85576737Y-93696490D01*
X85572315Y-93521573D01*
X85572315Y-93543795D01*
X85566829Y-93717736D01*
X85552733Y-93889374D01*
X85530239Y-94058497D01*
X85499557Y-94224894D01*
X85460899Y-94388355D01*
X85414476Y-94548668D01*
X85360499Y-94705623D01*
X85299179Y-94859007D01*
X85230727Y-95008611D01*
X85155354Y-95154223D01*
X85073271Y-95295632D01*
X84984689Y-95432627D01*
X84889820Y-95564997D01*
X84788874Y-95692530D01*
X84682063Y-95815016D01*
X84569597Y-95932244D01*
X84451688Y-96044003D01*
X84328546Y-96150080D01*
X84200384Y-96250267D01*
X84067411Y-96344350D01*
X83929839Y-96432120D01*
X83787878Y-96513365D01*
X83641741Y-96587874D01*
X83491638Y-96655437D01*
X83337781Y-96715841D01*
X83180379Y-96768876D01*
X83019645Y-96814331D01*
X82855789Y-96851995D01*
X82689023Y-96881656D01*
X82519557Y-96903104D01*
X82347603Y-96916128D01*
X82173372Y-96920516D01*
X82173001Y-96920516D01*
X82172632Y-96920516D01*
X81997748Y-96916094D01*
X81825160Y-96902969D01*
X81655080Y-96881355D01*
X81487723Y-96851465D01*
X81323301Y-96813514D01*
X81162029Y-96767714D01*
X81004119Y-96714279D01*
X80849787Y-96653423D01*
X80699244Y-96585358D01*
X80552704Y-96510300D01*
X80410382Y-96428460D01*
X80272491Y-96340053D01*
X80139245Y-96245292D01*
X80010856Y-96144391D01*
X79887539Y-96037563D01*
X79769507Y-95925021D01*
X79656974Y-95806980D01*
X79550153Y-95683653D01*
X79449258Y-95555252D01*
X79354502Y-95421993D01*
X79266100Y-95284087D01*
X79184264Y-95141750D01*
X79109208Y-94995193D01*
X79041146Y-94844632D01*
X78980292Y-94690279D01*
X78926858Y-94532347D01*
X78881059Y-94371051D01*
X78843109Y-94206604D01*
X78813220Y-94039219D01*
X78791606Y-93869110D01*
X78778481Y-93696490D01*
X78774059Y-93521573D01*
X78769635Y-93696490D01*
X78756507Y-93869110D01*
X78734888Y-94039219D01*
X78704992Y-94206604D01*
X78667033Y-94371051D01*
X78621225Y-94532347D01*
X78567780Y-94690279D01*
X78506913Y-94844632D01*
X78438838Y-94995193D01*
X78363767Y-95141750D01*
X78281916Y-95284087D01*
X78193498Y-95421993D01*
X78098726Y-95555252D01*
X77997814Y-95683653D01*
X77890976Y-95806980D01*
X77778425Y-95925021D01*
X77660376Y-96037563D01*
X77537041Y-96144391D01*
X77408636Y-96245292D01*
X77275372Y-96340053D01*
X77137465Y-96428460D01*
X76995128Y-96510300D01*
X76848574Y-96585358D01*
X76698018Y-96653423D01*
X76543673Y-96714279D01*
X76385752Y-96767714D01*
X76224470Y-96813514D01*
X76060040Y-96851465D01*
X75892675Y-96881355D01*
X75722591Y-96902969D01*
X75550000Y-96916094D01*
X75375115Y-96920516D01*
X75374745Y-96920516D01*
X75374745Y-93521202D01*
X75379167Y-93346285D01*
X75392292Y-93173666D01*
X75413906Y-93003556D01*
X75443796Y-92836172D01*
X75481747Y-92671724D01*
X75527547Y-92510428D01*
X75580982Y-92352497D01*
X75641838Y-92198143D01*
X75709903Y-92047582D01*
X75784961Y-91901026D01*
X75866801Y-91758688D01*
X75955208Y-91620783D01*
X76049969Y-91487523D01*
X76150870Y-91359123D01*
X76257698Y-91235795D01*
X76370240Y-91117754D01*
X76488281Y-91005212D01*
X76611608Y-90898384D01*
X76740009Y-90797483D01*
X76873268Y-90702722D01*
X77011174Y-90614315D01*
X77153511Y-90532476D01*
X77300068Y-90457417D01*
X77450629Y-90389353D01*
X77604983Y-90328496D01*
X77762914Y-90275061D01*
X77924210Y-90229261D01*
X78088657Y-90191310D01*
X78256042Y-90161421D01*
X78426152Y-90139807D01*
X78598771Y-90126682D01*
X78773688Y-90122259D01*
X78774059Y-90122259D01*
X78948975Y-90126682D01*
G37*
G36*
X84937739Y-75992350D02*
G01*
X84784797Y-75992350D01*
X84784797Y-75288426D01*
X84782836Y-75288426D01*
X84431854Y-75672740D01*
X84396928Y-75711075D01*
X84379740Y-75729223D01*
X84362736Y-75746699D01*
X84345916Y-75763508D01*
X84329280Y-75779657D01*
X84312828Y-75795151D01*
X84296560Y-75809996D01*
X84280475Y-75824197D01*
X84264574Y-75837761D01*
X84248858Y-75850693D01*
X84233324Y-75862999D01*
X84217975Y-75874684D01*
X84202810Y-75885755D01*
X84187828Y-75896217D01*
X84173031Y-75906075D01*
X84158600Y-75915335D01*
X84143986Y-75923998D01*
X84129188Y-75932063D01*
X84114207Y-75939531D01*
X84099041Y-75946401D01*
X84083692Y-75952674D01*
X84068159Y-75958350D01*
X84052442Y-75963428D01*
X84036541Y-75967909D01*
X84020456Y-75971792D01*
X84004187Y-75975078D01*
X83987735Y-75977766D01*
X83971099Y-75979857D01*
X83954279Y-75981351D01*
X83937275Y-75982247D01*
X83920088Y-75982546D01*
X83904372Y-75982316D01*
X83888845Y-75981627D01*
X83873514Y-75980478D01*
X83858384Y-75978869D01*
X83843461Y-75976801D01*
X83828750Y-75974274D01*
X83814258Y-75971286D01*
X83799989Y-75967840D01*
X83785951Y-75963933D01*
X83772148Y-75959568D01*
X83758586Y-75954742D01*
X83745271Y-75949457D01*
X83732209Y-75943713D01*
X83719406Y-75937509D01*
X83706866Y-75930845D01*
X83694597Y-75923722D01*
X83682647Y-75916208D01*
X83671060Y-75908369D01*
X83659828Y-75900202D01*
X83648947Y-75891706D01*
X83638411Y-75882876D01*
X83628213Y-75873710D01*
X83618349Y-75864205D01*
X83608812Y-75854359D01*
X83599597Y-75844168D01*
X83590698Y-75833629D01*
X83582109Y-75822740D01*
X83573824Y-75811497D01*
X83565838Y-75799899D01*
X83558145Y-75787941D01*
X83550740Y-75775621D01*
X83543616Y-75762937D01*
X83536860Y-75749955D01*
X83530560Y-75736742D01*
X83524715Y-75723300D01*
X83519320Y-75709628D01*
X83514374Y-75695726D01*
X83509873Y-75681595D01*
X83505814Y-75667234D01*
X83502194Y-75652643D01*
X83499011Y-75637822D01*
X83496262Y-75622771D01*
X83493944Y-75607491D01*
X83492053Y-75591981D01*
X83490588Y-75576241D01*
X83489545Y-75560271D01*
X83488921Y-75544071D01*
X83488714Y-75527642D01*
X83488944Y-75510133D01*
X83489637Y-75492899D01*
X83490795Y-75475941D01*
X83492421Y-75459259D01*
X83494518Y-75442853D01*
X83497089Y-75426722D01*
X83500137Y-75410868D01*
X83503665Y-75395289D01*
X83507675Y-75379985D01*
X83512171Y-75364958D01*
X83517154Y-75350206D01*
X83522629Y-75335730D01*
X83528598Y-75321529D01*
X83535064Y-75307605D01*
X83542030Y-75293956D01*
X83549498Y-75280583D01*
X83557403Y-75267553D01*
X83565675Y-75254932D01*
X83574314Y-75242712D01*
X83583322Y-75230889D01*
X83592697Y-75219456D01*
X83602440Y-75208408D01*
X83612550Y-75197740D01*
X83623028Y-75187444D01*
X83633874Y-75177517D01*
X83645087Y-75167951D01*
X83656668Y-75158742D01*
X83668616Y-75149882D01*
X83680932Y-75141368D01*
X83693616Y-75133193D01*
X83706668Y-75125350D01*
X83720087Y-75117836D01*
X83734151Y-75110712D01*
X83748407Y-75104049D01*
X83762865Y-75097845D01*
X83777532Y-75092100D01*
X83792418Y-75086816D01*
X83807530Y-75081990D01*
X83822878Y-75077625D01*
X83838470Y-75073718D01*
X83854315Y-75070272D01*
X83870421Y-75067285D01*
X83886797Y-75064757D01*
X83903452Y-75062689D01*
X83920393Y-75061081D01*
X83937631Y-75059932D01*
X83955173Y-75059243D01*
X83973029Y-75059013D01*
X83973029Y-75219798D01*
X83954164Y-75220119D01*
X83935805Y-75221081D01*
X83917951Y-75222680D01*
X83900602Y-75224914D01*
X83883760Y-75227780D01*
X83867422Y-75231275D01*
X83851590Y-75235396D01*
X83836264Y-75240141D01*
X83821443Y-75245506D01*
X83807128Y-75251488D01*
X83793318Y-75258085D01*
X83780014Y-75265294D01*
X83767215Y-75273112D01*
X83754922Y-75281535D01*
X83743134Y-75290562D01*
X83731852Y-75300190D01*
X83720822Y-75310715D01*
X83710525Y-75321705D01*
X83700957Y-75333166D01*
X83692115Y-75345104D01*
X83683998Y-75357525D01*
X83676601Y-75370434D01*
X83669923Y-75383837D01*
X83663960Y-75397739D01*
X83658709Y-75412148D01*
X83654167Y-75427067D01*
X83650332Y-75442504D01*
X83647201Y-75458463D01*
X83644771Y-75474950D01*
X83643038Y-75491972D01*
X83642001Y-75509534D01*
X83641656Y-75527642D01*
X83641955Y-75544346D01*
X83642851Y-75560631D01*
X83644344Y-75576491D01*
X83646435Y-75591920D01*
X83649124Y-75606912D01*
X83652410Y-75621462D01*
X83656293Y-75635563D01*
X83660773Y-75649211D01*
X83665852Y-75662400D01*
X83671527Y-75675123D01*
X83677800Y-75687375D01*
X83684670Y-75699150D01*
X83692138Y-75710443D01*
X83700203Y-75721247D01*
X83708866Y-75731557D01*
X83718126Y-75741368D01*
X83727893Y-75750973D01*
X83738075Y-75759938D01*
X83748677Y-75768266D01*
X83759701Y-75775958D01*
X83771151Y-75783018D01*
X83783028Y-75789450D01*
X83795336Y-75795255D01*
X83808078Y-75800437D01*
X83821256Y-75804999D01*
X83834874Y-75808943D01*
X83848934Y-75812272D01*
X83863439Y-75814990D01*
X83878393Y-75817098D01*
X83893797Y-75818601D01*
X83909655Y-75819500D01*
X83925970Y-75819800D01*
X83935115Y-75819707D01*
X83944165Y-75819424D01*
X83953117Y-75818946D01*
X83961969Y-75818268D01*
X83970718Y-75817382D01*
X83979360Y-75816284D01*
X83987893Y-75814967D01*
X83996314Y-75813427D01*
X84004620Y-75811657D01*
X84012808Y-75809651D01*
X84020876Y-75807404D01*
X84028820Y-75804910D01*
X84036638Y-75802163D01*
X84044326Y-75799158D01*
X84051883Y-75795888D01*
X84059304Y-75792349D01*
X84067025Y-75788925D01*
X84074745Y-75785272D01*
X84082466Y-75781388D01*
X84090186Y-75777275D01*
X84097907Y-75772932D01*
X84105628Y-75768359D01*
X84113348Y-75763557D01*
X84121069Y-75758525D01*
X84128789Y-75753263D01*
X84136510Y-75747771D01*
X84144231Y-75742049D01*
X84151951Y-75736098D01*
X84159672Y-75729917D01*
X84167393Y-75723506D01*
X84175113Y-75716865D01*
X84182834Y-75709995D01*
X84199286Y-75694825D01*
X84216290Y-75678714D01*
X84233845Y-75661638D01*
X84251952Y-75643573D01*
X84270610Y-75624498D01*
X84289820Y-75604389D01*
X84309581Y-75583222D01*
X84329893Y-75560975D01*
X84792640Y-75055090D01*
X84937739Y-75055090D01*
X84937739Y-75992350D01*
G37*
G36*
X84539360Y-82072829D02*
G01*
X84554522Y-82074254D01*
X84569495Y-82076138D01*
X84584275Y-82078482D01*
X84598860Y-82081286D01*
X84613247Y-82084549D01*
X84627432Y-82088272D01*
X84641414Y-82092454D01*
X84655189Y-82097096D01*
X84668754Y-82102197D01*
X84682107Y-82107758D01*
X84695244Y-82113778D01*
X84708163Y-82120258D01*
X84720861Y-82127198D01*
X84733334Y-82134597D01*
X84745581Y-82142456D01*
X84757553Y-82150727D01*
X84769206Y-82159363D01*
X84780544Y-82168361D01*
X84791568Y-82177718D01*
X84802282Y-82187432D01*
X84812689Y-82197498D01*
X84822791Y-82207916D01*
X84832591Y-82218680D01*
X84842093Y-82229790D01*
X84851299Y-82241241D01*
X84860212Y-82253031D01*
X84868835Y-82265158D01*
X84877171Y-82277617D01*
X84885223Y-82290407D01*
X84892992Y-82303525D01*
X84900484Y-82316967D01*
X84907262Y-82330684D01*
X84913623Y-82344632D01*
X84919566Y-82358809D01*
X84925086Y-82373216D01*
X84930181Y-82387852D01*
X84934848Y-82402719D01*
X84939084Y-82417816D01*
X84942886Y-82433142D01*
X84946252Y-82448698D01*
X84949178Y-82464484D01*
X84951662Y-82480500D01*
X84953701Y-82496745D01*
X84955292Y-82513220D01*
X84956432Y-82529925D01*
X84957118Y-82546860D01*
X84957347Y-82564025D01*
X84957095Y-82581556D01*
X84956340Y-82598851D01*
X84955085Y-82615906D01*
X84953333Y-82632713D01*
X84951088Y-82649268D01*
X84948351Y-82665564D01*
X84945126Y-82681596D01*
X84941415Y-82697358D01*
X84937222Y-82712844D01*
X84932550Y-82728049D01*
X84927400Y-82742966D01*
X84921777Y-82757591D01*
X84915682Y-82771917D01*
X84909120Y-82785938D01*
X84902092Y-82799650D01*
X84894601Y-82813045D01*
X84886696Y-82826118D01*
X84878421Y-82838864D01*
X84869772Y-82851277D01*
X84860747Y-82863351D01*
X84851343Y-82875080D01*
X84841556Y-82886459D01*
X84831385Y-82897481D01*
X84820826Y-82908142D01*
X84809877Y-82918436D01*
X84798534Y-82928356D01*
X84786794Y-82937897D01*
X84774656Y-82947053D01*
X84762115Y-82955818D01*
X84749169Y-82964187D01*
X84735816Y-82972154D01*
X84722051Y-82979714D01*
X84708310Y-82987182D01*
X84694294Y-82994147D01*
X84680001Y-83000612D01*
X84665433Y-83006581D01*
X84650590Y-83012056D01*
X84635470Y-83017040D01*
X84620075Y-83021535D01*
X84604404Y-83025546D01*
X84588457Y-83029073D01*
X84572235Y-83032121D01*
X84555737Y-83034693D01*
X84538963Y-83036790D01*
X84521913Y-83038416D01*
X84504588Y-83039575D01*
X84486986Y-83040267D01*
X84469109Y-83040498D01*
X84451578Y-83040268D01*
X84434278Y-83039582D01*
X84417215Y-83038442D01*
X84400390Y-83036851D01*
X84383806Y-83034812D01*
X84367466Y-83032328D01*
X84351373Y-83029402D01*
X84335530Y-83026036D01*
X84319940Y-83022234D01*
X84304606Y-83017998D01*
X84289530Y-83013331D01*
X84274715Y-83008236D01*
X84260165Y-83002716D01*
X84245882Y-82996775D01*
X84231869Y-82990414D01*
X84218128Y-82983636D01*
X84204709Y-82976490D01*
X84191654Y-82969018D01*
X84178961Y-82961219D01*
X84166627Y-82953090D01*
X84154649Y-82944628D01*
X84143024Y-82935829D01*
X84131750Y-82926692D01*
X84120824Y-82917212D01*
X84110242Y-82907388D01*
X84100002Y-82897217D01*
X84090101Y-82886695D01*
X84080536Y-82875820D01*
X84071304Y-82864589D01*
X84062402Y-82852999D01*
X84053828Y-82841047D01*
X84045578Y-82828730D01*
X84038110Y-82816093D01*
X84031144Y-82803187D01*
X84024678Y-82790015D01*
X84018709Y-82776586D01*
X84013234Y-82762903D01*
X84008251Y-82748974D01*
X84003755Y-82734803D01*
X83999745Y-82720397D01*
X83996217Y-82705761D01*
X83993169Y-82690901D01*
X83990598Y-82675823D01*
X83988501Y-82660532D01*
X83986875Y-82645034D01*
X83985717Y-82629336D01*
X83985024Y-82613441D01*
X83984794Y-82597358D01*
X83985345Y-82572266D01*
X83987000Y-82547726D01*
X83989757Y-82523737D01*
X83993618Y-82500300D01*
X83998581Y-82477414D01*
X84004647Y-82455079D01*
X84011816Y-82433296D01*
X84020088Y-82412064D01*
X84029463Y-82391384D01*
X84039941Y-82371255D01*
X84051522Y-82351677D01*
X84064206Y-82332651D01*
X84077993Y-82314177D01*
X84092882Y-82296253D01*
X84108875Y-82278881D01*
X84125971Y-82262061D01*
X84125971Y-82260103D01*
X83665184Y-82293436D01*
X83665184Y-82962063D01*
X83510282Y-82962063D01*
X83510282Y-82138533D01*
X84324011Y-82089515D01*
X84324011Y-82256181D01*
X84313120Y-82260431D01*
X84302511Y-82265096D01*
X84292189Y-82270174D01*
X84282160Y-82275666D01*
X84272430Y-82281571D01*
X84263004Y-82287890D01*
X84253889Y-82294623D01*
X84245089Y-82301769D01*
X84236611Y-82309329D01*
X84228461Y-82317303D01*
X84220643Y-82325690D01*
X84213165Y-82334490D01*
X84206031Y-82343705D01*
X84199248Y-82353332D01*
X84192821Y-82363373D01*
X84186756Y-82373828D01*
X84181057Y-82384605D01*
X84175726Y-82395615D01*
X84170763Y-82406860D01*
X84166167Y-82418343D01*
X84161939Y-82430068D01*
X84158079Y-82442038D01*
X84154586Y-82454254D01*
X84151461Y-82466720D01*
X84148704Y-82479439D01*
X84146314Y-82492414D01*
X84144292Y-82505647D01*
X84142637Y-82519141D01*
X84141350Y-82532900D01*
X84140431Y-82546926D01*
X84139880Y-82561221D01*
X84139696Y-82575790D01*
X84139857Y-82586749D01*
X84140343Y-82597565D01*
X84141157Y-82608231D01*
X84142300Y-82618742D01*
X84143777Y-82629093D01*
X84145590Y-82639277D01*
X84147742Y-82649289D01*
X84150236Y-82659122D01*
X84153074Y-82668772D01*
X84156260Y-82678232D01*
X84159796Y-82687497D01*
X84163686Y-82696561D01*
X84167931Y-82705418D01*
X84172536Y-82714063D01*
X84177503Y-82722489D01*
X84182834Y-82730691D01*
X84188118Y-82739032D01*
X84193676Y-82747143D01*
X84199503Y-82755025D01*
X84205598Y-82762677D01*
X84211956Y-82770099D01*
X84218576Y-82777291D01*
X84225455Y-82784253D01*
X84232589Y-82790986D01*
X84239976Y-82797489D01*
X84247613Y-82803762D01*
X84255497Y-82809806D01*
X84263625Y-82815619D01*
X84271994Y-82821203D01*
X84280602Y-82826557D01*
X84289445Y-82831681D01*
X84298521Y-82836576D01*
X84308149Y-82840871D01*
X84317918Y-82844931D01*
X84327831Y-82848750D01*
X84337890Y-82852322D01*
X84348098Y-82855642D01*
X84358459Y-82858702D01*
X84368975Y-82861499D01*
X84379648Y-82864025D01*
X84390483Y-82866276D01*
X84401481Y-82868245D01*
X84412646Y-82869927D01*
X84423981Y-82871317D01*
X84435487Y-82872407D01*
X84447169Y-82873193D01*
X84459029Y-82873669D01*
X84471070Y-82873829D01*
X84483111Y-82873668D01*
X84494967Y-82873189D01*
X84506640Y-82872394D01*
X84518129Y-82871286D01*
X84529435Y-82869868D01*
X84540556Y-82868142D01*
X84551494Y-82866112D01*
X84562247Y-82863780D01*
X84572817Y-82861150D01*
X84583203Y-82858224D01*
X84593406Y-82855005D01*
X84603424Y-82851495D01*
X84613259Y-82847699D01*
X84622909Y-82843618D01*
X84632376Y-82839256D01*
X84641659Y-82834616D01*
X84651081Y-82829375D01*
X84660229Y-82823945D01*
X84669108Y-82818320D01*
X84677720Y-82812494D01*
X84686067Y-82806461D01*
X84694153Y-82800215D01*
X84701980Y-82793752D01*
X84709552Y-82787064D01*
X84716871Y-82780146D01*
X84723940Y-82772993D01*
X84730762Y-82765599D01*
X84737340Y-82757958D01*
X84743676Y-82750064D01*
X84749774Y-82741911D01*
X84755637Y-82733495D01*
X84761267Y-82724808D01*
X84766275Y-82716238D01*
X84771002Y-82707444D01*
X84775442Y-82698432D01*
X84779589Y-82689207D01*
X84783436Y-82679776D01*
X84786980Y-82670144D01*
X84790213Y-82660316D01*
X84793130Y-82650298D01*
X84795726Y-82640097D01*
X84797994Y-82629718D01*
X84799929Y-82619166D01*
X84801525Y-82608448D01*
X84802776Y-82597569D01*
X84803677Y-82586535D01*
X84804222Y-82575352D01*
X84804405Y-82564025D01*
X84804084Y-82547664D01*
X84803122Y-82531667D01*
X84801523Y-82516033D01*
X84799288Y-82500758D01*
X84796422Y-82485839D01*
X84792927Y-82471273D01*
X84788806Y-82457058D01*
X84784062Y-82443190D01*
X84778697Y-82429667D01*
X84772714Y-82416485D01*
X84766117Y-82403643D01*
X84758908Y-82391137D01*
X84751091Y-82378964D01*
X84742667Y-82367121D01*
X84733640Y-82355606D01*
X84724012Y-82344415D01*
X84714248Y-82333684D01*
X84704079Y-82323551D01*
X84693513Y-82314015D01*
X84682560Y-82305077D01*
X84671228Y-82296736D01*
X84659525Y-82288992D01*
X84647460Y-82281846D01*
X84635042Y-82275297D01*
X84622279Y-82269346D01*
X84609180Y-82263992D01*
X84595753Y-82259236D01*
X84582008Y-82255077D01*
X84567953Y-82251515D01*
X84553596Y-82248551D01*
X84538946Y-82246184D01*
X84524011Y-82244415D01*
X84524011Y-82071864D01*
X84539360Y-82072829D01*
G37*
G36*
X84840020Y-76169023D02*
G01*
X84846125Y-76169437D01*
X84852128Y-76170126D01*
X84858020Y-76171091D01*
X84863799Y-76172332D01*
X84869456Y-76173848D01*
X84874987Y-76175641D01*
X84880386Y-76177709D01*
X84885647Y-76180053D01*
X84890764Y-76182672D01*
X84895732Y-76185567D01*
X84900545Y-76188738D01*
X84905197Y-76192185D01*
X84909683Y-76195908D01*
X84913996Y-76199906D01*
X84918131Y-76204180D01*
X84922405Y-76208638D01*
X84926403Y-76213191D01*
X84930125Y-76217842D01*
X84933572Y-76222593D01*
X84936743Y-76227448D01*
X84939638Y-76232409D01*
X84942258Y-76237479D01*
X84944601Y-76242661D01*
X84946669Y-76247958D01*
X84948462Y-76253372D01*
X84949978Y-76258908D01*
X84951219Y-76264566D01*
X84952184Y-76270351D01*
X84952873Y-76276266D01*
X84953287Y-76282312D01*
X84953425Y-76288494D01*
X84953287Y-76294697D01*
X84952873Y-76300802D01*
X84952184Y-76306804D01*
X84951219Y-76312697D01*
X84949978Y-76318475D01*
X84948462Y-76324133D01*
X84946669Y-76329664D01*
X84944601Y-76335063D01*
X84942258Y-76340324D01*
X84939638Y-76345441D01*
X84936743Y-76350409D01*
X84933572Y-76355222D01*
X84930125Y-76359874D01*
X84926403Y-76364360D01*
X84922405Y-76368673D01*
X84918131Y-76372808D01*
X84913996Y-76377082D01*
X84909683Y-76381080D01*
X84905197Y-76384803D01*
X84900545Y-76388249D01*
X84895732Y-76391420D01*
X84890764Y-76394316D01*
X84885647Y-76396935D01*
X84880386Y-76399279D01*
X84874987Y-76401347D01*
X84869456Y-76403139D01*
X84863799Y-76404656D01*
X84858020Y-76405897D01*
X84852128Y-76406862D01*
X84846125Y-76407551D01*
X84840020Y-76407965D01*
X84833817Y-76408103D01*
X84827635Y-76407965D01*
X84821589Y-76407551D01*
X84815674Y-76406862D01*
X84809889Y-76405897D01*
X84804230Y-76404656D01*
X84798695Y-76403139D01*
X84793280Y-76401347D01*
X84787983Y-76399279D01*
X84782801Y-76396935D01*
X84777731Y-76394316D01*
X84772771Y-76391420D01*
X84767916Y-76388249D01*
X84763165Y-76384803D01*
X84758514Y-76381080D01*
X84753961Y-76377082D01*
X84749503Y-76372808D01*
X84745229Y-76368673D01*
X84741231Y-76364360D01*
X84737508Y-76359874D01*
X84734062Y-76355222D01*
X84730891Y-76350409D01*
X84727995Y-76345441D01*
X84725376Y-76340324D01*
X84723032Y-76335063D01*
X84720964Y-76329664D01*
X84719172Y-76324133D01*
X84717655Y-76318475D01*
X84716414Y-76312697D01*
X84715449Y-76306804D01*
X84714760Y-76300802D01*
X84714346Y-76294697D01*
X84714209Y-76288494D01*
X84714346Y-76282312D01*
X84714760Y-76276266D01*
X84715449Y-76270351D01*
X84716414Y-76264566D01*
X84717655Y-76258908D01*
X84719172Y-76253372D01*
X84720964Y-76247958D01*
X84723032Y-76242661D01*
X84725376Y-76237479D01*
X84727995Y-76232409D01*
X84730891Y-76227448D01*
X84734062Y-76222593D01*
X84737508Y-76217842D01*
X84741231Y-76213191D01*
X84745229Y-76208638D01*
X84749503Y-76204180D01*
X84753961Y-76199906D01*
X84758514Y-76195908D01*
X84763165Y-76192185D01*
X84767916Y-76188738D01*
X84772771Y-76185567D01*
X84777731Y-76182672D01*
X84782801Y-76180053D01*
X84787983Y-76177709D01*
X84793280Y-76175641D01*
X84798695Y-76173848D01*
X84804230Y-76172332D01*
X84809889Y-76171091D01*
X84815674Y-76170126D01*
X84821589Y-76169437D01*
X84827635Y-76169023D01*
X84833817Y-76168885D01*
X84840020Y-76169023D01*
G37*
G36*
X84937739Y-81914936D02*
G01*
X84784797Y-81914936D01*
X84784797Y-81211011D01*
X84782836Y-81211011D01*
X84431854Y-81595327D01*
X84396928Y-81633663D01*
X84379740Y-81651811D01*
X84362736Y-81669287D01*
X84345916Y-81686096D01*
X84329280Y-81702245D01*
X84312828Y-81717738D01*
X84296560Y-81732583D01*
X84280475Y-81746784D01*
X84264574Y-81760348D01*
X84248858Y-81773279D01*
X84233324Y-81785585D01*
X84217975Y-81797270D01*
X84202810Y-81808340D01*
X84187828Y-81818801D01*
X84173031Y-81828659D01*
X84158600Y-81837920D01*
X84143986Y-81846583D01*
X84129188Y-81854649D01*
X84114207Y-81862117D01*
X84099041Y-81868988D01*
X84083692Y-81875261D01*
X84068159Y-81880937D01*
X84052442Y-81886016D01*
X84036541Y-81890496D01*
X84020456Y-81894380D01*
X84004187Y-81897666D01*
X83987735Y-81900354D01*
X83971099Y-81902445D01*
X83954279Y-81903939D01*
X83937275Y-81904835D01*
X83920088Y-81905134D01*
X83904372Y-81904904D01*
X83888845Y-81904215D01*
X83873514Y-81903066D01*
X83858384Y-81901457D01*
X83843461Y-81899389D01*
X83828750Y-81896861D01*
X83814258Y-81893874D01*
X83799989Y-81890427D01*
X83785951Y-81886520D01*
X83772148Y-81882155D01*
X83758586Y-81877329D01*
X83745271Y-81872044D01*
X83732209Y-81866300D01*
X83719406Y-81860096D01*
X83706866Y-81853433D01*
X83694597Y-81846310D01*
X83682647Y-81838795D01*
X83671060Y-81830956D01*
X83659828Y-81822789D01*
X83648947Y-81814292D01*
X83638411Y-81805462D01*
X83628213Y-81796296D01*
X83618349Y-81786792D01*
X83608812Y-81776945D01*
X83599597Y-81766754D01*
X83590698Y-81756215D01*
X83582109Y-81745326D01*
X83573824Y-81734083D01*
X83565838Y-81722485D01*
X83558145Y-81710527D01*
X83550740Y-81698208D01*
X83543616Y-81685524D01*
X83536860Y-81672541D01*
X83530560Y-81659329D01*
X83524715Y-81645886D01*
X83519320Y-81632214D01*
X83514374Y-81618312D01*
X83509873Y-81604181D01*
X83505814Y-81589819D01*
X83502194Y-81575228D01*
X83499011Y-81560408D01*
X83496262Y-81545357D01*
X83493944Y-81530077D01*
X83492053Y-81514567D01*
X83490588Y-81498827D01*
X83489545Y-81482857D01*
X83488921Y-81466658D01*
X83488714Y-81450229D01*
X83488944Y-81432719D01*
X83489637Y-81415486D01*
X83490795Y-81398528D01*
X83492421Y-81381846D01*
X83494518Y-81365440D01*
X83497089Y-81349309D01*
X83500137Y-81333455D01*
X83503665Y-81317876D01*
X83507675Y-81302573D01*
X83512171Y-81287546D01*
X83517154Y-81272794D01*
X83522629Y-81258318D01*
X83528598Y-81244118D01*
X83535064Y-81230193D01*
X83542030Y-81216544D01*
X83549498Y-81203171D01*
X83557403Y-81190141D01*
X83565675Y-81177519D01*
X83574314Y-81165299D01*
X83583322Y-81153476D01*
X83592697Y-81142043D01*
X83602440Y-81130995D01*
X83612550Y-81120327D01*
X83623028Y-81110032D01*
X83633874Y-81100104D01*
X83645087Y-81090539D01*
X83656668Y-81081329D01*
X83668616Y-81072470D01*
X83680932Y-81063956D01*
X83693616Y-81055780D01*
X83706668Y-81047938D01*
X83720087Y-81040422D01*
X83734151Y-81033300D01*
X83748407Y-81026636D01*
X83762865Y-81020433D01*
X83777532Y-81014688D01*
X83792418Y-81009403D01*
X83807530Y-81004578D01*
X83822878Y-81000212D01*
X83838470Y-80996306D01*
X83854315Y-80992859D01*
X83870421Y-80989871D01*
X83886797Y-80987344D01*
X83903452Y-80985275D01*
X83920393Y-80983667D01*
X83937631Y-80982518D01*
X83955173Y-80981828D01*
X83973029Y-80981599D01*
X83973029Y-81142385D01*
X83954164Y-81142706D01*
X83935805Y-81143668D01*
X83917951Y-81145267D01*
X83900602Y-81147501D01*
X83883760Y-81150367D01*
X83867422Y-81153862D01*
X83851590Y-81157983D01*
X83836264Y-81162728D01*
X83821443Y-81168092D01*
X83807128Y-81174075D01*
X83793318Y-81180672D01*
X83780014Y-81187881D01*
X83767215Y-81195698D01*
X83754922Y-81204122D01*
X83743134Y-81213149D01*
X83731852Y-81222776D01*
X83720822Y-81233301D01*
X83710525Y-81244291D01*
X83700957Y-81255752D01*
X83692115Y-81267690D01*
X83683998Y-81280111D01*
X83676601Y-81293020D01*
X83669923Y-81306423D01*
X83663960Y-81320326D01*
X83658709Y-81334734D01*
X83654167Y-81349654D01*
X83650332Y-81365090D01*
X83647201Y-81381049D01*
X83644771Y-81397537D01*
X83643038Y-81414559D01*
X83642001Y-81432121D01*
X83641656Y-81450229D01*
X83641955Y-81466933D01*
X83642851Y-81483218D01*
X83644344Y-81499078D01*
X83646435Y-81514506D01*
X83649124Y-81529499D01*
X83652410Y-81544049D01*
X83656293Y-81558150D01*
X83660773Y-81571798D01*
X83665852Y-81584987D01*
X83671527Y-81597710D01*
X83677800Y-81609962D01*
X83684670Y-81621737D01*
X83692138Y-81633030D01*
X83700203Y-81643835D01*
X83708866Y-81654145D01*
X83718126Y-81663956D01*
X83727893Y-81673561D01*
X83738075Y-81682525D01*
X83748677Y-81690852D01*
X83759701Y-81698544D01*
X83771151Y-81705605D01*
X83783028Y-81712036D01*
X83795336Y-81717842D01*
X83808078Y-81723024D01*
X83821256Y-81727586D01*
X83834874Y-81731530D01*
X83848934Y-81734859D01*
X83863439Y-81737577D01*
X83878393Y-81739686D01*
X83893797Y-81741189D01*
X83909655Y-81742089D01*
X83925970Y-81742388D01*
X83935115Y-81742295D01*
X83944165Y-81742012D01*
X83953117Y-81741535D01*
X83961969Y-81740856D01*
X83970718Y-81739970D01*
X83979360Y-81738872D01*
X83987893Y-81737556D01*
X83996314Y-81736015D01*
X84004620Y-81734245D01*
X84012808Y-81732239D01*
X84020876Y-81729992D01*
X84028820Y-81727497D01*
X84036638Y-81724750D01*
X84044326Y-81721745D01*
X84051883Y-81718475D01*
X84059304Y-81714935D01*
X84067025Y-81711511D01*
X84074745Y-81707858D01*
X84082466Y-81703975D01*
X84090186Y-81699862D01*
X84097907Y-81695519D01*
X84105628Y-81690946D01*
X84113348Y-81686144D01*
X84121069Y-81681112D01*
X84128789Y-81675850D01*
X84136510Y-81670358D01*
X84144231Y-81664636D01*
X84151951Y-81658685D01*
X84159672Y-81652504D01*
X84167393Y-81646093D01*
X84175113Y-81639453D01*
X84182834Y-81632583D01*
X84199286Y-81617414D01*
X84216290Y-81601302D01*
X84233845Y-81584226D01*
X84251952Y-81566161D01*
X84270610Y-81547086D01*
X84289820Y-81526976D01*
X84309581Y-81505809D01*
X84329893Y-81483562D01*
X84792640Y-80977679D01*
X84937739Y-80977679D01*
X84937739Y-81914936D01*
G37*
G36*
X84253683Y-79779332D02*
G01*
X84280935Y-79780087D01*
X84307727Y-79781342D01*
X84334060Y-79783093D01*
X84359933Y-79785339D01*
X84385347Y-79788076D01*
X84410301Y-79791301D01*
X84434795Y-79795011D01*
X84458830Y-79799204D01*
X84482406Y-79803877D01*
X84505522Y-79809026D01*
X84528178Y-79814650D01*
X84550375Y-79820745D01*
X84572112Y-79827307D01*
X84593389Y-79834336D01*
X84614208Y-79841826D01*
X84634520Y-79850099D01*
X84654278Y-79858741D01*
X84673478Y-79867758D01*
X84692119Y-79877150D01*
X84710196Y-79886922D01*
X84727708Y-79897076D01*
X84744651Y-79907614D01*
X84761022Y-79918541D01*
X84776819Y-79929858D01*
X84792039Y-79941569D01*
X84806678Y-79953676D01*
X84820735Y-79966182D01*
X84834205Y-79979091D01*
X84847087Y-79992404D01*
X84859377Y-80006125D01*
X84871072Y-80020258D01*
X84881779Y-80034779D01*
X84891836Y-80049666D01*
X84901239Y-80064914D01*
X84909981Y-80080521D01*
X84918057Y-80096485D01*
X84925461Y-80112801D01*
X84932187Y-80129468D01*
X84938229Y-80146483D01*
X84943582Y-80163842D01*
X84948240Y-80181543D01*
X84952197Y-80199584D01*
X84955447Y-80217960D01*
X84957985Y-80236669D01*
X84959805Y-80255709D01*
X84960902Y-80275076D01*
X84961268Y-80294768D01*
X84960902Y-80314115D01*
X84959805Y-80333180D01*
X84957985Y-80351958D01*
X84955447Y-80370443D01*
X84952197Y-80388629D01*
X84948240Y-80406511D01*
X84943582Y-80424082D01*
X84938229Y-80441338D01*
X84932187Y-80458272D01*
X84925461Y-80474878D01*
X84918057Y-80491152D01*
X84909981Y-80507086D01*
X84901239Y-80522676D01*
X84891836Y-80537915D01*
X84881779Y-80552798D01*
X84871072Y-80567319D01*
X84859377Y-80581796D01*
X84847087Y-80595816D01*
X84834205Y-80609382D01*
X84820735Y-80622497D01*
X84806678Y-80635164D01*
X84792039Y-80647386D01*
X84776819Y-80659165D01*
X84761022Y-80670505D01*
X84744651Y-80681408D01*
X84727708Y-80691878D01*
X84710196Y-80701917D01*
X84692119Y-80711528D01*
X84673478Y-80720714D01*
X84654278Y-80729478D01*
X84634520Y-80737823D01*
X84614208Y-80745751D01*
X84593389Y-80753564D01*
X84572112Y-80760832D01*
X84550375Y-80767559D01*
X84528178Y-80773752D01*
X84505522Y-80779417D01*
X84482406Y-80784559D01*
X84458830Y-80789185D01*
X84434795Y-80793299D01*
X84410301Y-80796907D01*
X84385347Y-80800016D01*
X84334060Y-80804757D01*
X84280935Y-80807568D01*
X84225972Y-80808495D01*
X84170277Y-80807568D01*
X84143126Y-80806401D01*
X84116443Y-80804757D01*
X84090231Y-80802630D01*
X84064493Y-80800016D01*
X84039232Y-80796907D01*
X84014451Y-80793299D01*
X83990152Y-80789185D01*
X83966339Y-80784559D01*
X83943014Y-80779417D01*
X83920180Y-80773752D01*
X83897840Y-80767559D01*
X83875997Y-80760832D01*
X83854654Y-80753564D01*
X83833813Y-80745751D01*
X83813523Y-80737823D01*
X83793828Y-80729478D01*
X83774724Y-80720714D01*
X83756209Y-80711528D01*
X83738280Y-80701917D01*
X83720934Y-80691878D01*
X83704168Y-80681408D01*
X83687979Y-80670505D01*
X83672365Y-80659165D01*
X83657323Y-80647386D01*
X83642849Y-80635164D01*
X83628941Y-80622497D01*
X83615596Y-80609382D01*
X83602811Y-80595816D01*
X83590583Y-80581796D01*
X83578910Y-80567319D01*
X83567880Y-80552798D01*
X83557583Y-80537915D01*
X83548015Y-80522676D01*
X83539173Y-80507086D01*
X83531056Y-80491152D01*
X83523659Y-80474878D01*
X83516981Y-80458272D01*
X83511018Y-80441338D01*
X83505767Y-80424082D01*
X83501225Y-80406511D01*
X83497390Y-80388629D01*
X83494259Y-80370443D01*
X83491829Y-80351958D01*
X83490096Y-80333180D01*
X83489059Y-80314115D01*
X83488714Y-80294768D01*
X83641656Y-80294768D01*
X83642254Y-80314736D01*
X83643002Y-80324529D01*
X83644049Y-80334195D01*
X83645397Y-80343732D01*
X83647046Y-80353142D01*
X83648995Y-80362423D01*
X83651245Y-80371576D01*
X83653797Y-80380599D01*
X83656651Y-80389492D01*
X83659808Y-80398256D01*
X83663267Y-80406889D01*
X83667029Y-80415391D01*
X83671094Y-80423763D01*
X83675463Y-80432003D01*
X83680136Y-80440111D01*
X83685114Y-80448087D01*
X83690396Y-80455931D01*
X83695984Y-80463642D01*
X83701877Y-80471219D01*
X83708076Y-80478663D01*
X83714582Y-80485974D01*
X83721394Y-80493150D01*
X83728513Y-80500191D01*
X83743673Y-80513868D01*
X83760065Y-80527003D01*
X83777693Y-80539591D01*
X83796558Y-80551632D01*
X83816503Y-80563028D01*
X83837367Y-80573690D01*
X83859150Y-80583616D01*
X83881852Y-80592808D01*
X83905474Y-80601264D01*
X83930014Y-80608985D01*
X83955474Y-80615970D01*
X83981853Y-80622220D01*
X84009151Y-80627735D01*
X84037368Y-80632515D01*
X84066504Y-80636559D01*
X84096559Y-80639868D01*
X84127534Y-80642442D01*
X84159427Y-80644280D01*
X84192240Y-80645383D01*
X84225972Y-80645751D01*
X84259336Y-80645383D01*
X84291785Y-80644280D01*
X84323319Y-80642442D01*
X84353944Y-80639868D01*
X84383661Y-80636559D01*
X84412473Y-80632515D01*
X84440383Y-80627735D01*
X84467394Y-80622220D01*
X84493509Y-80615970D01*
X84518731Y-80608985D01*
X84543062Y-80601264D01*
X84566506Y-80592808D01*
X84589065Y-80583616D01*
X84610742Y-80573690D01*
X84631540Y-80563028D01*
X84651463Y-80551632D01*
X84670350Y-80539591D01*
X84688040Y-80527003D01*
X84704529Y-80513868D01*
X84719815Y-80500191D01*
X84733895Y-80485974D01*
X84746765Y-80471219D01*
X84758423Y-80455931D01*
X84768866Y-80440111D01*
X84778091Y-80423763D01*
X84786096Y-80406889D01*
X84792877Y-80389492D01*
X84798431Y-80371576D01*
X84802756Y-80353142D01*
X84805849Y-80334195D01*
X84807707Y-80314736D01*
X84808327Y-80294768D01*
X84808172Y-80284543D01*
X84807707Y-80274456D01*
X84806933Y-80264506D01*
X84805849Y-80254695D01*
X84804457Y-80245021D01*
X84802756Y-80235485D01*
X84800747Y-80226087D01*
X84798431Y-80216827D01*
X84795807Y-80207704D01*
X84792877Y-80198720D01*
X84789639Y-80189873D01*
X84786096Y-80181165D01*
X84782246Y-80172594D01*
X84778091Y-80164161D01*
X84773631Y-80155866D01*
X84768866Y-80147709D01*
X84763796Y-80139689D01*
X84758423Y-80131808D01*
X84752745Y-80124064D01*
X84746765Y-80116459D01*
X84740481Y-80108991D01*
X84733895Y-80101661D01*
X84719815Y-80087414D01*
X84704529Y-80073719D01*
X84688040Y-80060576D01*
X84670350Y-80047983D01*
X84651463Y-80035943D01*
X84631540Y-80024546D01*
X84610742Y-80013884D01*
X84589065Y-80003957D01*
X84566506Y-79994766D01*
X84543062Y-79986310D01*
X84518731Y-79978589D01*
X84493509Y-79971604D01*
X84467394Y-79965354D01*
X84440383Y-79959840D01*
X84412473Y-79955061D01*
X84383661Y-79951017D01*
X84353944Y-79947708D01*
X84323319Y-79945134D01*
X84291785Y-79943296D01*
X84259336Y-79942193D01*
X84225972Y-79941826D01*
X84192240Y-79942193D01*
X84159427Y-79943296D01*
X84127534Y-79945134D01*
X84096559Y-79947708D01*
X84066504Y-79951017D01*
X84037368Y-79955061D01*
X84009151Y-79959840D01*
X83981853Y-79965354D01*
X83955474Y-79971604D01*
X83930014Y-79978589D01*
X83905474Y-79986310D01*
X83881852Y-79994766D01*
X83859150Y-80003957D01*
X83837367Y-80013884D01*
X83816503Y-80024546D01*
X83796558Y-80035943D01*
X83777693Y-80047983D01*
X83760065Y-80060576D01*
X83743673Y-80073719D01*
X83728513Y-80087414D01*
X83714582Y-80101661D01*
X83701877Y-80116459D01*
X83690396Y-80131808D01*
X83680136Y-80147709D01*
X83671094Y-80164161D01*
X83663267Y-80181165D01*
X83656651Y-80198720D01*
X83651245Y-80216827D01*
X83647046Y-80235485D01*
X83644049Y-80254695D01*
X83642254Y-80274456D01*
X83641656Y-80294768D01*
X83488714Y-80294768D01*
X83489059Y-80275076D01*
X83490096Y-80255709D01*
X83491829Y-80236669D01*
X83494259Y-80217960D01*
X83497390Y-80199584D01*
X83501225Y-80181543D01*
X83505767Y-80163842D01*
X83511018Y-80146483D01*
X83516981Y-80129468D01*
X83523659Y-80112801D01*
X83531056Y-80096485D01*
X83539173Y-80080521D01*
X83548015Y-80064914D01*
X83557583Y-80049666D01*
X83567880Y-80034779D01*
X83578910Y-80020258D01*
X83590583Y-80006125D01*
X83602811Y-79992404D01*
X83615596Y-79979091D01*
X83628941Y-79966182D01*
X83642849Y-79953676D01*
X83657323Y-79941569D01*
X83672365Y-79929858D01*
X83687979Y-79918541D01*
X83704168Y-79907614D01*
X83720934Y-79897076D01*
X83738280Y-79886922D01*
X83756209Y-79877150D01*
X83774724Y-79867758D01*
X83793828Y-79858741D01*
X83813523Y-79850099D01*
X83833813Y-79841826D01*
X83854654Y-79834336D01*
X83875997Y-79827307D01*
X83897840Y-79820745D01*
X83920180Y-79814650D01*
X83943014Y-79809026D01*
X83966339Y-79803877D01*
X84014451Y-79795011D01*
X84064493Y-79788076D01*
X84116443Y-79783093D01*
X84170277Y-79780087D01*
X84225972Y-79779080D01*
X84253683Y-79779332D01*
G37*
G36*
X83688714Y-76714132D02*
G01*
X84937739Y-76714132D01*
X84937739Y-76880800D01*
X83510282Y-76880800D01*
X83510282Y-76714132D01*
X83749499Y-76357268D01*
X83924010Y-76357268D01*
X83688714Y-76714132D01*
G37*
G36*
X84840020Y-78248540D02*
G01*
X84846125Y-78248954D01*
X84852128Y-78249643D01*
X84858020Y-78250609D01*
X84863799Y-78251849D01*
X84869456Y-78253366D01*
X84874987Y-78255158D01*
X84880386Y-78257226D01*
X84885647Y-78259570D01*
X84890764Y-78262190D01*
X84895732Y-78265085D01*
X84900545Y-78268256D01*
X84905197Y-78271703D01*
X84909683Y-78275425D01*
X84913996Y-78279423D01*
X84918131Y-78283697D01*
X84922405Y-78288155D01*
X84926403Y-78292708D01*
X84930125Y-78297359D01*
X84933572Y-78302110D01*
X84936743Y-78306965D01*
X84939638Y-78311926D01*
X84942258Y-78316996D01*
X84944601Y-78322178D01*
X84946669Y-78327475D01*
X84948462Y-78332889D01*
X84949978Y-78338425D01*
X84951219Y-78344084D01*
X84952184Y-78349869D01*
X84952873Y-78355783D01*
X84953287Y-78361830D01*
X84953425Y-78368011D01*
X84953287Y-78374215D01*
X84952873Y-78380320D01*
X84952184Y-78386322D01*
X84951219Y-78392215D01*
X84949978Y-78397993D01*
X84948462Y-78403650D01*
X84946669Y-78409181D01*
X84944601Y-78414580D01*
X84942258Y-78419841D01*
X84939638Y-78424958D01*
X84936743Y-78429926D01*
X84933572Y-78434739D01*
X84930125Y-78439391D01*
X84926403Y-78443876D01*
X84922405Y-78448190D01*
X84918131Y-78452324D01*
X84913996Y-78456599D01*
X84909683Y-78460597D01*
X84905197Y-78464319D01*
X84900545Y-78467766D01*
X84895732Y-78470937D01*
X84890764Y-78473832D01*
X84885647Y-78476452D01*
X84880386Y-78478796D01*
X84874987Y-78480864D01*
X84869456Y-78482656D01*
X84863799Y-78484172D01*
X84858020Y-78485413D01*
X84852128Y-78486378D01*
X84846125Y-78487068D01*
X84840020Y-78487481D01*
X84833817Y-78487619D01*
X84827635Y-78487481D01*
X84821589Y-78487068D01*
X84815674Y-78486378D01*
X84809889Y-78485413D01*
X84804230Y-78484172D01*
X84798695Y-78482656D01*
X84793280Y-78480864D01*
X84787983Y-78478796D01*
X84782801Y-78476452D01*
X84777731Y-78473832D01*
X84772771Y-78470937D01*
X84767916Y-78467766D01*
X84763165Y-78464319D01*
X84758514Y-78460597D01*
X84753961Y-78456599D01*
X84749503Y-78452324D01*
X84745229Y-78448190D01*
X84741231Y-78443876D01*
X84737508Y-78439391D01*
X84734062Y-78434739D01*
X84730891Y-78429926D01*
X84727995Y-78424958D01*
X84725376Y-78419841D01*
X84723032Y-78414580D01*
X84720964Y-78409181D01*
X84719172Y-78403650D01*
X84717655Y-78397993D01*
X84716414Y-78392215D01*
X84715449Y-78386322D01*
X84714760Y-78380320D01*
X84714346Y-78374215D01*
X84714209Y-78368011D01*
X84714346Y-78361830D01*
X84714760Y-78355783D01*
X84715449Y-78349869D01*
X84716414Y-78344084D01*
X84717655Y-78338425D01*
X84719172Y-78332889D01*
X84720964Y-78327475D01*
X84723032Y-78322178D01*
X84725376Y-78316996D01*
X84727995Y-78311926D01*
X84730891Y-78306965D01*
X84734062Y-78302110D01*
X84737508Y-78297359D01*
X84741231Y-78292708D01*
X84745229Y-78288155D01*
X84749503Y-78283697D01*
X84753961Y-78279423D01*
X84758514Y-78275425D01*
X84763165Y-78271703D01*
X84767916Y-78268256D01*
X84772771Y-78265085D01*
X84777731Y-78262190D01*
X84782801Y-78259570D01*
X84787983Y-78257226D01*
X84793280Y-78255158D01*
X84798695Y-78253366D01*
X84804230Y-78251849D01*
X84809889Y-78250609D01*
X84815674Y-78249643D01*
X84821589Y-78248954D01*
X84827635Y-78248540D01*
X84833817Y-78248403D01*
X84840020Y-78248540D01*
G37*
G36*
X75550000Y-65063947D02*
G01*
X75722591Y-65077072D01*
X75892675Y-65098686D01*
X76060040Y-65128575D01*
X76224470Y-65166527D01*
X76385752Y-65212327D01*
X76543673Y-65265762D01*
X76698018Y-65326618D01*
X76848574Y-65394682D01*
X76995128Y-65469741D01*
X77137465Y-65551581D01*
X77275372Y-65639988D01*
X77408636Y-65734749D01*
X77537041Y-65835650D01*
X77660376Y-65942478D01*
X77778425Y-66055019D01*
X77890976Y-66173061D01*
X77997814Y-66296388D01*
X78098726Y-66424789D01*
X78193498Y-66558048D01*
X78281916Y-66695954D01*
X78363767Y-66838291D01*
X78438838Y-66984848D01*
X78506913Y-67135409D01*
X78567780Y-67289762D01*
X78621225Y-67447694D01*
X78667033Y-67608990D01*
X78704992Y-67773437D01*
X78734888Y-67940822D01*
X78756507Y-68110932D01*
X78769635Y-68283551D01*
X78774059Y-68458468D01*
X78778481Y-68283551D01*
X78791606Y-68110932D01*
X78813220Y-67940822D01*
X78843109Y-67773437D01*
X78881059Y-67608990D01*
X78926858Y-67447694D01*
X78980292Y-67289762D01*
X79041146Y-67135409D01*
X79109208Y-66984848D01*
X79184264Y-66838291D01*
X79266100Y-66695954D01*
X79354502Y-66558048D01*
X79449258Y-66424789D01*
X79550153Y-66296388D01*
X79656974Y-66173061D01*
X79769507Y-66055019D01*
X79887539Y-65942478D01*
X80010856Y-65835650D01*
X80139245Y-65734749D01*
X80272491Y-65639988D01*
X80410382Y-65551581D01*
X80552704Y-65469741D01*
X80699244Y-65394682D01*
X80849787Y-65326618D01*
X81004119Y-65265762D01*
X81162029Y-65212327D01*
X81323301Y-65166527D01*
X81487723Y-65128575D01*
X81655080Y-65098686D01*
X81825160Y-65077072D01*
X81997748Y-65063947D01*
X82172632Y-65059525D01*
X82173001Y-65059525D01*
X82173372Y-65059525D01*
X82347603Y-65063913D01*
X82519557Y-65076936D01*
X82689023Y-65098384D01*
X82855789Y-65128046D01*
X83019645Y-65165710D01*
X83180379Y-65211165D01*
X83337781Y-65264200D01*
X83491638Y-65324604D01*
X83641741Y-65392167D01*
X83787878Y-65466676D01*
X83929839Y-65547921D01*
X84067411Y-65635691D01*
X84200384Y-65729774D01*
X84328546Y-65829961D01*
X84451688Y-65936039D01*
X84569597Y-66047797D01*
X84682063Y-66165025D01*
X84788874Y-66287511D01*
X84889820Y-66415044D01*
X84984689Y-66547414D01*
X85073271Y-66684409D01*
X85155354Y-66825818D01*
X85230727Y-66971430D01*
X85299179Y-67121034D01*
X85360499Y-67274418D01*
X85414476Y-67431373D01*
X85460899Y-67591686D01*
X85499557Y-67755147D01*
X85530239Y-67921544D01*
X85552733Y-68090667D01*
X85566829Y-68262304D01*
X85572315Y-68436245D01*
X85572315Y-68458468D01*
X85576737Y-68283551D01*
X85589862Y-68110932D01*
X85611476Y-67940822D01*
X85641366Y-67773437D01*
X85679317Y-67608990D01*
X85725117Y-67447694D01*
X85778552Y-67289762D01*
X85839409Y-67135409D01*
X85907473Y-66984848D01*
X85982532Y-66838291D01*
X86064371Y-66695954D01*
X86152778Y-66558048D01*
X86247539Y-66424789D01*
X86348441Y-66296388D01*
X86455269Y-66173061D01*
X86567810Y-66055019D01*
X86685851Y-65942478D01*
X86809179Y-65835650D01*
X86937579Y-65734749D01*
X87070839Y-65639988D01*
X87208744Y-65551581D01*
X87351082Y-65469741D01*
X87497638Y-65394682D01*
X87648200Y-65326618D01*
X87802553Y-65265762D01*
X87960484Y-65212327D01*
X88121781Y-65166527D01*
X88286228Y-65128575D01*
X88453613Y-65098686D01*
X88623722Y-65077072D01*
X88796341Y-65063947D01*
X88971258Y-65059525D01*
X88971628Y-65059525D01*
X88971628Y-68458838D01*
X88967204Y-68633755D01*
X88954076Y-68806375D01*
X88932458Y-68976484D01*
X88902562Y-69143869D01*
X88864603Y-69308316D01*
X88818794Y-69469613D01*
X88765349Y-69627544D01*
X88704482Y-69781897D01*
X88636407Y-69932459D01*
X88561337Y-70079016D01*
X88479486Y-70221353D01*
X88391067Y-70359259D01*
X88296295Y-70492518D01*
X88195383Y-70620919D01*
X88088545Y-70744246D01*
X87975995Y-70862287D01*
X87857945Y-70974829D01*
X87734611Y-71081657D01*
X87606206Y-71182558D01*
X87472942Y-71277319D01*
X87335035Y-71365726D01*
X87192698Y-71447566D01*
X87046144Y-71522624D01*
X86895588Y-71590689D01*
X86741243Y-71651545D01*
X86583322Y-71704980D01*
X86422040Y-71750780D01*
X86257609Y-71788731D01*
X86090245Y-71818621D01*
X85920161Y-71840235D01*
X85747569Y-71853360D01*
X85572685Y-71857782D01*
X85571945Y-71857782D01*
X85397028Y-71853360D01*
X85224408Y-71840235D01*
X85054299Y-71818621D01*
X84886914Y-71788731D01*
X84722467Y-71750780D01*
X84561171Y-71704980D01*
X84403239Y-71651545D01*
X84248886Y-71590689D01*
X84098324Y-71522624D01*
X83951768Y-71447566D01*
X83809430Y-71365726D01*
X83671525Y-71277319D01*
X83538265Y-71182558D01*
X83409865Y-71081657D01*
X83286538Y-70974829D01*
X83168496Y-70862287D01*
X83055955Y-70744246D01*
X82949127Y-70620919D01*
X82848226Y-70492518D01*
X82753465Y-70359259D01*
X82665058Y-70221353D01*
X82583218Y-70079016D01*
X82508159Y-69932459D01*
X82440095Y-69781897D01*
X82379239Y-69627544D01*
X82325804Y-69469613D01*
X82280004Y-69308316D01*
X82242052Y-69143869D01*
X82212163Y-68976484D01*
X82190549Y-68806375D01*
X82177424Y-68633755D01*
X82173001Y-68458838D01*
X82168579Y-68633755D01*
X82155454Y-68806375D01*
X82133840Y-68976484D01*
X82103951Y-69143869D01*
X82065999Y-69308316D01*
X82020199Y-69469613D01*
X81966764Y-69627544D01*
X81905908Y-69781897D01*
X81837844Y-69932459D01*
X81762785Y-70079016D01*
X81680945Y-70221353D01*
X81592538Y-70359259D01*
X81497777Y-70492518D01*
X81396876Y-70620919D01*
X81290048Y-70744246D01*
X81177507Y-70862287D01*
X81059465Y-70974829D01*
X80936138Y-71081657D01*
X80807738Y-71182558D01*
X80674478Y-71277319D01*
X80536573Y-71365726D01*
X80394235Y-71447566D01*
X80247679Y-71522624D01*
X80097117Y-71590689D01*
X79942764Y-71651545D01*
X79784832Y-71704980D01*
X79623536Y-71750780D01*
X79459089Y-71788731D01*
X79291704Y-71818621D01*
X79121595Y-71840235D01*
X78948975Y-71853360D01*
X78774059Y-71857782D01*
X78773688Y-71857782D01*
X78598771Y-71853360D01*
X78426152Y-71840235D01*
X78256042Y-71818621D01*
X78088657Y-71788731D01*
X77924210Y-71750780D01*
X77762914Y-71704980D01*
X77604983Y-71651545D01*
X77450629Y-71590689D01*
X77300068Y-71522624D01*
X77153511Y-71447566D01*
X77011174Y-71365726D01*
X76873268Y-71277319D01*
X76740009Y-71182558D01*
X76611608Y-71081657D01*
X76488281Y-70974829D01*
X76370240Y-70862287D01*
X76257698Y-70744246D01*
X76150870Y-70620919D01*
X76049969Y-70492518D01*
X75955208Y-70359259D01*
X75866801Y-70221353D01*
X75784961Y-70079016D01*
X75709903Y-69932459D01*
X75641838Y-69781897D01*
X75580982Y-69627544D01*
X75527547Y-69469613D01*
X75481747Y-69308316D01*
X75443796Y-69143869D01*
X75413906Y-68976484D01*
X75392292Y-68806375D01*
X75379167Y-68633755D01*
X75374745Y-68458838D01*
X75374745Y-65059525D01*
X75375115Y-65059525D01*
X75550000Y-65063947D01*
G37*
G36*
X79965224Y-85916782D02*
G01*
X82862428Y-85437052D01*
X82862428Y-86043773D01*
X79965224Y-86523504D01*
X79965224Y-87586439D01*
X79438459Y-87671100D01*
X79438459Y-84938509D01*
X79965224Y-84849145D01*
X79965224Y-85916782D01*
G37*
G36*
X78948975Y-97990429D02*
G01*
X79121595Y-98003554D01*
X79291704Y-98025168D01*
X79459089Y-98055057D01*
X79623536Y-98093009D01*
X79784832Y-98138809D01*
X79942764Y-98192244D01*
X80097117Y-98253100D01*
X80247679Y-98321164D01*
X80394235Y-98396223D01*
X80536573Y-98478063D01*
X80674478Y-98566470D01*
X80807738Y-98661231D01*
X80936138Y-98762132D01*
X81059465Y-98868960D01*
X81177507Y-98981502D01*
X81290048Y-99099543D01*
X81396876Y-99222871D01*
X81497777Y-99351271D01*
X81592538Y-99484531D01*
X81680945Y-99622436D01*
X81762785Y-99764774D01*
X81837844Y-99911330D01*
X81905908Y-100061892D01*
X81966764Y-100216245D01*
X82020199Y-100374177D01*
X82065999Y-100535473D01*
X82103951Y-100699921D01*
X82133840Y-100867306D01*
X82155454Y-101037415D01*
X82168579Y-101210035D01*
X82173001Y-101384952D01*
X82177424Y-101210035D01*
X82190549Y-101037415D01*
X82212163Y-100867306D01*
X82242052Y-100699921D01*
X82280004Y-100535473D01*
X82325804Y-100374177D01*
X82379239Y-100216245D01*
X82440095Y-100061892D01*
X82508159Y-99911330D01*
X82583218Y-99764774D01*
X82665058Y-99622436D01*
X82753465Y-99484531D01*
X82848226Y-99351271D01*
X82949127Y-99222871D01*
X83055955Y-99099543D01*
X83168496Y-98981502D01*
X83286538Y-98868960D01*
X83409865Y-98762132D01*
X83538265Y-98661231D01*
X83671525Y-98566470D01*
X83809430Y-98478063D01*
X83951768Y-98396223D01*
X84098324Y-98321164D01*
X84248886Y-98253100D01*
X84403239Y-98192244D01*
X84561171Y-98138809D01*
X84722467Y-98093009D01*
X84886914Y-98055057D01*
X85054299Y-98025168D01*
X85224408Y-98003554D01*
X85397028Y-97990429D01*
X85571945Y-97986007D01*
X85572685Y-97986007D01*
X85747569Y-97990429D01*
X85920161Y-98003554D01*
X86090245Y-98025168D01*
X86257609Y-98055057D01*
X86422040Y-98093009D01*
X86583322Y-98138809D01*
X86741243Y-98192244D01*
X86895588Y-98253100D01*
X87046144Y-98321164D01*
X87192698Y-98396223D01*
X87335035Y-98478063D01*
X87472942Y-98566470D01*
X87606206Y-98661231D01*
X87734611Y-98762132D01*
X87857945Y-98868960D01*
X87975995Y-98981502D01*
X88088545Y-99099543D01*
X88195383Y-99222871D01*
X88296295Y-99351271D01*
X88391067Y-99484531D01*
X88479486Y-99622436D01*
X88561337Y-99764774D01*
X88636407Y-99911330D01*
X88704482Y-100061892D01*
X88765349Y-100216245D01*
X88818794Y-100374177D01*
X88864603Y-100535473D01*
X88902562Y-100699921D01*
X88932458Y-100867306D01*
X88954076Y-101037415D01*
X88967204Y-101210035D01*
X88971628Y-101384952D01*
X88971628Y-104784264D01*
X88971258Y-104784264D01*
X88796341Y-104779841D01*
X88623722Y-104766716D01*
X88453613Y-104745102D01*
X88286228Y-104715213D01*
X88121781Y-104677261D01*
X87960484Y-104631462D01*
X87802553Y-104578027D01*
X87648200Y-104517170D01*
X87497638Y-104449106D01*
X87351082Y-104374048D01*
X87208744Y-104292208D01*
X87070839Y-104203801D01*
X86937579Y-104109040D01*
X86809179Y-104008139D01*
X86685851Y-103901311D01*
X86567810Y-103788770D01*
X86455269Y-103670729D01*
X86348441Y-103547401D01*
X86247539Y-103419001D01*
X86152778Y-103285741D01*
X86064371Y-103147836D01*
X85982532Y-103005498D01*
X85907473Y-102858942D01*
X85839409Y-102708380D01*
X85778552Y-102554027D01*
X85725117Y-102396096D01*
X85679317Y-102234799D01*
X85641366Y-102070352D01*
X85611476Y-101902967D01*
X85589862Y-101732858D01*
X85576737Y-101560238D01*
X85572315Y-101385321D01*
X85572315Y-101407545D01*
X85566829Y-101581486D01*
X85552733Y-101753123D01*
X85530239Y-101922246D01*
X85499557Y-102088643D01*
X85460899Y-102252104D01*
X85414476Y-102412417D01*
X85360499Y-102569371D01*
X85299179Y-102722756D01*
X85230727Y-102872360D01*
X85155354Y-103017972D01*
X85073271Y-103159380D01*
X84984689Y-103296375D01*
X84889820Y-103428745D01*
X84788874Y-103556278D01*
X84682063Y-103678764D01*
X84569597Y-103795992D01*
X84451688Y-103907750D01*
X84328546Y-104013828D01*
X84200384Y-104114014D01*
X84067411Y-104208098D01*
X83929839Y-104295868D01*
X83787878Y-104377113D01*
X83641741Y-104451622D01*
X83491638Y-104519184D01*
X83337781Y-104579588D01*
X83180379Y-104632624D01*
X83019645Y-104678079D01*
X82855789Y-104715742D01*
X82689023Y-104745404D01*
X82519557Y-104766852D01*
X82347603Y-104779875D01*
X82173372Y-104784264D01*
X82173001Y-104784264D01*
X82172632Y-104784264D01*
X81997748Y-104779841D01*
X81825160Y-104766716D01*
X81655080Y-104745102D01*
X81487723Y-104715213D01*
X81323301Y-104677261D01*
X81162029Y-104631462D01*
X81004119Y-104578027D01*
X80849787Y-104517170D01*
X80699244Y-104449106D01*
X80552704Y-104374048D01*
X80410382Y-104292208D01*
X80272491Y-104203801D01*
X80139245Y-104109040D01*
X80010856Y-104008139D01*
X79887539Y-103901311D01*
X79769507Y-103788770D01*
X79656974Y-103670729D01*
X79550153Y-103547401D01*
X79449258Y-103419001D01*
X79354502Y-103285741D01*
X79266100Y-103147836D01*
X79184264Y-103005498D01*
X79109208Y-102858942D01*
X79041146Y-102708380D01*
X78980292Y-102554027D01*
X78926858Y-102396096D01*
X78881059Y-102234799D01*
X78843109Y-102070352D01*
X78813220Y-101902967D01*
X78791606Y-101732858D01*
X78778481Y-101560238D01*
X78774059Y-101385321D01*
X78769635Y-101560238D01*
X78756507Y-101732858D01*
X78734888Y-101902967D01*
X78704992Y-102070352D01*
X78667033Y-102234799D01*
X78621225Y-102396096D01*
X78567780Y-102554027D01*
X78506913Y-102708380D01*
X78438838Y-102858942D01*
X78363767Y-103005498D01*
X78281916Y-103147836D01*
X78193498Y-103285741D01*
X78098726Y-103419001D01*
X77997814Y-103547401D01*
X77890976Y-103670729D01*
X77778425Y-103788770D01*
X77660376Y-103901311D01*
X77537041Y-104008139D01*
X77408636Y-104109040D01*
X77275372Y-104203801D01*
X77137465Y-104292208D01*
X76995128Y-104374048D01*
X76848574Y-104449106D01*
X76698018Y-104517170D01*
X76543673Y-104578027D01*
X76385752Y-104631462D01*
X76224470Y-104677261D01*
X76060040Y-104715213D01*
X75892675Y-104745102D01*
X75722591Y-104766716D01*
X75550000Y-104779841D01*
X75375115Y-104784264D01*
X75374745Y-104784264D01*
X75374745Y-101384952D01*
X75379167Y-101210035D01*
X75392292Y-101037415D01*
X75413906Y-100867306D01*
X75443796Y-100699921D01*
X75481747Y-100535473D01*
X75527547Y-100374177D01*
X75580982Y-100216245D01*
X75641838Y-100061892D01*
X75709903Y-99911330D01*
X75784961Y-99764774D01*
X75866801Y-99622436D01*
X75955208Y-99484531D01*
X76049969Y-99351271D01*
X76150870Y-99222871D01*
X76257698Y-99099543D01*
X76370240Y-98981502D01*
X76488281Y-98868960D01*
X76611608Y-98762132D01*
X76740009Y-98661231D01*
X76873268Y-98566470D01*
X77011174Y-98478063D01*
X77153511Y-98396223D01*
X77300068Y-98321164D01*
X77450629Y-98253100D01*
X77604983Y-98192244D01*
X77762914Y-98138809D01*
X77924210Y-98093009D01*
X78088657Y-98055057D01*
X78256042Y-98025168D01*
X78426152Y-98003554D01*
X78598771Y-97990429D01*
X78773688Y-97986007D01*
X78774059Y-97986007D01*
X78948975Y-97990429D01*
G37*
G36*
X82862428Y-82164998D02*
G01*
X82044062Y-82583587D01*
X82044062Y-83909906D01*
X82862428Y-84046299D01*
X82862428Y-84695347D01*
X79438459Y-84041597D01*
X79438459Y-83594791D01*
X79988740Y-83594791D01*
X80296215Y-83636530D01*
X80571943Y-83674744D01*
X80822392Y-83710018D01*
X81065785Y-83745293D01*
X81545517Y-83825247D01*
X81545517Y-82837564D01*
X81065785Y-83082135D01*
X80944970Y-83139456D01*
X80822392Y-83198540D01*
X80698050Y-83259387D01*
X80571943Y-83321999D01*
X80296215Y-83449576D01*
X79988740Y-83594791D01*
X79438459Y-83594791D01*
X79438459Y-83279670D01*
X82862428Y-81492433D01*
X82862428Y-82164998D01*
G37*
G36*
X82862428Y-74914737D02*
G01*
X81630176Y-75116977D01*
X81630176Y-75808356D01*
X81629679Y-75854818D01*
X81628183Y-75900721D01*
X81625681Y-75946060D01*
X81622166Y-75990827D01*
X81617631Y-76035015D01*
X81612070Y-76078618D01*
X81605476Y-76121628D01*
X81597841Y-76164039D01*
X81589159Y-76205843D01*
X81579423Y-76247035D01*
X81568626Y-76287606D01*
X81556761Y-76327550D01*
X81543821Y-76366861D01*
X81529800Y-76405531D01*
X81514690Y-76443553D01*
X81498485Y-76480920D01*
X81482117Y-76518399D01*
X81464772Y-76554997D01*
X81446462Y-76590712D01*
X81427201Y-76625546D01*
X81407003Y-76659498D01*
X81385882Y-76692567D01*
X81363851Y-76724755D01*
X81340925Y-76756061D01*
X81317117Y-76786486D01*
X81292441Y-76816028D01*
X81266911Y-76844688D01*
X81240540Y-76872467D01*
X81213343Y-76899363D01*
X81185332Y-76925378D01*
X81156523Y-76950511D01*
X81126927Y-76974762D01*
X81095732Y-76998075D01*
X81063874Y-77020389D01*
X81031356Y-77041697D01*
X80998176Y-77061993D01*
X80964335Y-77081269D01*
X80929832Y-77099518D01*
X80894668Y-77116734D01*
X80858842Y-77132909D01*
X80822355Y-77148038D01*
X80785207Y-77162112D01*
X80747397Y-77175125D01*
X80708926Y-77187070D01*
X80669793Y-77197941D01*
X80629999Y-77207730D01*
X80589544Y-77216430D01*
X80548427Y-77224035D01*
X80506430Y-77230428D01*
X80465101Y-77235499D01*
X80424447Y-77239247D01*
X80384475Y-77241672D01*
X80345192Y-77242775D01*
X80306605Y-77242554D01*
X80268720Y-77241011D01*
X80231545Y-77238145D01*
X80195087Y-77233956D01*
X80159352Y-77228445D01*
X80124348Y-77221610D01*
X80090080Y-77213453D01*
X80056557Y-77203973D01*
X80023785Y-77193171D01*
X79991770Y-77181045D01*
X79960520Y-77167597D01*
X79930096Y-77152936D01*
X79900554Y-77137172D01*
X79871893Y-77120307D01*
X79844115Y-77102339D01*
X79817218Y-77083268D01*
X79791203Y-77063096D01*
X79766070Y-77041821D01*
X79741819Y-77019444D01*
X79718450Y-76995964D01*
X79695962Y-76971382D01*
X79674357Y-76945698D01*
X79653633Y-76918911D01*
X79633791Y-76891023D01*
X79614831Y-76862031D01*
X79596753Y-76831938D01*
X79579557Y-76800742D01*
X79562471Y-76768500D01*
X79546487Y-76735273D01*
X79531606Y-76701067D01*
X79517827Y-76665891D01*
X79505150Y-76629749D01*
X79493575Y-76592650D01*
X79483103Y-76554601D01*
X79473734Y-76515607D01*
X79465466Y-76475677D01*
X79458301Y-76434816D01*
X79452238Y-76393032D01*
X79447278Y-76350332D01*
X79443420Y-76306722D01*
X79440664Y-76262210D01*
X79439010Y-76216802D01*
X79438459Y-76170506D01*
X79438459Y-76062330D01*
X79960520Y-76062330D01*
X79961127Y-76099645D01*
X79962945Y-76135754D01*
X79965977Y-76170665D01*
X79970221Y-76204384D01*
X79975677Y-76236917D01*
X79982346Y-76268273D01*
X79990228Y-76298457D01*
X79999322Y-76327477D01*
X80009629Y-76355340D01*
X80021148Y-76382051D01*
X80033880Y-76407620D01*
X80047824Y-76432051D01*
X80062981Y-76455352D01*
X80079351Y-76477531D01*
X80096933Y-76498593D01*
X80115727Y-76518546D01*
X80134741Y-76537122D01*
X80154741Y-76554059D01*
X80175718Y-76569370D01*
X80197667Y-76583069D01*
X80220581Y-76595170D01*
X80244452Y-76605685D01*
X80269274Y-76614630D01*
X80295039Y-76622018D01*
X80321742Y-76627863D01*
X80349375Y-76632178D01*
X80377931Y-76634978D01*
X80407403Y-76636275D01*
X80437785Y-76636085D01*
X80469069Y-76634420D01*
X80501249Y-76631294D01*
X80534317Y-76626722D01*
X80567387Y-76620771D01*
X80599575Y-76613503D01*
X80630881Y-76604927D01*
X80661305Y-76595048D01*
X80690848Y-76583875D01*
X80719508Y-76571413D01*
X80747287Y-76557669D01*
X80774183Y-76542651D01*
X80800198Y-76526365D01*
X80825331Y-76508819D01*
X80849582Y-76490018D01*
X80872952Y-76469971D01*
X80895439Y-76448684D01*
X80917044Y-76426163D01*
X80937768Y-76402416D01*
X80957610Y-76377449D01*
X80976405Y-76351489D01*
X80993987Y-76324758D01*
X81010356Y-76297255D01*
X81025513Y-76268981D01*
X81039458Y-76239934D01*
X81052190Y-76210116D01*
X81063709Y-76179527D01*
X81074016Y-76148166D01*
X81083110Y-76116033D01*
X81090992Y-76083129D01*
X81097661Y-76049453D01*
X81103117Y-76015005D01*
X81107361Y-75979786D01*
X81110393Y-75943795D01*
X81112211Y-75907032D01*
X81112818Y-75869498D01*
X81112818Y-75206338D01*
X79960520Y-75399173D01*
X79960520Y-76062330D01*
X79438459Y-76062330D01*
X79438459Y-75399173D01*
X79438459Y-74877112D01*
X82862428Y-74308017D01*
X82862428Y-74914737D01*
G37*
G36*
X84506205Y-77114975D02*
G01*
X84523376Y-77115733D01*
X84540237Y-77116997D01*
X84556794Y-77118766D01*
X84573052Y-77121041D01*
X84589017Y-77123821D01*
X84604694Y-77127107D01*
X84620091Y-77130899D01*
X84635211Y-77135195D01*
X84650062Y-77139998D01*
X84664648Y-77145305D01*
X84678976Y-77151119D01*
X84693051Y-77157438D01*
X84706879Y-77164262D01*
X84720465Y-77171592D01*
X84733816Y-77179428D01*
X84747213Y-77187377D01*
X84760199Y-77195777D01*
X84772777Y-77204619D01*
X84784950Y-77213895D01*
X84796721Y-77223596D01*
X84808093Y-77233713D01*
X84819068Y-77244239D01*
X84829650Y-77255163D01*
X84839841Y-77266478D01*
X84849645Y-77278176D01*
X84859063Y-77290246D01*
X84868100Y-77302682D01*
X84876758Y-77315473D01*
X84885039Y-77328612D01*
X84892947Y-77342090D01*
X84900484Y-77355899D01*
X84907952Y-77370029D01*
X84914918Y-77384476D01*
X84921384Y-77399233D01*
X84927353Y-77414294D01*
X84932828Y-77429654D01*
X84937812Y-77445307D01*
X84942307Y-77461247D01*
X84946317Y-77477468D01*
X84949845Y-77493965D01*
X84952893Y-77510733D01*
X84955464Y-77527764D01*
X84957561Y-77545054D01*
X84959187Y-77562597D01*
X84960345Y-77580387D01*
X84961038Y-77598418D01*
X84961268Y-77616685D01*
X84961061Y-77634217D01*
X84960437Y-77651519D01*
X84959394Y-77668591D01*
X84957929Y-77685434D01*
X84956038Y-77702047D01*
X84953720Y-77718431D01*
X84950971Y-77734584D01*
X84947788Y-77750508D01*
X84944168Y-77766202D01*
X84940109Y-77781666D01*
X84935608Y-77796901D01*
X84930661Y-77811905D01*
X84925267Y-77826680D01*
X84919421Y-77841225D01*
X84913122Y-77855541D01*
X84906366Y-77869626D01*
X84899565Y-77883413D01*
X84892399Y-77896832D01*
X84884871Y-77909884D01*
X84876985Y-77922568D01*
X84868742Y-77934884D01*
X84860146Y-77946832D01*
X84851199Y-77958413D01*
X84841905Y-77969626D01*
X84832266Y-77980472D01*
X84822286Y-77990950D01*
X84811966Y-78001060D01*
X84801311Y-78010803D01*
X84790322Y-78020178D01*
X84779003Y-78029185D01*
X84767357Y-78037825D01*
X84755386Y-78046098D01*
X84743484Y-78053933D01*
X84731312Y-78061263D01*
X84718876Y-78068087D01*
X84706182Y-78074406D01*
X84693235Y-78080220D01*
X84680040Y-78085527D01*
X84666605Y-78090330D01*
X84652934Y-78094627D01*
X84639033Y-78098418D01*
X84624908Y-78101704D01*
X84610565Y-78104484D01*
X84596010Y-78106759D01*
X84581247Y-78108528D01*
X84566284Y-78109792D01*
X84551125Y-78110550D01*
X84535777Y-78110803D01*
X84520105Y-78110481D01*
X84504710Y-78109516D01*
X84489591Y-78107907D01*
X84474747Y-78105656D01*
X84460179Y-78102760D01*
X84445886Y-78099222D01*
X84431870Y-78095040D01*
X84418129Y-78090215D01*
X84404664Y-78084746D01*
X84391474Y-78078634D01*
X84378561Y-78071879D01*
X84365923Y-78064480D01*
X84353561Y-78056438D01*
X84341474Y-78047752D01*
X84329664Y-78038423D01*
X84318129Y-78028451D01*
X84306985Y-78017949D01*
X84296349Y-78007032D01*
X84286225Y-77995694D01*
X84276615Y-77983935D01*
X84267522Y-77971750D01*
X84258949Y-77959138D01*
X84250898Y-77946094D01*
X84243374Y-77932617D01*
X84236377Y-77918703D01*
X84229912Y-77904350D01*
X84223981Y-77889555D01*
X84218588Y-77874314D01*
X84213734Y-77858626D01*
X84209423Y-77842486D01*
X84205658Y-77825893D01*
X84202442Y-77808842D01*
X84200481Y-77808842D01*
X84195863Y-77823709D01*
X84190838Y-77838163D01*
X84185410Y-77852202D01*
X84179586Y-77865828D01*
X84173372Y-77879041D01*
X84166772Y-77891839D01*
X84159794Y-77904225D01*
X84152442Y-77916196D01*
X84144722Y-77927754D01*
X84136641Y-77938899D01*
X84128203Y-77949629D01*
X84119415Y-77959946D01*
X84110282Y-77969850D01*
X84100810Y-77979340D01*
X84091005Y-77988416D01*
X84080873Y-77997079D01*
X84070141Y-78005605D01*
X84059266Y-78013538D01*
X84048241Y-78020886D01*
X84037061Y-78027654D01*
X84025721Y-78033848D01*
X84014214Y-78039472D01*
X84002534Y-78044534D01*
X83990676Y-78049039D01*
X83978635Y-78052992D01*
X83966404Y-78056399D01*
X83953978Y-78059267D01*
X83941350Y-78061600D01*
X83928516Y-78063405D01*
X83915469Y-78064687D01*
X83902204Y-78065452D01*
X83888715Y-78065705D01*
X83874123Y-78065475D01*
X83859759Y-78064783D01*
X83845618Y-78063625D01*
X83831699Y-78061998D01*
X83817998Y-78059901D01*
X83804512Y-78057330D01*
X83791239Y-78054282D01*
X83778175Y-78050754D01*
X83765319Y-78046744D01*
X83752666Y-78042249D01*
X83740214Y-78037265D01*
X83727961Y-78031790D01*
X83715902Y-78025821D01*
X83704037Y-78019355D01*
X83692361Y-78012389D01*
X83680871Y-78004920D01*
X83669980Y-77997384D01*
X83659364Y-77989479D01*
X83649024Y-77981207D01*
X83638959Y-77972567D01*
X83629171Y-77963560D01*
X83619658Y-77954185D01*
X83610421Y-77944443D01*
X83601459Y-77934332D01*
X83592774Y-77923854D01*
X83584364Y-77913009D01*
X83576229Y-77901796D01*
X83568371Y-77890215D01*
X83560788Y-77878266D01*
X83553481Y-77865950D01*
X83546450Y-77853266D01*
X83539694Y-77840214D01*
X83533629Y-77827232D01*
X83527933Y-77814019D01*
X83522612Y-77800577D01*
X83517666Y-77786905D01*
X83513100Y-77773004D01*
X83508915Y-77758872D01*
X83505116Y-77744511D01*
X83501704Y-77729920D01*
X83498683Y-77715099D01*
X83496055Y-77700048D01*
X83493824Y-77684768D01*
X83491992Y-77669258D01*
X83490562Y-77653518D01*
X83489537Y-77637548D01*
X83488920Y-77621349D01*
X83488714Y-77604919D01*
X83488921Y-77588145D01*
X83489545Y-77571643D01*
X83490588Y-77555412D01*
X83492053Y-77539448D01*
X83493944Y-77523747D01*
X83496262Y-77508309D01*
X83499011Y-77493128D01*
X83502194Y-77478204D01*
X83505814Y-77463532D01*
X83509873Y-77449110D01*
X83514374Y-77434935D01*
X83519320Y-77421004D01*
X83524715Y-77407314D01*
X83530560Y-77393863D01*
X83536860Y-77380647D01*
X83543616Y-77367664D01*
X83550762Y-77354635D01*
X83558234Y-77342013D01*
X83566032Y-77329793D01*
X83574161Y-77317970D01*
X83582623Y-77306537D01*
X83591421Y-77295490D01*
X83600559Y-77284821D01*
X83610037Y-77274526D01*
X83619861Y-77264599D01*
X83630032Y-77255033D01*
X83640554Y-77245824D01*
X83651428Y-77236965D01*
X83662659Y-77228450D01*
X83674249Y-77220275D01*
X83686201Y-77212433D01*
X83698518Y-77204918D01*
X83711111Y-77197795D01*
X83723893Y-77191131D01*
X83736871Y-77184927D01*
X83750050Y-77179183D01*
X83763436Y-77173898D01*
X83777034Y-77169072D01*
X83790851Y-77164707D01*
X83804891Y-77160800D01*
X83819162Y-77157354D01*
X83833668Y-77154366D01*
X83848415Y-77151839D01*
X83863409Y-77149771D01*
X83878656Y-77148162D01*
X83894161Y-77147013D01*
X83909931Y-77146324D01*
X83925970Y-77146094D01*
X83925970Y-77310800D01*
X83909310Y-77311122D01*
X83893150Y-77312083D01*
X83877484Y-77313683D01*
X83862306Y-77315917D01*
X83847610Y-77318783D01*
X83833392Y-77322278D01*
X83819644Y-77326399D01*
X83806362Y-77331144D01*
X83793539Y-77336509D01*
X83781170Y-77342491D01*
X83769249Y-77349088D01*
X83757771Y-77356297D01*
X83746729Y-77364115D01*
X83736118Y-77372539D01*
X83725932Y-77381566D01*
X83716165Y-77391193D01*
X83706905Y-77401004D01*
X83698242Y-77411315D01*
X83690177Y-77422119D01*
X83682709Y-77433412D01*
X83675839Y-77445187D01*
X83669566Y-77457439D01*
X83663890Y-77470162D01*
X83658812Y-77483351D01*
X83654331Y-77496999D01*
X83650448Y-77511101D01*
X83647162Y-77525650D01*
X83644474Y-77540642D01*
X83642383Y-77556071D01*
X83640889Y-77571931D01*
X83639993Y-77588215D01*
X83639695Y-77604919D01*
X83639970Y-77621257D01*
X83640794Y-77637184D01*
X83642163Y-77652704D01*
X83644076Y-77667818D01*
X83646528Y-77682530D01*
X83649518Y-77696843D01*
X83653041Y-77710760D01*
X83657097Y-77724283D01*
X83661680Y-77737415D01*
X83666789Y-77750160D01*
X83672421Y-77762519D01*
X83678573Y-77774497D01*
X83685242Y-77786096D01*
X83692425Y-77797318D01*
X83700120Y-77808167D01*
X83708322Y-77818645D01*
X83717007Y-77828251D01*
X83726146Y-77837215D01*
X83735732Y-77845543D01*
X83745761Y-77853235D01*
X83756227Y-77860296D01*
X83767123Y-77866727D01*
X83778444Y-77872532D01*
X83790185Y-77877714D01*
X83802340Y-77882276D01*
X83814902Y-77886220D01*
X83827867Y-77889549D01*
X83841227Y-77892267D01*
X83854979Y-77894376D01*
X83869115Y-77895878D01*
X83883631Y-77896778D01*
X83898520Y-77897077D01*
X83911248Y-77896755D01*
X83923696Y-77895786D01*
X83935856Y-77894169D01*
X83947723Y-77891899D01*
X83959292Y-77888975D01*
X83970556Y-77885393D01*
X83981509Y-77881150D01*
X83992147Y-77876244D01*
X84002463Y-77870671D01*
X84012452Y-77864429D01*
X84022107Y-77857515D01*
X84031424Y-77849927D01*
X84040396Y-77841660D01*
X84049017Y-77832712D01*
X84057283Y-77823081D01*
X84065186Y-77812764D01*
X84073022Y-77801895D01*
X84080352Y-77790613D01*
X84087176Y-77778917D01*
X84093495Y-77766807D01*
X84099309Y-77754284D01*
X84104617Y-77741347D01*
X84109419Y-77727997D01*
X84113716Y-77714233D01*
X84117508Y-77700056D01*
X84120793Y-77685465D01*
X84123574Y-77670460D01*
X84125849Y-77655042D01*
X84127618Y-77639210D01*
X84128882Y-77622965D01*
X84129640Y-77606306D01*
X84129893Y-77589234D01*
X84129893Y-77473546D01*
X84282834Y-77473546D01*
X84282834Y-77589234D01*
X84283109Y-77608511D01*
X84283933Y-77627370D01*
X84285303Y-77645803D01*
X84287215Y-77663805D01*
X84289668Y-77681371D01*
X84292657Y-77698494D01*
X84296181Y-77715169D01*
X84300236Y-77731391D01*
X84304820Y-77747153D01*
X84309929Y-77762450D01*
X84315561Y-77777275D01*
X84321713Y-77791624D01*
X84328382Y-77805491D01*
X84335565Y-77818869D01*
X84343260Y-77831753D01*
X84351463Y-77844137D01*
X84360447Y-77855901D01*
X84369757Y-77866927D01*
X84379394Y-77877212D01*
X84389361Y-77886753D01*
X84399661Y-77895547D01*
X84410297Y-77903592D01*
X84421273Y-77910884D01*
X84432590Y-77917421D01*
X84444252Y-77923199D01*
X84456261Y-77928216D01*
X84468621Y-77932470D01*
X84481334Y-77935956D01*
X84494403Y-77938673D01*
X84507831Y-77940617D01*
X84521622Y-77941785D01*
X84535777Y-77942175D01*
X84551379Y-77941808D01*
X84566567Y-77940709D01*
X84581342Y-77938879D01*
X84595703Y-77936324D01*
X84609651Y-77933044D01*
X84623185Y-77929044D01*
X84636305Y-77924325D01*
X84649012Y-77918891D01*
X84661305Y-77912745D01*
X84673185Y-77905890D01*
X84684651Y-77898328D01*
X84695703Y-77890062D01*
X84706342Y-77881096D01*
X84716567Y-77871431D01*
X84726379Y-77861071D01*
X84735777Y-77850020D01*
X84744692Y-77838415D01*
X84753053Y-77826394D01*
X84760856Y-77813953D01*
X84768100Y-77801091D01*
X84774780Y-77787803D01*
X84780895Y-77774087D01*
X84786440Y-77759941D01*
X84791415Y-77745361D01*
X84795815Y-77730344D01*
X84799637Y-77714888D01*
X84802879Y-77698990D01*
X84805539Y-77682646D01*
X84807612Y-77665855D01*
X84809096Y-77648612D01*
X84809989Y-77630916D01*
X84810287Y-77612763D01*
X84809944Y-77593899D01*
X84808916Y-77575543D01*
X84807211Y-77557698D01*
X84804834Y-77540367D01*
X84801790Y-77523553D01*
X84798086Y-77507260D01*
X84793727Y-77491489D01*
X84788719Y-77476243D01*
X84783067Y-77461526D01*
X84776778Y-77447340D01*
X84769857Y-77433689D01*
X84762309Y-77420575D01*
X84754141Y-77408001D01*
X84745359Y-77395969D01*
X84735968Y-77384484D01*
X84725973Y-77373547D01*
X84715058Y-77363229D01*
X84703635Y-77353598D01*
X84691700Y-77344650D01*
X84679251Y-77336383D01*
X84666285Y-77328794D01*
X84652800Y-77321880D01*
X84638791Y-77315638D01*
X84624257Y-77310066D01*
X84609195Y-77305159D01*
X84593601Y-77300917D01*
X84577473Y-77297334D01*
X84560807Y-77294410D01*
X84543602Y-77292141D01*
X84525854Y-77290523D01*
X84507560Y-77289555D01*
X84488717Y-77289232D01*
X84488717Y-77114722D01*
X84506205Y-77114975D01*
G37*
G36*
X84937739Y-79612347D02*
G01*
X84784797Y-79612347D01*
X84784797Y-78908422D01*
X84782836Y-78908422D01*
X84431854Y-79292738D01*
X84396928Y-79331072D01*
X84379740Y-79349220D01*
X84362736Y-79366696D01*
X84345916Y-79383505D01*
X84329280Y-79399654D01*
X84312828Y-79415148D01*
X84296560Y-79429993D01*
X84280475Y-79444194D01*
X84264574Y-79457758D01*
X84248858Y-79470690D01*
X84233324Y-79482996D01*
X84217975Y-79494681D01*
X84202810Y-79505752D01*
X84187828Y-79516214D01*
X84173031Y-79526073D01*
X84158600Y-79535332D01*
X84143986Y-79543995D01*
X84129188Y-79552060D01*
X84114207Y-79559527D01*
X84099041Y-79566398D01*
X84083692Y-79572671D01*
X84068159Y-79578346D01*
X84052442Y-79583424D01*
X84036541Y-79587905D01*
X84020456Y-79591788D01*
X84004187Y-79595074D01*
X83987735Y-79597762D01*
X83971099Y-79599853D01*
X83954279Y-79601347D01*
X83937275Y-79602243D01*
X83920088Y-79602542D01*
X83904372Y-79602312D01*
X83888845Y-79601623D01*
X83873514Y-79600474D01*
X83858384Y-79598865D01*
X83843461Y-79596797D01*
X83828750Y-79594270D01*
X83814258Y-79591282D01*
X83799989Y-79587836D01*
X83785951Y-79583929D01*
X83772148Y-79579564D01*
X83758586Y-79574738D01*
X83745271Y-79569453D01*
X83732209Y-79563709D01*
X83719406Y-79557505D01*
X83706866Y-79550841D01*
X83694597Y-79543718D01*
X83682647Y-79536204D01*
X83671060Y-79528365D01*
X83659828Y-79520199D01*
X83648947Y-79511702D01*
X83638411Y-79502872D01*
X83628213Y-79493706D01*
X83618349Y-79484202D01*
X83608812Y-79474355D01*
X83599597Y-79464164D01*
X83590698Y-79453625D01*
X83582109Y-79442736D01*
X83573824Y-79431494D01*
X83565838Y-79419896D01*
X83558145Y-79407938D01*
X83550740Y-79395619D01*
X83543616Y-79382935D01*
X83536860Y-79369952D01*
X83530560Y-79356739D01*
X83524715Y-79343297D01*
X83519320Y-79329625D01*
X83514374Y-79315723D01*
X83509873Y-79301591D01*
X83505814Y-79287230D01*
X83502194Y-79272639D01*
X83499011Y-79257818D01*
X83496262Y-79242768D01*
X83493944Y-79227487D01*
X83492053Y-79211977D01*
X83490588Y-79196237D01*
X83489545Y-79180268D01*
X83488921Y-79164069D01*
X83488714Y-79147639D01*
X83488944Y-79130130D01*
X83489637Y-79112896D01*
X83490795Y-79095938D01*
X83492421Y-79079256D01*
X83494518Y-79062849D01*
X83497089Y-79046719D01*
X83500137Y-79030864D01*
X83503665Y-79015285D01*
X83507675Y-78999981D01*
X83512171Y-78984954D01*
X83517154Y-78970202D01*
X83522629Y-78955726D01*
X83528598Y-78941526D01*
X83535064Y-78927601D01*
X83542030Y-78913952D01*
X83549498Y-78900579D01*
X83557403Y-78887549D01*
X83565675Y-78874928D01*
X83574314Y-78862708D01*
X83583322Y-78850885D01*
X83592697Y-78839452D01*
X83602440Y-78828405D01*
X83612550Y-78817736D01*
X83623028Y-78807441D01*
X83633874Y-78797514D01*
X83645087Y-78787948D01*
X83656668Y-78778739D01*
X83668616Y-78769880D01*
X83680932Y-78761365D01*
X83693616Y-78753190D01*
X83706668Y-78745348D01*
X83720087Y-78737833D01*
X83734151Y-78730710D01*
X83748407Y-78724046D01*
X83762865Y-78717842D01*
X83777532Y-78712098D01*
X83792418Y-78706813D01*
X83807530Y-78701987D01*
X83822878Y-78697621D01*
X83838470Y-78693715D01*
X83854315Y-78690268D01*
X83870421Y-78687281D01*
X83886797Y-78684754D01*
X83903452Y-78682686D01*
X83920393Y-78681077D01*
X83937631Y-78679928D01*
X83955173Y-78679239D01*
X83973029Y-78679009D01*
X83973029Y-78839794D01*
X83954164Y-78840115D01*
X83935805Y-78841077D01*
X83917951Y-78842676D01*
X83900602Y-78844910D01*
X83883760Y-78847776D01*
X83867422Y-78851271D01*
X83851590Y-78855393D01*
X83836264Y-78860137D01*
X83821443Y-78865502D01*
X83807128Y-78871484D01*
X83793318Y-78878082D01*
X83780014Y-78885290D01*
X83767215Y-78893108D01*
X83754922Y-78901532D01*
X83743134Y-78910559D01*
X83731852Y-78920187D01*
X83720822Y-78930712D01*
X83710525Y-78941702D01*
X83700957Y-78953163D01*
X83692115Y-78965101D01*
X83683998Y-78977521D01*
X83676601Y-78990430D01*
X83669923Y-79003833D01*
X83663960Y-79017736D01*
X83658709Y-79032144D01*
X83654167Y-79047064D01*
X83650332Y-79062500D01*
X83647201Y-79078459D01*
X83644771Y-79094947D01*
X83643038Y-79111969D01*
X83642001Y-79129532D01*
X83641656Y-79147639D01*
X83641955Y-79164343D01*
X83642851Y-79180628D01*
X83644344Y-79196488D01*
X83646435Y-79211916D01*
X83649124Y-79226909D01*
X83652410Y-79241458D01*
X83656293Y-79255560D01*
X83660773Y-79269208D01*
X83665852Y-79282397D01*
X83671527Y-79295120D01*
X83677800Y-79307372D01*
X83684670Y-79319147D01*
X83692138Y-79330439D01*
X83700203Y-79341244D01*
X83708866Y-79351554D01*
X83718126Y-79361364D01*
X83727893Y-79370970D01*
X83738075Y-79379935D01*
X83748677Y-79388262D01*
X83759701Y-79395955D01*
X83771151Y-79403015D01*
X83783028Y-79409447D01*
X83795336Y-79415252D01*
X83808078Y-79420434D01*
X83821256Y-79424995D01*
X83834874Y-79428939D01*
X83848934Y-79432268D01*
X83863439Y-79434986D01*
X83878393Y-79437095D01*
X83893797Y-79438597D01*
X83909655Y-79439496D01*
X83925970Y-79439796D01*
X83935115Y-79439703D01*
X83944165Y-79439420D01*
X83953117Y-79438943D01*
X83961969Y-79438264D01*
X83970718Y-79437378D01*
X83979360Y-79436280D01*
X83987893Y-79434964D01*
X83996314Y-79433423D01*
X84004620Y-79431653D01*
X84012808Y-79429647D01*
X84020876Y-79427400D01*
X84028820Y-79424906D01*
X84036638Y-79422160D01*
X84044326Y-79419154D01*
X84051883Y-79415885D01*
X84059304Y-79412345D01*
X84067025Y-79408921D01*
X84074745Y-79405268D01*
X84082466Y-79401384D01*
X84090186Y-79397271D01*
X84097907Y-79392928D01*
X84105628Y-79388356D01*
X84113348Y-79383553D01*
X84121069Y-79378521D01*
X84128789Y-79373259D01*
X84136510Y-79367768D01*
X84144231Y-79362046D01*
X84151951Y-79356095D01*
X84159672Y-79349914D01*
X84167393Y-79343504D01*
X84175113Y-79336864D01*
X84182834Y-79329993D01*
X84199286Y-79314823D01*
X84216290Y-79298711D01*
X84233845Y-79281635D01*
X84251952Y-79263570D01*
X84270610Y-79244495D01*
X84289820Y-79224385D01*
X84309581Y-79203219D01*
X84329893Y-79180973D01*
X84792640Y-78675088D01*
X84937739Y-78675088D01*
X84937739Y-79612347D01*
G37*
G36*
X83688714Y-74664305D02*
G01*
X84937739Y-74664305D01*
X84937739Y-74830972D01*
X83510282Y-74830972D01*
X83510282Y-74664305D01*
X83749499Y-74307441D01*
X83924010Y-74307441D01*
X83688714Y-74664305D01*
G37*
G36*
X75550000Y-57200000D02*
G01*
X75722591Y-57213125D01*
X75892675Y-57234739D01*
X76060040Y-57264629D01*
X76224470Y-57302580D01*
X76385752Y-57348380D01*
X76543673Y-57401815D01*
X76698018Y-57462671D01*
X76848574Y-57530736D01*
X76995128Y-57605794D01*
X77137465Y-57687634D01*
X77275372Y-57776041D01*
X77408636Y-57870802D01*
X77537041Y-57971703D01*
X77660376Y-58078531D01*
X77778425Y-58191073D01*
X77890976Y-58309114D01*
X77997814Y-58432442D01*
X78098726Y-58560842D01*
X78193498Y-58694102D01*
X78281916Y-58832007D01*
X78363767Y-58974345D01*
X78438838Y-59120901D01*
X78506913Y-59271463D01*
X78567780Y-59425816D01*
X78621225Y-59583748D01*
X78667033Y-59745044D01*
X78704992Y-59909491D01*
X78734888Y-60076876D01*
X78756507Y-60246985D01*
X78769635Y-60419605D01*
X78774059Y-60594522D01*
X78778481Y-60419605D01*
X78791606Y-60246985D01*
X78813220Y-60076876D01*
X78843109Y-59909491D01*
X78881059Y-59745044D01*
X78926858Y-59583748D01*
X78980292Y-59425816D01*
X79041146Y-59271463D01*
X79109208Y-59120901D01*
X79184264Y-58974345D01*
X79266100Y-58832007D01*
X79354502Y-58694102D01*
X79449258Y-58560842D01*
X79550153Y-58432442D01*
X79656974Y-58309114D01*
X79769507Y-58191073D01*
X79887539Y-58078531D01*
X80010856Y-57971703D01*
X80139245Y-57870802D01*
X80272491Y-57776041D01*
X80410382Y-57687634D01*
X80552704Y-57605794D01*
X80699244Y-57530736D01*
X80849787Y-57462671D01*
X81004119Y-57401815D01*
X81162029Y-57348380D01*
X81323301Y-57302580D01*
X81487723Y-57264629D01*
X81655080Y-57234739D01*
X81825160Y-57213125D01*
X81997748Y-57200000D01*
X82172632Y-57195578D01*
X82173001Y-57195578D01*
X82173372Y-57195578D01*
X82347603Y-57199966D01*
X82519557Y-57212989D01*
X82689023Y-57234438D01*
X82855789Y-57264099D01*
X83019645Y-57301763D01*
X83180379Y-57347218D01*
X83337781Y-57400253D01*
X83491638Y-57460657D01*
X83641741Y-57528220D01*
X83787878Y-57602729D01*
X83929839Y-57683974D01*
X84067411Y-57771744D01*
X84200384Y-57865827D01*
X84328546Y-57966014D01*
X84451688Y-58072092D01*
X84569597Y-58183850D01*
X84682063Y-58301078D01*
X84788874Y-58423564D01*
X84889820Y-58551098D01*
X84984689Y-58683467D01*
X85073271Y-58820462D01*
X85155354Y-58961871D01*
X85230727Y-59107483D01*
X85299179Y-59257087D01*
X85360499Y-59410471D01*
X85414476Y-59567426D01*
X85460899Y-59727739D01*
X85499557Y-59891200D01*
X85530239Y-60057597D01*
X85552733Y-60226720D01*
X85566829Y-60398357D01*
X85572315Y-60572298D01*
X85572315Y-60594522D01*
X85576737Y-60419605D01*
X85589862Y-60246985D01*
X85611476Y-60076876D01*
X85641366Y-59909491D01*
X85679317Y-59745044D01*
X85725117Y-59583748D01*
X85778552Y-59425816D01*
X85839409Y-59271463D01*
X85907473Y-59120901D01*
X85982532Y-58974345D01*
X86064371Y-58832007D01*
X86152778Y-58694102D01*
X86247539Y-58560842D01*
X86348441Y-58432442D01*
X86455269Y-58309114D01*
X86567810Y-58191073D01*
X86685851Y-58078531D01*
X86809179Y-57971703D01*
X86937579Y-57870802D01*
X87070839Y-57776041D01*
X87208744Y-57687634D01*
X87351082Y-57605794D01*
X87497638Y-57530736D01*
X87648200Y-57462671D01*
X87802553Y-57401815D01*
X87960484Y-57348380D01*
X88121781Y-57302580D01*
X88286228Y-57264629D01*
X88453613Y-57234739D01*
X88623722Y-57213125D01*
X88796341Y-57200000D01*
X88971258Y-57195578D01*
X88971628Y-57195578D01*
X88971628Y-60594892D01*
X88967204Y-60769809D01*
X88954076Y-60942429D01*
X88932458Y-61112538D01*
X88902562Y-61279923D01*
X88864603Y-61444370D01*
X88818794Y-61605666D01*
X88765349Y-61763598D01*
X88704482Y-61917951D01*
X88636407Y-62068513D01*
X88561337Y-62215069D01*
X88479486Y-62357407D01*
X88391067Y-62495312D01*
X88296295Y-62628572D01*
X88195383Y-62756972D01*
X88088545Y-62880300D01*
X87975995Y-62998341D01*
X87857945Y-63110882D01*
X87734611Y-63217710D01*
X87606206Y-63318612D01*
X87472942Y-63413373D01*
X87335035Y-63501780D01*
X87192698Y-63583619D01*
X87046144Y-63658678D01*
X86895588Y-63726742D01*
X86741243Y-63787599D01*
X86583322Y-63841034D01*
X86422040Y-63886834D01*
X86257609Y-63924785D01*
X86090245Y-63954675D01*
X85920161Y-63976289D01*
X85747569Y-63989414D01*
X85572685Y-63993836D01*
X85571945Y-63993836D01*
X85397028Y-63989414D01*
X85224408Y-63976289D01*
X85054299Y-63954675D01*
X84886914Y-63924785D01*
X84722467Y-63886834D01*
X84561171Y-63841034D01*
X84403239Y-63787599D01*
X84248886Y-63726742D01*
X84098324Y-63658678D01*
X83951768Y-63583619D01*
X83809430Y-63501780D01*
X83671525Y-63413373D01*
X83538265Y-63318612D01*
X83409865Y-63217710D01*
X83286538Y-63110882D01*
X83168496Y-62998341D01*
X83055955Y-62880300D01*
X82949127Y-62756972D01*
X82848226Y-62628572D01*
X82753465Y-62495312D01*
X82665058Y-62357407D01*
X82583218Y-62215069D01*
X82508159Y-62068513D01*
X82440095Y-61917951D01*
X82379239Y-61763598D01*
X82325804Y-61605666D01*
X82280004Y-61444370D01*
X82242052Y-61279923D01*
X82212163Y-61112538D01*
X82190549Y-60942429D01*
X82177424Y-60769809D01*
X82173001Y-60594892D01*
X82168579Y-60769809D01*
X82155454Y-60942429D01*
X82133840Y-61112538D01*
X82103951Y-61279923D01*
X82065999Y-61444370D01*
X82020199Y-61605666D01*
X81966764Y-61763598D01*
X81905908Y-61917951D01*
X81837844Y-62068513D01*
X81762785Y-62215069D01*
X81680945Y-62357407D01*
X81592538Y-62495312D01*
X81497777Y-62628572D01*
X81396876Y-62756972D01*
X81290048Y-62880300D01*
X81177507Y-62998341D01*
X81059465Y-63110882D01*
X80936138Y-63217710D01*
X80807738Y-63318612D01*
X80674478Y-63413373D01*
X80536573Y-63501780D01*
X80394235Y-63583619D01*
X80247679Y-63658678D01*
X80097117Y-63726742D01*
X79942764Y-63787599D01*
X79784832Y-63841034D01*
X79623536Y-63886834D01*
X79459089Y-63924785D01*
X79291704Y-63954675D01*
X79121595Y-63976289D01*
X78948975Y-63989414D01*
X78774059Y-63993836D01*
X78773688Y-63993836D01*
X78598771Y-63989414D01*
X78426152Y-63976289D01*
X78256042Y-63954675D01*
X78088657Y-63924785D01*
X77924210Y-63886834D01*
X77762914Y-63841034D01*
X77604983Y-63787599D01*
X77450629Y-63726742D01*
X77300068Y-63658678D01*
X77153511Y-63583619D01*
X77011174Y-63501780D01*
X76873268Y-63413373D01*
X76740009Y-63318612D01*
X76611608Y-63217710D01*
X76488281Y-63110882D01*
X76370240Y-62998341D01*
X76257698Y-62880300D01*
X76150870Y-62756972D01*
X76049969Y-62628572D01*
X75955208Y-62495312D01*
X75866801Y-62357407D01*
X75784961Y-62215069D01*
X75709903Y-62068513D01*
X75641838Y-61917951D01*
X75580982Y-61763598D01*
X75527547Y-61605666D01*
X75481747Y-61444370D01*
X75443796Y-61279923D01*
X75413906Y-61112538D01*
X75392292Y-60942429D01*
X75379167Y-60769809D01*
X75374745Y-60594892D01*
X75374745Y-57195578D01*
X75375115Y-57195578D01*
X75550000Y-57200000D01*
G37*
G36*
X81556540Y-78562693D02*
G01*
X81609011Y-78564677D01*
X81660600Y-78567984D01*
X81711307Y-78572614D01*
X81761132Y-78578567D01*
X81810075Y-78585842D01*
X81858136Y-78594440D01*
X81905316Y-78604361D01*
X81951614Y-78615605D01*
X81997030Y-78628172D01*
X82041563Y-78642061D01*
X82085216Y-78657273D01*
X82127986Y-78673808D01*
X82169874Y-78691666D01*
X82210881Y-78710846D01*
X82251005Y-78731350D01*
X82290138Y-78753892D01*
X82328168Y-78777427D01*
X82365096Y-78801953D01*
X82400922Y-78827472D01*
X82435645Y-78853983D01*
X82469266Y-78881486D01*
X82501784Y-78909981D01*
X82533201Y-78939469D01*
X82563515Y-78969948D01*
X82592726Y-79001420D01*
X82620836Y-79033883D01*
X82647843Y-79067339D01*
X82673747Y-79101787D01*
X82698550Y-79137227D01*
X82722249Y-79173659D01*
X82744847Y-79211083D01*
X82765403Y-79250324D01*
X82784733Y-79290441D01*
X82802822Y-79331425D01*
X82819658Y-79373271D01*
X82835226Y-79415971D01*
X82849513Y-79459518D01*
X82862504Y-79503906D01*
X82874187Y-79549128D01*
X82884546Y-79595176D01*
X82893569Y-79642045D01*
X82901242Y-79689726D01*
X82907550Y-79738213D01*
X82912481Y-79787499D01*
X82916020Y-79837578D01*
X82918153Y-79888442D01*
X82918868Y-79940085D01*
X82918263Y-79987486D01*
X82916452Y-80034453D01*
X82913442Y-80080993D01*
X82909241Y-80127113D01*
X82903854Y-80172820D01*
X82897290Y-80218120D01*
X82889554Y-80263020D01*
X82880654Y-80307528D01*
X82870596Y-80351650D01*
X82859388Y-80395393D01*
X82847036Y-80438763D01*
X82833547Y-80481769D01*
X82818929Y-80524416D01*
X82803187Y-80566712D01*
X82786330Y-80608664D01*
X82768363Y-80650277D01*
X82748520Y-80691341D01*
X82727788Y-80731648D01*
X82706161Y-80771210D01*
X82683631Y-80810041D01*
X82660192Y-80848157D01*
X82635836Y-80885569D01*
X82610557Y-80922292D01*
X82584348Y-80958340D01*
X82557202Y-80993727D01*
X82529113Y-81028466D01*
X82500072Y-81062572D01*
X82470074Y-81096057D01*
X82439111Y-81128936D01*
X82407177Y-81161223D01*
X82374265Y-81192931D01*
X82340367Y-81224074D01*
X82306415Y-81253616D01*
X82271582Y-81282268D01*
X82235867Y-81310025D01*
X82199270Y-81336880D01*
X82161790Y-81362825D01*
X82123430Y-81387853D01*
X82084187Y-81411959D01*
X82044062Y-81435134D01*
X82003056Y-81457372D01*
X81961167Y-81478666D01*
X81918397Y-81499010D01*
X81874745Y-81518395D01*
X81830211Y-81536817D01*
X81784795Y-81554266D01*
X81738498Y-81570738D01*
X81691318Y-81586224D01*
X81691318Y-80970100D01*
X81732106Y-80953675D01*
X81771586Y-80936148D01*
X81809770Y-80917518D01*
X81846672Y-80897786D01*
X81882307Y-80876952D01*
X81916688Y-80855016D01*
X81949829Y-80831977D01*
X81981744Y-80807836D01*
X82012446Y-80782593D01*
X82041949Y-80756247D01*
X82070268Y-80728799D01*
X82097415Y-80700249D01*
X82123404Y-80670597D01*
X82148250Y-80639842D01*
X82171966Y-80607985D01*
X82194566Y-80575026D01*
X82215950Y-80542068D01*
X82236004Y-80508455D01*
X82254722Y-80474194D01*
X82272096Y-80439293D01*
X82288120Y-80403758D01*
X82302787Y-80367596D01*
X82316089Y-80330813D01*
X82328021Y-80293418D01*
X82338575Y-80255416D01*
X82347743Y-80216815D01*
X82355521Y-80177622D01*
X82361899Y-80137843D01*
X82366872Y-80097485D01*
X82370433Y-80056556D01*
X82372574Y-80015062D01*
X82373290Y-79973009D01*
X82372354Y-79925171D01*
X82369551Y-79878669D01*
X82364888Y-79833517D01*
X82358372Y-79789730D01*
X82350009Y-79747320D01*
X82339807Y-79706302D01*
X82327772Y-79666690D01*
X82313911Y-79628496D01*
X82298232Y-79591736D01*
X82280740Y-79556422D01*
X82261444Y-79522570D01*
X82240349Y-79490191D01*
X82217464Y-79459300D01*
X82192793Y-79429912D01*
X82166346Y-79402039D01*
X82138128Y-79375695D01*
X82108312Y-79350119D01*
X82077077Y-79326293D01*
X82044437Y-79304203D01*
X82010405Y-79283835D01*
X81974995Y-79265176D01*
X81938221Y-79248212D01*
X81900096Y-79232929D01*
X81860635Y-79219312D01*
X81819852Y-79207350D01*
X81777759Y-79197027D01*
X81734371Y-79188330D01*
X81689701Y-79181245D01*
X81643764Y-79175759D01*
X81596573Y-79171857D01*
X81548142Y-79169526D01*
X81498485Y-79168752D01*
X81426392Y-79170075D01*
X81354741Y-79174043D01*
X81283531Y-79180657D01*
X81212762Y-79189917D01*
X81142434Y-79201822D01*
X81072546Y-79216373D01*
X81003100Y-79233570D01*
X80934094Y-79253412D01*
X80899040Y-79264272D01*
X80864427Y-79275698D01*
X80830255Y-79287701D01*
X80796524Y-79300298D01*
X80763234Y-79313500D01*
X80730384Y-79327323D01*
X80697976Y-79341779D01*
X80666009Y-79356883D01*
X80634482Y-79372649D01*
X80603397Y-79389089D01*
X80572752Y-79406219D01*
X80542548Y-79424051D01*
X80512786Y-79442600D01*
X80483464Y-79461879D01*
X80454583Y-79481902D01*
X80426143Y-79502684D01*
X80398255Y-79523243D01*
X80371036Y-79544361D01*
X80344492Y-79566043D01*
X80318630Y-79588298D01*
X80293456Y-79611131D01*
X80268979Y-79634549D01*
X80245204Y-79658560D01*
X80222139Y-79683171D01*
X80199791Y-79708387D01*
X80178165Y-79734217D01*
X80157271Y-79760667D01*
X80137113Y-79787744D01*
X80117699Y-79815455D01*
X80099037Y-79843807D01*
X80081132Y-79872806D01*
X80063992Y-79902460D01*
X80047734Y-79931890D01*
X80032475Y-79961968D01*
X80018221Y-79992679D01*
X80004981Y-80024011D01*
X79992760Y-80055948D01*
X79981566Y-80088478D01*
X79971405Y-80121587D01*
X79962284Y-80155261D01*
X79954211Y-80189486D01*
X79947191Y-80224248D01*
X79941233Y-80259534D01*
X79936343Y-80295330D01*
X79932527Y-80331622D01*
X79929793Y-80368396D01*
X79928148Y-80405638D01*
X79927598Y-80443335D01*
X79928314Y-80482521D01*
X79930464Y-80520709D01*
X79934046Y-80557890D01*
X79939062Y-80594059D01*
X79945510Y-80629208D01*
X79953392Y-80663331D01*
X79962707Y-80696420D01*
X79973454Y-80728469D01*
X79985635Y-80759470D01*
X79999249Y-80789418D01*
X80014295Y-80818305D01*
X80030775Y-80846124D01*
X80048688Y-80872868D01*
X80068034Y-80898531D01*
X80088813Y-80923105D01*
X80111024Y-80946583D01*
X80133676Y-80969679D01*
X80157533Y-80991355D01*
X80182589Y-81011626D01*
X80208837Y-81030506D01*
X80236271Y-81048008D01*
X80264882Y-81064145D01*
X80294664Y-81078933D01*
X80325611Y-81092384D01*
X80357715Y-81104512D01*
X80390969Y-81115330D01*
X80425368Y-81124854D01*
X80460903Y-81133096D01*
X80497568Y-81140071D01*
X80535356Y-81145791D01*
X80574260Y-81150271D01*
X80614273Y-81153525D01*
X80614273Y-81764949D01*
X80567092Y-81764342D01*
X80520786Y-81762515D01*
X80475349Y-81759461D01*
X80430772Y-81755175D01*
X80387050Y-81749648D01*
X80344175Y-81742875D01*
X80302141Y-81734847D01*
X80260941Y-81725559D01*
X80220567Y-81715003D01*
X80181013Y-81703173D01*
X80142272Y-81690061D01*
X80104337Y-81675660D01*
X80067201Y-81659965D01*
X80030858Y-81642968D01*
X79995300Y-81624661D01*
X79960520Y-81605039D01*
X79926623Y-81584206D01*
X79893710Y-81562278D01*
X79861776Y-81539261D01*
X79830813Y-81515163D01*
X79800815Y-81489990D01*
X79771775Y-81463749D01*
X79743685Y-81436446D01*
X79716539Y-81408090D01*
X79690330Y-81378687D01*
X79665051Y-81348243D01*
X79640696Y-81316766D01*
X79617257Y-81284262D01*
X79594727Y-81250739D01*
X79573099Y-81216203D01*
X79552368Y-81180661D01*
X79532524Y-81144120D01*
X79514611Y-81107525D01*
X79497902Y-81070062D01*
X79482393Y-81031745D01*
X79468075Y-80992587D01*
X79454943Y-80952602D01*
X79442988Y-80911804D01*
X79432205Y-80870208D01*
X79422586Y-80827825D01*
X79414124Y-80784672D01*
X79406813Y-80740760D01*
X79400646Y-80696104D01*
X79395615Y-80650718D01*
X79391715Y-80604616D01*
X79388937Y-80557811D01*
X79387275Y-80510317D01*
X79386723Y-80462147D01*
X79387384Y-80408684D01*
X79389369Y-80355874D01*
X79392676Y-80303712D01*
X79397305Y-80252191D01*
X79403258Y-80201304D01*
X79410533Y-80151044D01*
X79419132Y-80101404D01*
X79429052Y-80052376D01*
X79440296Y-80003956D01*
X79452863Y-79956134D01*
X79466752Y-79908905D01*
X79481964Y-79862262D01*
X79498499Y-79816197D01*
X79516357Y-79770704D01*
X79535537Y-79725776D01*
X79556041Y-79681406D01*
X79578529Y-79638528D01*
X79601907Y-79596325D01*
X79626180Y-79554811D01*
X79651355Y-79514000D01*
X79677440Y-79473905D01*
X79704441Y-79434541D01*
X79732366Y-79395920D01*
X79761220Y-79358058D01*
X79791012Y-79320967D01*
X79821747Y-79284661D01*
X79853433Y-79249155D01*
X79886077Y-79214462D01*
X79919685Y-79180595D01*
X79954265Y-79147569D01*
X79989823Y-79115397D01*
X80026366Y-79084093D01*
X80063736Y-79052841D01*
X80101774Y-79022574D01*
X80140488Y-78993286D01*
X80179883Y-78964969D01*
X80219968Y-78937616D01*
X80260748Y-78911221D01*
X80302231Y-78885777D01*
X80344423Y-78861277D01*
X80387333Y-78837713D01*
X80430965Y-78815080D01*
X80475328Y-78793370D01*
X80520428Y-78772577D01*
X80566272Y-78752693D01*
X80612867Y-78733711D01*
X80660220Y-78715625D01*
X80708338Y-78698428D01*
X80804029Y-78666910D01*
X80900657Y-78639416D01*
X80998277Y-78616000D01*
X81096944Y-78596719D01*
X81146688Y-78588645D01*
X81196714Y-78581626D01*
X81247029Y-78575668D01*
X81297641Y-78570777D01*
X81348556Y-78566961D01*
X81399781Y-78564227D01*
X81451322Y-78562582D01*
X81503188Y-78562032D01*
X81556540Y-78562693D01*
G37*
G36*
X82862428Y-77854271D02*
G01*
X79438459Y-78423365D01*
X79438459Y-77816645D01*
X82862428Y-77247551D01*
X82862428Y-77854271D01*
G37*
M02*
