%TF.GenerationSoftware,KiCad,Pcbnew,9.0.6*%
%TF.CreationDate,2025-12-14T11:18:03-08:00*%
%TF.ProjectId,devboard,64657662-6f61-4726-942e-6b696361645f,rev?*%
%TF.SameCoordinates,Original*%
%TF.FileFunction,Copper,L1,Top*%
%TF.FilePolarity,Positive*%
%FSLAX46Y46*%
G04 Gerber Fmt 4.6, Leading zero omitted, Abs format (unit mm)*
G04 Created by KiCad (PCBNEW 9.0.6) date 2025-12-14 11:18:03*
%MOMM*%
%LPD*%
G01*
G04 APERTURE LIST*
G04 Aperture macros list*
%AMRoundRect*
0 Rectangle with rounded corners*
0 $1 Rounding radius*
0 $2 $3 $4 $5 $6 $7 $8 $9 X,Y pos of 4 corners*
0 Add a 4 corners polygon primitive as box body*
4,1,4,$2,$3,$4,$5,$6,$7,$8,$9,$2,$3,0*
0 Add four circle primitives for the rounded corners*
1,1,$1+$1,$2,$3*
1,1,$1+$1,$4,$5*
1,1,$1+$1,$6,$7*
1,1,$1+$1,$8,$9*
0 Add four rect primitives between the rounded corners*
20,1,$1+$1,$2,$3,$4,$5,0*
20,1,$1+$1,$4,$5,$6,$7,0*
20,1,$1+$1,$6,$7,$8,$9,0*
20,1,$1+$1,$8,$9,$2,$3,0*%
G04 Aperture macros list end*
%TA.AperFunction,SMDPad,CuDef*%
%ADD10RoundRect,0.090000X-0.360000X0.660000X-0.360000X-0.660000X0.360000X-0.660000X0.360000X0.660000X0*%
%TD*%
%TA.AperFunction,SMDPad,CuDef*%
%ADD11RoundRect,0.090000X0.360000X-0.660000X0.360000X0.660000X-0.360000X0.660000X-0.360000X-0.660000X0*%
%TD*%
%TA.AperFunction,SMDPad,CuDef*%
%ADD12RoundRect,0.050000X-0.387500X-0.050000X0.387500X-0.050000X0.387500X0.050000X-0.387500X0.050000X0*%
%TD*%
%TA.AperFunction,SMDPad,CuDef*%
%ADD13RoundRect,0.050000X-0.050000X-0.387500X0.050000X-0.387500X0.050000X0.387500X-0.050000X0.387500X0*%
%TD*%
%TA.AperFunction,HeatsinkPad*%
%ADD14R,3.200000X3.200000*%
%TD*%
%TA.AperFunction,SMDPad,CuDef*%
%ADD15RoundRect,0.140000X0.021213X-0.219203X0.219203X-0.021213X-0.021213X0.219203X-0.219203X0.021213X0*%
%TD*%
%TA.AperFunction,SMDPad,CuDef*%
%ADD16RoundRect,0.135000X0.135000X0.185000X-0.135000X0.185000X-0.135000X-0.185000X0.135000X-0.185000X0*%
%TD*%
%TA.AperFunction,SMDPad,CuDef*%
%ADD17RoundRect,0.140000X0.170000X-0.140000X0.170000X0.140000X-0.170000X0.140000X-0.170000X-0.140000X0*%
%TD*%
%TA.AperFunction,SMDPad,CuDef*%
%ADD18RoundRect,0.150000X0.150000X-0.587500X0.150000X0.587500X-0.150000X0.587500X-0.150000X-0.587500X0*%
%TD*%
%TA.AperFunction,SMDPad,CuDef*%
%ADD19RoundRect,0.140000X-0.170000X0.140000X-0.170000X-0.140000X0.170000X-0.140000X0.170000X0.140000X0*%
%TD*%
%TA.AperFunction,SMDPad,CuDef*%
%ADD20RoundRect,0.135000X-0.185000X0.135000X-0.185000X-0.135000X0.185000X-0.135000X0.185000X0.135000X0*%
%TD*%
%TA.AperFunction,SMDPad,CuDef*%
%ADD21RoundRect,0.250000X-0.450000X-0.350000X0.450000X-0.350000X0.450000X0.350000X-0.450000X0.350000X0*%
%TD*%
%TA.AperFunction,SMDPad,CuDef*%
%ADD22RoundRect,0.062500X-0.387500X-0.062500X0.387500X-0.062500X0.387500X0.062500X-0.387500X0.062500X0*%
%TD*%
%TA.AperFunction,HeatsinkPad*%
%ADD23R,0.200000X1.600000*%
%TD*%
%TA.AperFunction,SMDPad,CuDef*%
%ADD24RoundRect,0.200000X-0.800000X0.200000X-0.800000X-0.200000X0.800000X-0.200000X0.800000X0.200000X0*%
%TD*%
%TA.AperFunction,SMDPad,CuDef*%
%ADD25RoundRect,0.140000X-0.140000X-0.170000X0.140000X-0.170000X0.140000X0.170000X-0.140000X0.170000X0*%
%TD*%
%TA.AperFunction,SMDPad,CuDef*%
%ADD26RoundRect,0.140000X0.140000X0.170000X-0.140000X0.170000X-0.140000X-0.170000X0.140000X-0.170000X0*%
%TD*%
%TA.AperFunction,SMDPad,CuDef*%
%ADD27R,0.600000X1.450000*%
%TD*%
%TA.AperFunction,SMDPad,CuDef*%
%ADD28R,0.300000X1.450000*%
%TD*%
%TA.AperFunction,HeatsinkPad*%
%ADD29O,1.000000X2.100000*%
%TD*%
%TA.AperFunction,HeatsinkPad*%
%ADD30O,1.000000X1.600000*%
%TD*%
%TA.AperFunction,SMDPad,CuDef*%
%ADD31RoundRect,0.225000X0.225000X0.250000X-0.225000X0.250000X-0.225000X-0.250000X0.225000X-0.250000X0*%
%TD*%
%TA.AperFunction,ComponentPad*%
%ADD32R,1.700000X1.700000*%
%TD*%
%TA.AperFunction,ComponentPad*%
%ADD33C,1.700000*%
%TD*%
%TA.AperFunction,ViaPad*%
%ADD34C,0.600000*%
%TD*%
%TA.AperFunction,Conductor*%
%ADD35C,0.200000*%
%TD*%
G04 APERTURE END LIST*
D10*
%TO.P,D2,1,DOUT*%
%TO.N,unconnected-(D2-DOUT-Pad1)*%
X80610000Y-97040000D03*
%TO.P,D2,2,VSS*%
%TO.N,GND*%
X77310000Y-97040000D03*
%TO.P,D2,3,DIN*%
%TO.N,Net-(D1-DOUT)*%
X77310000Y-101940000D03*
%TO.P,D2,4,VDD*%
%TO.N,VBUS*%
X80610000Y-101940000D03*
%TD*%
D11*
%TO.P,D1,1,DOUT*%
%TO.N,Net-(D1-DOUT)*%
X83340000Y-101900000D03*
%TO.P,D1,2,VSS*%
%TO.N,GND*%
X86640000Y-101900000D03*
%TO.P,D1,3,DIN*%
%TO.N,GPIO25*%
X86640000Y-97000000D03*
%TO.P,D1,4,VDD*%
%TO.N,VBUS*%
X83340000Y-97000000D03*
%TD*%
D12*
%TO.P,U1,1,IOVDD*%
%TO.N,+3V3*%
X78732500Y-82920000D03*
%TO.P,U1,2,GPIO0*%
%TO.N,GPIO0*%
X78732500Y-83320000D03*
%TO.P,U1,3,GPIO1*%
%TO.N,GPIO1*%
X78732500Y-83720000D03*
%TO.P,U1,4,GPIO2*%
%TO.N,GPIO2*%
X78732500Y-84120000D03*
%TO.P,U1,5,GPIO3*%
%TO.N,GPIO3*%
X78732500Y-84520000D03*
%TO.P,U1,6,GPIO4*%
%TO.N,GPIO4*%
X78732500Y-84920000D03*
%TO.P,U1,7,GPIO5*%
%TO.N,GPIO5*%
X78732500Y-85320000D03*
%TO.P,U1,8,GPIO6*%
%TO.N,GPIO6*%
X78732500Y-85720000D03*
%TO.P,U1,9,GPIO7*%
%TO.N,GPIO7*%
X78732500Y-86120000D03*
%TO.P,U1,10,IOVDD*%
%TO.N,+3V3*%
X78732500Y-86520000D03*
%TO.P,U1,11,GPIO8*%
%TO.N,GPIO8*%
X78732500Y-86920000D03*
%TO.P,U1,12,GPIO9*%
%TO.N,GPIO9*%
X78732500Y-87320000D03*
%TO.P,U1,13,GPIO10*%
%TO.N,GPIO10*%
X78732500Y-87720000D03*
%TO.P,U1,14,GPIO11*%
%TO.N,GPIO11*%
X78732500Y-88120000D03*
D13*
%TO.P,U1,15,GPIO12*%
%TO.N,GPIO12*%
X79570000Y-88957500D03*
%TO.P,U1,16,GPIO13*%
%TO.N,GPIO13*%
X79970000Y-88957500D03*
%TO.P,U1,17,GPIO14*%
%TO.N,GPIO14*%
X80370000Y-88957500D03*
%TO.P,U1,18,GPIO15*%
%TO.N,GPIO15*%
X80770000Y-88957500D03*
%TO.P,U1,19,TESTEN*%
%TO.N,GND*%
X81170000Y-88957500D03*
%TO.P,U1,20,XIN*%
%TO.N,XIN*%
X81570000Y-88957500D03*
%TO.P,U1,21,XOUT*%
%TO.N,XOUT*%
X81970000Y-88957500D03*
%TO.P,U1,22,IOVDD*%
%TO.N,+3V3*%
X82370000Y-88957500D03*
%TO.P,U1,23,DVDD*%
%TO.N,+1V1*%
X82770000Y-88957500D03*
%TO.P,U1,24,SWCLK*%
%TO.N,SWCLK*%
X83170000Y-88957500D03*
%TO.P,U1,25,SWD*%
%TO.N,SWD*%
X83570000Y-88957500D03*
%TO.P,U1,26,RUN*%
%TO.N,RUN*%
X83970000Y-88957500D03*
%TO.P,U1,27,GPIO16*%
%TO.N,GPIO16*%
X84370000Y-88957500D03*
%TO.P,U1,28,GPIO17*%
%TO.N,GPIO17*%
X84770000Y-88957500D03*
D12*
%TO.P,U1,29,GPIO18*%
%TO.N,GPIO18*%
X85607500Y-88120000D03*
%TO.P,U1,30,GPIO19*%
%TO.N,GPIO19*%
X85607500Y-87720000D03*
%TO.P,U1,31,GPIO20*%
%TO.N,GPIO20*%
X85607500Y-87320000D03*
%TO.P,U1,32,GPIO21*%
%TO.N,GPIO21*%
X85607500Y-86920000D03*
%TO.P,U1,33,IOVDD*%
%TO.N,+3V3*%
X85607500Y-86520000D03*
%TO.P,U1,34,GPIO22*%
%TO.N,GPIO22*%
X85607500Y-86120000D03*
%TO.P,U1,35,GPIO23*%
%TO.N,GPIO23*%
X85607500Y-85720000D03*
%TO.P,U1,36,GPIO24*%
%TO.N,GPIO24*%
X85607500Y-85320000D03*
%TO.P,U1,37,GPIO25*%
%TO.N,GPIO25*%
X85607500Y-84920000D03*
%TO.P,U1,38,GPIO26_ADC0*%
%TO.N,GPIO26*%
X85607500Y-84520000D03*
%TO.P,U1,39,GPIO27_ADC1*%
%TO.N,GPIO27*%
X85607500Y-84120000D03*
%TO.P,U1,40,GPIO28_ADC2*%
%TO.N,GPIO28*%
X85607500Y-83720000D03*
%TO.P,U1,41,GPIO29_ADC3*%
%TO.N,GPIO29*%
X85607500Y-83320000D03*
%TO.P,U1,42,IOVDD*%
%TO.N,+3V3*%
X85607500Y-82920000D03*
D13*
%TO.P,U1,43,ADC_AVDD*%
X84770000Y-82082500D03*
%TO.P,U1,44,VREG_IN*%
X84370000Y-82082500D03*
%TO.P,U1,45,VREG_VOUT*%
%TO.N,+1V1*%
X83970000Y-82082500D03*
%TO.P,U1,46,USB_DM*%
%TO.N,Net-(U1-USB_DM)*%
X83570000Y-82082500D03*
%TO.P,U1,47,USB_DP*%
%TO.N,Net-(U1-USB_DP)*%
X83170000Y-82082500D03*
%TO.P,U1,48,USB_VDD*%
%TO.N,+3V3*%
X82770000Y-82082500D03*
%TO.P,U1,49,IOVDD*%
X82370000Y-82082500D03*
%TO.P,U1,50,DVDD*%
%TO.N,+1V1*%
X81970000Y-82082500D03*
%TO.P,U1,51,QSPI_SD3*%
%TO.N,QSPI_SD3*%
X81570000Y-82082500D03*
%TO.P,U1,52,QSPI_SCLK*%
%TO.N,QSPI_SCLK*%
X81170000Y-82082500D03*
%TO.P,U1,53,QSPI_SD0*%
%TO.N,QSPI_SD0*%
X80770000Y-82082500D03*
%TO.P,U1,54,QSPI_SD2*%
%TO.N,QSPI_SD2*%
X80370000Y-82082500D03*
%TO.P,U1,55,QSPI_SD1*%
%TO.N,QSPI_SD1*%
X79970000Y-82082500D03*
%TO.P,U1,56,QSPI_SS*%
%TO.N,QSPI_SS*%
X79570000Y-82082500D03*
D14*
%TO.P,U1,57,GND*%
%TO.N,GND*%
X82170000Y-85520000D03*
%TD*%
D15*
%TO.P,C10,1*%
%TO.N,+1V1*%
X85510000Y-78660000D03*
%TO.P,C10,2*%
%TO.N,GND*%
X86188822Y-77981178D03*
%TD*%
D16*
%TO.P,R5,1*%
%TO.N,Net-(C16-Pad2)*%
X82840000Y-90860000D03*
%TO.P,R5,2*%
%TO.N,XOUT*%
X81820000Y-90860000D03*
%TD*%
D17*
%TO.P,C4,1*%
%TO.N,+3V3*%
X86680000Y-80940000D03*
%TO.P,C4,2*%
%TO.N,GND*%
X86680000Y-79980000D03*
%TD*%
D18*
%TO.P,U2,1,GND*%
%TO.N,GND*%
X77960000Y-68145000D03*
%TO.P,U2,2,VO*%
%TO.N,+3V3*%
X79860000Y-68145000D03*
%TO.P,U2,3,VI*%
%TO.N,VBUS*%
X78910000Y-66270000D03*
%TD*%
D19*
%TO.P,C11,1*%
%TO.N,+1V1*%
X84740000Y-90550000D03*
%TO.P,C11,2*%
%TO.N,GND*%
X84740000Y-91510000D03*
%TD*%
D20*
%TO.P,R2,1*%
%TO.N,Net-(J1-CC2)*%
X80810000Y-64540000D03*
%TO.P,R2,2*%
%TO.N,GND*%
X80810000Y-65560000D03*
%TD*%
D21*
%TO.P,Y1,1,1*%
%TO.N,GND*%
X82290000Y-94080000D03*
%TO.P,Y1,2,2*%
%TO.N,XIN*%
X80090000Y-94080000D03*
%TO.P,Y1,3,3*%
%TO.N,GND*%
X80090000Y-92380000D03*
%TO.P,Y1,4,4*%
%TO.N,Net-(C16-Pad2)*%
X82290000Y-92380000D03*
%TD*%
D22*
%TO.P,U3,1,~{CS}*%
%TO.N,QSPI_SS*%
X78015000Y-76937500D03*
%TO.P,U3,2,DO/IO_{1}*%
%TO.N,QSPI_SD1*%
X78015000Y-77437500D03*
%TO.P,U3,3,~{WP}/IO_{2}*%
%TO.N,QSPI_SD2*%
X78015000Y-77937500D03*
%TO.P,U3,4,GND*%
%TO.N,GND*%
X78015000Y-78437500D03*
%TO.P,U3,5,DI/IO_{0}*%
%TO.N,QSPI_SD0*%
X80865000Y-78437500D03*
%TO.P,U3,6,CLK*%
%TO.N,QSPI_SCLK*%
X80865000Y-77937500D03*
%TO.P,U3,7,~{HOLD}/~{RESET}/IO_{3}*%
%TO.N,QSPI_SD3*%
X80865000Y-77437500D03*
%TO.P,U3,8,VCC*%
%TO.N,+3V3*%
X80865000Y-76937500D03*
D23*
%TO.P,U3,9*%
%TO.N,N/C*%
X79440000Y-77687500D03*
%TD*%
D24*
%TO.P,SW1,1,1*%
%TO.N,GND*%
X85830000Y-64600000D03*
%TO.P,SW1,2,2*%
%TO.N,Net-(R7-Pad1)*%
X85830000Y-68800000D03*
%TD*%
D20*
%TO.P,R4,1*%
%TO.N,D-*%
X83840000Y-79700000D03*
%TO.P,R4,2*%
%TO.N,Net-(U1-USB_DM)*%
X83840000Y-80720000D03*
%TD*%
D25*
%TO.P,C8,1*%
%TO.N,+3V3*%
X86390000Y-81910000D03*
%TO.P,C8,2*%
%TO.N,GND*%
X87350000Y-81910000D03*
%TD*%
D26*
%TO.P,C1,1*%
%TO.N,+3V3*%
X80520000Y-75070000D03*
%TO.P,C1,2*%
%TO.N,GND*%
X79560000Y-75070000D03*
%TD*%
D17*
%TO.P,C3,1*%
%TO.N,+3V3*%
X85720000Y-80740000D03*
%TO.P,C3,2*%
%TO.N,GND*%
X85720000Y-79780000D03*
%TD*%
%TO.P,C16,1*%
%TO.N,GND*%
X83790000Y-93350000D03*
%TO.P,C16,2*%
%TO.N,Net-(C16-Pad2)*%
X83790000Y-92390000D03*
%TD*%
D19*
%TO.P,C15,1*%
%TO.N,GND*%
X78540000Y-92790000D03*
%TO.P,C15,2*%
%TO.N,XIN*%
X78540000Y-93750000D03*
%TD*%
D20*
%TO.P,R3,1*%
%TO.N,D+*%
X82870000Y-79710000D03*
%TO.P,R3,2*%
%TO.N,Net-(U1-USB_DP)*%
X82870000Y-80730000D03*
%TD*%
D19*
%TO.P,C9,1*%
%TO.N,+3V3*%
X83780000Y-90560000D03*
%TO.P,C9,2*%
%TO.N,GND*%
X83780000Y-91520000D03*
%TD*%
D20*
%TO.P,R1,1*%
%TO.N,Net-(J1-CC1)*%
X83450000Y-63780000D03*
%TO.P,R1,2*%
%TO.N,GND*%
X83450000Y-64800000D03*
%TD*%
D27*
%TO.P,J1,A1,GND*%
%TO.N,GND*%
X85420000Y-62065000D03*
%TO.P,J1,A4,VBUS*%
%TO.N,VBUS*%
X84620000Y-62065000D03*
D28*
%TO.P,J1,A5,CC1*%
%TO.N,Net-(J1-CC1)*%
X83420000Y-62065000D03*
%TO.P,J1,A6,D+*%
%TO.N,D+*%
X82420000Y-62065000D03*
%TO.P,J1,A7,D-*%
%TO.N,D-*%
X81920000Y-62065000D03*
%TO.P,J1,A8*%
%TO.N,N/C*%
X80920000Y-62065000D03*
D27*
%TO.P,J1,A9,VBUS*%
%TO.N,VBUS*%
X79720000Y-62065000D03*
%TO.P,J1,A12,GND*%
%TO.N,GND*%
X78920000Y-62065000D03*
%TO.P,J1,B1,GND*%
X78920000Y-62065000D03*
%TO.P,J1,B4,VBUS*%
%TO.N,VBUS*%
X79720000Y-62065000D03*
D28*
%TO.P,J1,B5,CC2*%
%TO.N,Net-(J1-CC2)*%
X80420000Y-62065000D03*
%TO.P,J1,B6,D+*%
%TO.N,D+*%
X81420000Y-62065000D03*
%TO.P,J1,B7,D-*%
%TO.N,D-*%
X82920000Y-62065000D03*
%TO.P,J1,B8*%
%TO.N,N/C*%
X83920000Y-62065000D03*
D27*
%TO.P,J1,B9,VBUS*%
%TO.N,VBUS*%
X84620000Y-62065000D03*
%TO.P,J1,B12,GND*%
%TO.N,GND*%
X85420000Y-62065000D03*
D29*
%TO.P,J1,S1,SHIELD*%
X86490000Y-61150000D03*
D30*
X86490000Y-56970000D03*
D29*
X77850000Y-61150000D03*
D30*
X77850000Y-56970000D03*
%TD*%
D16*
%TO.P,R6,1*%
%TO.N,+3V3*%
X78600000Y-75740000D03*
%TO.P,R6,2*%
%TO.N,QSPI_SS*%
X77580000Y-75740000D03*
%TD*%
D17*
%TO.P,C7,1*%
%TO.N,+3V3*%
X83800000Y-74770000D03*
%TO.P,C7,2*%
%TO.N,GND*%
X83800000Y-73810000D03*
%TD*%
D16*
%TO.P,R7,1*%
%TO.N,Net-(R7-Pad1)*%
X86300000Y-69930000D03*
%TO.P,R7,2*%
%TO.N,QSPI_SS*%
X85280000Y-69930000D03*
%TD*%
D26*
%TO.P,C5,1*%
%TO.N,+3V3*%
X77390000Y-86810000D03*
%TO.P,C5,2*%
%TO.N,GND*%
X76430000Y-86810000D03*
%TD*%
D25*
%TO.P,C6,1*%
%TO.N,+3V3*%
X86830000Y-86750000D03*
%TO.P,C6,2*%
%TO.N,GND*%
X87790000Y-86750000D03*
%TD*%
D17*
%TO.P,C17,1*%
%TO.N,+3V3*%
X83780000Y-77030000D03*
%TO.P,C17,2*%
%TO.N,GND*%
X83780000Y-76070000D03*
%TD*%
%TO.P,C2,1*%
%TO.N,+3V3*%
X77930000Y-82060000D03*
%TO.P,C2,2*%
%TO.N,GND*%
X77930000Y-81100000D03*
%TD*%
D31*
%TO.P,C14,1*%
%TO.N,+3V3*%
X79690000Y-70090000D03*
%TO.P,C14,2*%
%TO.N,GND*%
X78140000Y-70090000D03*
%TD*%
D32*
%TO.P,J4,1,Pin_1*%
%TO.N,SWD*%
X84660000Y-104900000D03*
D33*
%TO.P,J4,2,Pin_2*%
%TO.N,GND*%
X82120000Y-104900000D03*
%TO.P,J4,3,Pin_3*%
%TO.N,SWCLK*%
X79580000Y-104900000D03*
%TD*%
D32*
%TO.P,J2,1,Pin_1*%
%TO.N,VBUS*%
X91060000Y-56890000D03*
D33*
%TO.P,J2,2,Pin_2*%
%TO.N,GND*%
X91060000Y-59430000D03*
%TO.P,J2,3,Pin_3*%
%TO.N,GPIO29*%
X91060000Y-61970000D03*
%TO.P,J2,4,Pin_4*%
%TO.N,GPIO28*%
X91060000Y-64510000D03*
%TO.P,J2,5,Pin_5*%
%TO.N,+3V3*%
X91060000Y-67050000D03*
%TO.P,J2,6,Pin_6*%
%TO.N,GPIO27*%
X91060000Y-69590000D03*
%TO.P,J2,7,Pin_7*%
%TO.N,GPIO26*%
X91060000Y-72130000D03*
%TO.P,J2,8,Pin_8*%
%TO.N,GND*%
X91060000Y-74670000D03*
%TO.P,J2,9,Pin_9*%
%TO.N,GPIO24*%
X91060000Y-77210000D03*
%TO.P,J2,10,Pin_10*%
%TO.N,GPIO23*%
X91060000Y-79750000D03*
%TO.P,J2,11,Pin_11*%
%TO.N,RUN*%
X91060000Y-82290000D03*
%TO.P,J2,12,Pin_12*%
%TO.N,GPIO22*%
X91060000Y-84830000D03*
%TO.P,J2,13,Pin_13*%
%TO.N,GND*%
X91060000Y-87370000D03*
%TO.P,J2,14,Pin_14*%
%TO.N,GPIO21*%
X91060000Y-89910000D03*
%TO.P,J2,15,Pin_15*%
%TO.N,GPIO20*%
X91060000Y-92450000D03*
%TO.P,J2,16,Pin_16*%
%TO.N,GPIO19*%
X91060000Y-94990000D03*
%TO.P,J2,17,Pin_17*%
%TO.N,GPIO18*%
X91060000Y-97530000D03*
%TO.P,J2,18,Pin_18*%
%TO.N,GND*%
X91060000Y-100070000D03*
%TO.P,J2,19,Pin_19*%
%TO.N,GPIO17*%
X91060000Y-102610000D03*
%TO.P,J2,20,Pin_20*%
%TO.N,GPIO16*%
X91060000Y-105150000D03*
%TD*%
D32*
%TO.P,J3,1,Pin_1*%
%TO.N,GPIO0*%
X73280000Y-56890000D03*
D33*
%TO.P,J3,2,Pin_2*%
%TO.N,GPIO1*%
X73280000Y-59430000D03*
%TO.P,J3,3,Pin_3*%
%TO.N,GND*%
X73280000Y-61970000D03*
%TO.P,J3,4,Pin_4*%
%TO.N,GPIO2*%
X73280000Y-64510000D03*
%TO.P,J3,5,Pin_5*%
%TO.N,GPIO3*%
X73280000Y-67050000D03*
%TO.P,J3,6,Pin_6*%
%TO.N,GPIO4*%
X73280000Y-69590000D03*
%TO.P,J3,7,Pin_7*%
%TO.N,GPIO5*%
X73280000Y-72130000D03*
%TO.P,J3,8,Pin_8*%
%TO.N,GND*%
X73280000Y-74670000D03*
%TO.P,J3,9,Pin_9*%
%TO.N,GPIO6*%
X73280000Y-77210000D03*
%TO.P,J3,10,Pin_10*%
%TO.N,GPIO7*%
X73280000Y-79750000D03*
%TO.P,J3,11,Pin_11*%
%TO.N,GPIO8*%
X73280000Y-82290000D03*
%TO.P,J3,12,Pin_12*%
%TO.N,GPIO9*%
X73280000Y-84830000D03*
%TO.P,J3,13,Pin_13*%
%TO.N,GND*%
X73280000Y-87370000D03*
%TO.P,J3,14,Pin_14*%
%TO.N,GPIO10*%
X73280000Y-89910000D03*
%TO.P,J3,15,Pin_15*%
%TO.N,GPIO11*%
X73280000Y-92450000D03*
%TO.P,J3,16,Pin_16*%
%TO.N,GPIO12*%
X73280000Y-94990000D03*
%TO.P,J3,17,Pin_17*%
%TO.N,GPIO13*%
X73280000Y-97530000D03*
%TO.P,J3,18,Pin_18*%
%TO.N,GND*%
X73280000Y-100070000D03*
%TO.P,J3,19,Pin_19*%
%TO.N,GPIO14*%
X73280000Y-102610000D03*
%TO.P,J3,20,Pin_20*%
%TO.N,GPIO15*%
X73280000Y-105150000D03*
%TD*%
D17*
%TO.P,C12,1*%
%TO.N,+1V1*%
X82820000Y-78360000D03*
%TO.P,C12,2*%
%TO.N,GND*%
X82820000Y-77400000D03*
%TD*%
D31*
%TO.P,C13,1*%
%TO.N,VBUS*%
X79525000Y-64360000D03*
%TO.P,C13,2*%
%TO.N,GND*%
X77975000Y-64360000D03*
%TD*%
D34*
%TO.N,VBUS*%
X79530000Y-102100000D03*
%TO.N,GPIO25*%
X86560000Y-95380000D03*
%TO.N,+3V3*%
X83680000Y-77660000D03*
X82570000Y-81489566D03*
X80960000Y-69370000D03*
%TO.N,GND*%
X82120000Y-76610000D03*
X89980000Y-75860000D03*
X76020000Y-56960000D03*
X89090000Y-88980000D03*
X79270000Y-73900000D03*
X86470000Y-63030000D03*
X73960000Y-75810000D03*
X88730000Y-105560000D03*
X87409265Y-87510735D03*
X89640000Y-98830000D03*
X77290000Y-80250000D03*
X83850000Y-83450000D03*
X80041446Y-65960425D03*
X78730000Y-95450000D03*
X75620000Y-105510000D03*
X75760000Y-88600000D03*
X81750000Y-74400000D03*
X78439000Y-78978770D03*
X81011044Y-88053246D03*
X89380000Y-57240000D03*
X86920000Y-78920000D03*
X75300000Y-86700000D03*
%TO.N,+1V1*%
X82220000Y-87620002D03*
X83344992Y-78386479D03*
X84810000Y-79880000D03*
%TO.N,VBUS*%
X77860000Y-65720000D03*
%TO.N,GPIO25*%
X88210000Y-88070000D03*
X89020000Y-86720000D03*
X88400000Y-84620000D03*
%TO.N,RUN*%
X84689959Y-87521001D03*
%TO.N,GPIO21*%
X84270000Y-85211034D03*
%TO.N,GPIO23*%
X90230000Y-80810000D03*
X89707044Y-83702786D03*
%TO.N,GPIO1*%
X77004000Y-83060000D03*
%TO.N,GPIO0*%
X77790132Y-82911673D03*
%TO.N,GPIO8*%
X79760000Y-87860000D03*
%TO.N,GPIO2*%
X77004000Y-83920000D03*
%TO.N,SWD*%
X83867509Y-87660380D03*
%TO.N,SWCLK*%
X83068527Y-87619999D03*
%TO.N,QSPI_SS*%
X79940000Y-71389265D03*
X84500000Y-69980000D03*
%TD*%
D35*
%TO.N,Net-(D1-DOUT)*%
X82249000Y-102991000D02*
X83340000Y-101900000D01*
X78361000Y-102991000D02*
X82249000Y-102991000D01*
X77310000Y-101940000D02*
X78361000Y-102991000D01*
%TO.N,VBUS*%
X80450000Y-102100000D02*
X80610000Y-101940000D01*
X79530000Y-102100000D02*
X80450000Y-102100000D01*
X80610000Y-99730000D02*
X83340000Y-97000000D01*
X80610000Y-101940000D02*
X80610000Y-99730000D01*
%TO.N,GPIO25*%
X86560000Y-96920000D02*
X86640000Y-97000000D01*
X86560000Y-95380000D02*
X86560000Y-96920000D01*
%TO.N,GPIO16*%
X88548125Y-96152325D02*
X88548125Y-102638125D01*
X87670000Y-95274200D02*
X88548125Y-96152325D01*
X87670000Y-91160000D02*
X87670000Y-95274200D01*
X88548125Y-102638125D02*
X91060000Y-105150000D01*
%TO.N,GPIO17*%
X88981450Y-96018550D02*
X88981450Y-100531450D01*
X88981450Y-100531450D02*
X91060000Y-102610000D01*
X88071000Y-95108100D02*
X88981450Y-96018550D01*
X88071000Y-90993900D02*
X88071000Y-95108100D01*
%TO.N,GPIO15*%
X75291000Y-103139000D02*
X73280000Y-105150000D01*
X75291000Y-96886157D02*
X75291000Y-103139000D01*
X77440000Y-92952450D02*
X77440000Y-94737157D01*
X79212450Y-91180000D02*
X77440000Y-92952450D01*
X79213450Y-91181000D02*
X79212450Y-91180000D01*
X77440000Y-94737157D02*
X75291000Y-96886157D01*
X80771000Y-90343200D02*
X79933200Y-91181000D01*
X79933200Y-91181000D02*
X79213450Y-91181000D01*
X80771000Y-89610000D02*
X80771000Y-90343200D01*
X80770000Y-88957500D02*
X80770000Y-89609000D01*
X80770000Y-89609000D02*
X80771000Y-89610000D01*
%TO.N,GPIO14*%
X74890000Y-101000000D02*
X73280000Y-102610000D01*
X74890000Y-96720000D02*
X74890000Y-101000000D01*
X74890057Y-96720000D02*
X74890000Y-96720000D01*
X77039000Y-94571057D02*
X74890057Y-96720000D01*
X77039000Y-92786350D02*
X77039000Y-94571057D01*
%TO.N,+3V3*%
X79860000Y-69920000D02*
X79690000Y-70090000D01*
X83780000Y-77560000D02*
X83680000Y-77660000D01*
X82699000Y-90239000D02*
X83459000Y-90239000D01*
X83459000Y-90239000D02*
X83780000Y-90560000D01*
X79860000Y-68145000D02*
X79860000Y-69920000D01*
X77930000Y-82117500D02*
X78732500Y-82920000D01*
X84370000Y-82617774D02*
X84370000Y-82082500D01*
X81261000Y-75811000D02*
X82759000Y-75811000D01*
X82370000Y-82620000D02*
X82070000Y-82920000D01*
X81261000Y-76541500D02*
X80865000Y-76937500D01*
X85070000Y-86520000D02*
X84870000Y-86320000D01*
X84166774Y-82821000D02*
X84370000Y-82617774D01*
X82370000Y-88410000D02*
X82179000Y-88219000D01*
X82971000Y-82821000D02*
X84166774Y-82821000D01*
X80520000Y-75070000D02*
X79850000Y-75740000D01*
X83780000Y-77030000D02*
X83780000Y-77560000D01*
X83560000Y-77030000D02*
X83780000Y-77030000D01*
X85720000Y-81132500D02*
X84770000Y-82082500D01*
X82370000Y-88957500D02*
X82370000Y-88410000D01*
X79860000Y-68145000D02*
X79860000Y-68270000D01*
X84770000Y-82082500D02*
X84370000Y-82082500D01*
X82759000Y-75811000D02*
X83800000Y-74770000D01*
X82759000Y-75811000D02*
X82759000Y-76009000D01*
X79860000Y-68270000D02*
X80960000Y-69370000D01*
X78732500Y-82920000D02*
X79290000Y-82920000D01*
X82759000Y-76009000D02*
X83780000Y-77030000D01*
X84870000Y-83122226D02*
X85072226Y-82920000D01*
X86480000Y-80740000D02*
X86680000Y-80940000D01*
X86680000Y-80940000D02*
X86680000Y-81620000D01*
X79471000Y-83101000D02*
X79471000Y-86359000D01*
X85607500Y-86520000D02*
X86600000Y-86520000D01*
X86600000Y-86520000D02*
X86830000Y-86750000D01*
X79290000Y-82920000D02*
X79471000Y-83101000D01*
X84870000Y-86320000D02*
X84870000Y-83122226D01*
X81261000Y-75811000D02*
X81261000Y-76541500D01*
X80520000Y-75070000D02*
X81261000Y-75811000D01*
X82370000Y-88957500D02*
X82370000Y-89910000D01*
X78732500Y-86520000D02*
X77680000Y-86520000D01*
X82570000Y-81882500D02*
X82770000Y-82082500D01*
X85720000Y-80740000D02*
X85720000Y-81132500D01*
X82070000Y-82920000D02*
X78732500Y-82920000D01*
X77680000Y-86520000D02*
X77390000Y-86810000D01*
X86390000Y-81910000D02*
X86390000Y-82137500D01*
X77930000Y-82060000D02*
X77930000Y-82117500D01*
X82570000Y-81489566D02*
X82570000Y-81882500D01*
X81612044Y-87804303D02*
X81259987Y-87452246D01*
X86390000Y-82137500D02*
X85607500Y-82920000D01*
X85607500Y-86520000D02*
X85070000Y-86520000D01*
X82179000Y-88219000D02*
X81870000Y-88219000D01*
X81612044Y-87961044D02*
X81612044Y-87804303D01*
X80540000Y-75050000D02*
X80520000Y-75070000D01*
X79690000Y-70090000D02*
X79690000Y-70260000D01*
X79310000Y-86520000D02*
X78732500Y-86520000D01*
X82770000Y-82620000D02*
X82971000Y-82821000D01*
X79850000Y-75740000D02*
X78600000Y-75740000D01*
X82370000Y-82082500D02*
X82370000Y-82620000D01*
X80372246Y-87452246D02*
X79440000Y-86520000D01*
X79690000Y-70260000D02*
X80540000Y-71110000D01*
X79440000Y-86520000D02*
X79310000Y-86520000D01*
X79471000Y-86359000D02*
X79310000Y-86520000D01*
X86680000Y-81620000D02*
X86390000Y-81910000D01*
X82370000Y-89910000D02*
X82699000Y-90239000D01*
X81870000Y-88219000D02*
X81612044Y-87961044D01*
X82770000Y-82082500D02*
X82770000Y-82620000D01*
X80540000Y-71110000D02*
X80540000Y-75050000D01*
X85072226Y-82920000D02*
X85607500Y-82920000D01*
X82570000Y-81882500D02*
X82370000Y-82082500D01*
X81259987Y-87452246D02*
X80372246Y-87452246D01*
X85720000Y-80740000D02*
X86480000Y-80740000D01*
%TO.N,GND*%
X78015000Y-78554770D02*
X78439000Y-78978770D01*
X76320000Y-86700000D02*
X76430000Y-86810000D01*
X77929000Y-94649000D02*
X78730000Y-95450000D01*
X82820000Y-77400000D02*
X82820000Y-77310000D01*
X81170000Y-88957500D02*
X81170000Y-88212202D01*
X83780000Y-91520000D02*
X84730000Y-91520000D01*
X85505000Y-62065000D02*
X86470000Y-63030000D01*
X77929000Y-93401000D02*
X77929000Y-94649000D01*
X86680000Y-79980000D02*
X87350000Y-80650000D01*
X83780000Y-76070000D02*
X84411000Y-75439000D01*
X82170000Y-85520000D02*
X82170000Y-85130000D01*
X78540000Y-92790000D02*
X77929000Y-93401000D01*
X78015000Y-78437500D02*
X78015000Y-78554770D01*
X83460000Y-93350000D02*
X83790000Y-93350000D01*
X82170000Y-85130000D02*
X83850000Y-83450000D01*
X85420000Y-62065000D02*
X85505000Y-62065000D01*
X75300000Y-86700000D02*
X76320000Y-86700000D01*
X86480000Y-79780000D02*
X86680000Y-79980000D01*
X87350000Y-80650000D02*
X87350000Y-81910000D01*
X77930000Y-81100000D02*
X77930000Y-80890000D01*
X83040000Y-93330000D02*
X83440000Y-93330000D01*
X85720000Y-79780000D02*
X86480000Y-79780000D01*
X81170000Y-88212202D02*
X81011044Y-88053246D01*
X82290000Y-94080000D02*
X83040000Y-93330000D01*
X87790000Y-86750000D02*
X87790000Y-87130000D01*
X87790000Y-87130000D02*
X87409265Y-87510735D01*
X84411000Y-74421000D02*
X83800000Y-73810000D01*
X84730000Y-91520000D02*
X84740000Y-91510000D01*
X83440000Y-93330000D02*
X83460000Y-93350000D01*
X77930000Y-80890000D02*
X77290000Y-80250000D01*
X84411000Y-75439000D02*
X84411000Y-74421000D01*
X82820000Y-77310000D02*
X82120000Y-76610000D01*
X79680000Y-92790000D02*
X80090000Y-92380000D01*
X78540000Y-92790000D02*
X79680000Y-92790000D01*
%TO.N,+1V1*%
X82820000Y-78360000D02*
X82820000Y-78597100D01*
X83760000Y-89972900D02*
X84162900Y-89972900D01*
X82820000Y-78597100D02*
X81970000Y-79447100D01*
X81970000Y-79447100D02*
X81970000Y-82082500D01*
X84810000Y-79360000D02*
X84810000Y-79880000D01*
X83018000Y-89838000D02*
X83625100Y-89838000D01*
X83318513Y-78360000D02*
X83344992Y-78386479D01*
X83970000Y-81490000D02*
X83990000Y-81470000D01*
X82770000Y-88170002D02*
X82220000Y-87620002D01*
X82770000Y-88957500D02*
X82770000Y-88170002D01*
X84030340Y-81470000D02*
X84630340Y-80870000D01*
X83970000Y-82082500D02*
X83970000Y-81490000D01*
X83990000Y-81470000D02*
X84030340Y-81470000D01*
X84162900Y-89972900D02*
X84740000Y-90550000D01*
X85510000Y-78660000D02*
X84810000Y-79360000D01*
X84810000Y-79880000D02*
X84810000Y-80690340D01*
X83625100Y-89838000D02*
X83760000Y-89972900D01*
X82820000Y-78360000D02*
X83318513Y-78360000D01*
X84810000Y-80690340D02*
X84630340Y-80870000D01*
X82770000Y-88957500D02*
X82770000Y-89590000D01*
X82770000Y-89590000D02*
X83018000Y-89838000D01*
%TO.N,VBUS*%
X84384000Y-61829000D02*
X84384000Y-60339992D01*
X77860000Y-65720000D02*
X78360000Y-65720000D01*
X80520008Y-60339992D02*
X84384000Y-60339992D01*
X79720000Y-62950000D02*
X79525000Y-63145000D01*
X86652992Y-58071000D02*
X89879000Y-58071000D01*
X79525000Y-63145000D02*
X79525000Y-64360000D01*
X78360000Y-65720000D02*
X78910000Y-66270000D01*
X79525000Y-65655000D02*
X78910000Y-66270000D01*
X79525000Y-64360000D02*
X79525000Y-65655000D01*
X79720000Y-62065000D02*
X79720000Y-61140000D01*
X79720000Y-62065000D02*
X79720000Y-62950000D01*
X89879000Y-58071000D02*
X91060000Y-56890000D01*
X79720000Y-61140000D02*
X80520008Y-60339992D01*
X84384000Y-60339992D02*
X86652992Y-58071000D01*
X84620000Y-62065000D02*
X84384000Y-61829000D01*
%TO.N,XIN*%
X81249000Y-89813774D02*
X81570000Y-89492774D01*
X80090000Y-94080000D02*
X81249000Y-92921000D01*
X81570000Y-89492774D02*
X81570000Y-88957500D01*
X81249000Y-92921000D02*
X81249000Y-89813774D01*
X78540000Y-93750000D02*
X79760000Y-93750000D01*
X79760000Y-93750000D02*
X80090000Y-94080000D01*
%TO.N,Net-(C16-Pad2)*%
X83780000Y-92380000D02*
X83790000Y-92390000D01*
X82290000Y-92380000D02*
X83780000Y-92380000D01*
X82840000Y-90860000D02*
X82840000Y-91830000D01*
X82840000Y-91830000D02*
X82290000Y-92380000D01*
%TO.N,GPIO25*%
X88100000Y-84920000D02*
X88400000Y-84620000D01*
X85607500Y-84920000D02*
X88100000Y-84920000D01*
X89020000Y-87260000D02*
X88210000Y-88070000D01*
X89020000Y-86720000D02*
X89020000Y-87260000D01*
%TO.N,Net-(J1-CC1)*%
X83450000Y-63780000D02*
X83450000Y-62095000D01*
X83450000Y-62095000D02*
X83420000Y-62065000D01*
%TO.N,Net-(J1-CC2)*%
X80420000Y-64150000D02*
X80810000Y-64540000D01*
X80420000Y-62065000D02*
X80420000Y-64150000D01*
%TO.N,D-*%
X81920000Y-62065000D02*
X81920000Y-63042000D01*
X81895000Y-63177501D02*
X81895000Y-68766802D01*
X81920000Y-62065000D02*
X81920000Y-63152501D01*
X81895000Y-68766802D02*
X85895000Y-72766802D01*
X81969000Y-63091000D02*
X82871000Y-63091000D01*
X81920000Y-63152501D02*
X81895000Y-63177501D01*
X85895000Y-77321397D02*
X83840000Y-79376397D01*
X81920000Y-63042000D02*
X81969000Y-63091000D01*
X85895000Y-72766802D02*
X85895000Y-77321397D01*
X83840000Y-79376397D02*
X83840000Y-79700000D01*
X82871000Y-63091000D02*
X82920000Y-63042000D01*
X82920000Y-63042000D02*
X82920000Y-62065000D01*
%TO.N,D+*%
X81445000Y-63177501D02*
X81445000Y-68953198D01*
X82420000Y-61088000D02*
X82420000Y-62065000D01*
X81469000Y-61039000D02*
X82371000Y-61039000D01*
X81420000Y-62065000D02*
X81420000Y-61088000D01*
X81420000Y-63152501D02*
X81445000Y-63177501D01*
X81420000Y-62065000D02*
X81420000Y-63152501D01*
X82371000Y-61039000D02*
X82420000Y-61088000D01*
X81420000Y-61088000D02*
X81469000Y-61039000D01*
X85445000Y-77135000D02*
X82870000Y-79710000D01*
X81445000Y-68953198D02*
X85445000Y-72953198D01*
X85445000Y-72953198D02*
X85445000Y-77135000D01*
%TO.N,RUN*%
X83970000Y-88409048D02*
X83970000Y-88957500D01*
X84670000Y-87540960D02*
X84689959Y-87521001D01*
X84670000Y-87709048D02*
X83970000Y-88409048D01*
X84670000Y-87709048D02*
X84670000Y-87540960D01*
%TO.N,GPIO16*%
X84709458Y-89832232D02*
X86342232Y-89832232D01*
X84370000Y-88957500D02*
X84370000Y-89492774D01*
X84370000Y-89492774D02*
X84709458Y-89832232D01*
X86342232Y-89832232D02*
X87670000Y-91160000D01*
%TO.N,GPIO28*%
X88332000Y-82528000D02*
X88332000Y-67238000D01*
X85607500Y-83720000D02*
X87140000Y-83720000D01*
X87140000Y-83720000D02*
X88332000Y-82528000D01*
X88332000Y-67238000D02*
X91060000Y-64510000D01*
%TO.N,GPIO19*%
X88873000Y-92803000D02*
X91060000Y-94990000D01*
X88873000Y-90443000D02*
X88873000Y-92803000D01*
X85607500Y-87720000D02*
X86150000Y-87720000D01*
X86150000Y-87720000D02*
X88873000Y-90443000D01*
%TO.N,GPIO24*%
X89106044Y-85073956D02*
X89106044Y-83455256D01*
X88860000Y-85320000D02*
X89106044Y-85073956D01*
X89106044Y-83455256D02*
X89535000Y-83026300D01*
X85607500Y-85320000D02*
X88860000Y-85320000D01*
X89535000Y-83026300D02*
X89535000Y-78735000D01*
X89535000Y-78735000D02*
X91060000Y-77210000D01*
%TO.N,GPIO21*%
X84900000Y-86920000D02*
X84640000Y-86660000D01*
X85607500Y-86920000D02*
X84900000Y-86920000D01*
X84640000Y-86660000D02*
X84270000Y-86290000D01*
X84270000Y-86290000D02*
X84270000Y-85211034D01*
%TO.N,GPIO26*%
X91060000Y-72130000D02*
X89134000Y-74056000D01*
X87474200Y-84520000D02*
X85607500Y-84520000D01*
X89134000Y-74056000D02*
X89134000Y-82860200D01*
X89134000Y-82860200D02*
X87474200Y-84520000D01*
%TO.N,GPIO18*%
X85764200Y-88120000D02*
X88472000Y-90827800D01*
X85607500Y-88120000D02*
X85764200Y-88120000D01*
X88472000Y-90827800D02*
X88472000Y-94942000D01*
X88472000Y-94942000D02*
X91060000Y-97530000D01*
%TO.N,GPIO20*%
X86370000Y-87320000D02*
X89274000Y-90224000D01*
X90111735Y-92450000D02*
X91060000Y-92450000D01*
X89274000Y-90664000D02*
X91060000Y-92450000D01*
X85607500Y-87320000D02*
X86370000Y-87320000D01*
X89274000Y-90224000D02*
X89274000Y-90664000D01*
%TO.N,GPIO29*%
X85607500Y-83320000D02*
X86950000Y-83320000D01*
X87931000Y-65099000D02*
X91060000Y-61970000D01*
X87931000Y-82339000D02*
X87931000Y-65099000D01*
X86950000Y-83320000D02*
X87931000Y-82339000D01*
%TO.N,GPIO27*%
X88733000Y-82694100D02*
X87307100Y-84120000D01*
X88733000Y-71917000D02*
X88733000Y-82694100D01*
X87307100Y-84120000D02*
X85607500Y-84120000D01*
X91060000Y-69590000D02*
X88733000Y-71917000D01*
%TO.N,GPIO23*%
X90230000Y-80810000D02*
X90230000Y-80580000D01*
X90230000Y-80580000D02*
X91060000Y-79750000D01*
X89030000Y-85720000D02*
X89707044Y-85042956D01*
X85607500Y-85720000D02*
X89030000Y-85720000D01*
X89707044Y-85042956D02*
X89707044Y-83702786D01*
%TO.N,GPIO22*%
X85607500Y-86120000D02*
X89770000Y-86120000D01*
X89770000Y-86120000D02*
X91060000Y-84830000D01*
%TO.N,GPIO17*%
X84770000Y-88957500D02*
X85202500Y-89390000D01*
X85202500Y-89390000D02*
X86467100Y-89390000D01*
X86467100Y-89390000D02*
X88071000Y-90993900D01*
%TO.N,GPIO1*%
X77664000Y-83720000D02*
X77004000Y-83060000D01*
X78732500Y-83720000D02*
X77664000Y-83720000D01*
%TO.N,GPIO6*%
X75201000Y-84751000D02*
X75201000Y-79131000D01*
X76170000Y-85720000D02*
X75201000Y-84751000D01*
X75201000Y-79131000D02*
X73280000Y-77210000D01*
X78732500Y-85720000D02*
X76170000Y-85720000D01*
%TO.N,GPIO0*%
X78732500Y-83320000D02*
X78198459Y-83320000D01*
X78198459Y-83320000D02*
X77790132Y-82911673D01*
%TO.N,GPIO7*%
X76000000Y-86120000D02*
X74800000Y-84920000D01*
X74800000Y-84920000D02*
X74800000Y-81270000D01*
X74800000Y-81270000D02*
X73280000Y-79750000D01*
X78732500Y-86120000D02*
X76000000Y-86120000D01*
%TO.N,GPIO8*%
X79270000Y-86920000D02*
X79760000Y-87410000D01*
X78732500Y-86920000D02*
X79270000Y-86920000D01*
X79760000Y-87410000D02*
X79760000Y-87860000D01*
%TO.N,GPIO9*%
X78732500Y-87320000D02*
X78020000Y-87320000D01*
X74780000Y-87550000D02*
X74520000Y-87290000D01*
X78020000Y-87320000D02*
X77790000Y-87550000D01*
X74520000Y-87290000D02*
X74520000Y-86070000D01*
X74520000Y-86070000D02*
X73280000Y-84830000D01*
X77790000Y-87550000D02*
X74780000Y-87550000D01*
%TO.N,GPIO5*%
X78732500Y-85320000D02*
X76337100Y-85320000D01*
X76337100Y-85320000D02*
X75602000Y-84584900D01*
X75602000Y-74452000D02*
X73280000Y-72130000D01*
X75602000Y-84584900D02*
X75602000Y-74452000D01*
%TO.N,GPIO13*%
X79610000Y-90370000D02*
X78888250Y-90370000D01*
X76638000Y-94172000D02*
X73280000Y-97530000D01*
X76638000Y-92620250D02*
X76638000Y-94172000D01*
X79970000Y-88957500D02*
X79970000Y-90010000D01*
X79970000Y-90010000D02*
X79610000Y-90370000D01*
X78888250Y-90370000D02*
X76638000Y-92620250D01*
%TO.N,GPIO2*%
X78732500Y-84120000D02*
X77204000Y-84120000D01*
X77204000Y-84120000D02*
X77004000Y-83920000D01*
%TO.N,GPIO10*%
X78732500Y-87720000D02*
X78190000Y-87720000D01*
X78190000Y-87720000D02*
X76000000Y-89910000D01*
X76000000Y-89910000D02*
X73280000Y-89910000D01*
%TO.N,GPIO3*%
X76710000Y-84520000D02*
X76404000Y-84214000D01*
X78732500Y-84520000D02*
X76710000Y-84520000D01*
X76404000Y-84214000D02*
X76404000Y-70174000D01*
X76404000Y-70174000D02*
X73280000Y-67050000D01*
%TO.N,GPIO12*%
X78761150Y-89930000D02*
X76280575Y-92410575D01*
X76280575Y-92410575D02*
X75859425Y-92410575D01*
X79570000Y-88957500D02*
X79570000Y-89840000D01*
X79480000Y-89930000D02*
X78761150Y-89930000D01*
X75859425Y-92410575D02*
X73280000Y-94990000D01*
X79570000Y-89840000D02*
X79480000Y-89930000D01*
%TO.N,GPIO4*%
X78732500Y-84920000D02*
X76530000Y-84920000D01*
X76003000Y-72313000D02*
X73280000Y-69590000D01*
X76530000Y-84920000D02*
X76003000Y-84393000D01*
X76003000Y-84393000D02*
X76003000Y-72313000D01*
%TO.N,GPIO11*%
X78732500Y-88120000D02*
X74402500Y-92450000D01*
X74402500Y-92450000D02*
X73280000Y-92450000D01*
%TO.N,GPIO14*%
X79767100Y-90780000D02*
X80370000Y-90177100D01*
X79409000Y-90779000D02*
X79410000Y-90780000D01*
X79410000Y-90780000D02*
X79767100Y-90780000D01*
X77039000Y-92786350D02*
X79046350Y-90779000D01*
X79046350Y-90779000D02*
X79409000Y-90779000D01*
X80370000Y-90177100D02*
X80370000Y-88957500D01*
%TO.N,SWD*%
X83570000Y-88957500D02*
X83570000Y-87957889D01*
X83570000Y-87957889D02*
X83867509Y-87660380D01*
%TO.N,SWCLK*%
X83170000Y-87713355D02*
X83170000Y-88957500D01*
X83068528Y-87620000D02*
X83076645Y-87620000D01*
X83068527Y-87619999D02*
X83068528Y-87620000D01*
X83076645Y-87620000D02*
X83170000Y-87713355D01*
%TO.N,Net-(U1-USB_DP)*%
X82870000Y-80730000D02*
X83170000Y-81030000D01*
X83170000Y-81030000D02*
X83170000Y-82082500D01*
%TO.N,Net-(U1-USB_DM)*%
X83840000Y-80720000D02*
X83570000Y-80990000D01*
X83570000Y-80990000D02*
X83570000Y-82082500D01*
%TO.N,XOUT*%
X81820000Y-90860000D02*
X81820000Y-89890000D01*
X81820000Y-89890000D02*
X81970000Y-89740000D01*
X81970000Y-89740000D02*
X81970000Y-88957500D01*
%TO.N,QSPI_SS*%
X85230000Y-69980000D02*
X85280000Y-69930000D01*
X77482102Y-76937500D02*
X78015000Y-76937500D01*
X84500000Y-69980000D02*
X85230000Y-69980000D01*
X76863000Y-78823000D02*
X76863000Y-77556602D01*
X79570000Y-82082500D02*
X79570000Y-81530000D01*
X79570000Y-81530000D02*
X76863000Y-78823000D01*
X77580000Y-75930000D02*
X77580000Y-73749265D01*
X77580000Y-73749265D02*
X79940000Y-71389265D01*
X76863000Y-77556602D02*
X77482102Y-76937500D01*
X77580000Y-75930000D02*
X77580000Y-76502500D01*
X77580000Y-76502500D02*
X78015000Y-76937500D01*
%TO.N,Net-(R7-Pad1)*%
X86300000Y-69270000D02*
X85830000Y-68800000D01*
X86300000Y-69930000D02*
X86300000Y-69270000D01*
%TO.N,QSPI_SD1*%
X77264000Y-78652298D02*
X77264000Y-77722702D01*
X77549202Y-77437500D02*
X78015000Y-77437500D01*
X79970000Y-82082500D02*
X79970000Y-81358298D01*
X79970000Y-81358298D02*
X77264000Y-78652298D01*
X77264000Y-77722702D02*
X77549202Y-77437500D01*
%TO.N,QSPI_SD3*%
X81397898Y-77437500D02*
X80865000Y-77437500D01*
X82017000Y-78833000D02*
X82017000Y-78056602D01*
X81570000Y-79280000D02*
X82017000Y-78833000D01*
X81570000Y-82082500D02*
X81570000Y-79280000D01*
X82017000Y-78056602D02*
X81397898Y-77437500D01*
%TO.N,QSPI_SD2*%
X80370000Y-81191198D02*
X79039000Y-79860198D01*
X79039000Y-78495702D02*
X79039000Y-79860198D01*
X78015000Y-77937500D02*
X78480798Y-77937500D01*
X80370000Y-82082500D02*
X80370000Y-81191198D01*
X78480798Y-77937500D02*
X79039000Y-78495702D01*
%TO.N,QSPI_SD0*%
X80865000Y-78437500D02*
X80770000Y-78532500D01*
X80770000Y-78532500D02*
X80770000Y-82082500D01*
%TO.N,QSPI_SCLK*%
X81616000Y-78652298D02*
X81616000Y-78222702D01*
X81330798Y-77937500D02*
X80865000Y-77937500D01*
X81170000Y-79098298D02*
X81616000Y-78652298D01*
X81170000Y-82082500D02*
X81170000Y-79098298D01*
X81616000Y-78222702D02*
X81330798Y-77937500D01*
%TD*%
%TA.AperFunction,Conductor*%
%TO.N,GND*%
G36*
X86212727Y-90202417D02*
G01*
X86233369Y-90219051D01*
X87283181Y-91268863D01*
X87316666Y-91330186D01*
X87319500Y-91356544D01*
X87319500Y-95145652D01*
X87299815Y-95212691D01*
X87247011Y-95258446D01*
X87177853Y-95268390D01*
X87114297Y-95239365D01*
X87076523Y-95180587D01*
X87075726Y-95177747D01*
X87072984Y-95167516D01*
X87072982Y-95167511D01*
X87000511Y-95041988D01*
X87000506Y-95041982D01*
X86898017Y-94939493D01*
X86898011Y-94939488D01*
X86772488Y-94867017D01*
X86772489Y-94867017D01*
X86761006Y-94863940D01*
X86632475Y-94829500D01*
X86487525Y-94829500D01*
X86358993Y-94863940D01*
X86347511Y-94867017D01*
X86221988Y-94939488D01*
X86221982Y-94939493D01*
X86119493Y-95041982D01*
X86119488Y-95041988D01*
X86047017Y-95167511D01*
X86047016Y-95167515D01*
X86009500Y-95307525D01*
X86009500Y-95452475D01*
X86047016Y-95592485D01*
X86047017Y-95592488D01*
X86119488Y-95718011D01*
X86119493Y-95718017D01*
X86173181Y-95771705D01*
X86187884Y-95798632D01*
X86204477Y-95824451D01*
X86205368Y-95830651D01*
X86206666Y-95833028D01*
X86209500Y-95859386D01*
X86209500Y-95918177D01*
X86189815Y-95985216D01*
X86137906Y-96030559D01*
X86081682Y-96056777D01*
X85996776Y-96141683D01*
X85946027Y-96250514D01*
X85939500Y-96300098D01*
X85939500Y-97699894D01*
X85939501Y-97699900D01*
X85946028Y-97749487D01*
X85946029Y-97749489D01*
X85946029Y-97749490D01*
X85964618Y-97789354D01*
X85996776Y-97858316D01*
X86081684Y-97943224D01*
X86190513Y-97993972D01*
X86240099Y-98000500D01*
X87039900Y-98000499D01*
X87089487Y-97993972D01*
X87198316Y-97943224D01*
X87283224Y-97858316D01*
X87333972Y-97749487D01*
X87340500Y-97699901D01*
X87340499Y-96300100D01*
X87333972Y-96250513D01*
X87283224Y-96141684D01*
X87198316Y-96056776D01*
X87089487Y-96006028D01*
X87089485Y-96006027D01*
X87089486Y-96006027D01*
X87039902Y-95999500D01*
X87039901Y-95999500D01*
X87034500Y-95999500D01*
X87025814Y-95996949D01*
X87016853Y-95998238D01*
X86992812Y-95987259D01*
X86967461Y-95979815D01*
X86961533Y-95972974D01*
X86953297Y-95969213D01*
X86939007Y-95946978D01*
X86921706Y-95927011D01*
X86919418Y-95916496D01*
X86915523Y-95910435D01*
X86910500Y-95875500D01*
X86910500Y-95859386D01*
X86930185Y-95792347D01*
X86946819Y-95771705D01*
X87000509Y-95718015D01*
X87072984Y-95592485D01*
X87110500Y-95452475D01*
X87110500Y-95452471D01*
X87110672Y-95451167D01*
X87111122Y-95450147D01*
X87112603Y-95444624D01*
X87113464Y-95444854D01*
X87138938Y-95387271D01*
X87197262Y-95348799D01*
X87267127Y-95347967D01*
X87326351Y-95385039D01*
X87340998Y-95405352D01*
X87389527Y-95489408D01*
X87389529Y-95489411D01*
X87389530Y-95489412D01*
X87775618Y-95875500D01*
X88161306Y-96261187D01*
X88194791Y-96322510D01*
X88197625Y-96348868D01*
X88197625Y-102684270D01*
X88213974Y-102745287D01*
X88221509Y-102773408D01*
X88221512Y-102773415D01*
X88267652Y-102853333D01*
X88267656Y-102853338D01*
X90011347Y-104597029D01*
X90044832Y-104658352D01*
X90041597Y-104723028D01*
X89986597Y-104892301D01*
X89959500Y-105063389D01*
X89959500Y-105236610D01*
X89969555Y-105300099D01*
X89986598Y-105407701D01*
X90023086Y-105520000D01*
X90040128Y-105572447D01*
X90118768Y-105726788D01*
X90188390Y-105822614D01*
X90211870Y-105888421D01*
X90196045Y-105956475D01*
X90145939Y-106005170D01*
X90088072Y-106019500D01*
X85860400Y-106019500D01*
X85793361Y-105999815D01*
X85747606Y-105947011D01*
X85737662Y-105877853D01*
X85745840Y-105848045D01*
X85745967Y-105847737D01*
X85760499Y-105774678D01*
X85760500Y-105774676D01*
X85760500Y-104025323D01*
X85760499Y-104025321D01*
X85745967Y-103952264D01*
X85745966Y-103952260D01*
X85690601Y-103869399D01*
X85607740Y-103814034D01*
X85607739Y-103814033D01*
X85607735Y-103814032D01*
X85534677Y-103799500D01*
X85534674Y-103799500D01*
X83785326Y-103799500D01*
X83785323Y-103799500D01*
X83712264Y-103814032D01*
X83712260Y-103814033D01*
X83629399Y-103869399D01*
X83574033Y-103952260D01*
X83574032Y-103952264D01*
X83559500Y-104025321D01*
X83559500Y-105774678D01*
X83574032Y-105847737D01*
X83574160Y-105848045D01*
X83574237Y-105848768D01*
X83576416Y-105859719D01*
X83575436Y-105859913D01*
X83581630Y-105917514D01*
X83550357Y-105979994D01*
X83490268Y-106015648D01*
X83459600Y-106019500D01*
X82822462Y-106019500D01*
X82755423Y-105999815D01*
X82709668Y-105947011D01*
X82698844Y-105885775D01*
X82702736Y-105836288D01*
X82249410Y-105382962D01*
X82312993Y-105365925D01*
X82427007Y-105300099D01*
X82520099Y-105207007D01*
X82585925Y-105092993D01*
X82602962Y-105029409D01*
X83056289Y-105482736D01*
X83060803Y-105476525D01*
X83139408Y-105322257D01*
X83192914Y-105157584D01*
X83220000Y-104986571D01*
X83220000Y-104813428D01*
X83192914Y-104642415D01*
X83139408Y-104477742D01*
X83060801Y-104323471D01*
X83056290Y-104317262D01*
X83056289Y-104317261D01*
X82602962Y-104770589D01*
X82585925Y-104707007D01*
X82520099Y-104592993D01*
X82427007Y-104499901D01*
X82312993Y-104434075D01*
X82249409Y-104417037D01*
X82702737Y-103963709D01*
X82696525Y-103959196D01*
X82542259Y-103880592D01*
X82377584Y-103827085D01*
X82206571Y-103800000D01*
X82033429Y-103800000D01*
X81862415Y-103827085D01*
X81697740Y-103880592D01*
X81543480Y-103959193D01*
X81543463Y-103959203D01*
X81537261Y-103963708D01*
X81537261Y-103963709D01*
X81990590Y-104417037D01*
X81927007Y-104434075D01*
X81812993Y-104499901D01*
X81719901Y-104592993D01*
X81654075Y-104707007D01*
X81637037Y-104770590D01*
X81183709Y-104317261D01*
X81183708Y-104317261D01*
X81179203Y-104323463D01*
X81179193Y-104323480D01*
X81100592Y-104477740D01*
X81047085Y-104642415D01*
X81020000Y-104813428D01*
X81020000Y-104986571D01*
X81047085Y-105157584D01*
X81100592Y-105322259D01*
X81179196Y-105476525D01*
X81183709Y-105482736D01*
X81183709Y-105482737D01*
X81637037Y-105029409D01*
X81654075Y-105092993D01*
X81719901Y-105207007D01*
X81812993Y-105300099D01*
X81927007Y-105365925D01*
X81990589Y-105382962D01*
X81537261Y-105836289D01*
X81541156Y-105885771D01*
X81526792Y-105954149D01*
X81477740Y-106003905D01*
X81417538Y-106019500D01*
X80293056Y-106019500D01*
X80226017Y-105999815D01*
X80180262Y-105947011D01*
X80170318Y-105877853D01*
X80199343Y-105814297D01*
X80220170Y-105795182D01*
X80248391Y-105774678D01*
X80296928Y-105739414D01*
X80419414Y-105616928D01*
X80521232Y-105476788D01*
X80599873Y-105322445D01*
X80653402Y-105157701D01*
X80680500Y-104986611D01*
X80680500Y-104813389D01*
X80653402Y-104642299D01*
X80599873Y-104477555D01*
X80521232Y-104323212D01*
X80419414Y-104183072D01*
X80296928Y-104060586D01*
X80156788Y-103958768D01*
X80002445Y-103880127D01*
X79837701Y-103826598D01*
X79837699Y-103826597D01*
X79837698Y-103826597D01*
X79706271Y-103805781D01*
X79666611Y-103799500D01*
X79493389Y-103799500D01*
X79453728Y-103805781D01*
X79322302Y-103826597D01*
X79157552Y-103880128D01*
X79003211Y-103958768D01*
X78923256Y-104016859D01*
X78863072Y-104060586D01*
X78863070Y-104060588D01*
X78863069Y-104060588D01*
X78740588Y-104183069D01*
X78740588Y-104183070D01*
X78740586Y-104183072D01*
X78721917Y-104208768D01*
X78638768Y-104323211D01*
X78560128Y-104477552D01*
X78506597Y-104642302D01*
X78493095Y-104727555D01*
X78479500Y-104813389D01*
X78479500Y-104986611D01*
X78506598Y-105157701D01*
X78560127Y-105322445D01*
X78638768Y-105476788D01*
X78740586Y-105616928D01*
X78863072Y-105739414D01*
X78911603Y-105774674D01*
X78939830Y-105795182D01*
X78982495Y-105850513D01*
X78988474Y-105920126D01*
X78955868Y-105981921D01*
X78895029Y-106016278D01*
X78866944Y-106019500D01*
X74251928Y-106019500D01*
X74184889Y-105999815D01*
X74139134Y-105947011D01*
X74129190Y-105877853D01*
X74151610Y-105822614D01*
X74157653Y-105814297D01*
X74221232Y-105726788D01*
X74299873Y-105572445D01*
X74353402Y-105407701D01*
X74380500Y-105236611D01*
X74380500Y-105063389D01*
X74353402Y-104892299D01*
X74299873Y-104727555D01*
X74299869Y-104727547D01*
X74298401Y-104723029D01*
X74296406Y-104653188D01*
X74328649Y-104597031D01*
X75571469Y-103354213D01*
X75617614Y-103274288D01*
X75617952Y-103273022D01*
X75618371Y-103271464D01*
X75618371Y-103271460D01*
X75641500Y-103185144D01*
X75641500Y-101240098D01*
X76609500Y-101240098D01*
X76609500Y-102639894D01*
X76609501Y-102639900D01*
X76616028Y-102689487D01*
X76616029Y-102689489D01*
X76616029Y-102689490D01*
X76655161Y-102773408D01*
X76666776Y-102798316D01*
X76751684Y-102883224D01*
X76860513Y-102933972D01*
X76910099Y-102940500D01*
X77709900Y-102940499D01*
X77741988Y-102936275D01*
X77811021Y-102947041D01*
X77845851Y-102971533D01*
X78145787Y-103271469D01*
X78225712Y-103317614D01*
X78314856Y-103341500D01*
X78314858Y-103341500D01*
X82295142Y-103341500D01*
X82295144Y-103341500D01*
X82384288Y-103317614D01*
X82464212Y-103271470D01*
X82804147Y-102931533D01*
X82865470Y-102898049D01*
X82908013Y-102896276D01*
X82912019Y-102896803D01*
X82940099Y-102900500D01*
X83739900Y-102900499D01*
X83789487Y-102893972D01*
X83898316Y-102843224D01*
X83983224Y-102758316D01*
X84033972Y-102649487D01*
X84040500Y-102599901D01*
X84040500Y-102599833D01*
X85940000Y-102599833D01*
X85940001Y-102599850D01*
X85946518Y-102649354D01*
X85997192Y-102758024D01*
X86081975Y-102842807D01*
X86190646Y-102893481D01*
X86190645Y-102893481D01*
X86240149Y-102899998D01*
X86240167Y-102900000D01*
X86390000Y-102900000D01*
X86890000Y-102900000D01*
X87039833Y-102900000D01*
X87039850Y-102899998D01*
X87089354Y-102893481D01*
X87198024Y-102842807D01*
X87282807Y-102758024D01*
X87333481Y-102649354D01*
X87339998Y-102599850D01*
X87340000Y-102599833D01*
X87340000Y-102150000D01*
X86890000Y-102150000D01*
X86890000Y-102900000D01*
X86390000Y-102900000D01*
X86390000Y-102150000D01*
X85940000Y-102150000D01*
X85940000Y-102599833D01*
X84040500Y-102599833D01*
X84040499Y-101893078D01*
X84040499Y-101200166D01*
X85940000Y-101200166D01*
X85940000Y-101650000D01*
X86390000Y-101650000D01*
X86890000Y-101650000D01*
X87340000Y-101650000D01*
X87340000Y-101200166D01*
X87339998Y-101200149D01*
X87333481Y-101150645D01*
X87282807Y-101041975D01*
X87198024Y-100957192D01*
X87089353Y-100906518D01*
X87089354Y-100906518D01*
X87039850Y-100900001D01*
X87039833Y-100900000D01*
X86890000Y-100900000D01*
X86890000Y-101650000D01*
X86390000Y-101650000D01*
X86390000Y-100900000D01*
X86240167Y-100900000D01*
X86240149Y-100900001D01*
X86190645Y-100906518D01*
X86081975Y-100957192D01*
X85997192Y-101041975D01*
X85946518Y-101150645D01*
X85940001Y-101200149D01*
X85940000Y-101200166D01*
X84040499Y-101200166D01*
X84040499Y-101200105D01*
X84040499Y-101200100D01*
X84033972Y-101150513D01*
X83983224Y-101041684D01*
X83898316Y-100956776D01*
X83789487Y-100906028D01*
X83789485Y-100906027D01*
X83789486Y-100906027D01*
X83739901Y-100899500D01*
X82940105Y-100899500D01*
X82924386Y-100901569D01*
X82890513Y-100906028D01*
X82890511Y-100906029D01*
X82890509Y-100906029D01*
X82781683Y-100956776D01*
X82696776Y-101041683D01*
X82646027Y-101150514D01*
X82639500Y-101200098D01*
X82639500Y-102053455D01*
X82619815Y-102120494D01*
X82603181Y-102141136D01*
X82140137Y-102604181D01*
X82078814Y-102637666D01*
X82052456Y-102640500D01*
X81434500Y-102640500D01*
X81367461Y-102620815D01*
X81321706Y-102568011D01*
X81310500Y-102516500D01*
X81310499Y-101240105D01*
X81310499Y-101240100D01*
X81303972Y-101190513D01*
X81253224Y-101081684D01*
X81168316Y-100996776D01*
X81059487Y-100946028D01*
X81059485Y-100946027D01*
X81059484Y-100946027D01*
X81050376Y-100943372D01*
X81051432Y-100939748D01*
X81004273Y-100918799D01*
X80965891Y-100860416D01*
X80960500Y-100824250D01*
X80960500Y-99926543D01*
X80980185Y-99859504D01*
X80996814Y-99838867D01*
X82804148Y-98031532D01*
X82865469Y-97998049D01*
X82908011Y-97996276D01*
X82919065Y-97997730D01*
X82940099Y-98000500D01*
X83739900Y-98000499D01*
X83789487Y-97993972D01*
X83898316Y-97943224D01*
X83983224Y-97858316D01*
X84033972Y-97749487D01*
X84040500Y-97699901D01*
X84040499Y-96300100D01*
X84033972Y-96250513D01*
X83983224Y-96141684D01*
X83898316Y-96056776D01*
X83789487Y-96006028D01*
X83789485Y-96006027D01*
X83789486Y-96006027D01*
X83739901Y-95999500D01*
X82940105Y-95999500D01*
X82924386Y-96001569D01*
X82890513Y-96006028D01*
X82890511Y-96006029D01*
X82890509Y-96006029D01*
X82781683Y-96056776D01*
X82696776Y-96141683D01*
X82646027Y-96250514D01*
X82639500Y-96300098D01*
X82639500Y-97153455D01*
X82619815Y-97220494D01*
X82603181Y-97241136D01*
X80329531Y-99514786D01*
X80329527Y-99514791D01*
X80283387Y-99594709D01*
X80283386Y-99594712D01*
X80259500Y-99683856D01*
X80259500Y-100824251D01*
X80239815Y-100891290D01*
X80187011Y-100937045D01*
X80169259Y-100942146D01*
X80169618Y-100943375D01*
X80160509Y-100946029D01*
X80051683Y-100996776D01*
X79966776Y-101081683D01*
X79916027Y-101190514D01*
X79909500Y-101240098D01*
X79909500Y-101470616D01*
X79889815Y-101537655D01*
X79837011Y-101583410D01*
X79767853Y-101593354D01*
X79750477Y-101588589D01*
X79750335Y-101589120D01*
X79742486Y-101587017D01*
X79742485Y-101587016D01*
X79602475Y-101549500D01*
X79457525Y-101549500D01*
X79330973Y-101583410D01*
X79317511Y-101587017D01*
X79191988Y-101659488D01*
X79191982Y-101659493D01*
X79089493Y-101761982D01*
X79089488Y-101761988D01*
X79017017Y-101887511D01*
X79017016Y-101887515D01*
X78979500Y-102027525D01*
X78979500Y-102172475D01*
X78983541Y-102187555D01*
X79017017Y-102312488D01*
X79089490Y-102438014D01*
X79091793Y-102441015D01*
X79092947Y-102444002D01*
X79093555Y-102445054D01*
X79093390Y-102445148D01*
X79116986Y-102506184D01*
X79102947Y-102574629D01*
X79054133Y-102624618D01*
X78993416Y-102640500D01*
X78557544Y-102640500D01*
X78490505Y-102620815D01*
X78469863Y-102604181D01*
X78046818Y-102181136D01*
X78013333Y-102119813D01*
X78010499Y-102093455D01*
X78010499Y-101240105D01*
X78010499Y-101240100D01*
X78003972Y-101190513D01*
X77953224Y-101081684D01*
X77868316Y-100996776D01*
X77759487Y-100946028D01*
X77759485Y-100946027D01*
X77759486Y-100946027D01*
X77709901Y-100939500D01*
X76910105Y-100939500D01*
X76894386Y-100941569D01*
X76860513Y-100946028D01*
X76860511Y-100946029D01*
X76860509Y-100946029D01*
X76751683Y-100996776D01*
X76666776Y-101081683D01*
X76616027Y-101190514D01*
X76609500Y-101240098D01*
X75641500Y-101240098D01*
X75641500Y-97739833D01*
X76610000Y-97739833D01*
X76610001Y-97739850D01*
X76616518Y-97789354D01*
X76667192Y-97898024D01*
X76751975Y-97982807D01*
X76860646Y-98033481D01*
X76860645Y-98033481D01*
X76910149Y-98039998D01*
X76910167Y-98040000D01*
X77060000Y-98040000D01*
X77560000Y-98040000D01*
X77709833Y-98040000D01*
X77709850Y-98039998D01*
X77759354Y-98033481D01*
X77868024Y-97982807D01*
X77952807Y-97898024D01*
X78003481Y-97789354D01*
X78009998Y-97739850D01*
X78010000Y-97739833D01*
X78010000Y-97290000D01*
X77560000Y-97290000D01*
X77560000Y-98040000D01*
X77060000Y-98040000D01*
X77060000Y-97290000D01*
X76610000Y-97290000D01*
X76610000Y-97739833D01*
X75641500Y-97739833D01*
X75641500Y-97082701D01*
X75661185Y-97015662D01*
X75677819Y-96995020D01*
X76398319Y-96274520D01*
X76459642Y-96241035D01*
X76529334Y-96246019D01*
X76585267Y-96287891D01*
X76609684Y-96353355D01*
X76610000Y-96362201D01*
X76610000Y-96790000D01*
X77060000Y-96790000D01*
X77560000Y-96790000D01*
X78010000Y-96790000D01*
X78010000Y-96340166D01*
X78009998Y-96340149D01*
X78009991Y-96340098D01*
X79909500Y-96340098D01*
X79909500Y-97739894D01*
X79909501Y-97739900D01*
X79916028Y-97789487D01*
X79916029Y-97789489D01*
X79916029Y-97789490D01*
X79955159Y-97873403D01*
X79966776Y-97898316D01*
X80051684Y-97983224D01*
X80160513Y-98033972D01*
X80210099Y-98040500D01*
X81009900Y-98040499D01*
X81059487Y-98033972D01*
X81168316Y-97983224D01*
X81253224Y-97898316D01*
X81303972Y-97789487D01*
X81310500Y-97739901D01*
X81310499Y-96340100D01*
X81303972Y-96290513D01*
X81253224Y-96181684D01*
X81168316Y-96096776D01*
X81059487Y-96046028D01*
X81059485Y-96046027D01*
X81059486Y-96046027D01*
X81009901Y-96039500D01*
X80210105Y-96039500D01*
X80194386Y-96041569D01*
X80160513Y-96046028D01*
X80160511Y-96046029D01*
X80160509Y-96046029D01*
X80051683Y-96096776D01*
X79966776Y-96181683D01*
X79916027Y-96290514D01*
X79909500Y-96340098D01*
X78009991Y-96340098D01*
X78003481Y-96290645D01*
X77952807Y-96181975D01*
X77868024Y-96097192D01*
X77759353Y-96046518D01*
X77759354Y-96046518D01*
X77709850Y-96040001D01*
X77709833Y-96040000D01*
X77560000Y-96040000D01*
X77560000Y-96790000D01*
X77060000Y-96790000D01*
X77060000Y-96040000D01*
X76932201Y-96040000D01*
X76865162Y-96020315D01*
X76819407Y-95967511D01*
X76809463Y-95898353D01*
X76838488Y-95834797D01*
X76844520Y-95828319D01*
X77267487Y-95405352D01*
X77720470Y-94952369D01*
X77766614Y-94872445D01*
X77768069Y-94867016D01*
X77790500Y-94783301D01*
X77790500Y-94129313D01*
X77810185Y-94062274D01*
X77862989Y-94016519D01*
X77932147Y-94006575D01*
X77995703Y-94035600D01*
X78024982Y-94073014D01*
X78050141Y-94122391D01*
X78050142Y-94122392D01*
X78050145Y-94122396D01*
X78137603Y-94209854D01*
X78137605Y-94209855D01*
X78137609Y-94209859D01*
X78247825Y-94266017D01*
X78247826Y-94266017D01*
X78247828Y-94266018D01*
X78282947Y-94271579D01*
X78339265Y-94280500D01*
X78740734Y-94280499D01*
X78740739Y-94280499D01*
X78740739Y-94280498D01*
X78787648Y-94273069D01*
X78832170Y-94266018D01*
X78832171Y-94266018D01*
X78832172Y-94266017D01*
X78832175Y-94266017D01*
X78942391Y-94209859D01*
X78942395Y-94209854D01*
X78942612Y-94209698D01*
X78942924Y-94209586D01*
X78951086Y-94205428D01*
X78951623Y-94206482D01*
X79008417Y-94186216D01*
X79076472Y-94202038D01*
X79125168Y-94252142D01*
X79139501Y-94310013D01*
X79139501Y-94477876D01*
X79145908Y-94537483D01*
X79196202Y-94672328D01*
X79196206Y-94672335D01*
X79282452Y-94787544D01*
X79282455Y-94787547D01*
X79397664Y-94873793D01*
X79397671Y-94873797D01*
X79532517Y-94924091D01*
X79532516Y-94924091D01*
X79539444Y-94924835D01*
X79592127Y-94930500D01*
X80587872Y-94930499D01*
X80647483Y-94924091D01*
X80782331Y-94873796D01*
X80897546Y-94787546D01*
X80983796Y-94672331D01*
X81034091Y-94537483D01*
X81040500Y-94477873D01*
X81040500Y-94477844D01*
X81340000Y-94477844D01*
X81346401Y-94537372D01*
X81346403Y-94537379D01*
X81396645Y-94672086D01*
X81396649Y-94672093D01*
X81482809Y-94787187D01*
X81482812Y-94787190D01*
X81597906Y-94873350D01*
X81597913Y-94873354D01*
X81732620Y-94923596D01*
X81732627Y-94923598D01*
X81792155Y-94929999D01*
X81792172Y-94930000D01*
X82040000Y-94930000D01*
X82540000Y-94930000D01*
X82787828Y-94930000D01*
X82787844Y-94929999D01*
X82847372Y-94923598D01*
X82847379Y-94923596D01*
X82982086Y-94873354D01*
X82982093Y-94873350D01*
X83097187Y-94787190D01*
X83097190Y-94787187D01*
X83183350Y-94672093D01*
X83183354Y-94672086D01*
X83233596Y-94537379D01*
X83233598Y-94537372D01*
X83239999Y-94477844D01*
X83240000Y-94477827D01*
X83240000Y-94330000D01*
X82540000Y-94330000D01*
X82540000Y-94930000D01*
X82040000Y-94930000D01*
X82040000Y-94330000D01*
X81340000Y-94330000D01*
X81340000Y-94477844D01*
X81040500Y-94477844D01*
X81040499Y-94073018D01*
X81040499Y-93678807D01*
X81041620Y-93678807D01*
X81056634Y-93615292D01*
X81076703Y-93588978D01*
X81134400Y-93531281D01*
X81195723Y-93497796D01*
X81265415Y-93502780D01*
X81321348Y-93544652D01*
X81345765Y-93610116D01*
X81345370Y-93632218D01*
X81340000Y-93682155D01*
X81340000Y-93830000D01*
X83240137Y-93830000D01*
X83301155Y-93796680D01*
X83370847Y-93801664D01*
X83383810Y-93807361D01*
X83497984Y-93865536D01*
X83540000Y-93872190D01*
X83540000Y-93872188D01*
X84040000Y-93872188D01*
X84082022Y-93865533D01*
X84192091Y-93809449D01*
X84192098Y-93809444D01*
X84279444Y-93722098D01*
X84279449Y-93722091D01*
X84335533Y-93612022D01*
X84335534Y-93612019D01*
X84337438Y-93600000D01*
X84040000Y-93600000D01*
X84040000Y-93872188D01*
X83540000Y-93872188D01*
X83540000Y-93474000D01*
X83559685Y-93406961D01*
X83612489Y-93361206D01*
X83664000Y-93350000D01*
X83790000Y-93350000D01*
X83790000Y-93224000D01*
X83809685Y-93156961D01*
X83862489Y-93111206D01*
X83914000Y-93100000D01*
X84337438Y-93100000D01*
X84335535Y-93087983D01*
X84279447Y-92977906D01*
X84279444Y-92977901D01*
X84259577Y-92958034D01*
X84226092Y-92896711D01*
X84231076Y-92827019D01*
X84259578Y-92782671D01*
X84279859Y-92762391D01*
X84336017Y-92652175D01*
X84336017Y-92652173D01*
X84336018Y-92652172D01*
X84336018Y-92652171D01*
X84346610Y-92585293D01*
X84350500Y-92560735D01*
X84350499Y-92219266D01*
X84350499Y-92219260D01*
X84343217Y-92173282D01*
X84352172Y-92103989D01*
X84397168Y-92050537D01*
X84463920Y-92029898D01*
X84485089Y-92031412D01*
X84490000Y-92032189D01*
X84490000Y-92032188D01*
X84990000Y-92032188D01*
X85032022Y-92025533D01*
X85142091Y-91969449D01*
X85142098Y-91969444D01*
X85229444Y-91882098D01*
X85229449Y-91882091D01*
X85285533Y-91772022D01*
X85285534Y-91772019D01*
X85287438Y-91760000D01*
X84990000Y-91760000D01*
X84990000Y-92032188D01*
X84490000Y-92032188D01*
X84490000Y-91800456D01*
X84390147Y-91770000D01*
X83904000Y-91770000D01*
X83836961Y-91750315D01*
X83791206Y-91697511D01*
X83780000Y-91646000D01*
X83780000Y-91394000D01*
X83799685Y-91326961D01*
X83852489Y-91281206D01*
X83904000Y-91270000D01*
X84071880Y-91270000D01*
X84085004Y-91262834D01*
X84111362Y-91260000D01*
X85287438Y-91260000D01*
X85285535Y-91247983D01*
X85229447Y-91137906D01*
X85229444Y-91137901D01*
X85209577Y-91118034D01*
X85176092Y-91056711D01*
X85181076Y-90987019D01*
X85209578Y-90942671D01*
X85229859Y-90922391D01*
X85286017Y-90812175D01*
X85286017Y-90812173D01*
X85286018Y-90812172D01*
X85286018Y-90812171D01*
X85289901Y-90787650D01*
X85300500Y-90720735D01*
X85300499Y-90379266D01*
X85300499Y-90379260D01*
X85292084Y-90326129D01*
X85301039Y-90256836D01*
X85346035Y-90203384D01*
X85412787Y-90182745D01*
X85414557Y-90182732D01*
X86145688Y-90182732D01*
X86212727Y-90202417D01*
G37*
%TD.AperFunction*%
%TA.AperFunction,Conductor*%
G36*
X89537153Y-96503281D02*
G01*
X89543631Y-96509313D01*
X90011347Y-96977029D01*
X90044832Y-97038352D01*
X90041597Y-97103028D01*
X89986597Y-97272301D01*
X89959500Y-97443389D01*
X89959500Y-97616610D01*
X89980545Y-97749488D01*
X89986598Y-97787701D01*
X90038749Y-97948205D01*
X90040128Y-97952447D01*
X90081417Y-98033481D01*
X90118768Y-98106788D01*
X90220586Y-98246928D01*
X90343072Y-98369414D01*
X90483212Y-98471232D01*
X90637555Y-98549873D01*
X90802299Y-98603402D01*
X90973389Y-98630500D01*
X90973390Y-98630500D01*
X91146610Y-98630500D01*
X91146611Y-98630500D01*
X91317701Y-98603402D01*
X91482445Y-98549873D01*
X91636788Y-98471232D01*
X91776928Y-98369414D01*
X91899414Y-98246928D01*
X91945183Y-98183931D01*
X92000512Y-98141268D01*
X92070125Y-98135289D01*
X92131920Y-98167895D01*
X92166278Y-98228734D01*
X92169500Y-98256819D01*
X92169500Y-99366751D01*
X92149815Y-99433790D01*
X92097011Y-99479545D01*
X92035772Y-99490369D01*
X91996289Y-99487261D01*
X91542962Y-99940589D01*
X91525925Y-99877007D01*
X91460099Y-99762993D01*
X91367007Y-99669901D01*
X91252993Y-99604075D01*
X91189409Y-99587037D01*
X91642737Y-99133709D01*
X91636525Y-99129196D01*
X91482259Y-99050592D01*
X91317584Y-98997085D01*
X91146571Y-98970000D01*
X90973429Y-98970000D01*
X90802415Y-98997085D01*
X90637740Y-99050592D01*
X90483480Y-99129193D01*
X90483463Y-99129203D01*
X90477261Y-99133708D01*
X90477261Y-99133709D01*
X90930590Y-99587037D01*
X90867007Y-99604075D01*
X90752993Y-99669901D01*
X90659901Y-99762993D01*
X90594075Y-99877007D01*
X90577037Y-99940590D01*
X90123709Y-99487261D01*
X90123708Y-99487261D01*
X90119203Y-99493463D01*
X90119193Y-99493480D01*
X90040592Y-99647740D01*
X89987085Y-99812415D01*
X89960000Y-99983428D01*
X89960000Y-100156571D01*
X89987085Y-100327584D01*
X90040592Y-100492259D01*
X90119196Y-100646525D01*
X90123709Y-100652736D01*
X90123709Y-100652737D01*
X90577037Y-100199409D01*
X90594075Y-100262993D01*
X90659901Y-100377007D01*
X90752993Y-100470099D01*
X90867007Y-100535925D01*
X90930589Y-100552962D01*
X90477261Y-101006289D01*
X90477262Y-101006290D01*
X90483471Y-101010801D01*
X90637742Y-101089408D01*
X90802415Y-101142914D01*
X90973429Y-101170000D01*
X91146571Y-101170000D01*
X91317584Y-101142914D01*
X91482257Y-101089408D01*
X91636525Y-101010803D01*
X91642736Y-101006289D01*
X91642737Y-101006289D01*
X91189410Y-100552962D01*
X91252993Y-100535925D01*
X91367007Y-100470099D01*
X91460099Y-100377007D01*
X91525925Y-100262993D01*
X91542962Y-100199409D01*
X91996288Y-100652736D01*
X92035774Y-100649630D01*
X92104151Y-100663996D01*
X92153907Y-100713048D01*
X92169500Y-100773248D01*
X92169500Y-101883180D01*
X92149815Y-101950219D01*
X92097011Y-101995974D01*
X92027853Y-102005918D01*
X91964297Y-101976893D01*
X91945183Y-101956066D01*
X91899418Y-101893078D01*
X91899414Y-101893072D01*
X91776928Y-101770586D01*
X91636788Y-101668768D01*
X91482445Y-101590127D01*
X91317701Y-101536598D01*
X91317699Y-101536597D01*
X91317698Y-101536597D01*
X91186271Y-101515781D01*
X91146611Y-101509500D01*
X90973389Y-101509500D01*
X90941192Y-101514599D01*
X90802301Y-101536597D01*
X90633028Y-101591597D01*
X90563186Y-101593592D01*
X90507029Y-101561347D01*
X89368269Y-100422587D01*
X89334784Y-100361264D01*
X89331950Y-100334906D01*
X89331950Y-96596994D01*
X89351635Y-96529955D01*
X89404439Y-96484200D01*
X89473597Y-96474256D01*
X89537153Y-96503281D01*
G37*
%TD.AperFunction*%
%TA.AperFunction,Conductor*%
G36*
X72814075Y-100262993D02*
G01*
X72879901Y-100377007D01*
X72972993Y-100470099D01*
X73087007Y-100535925D01*
X73150589Y-100552962D01*
X72697261Y-101006289D01*
X72697262Y-101006290D01*
X72703471Y-101010801D01*
X72857742Y-101089408D01*
X73022415Y-101142914D01*
X73193429Y-101170000D01*
X73366571Y-101170000D01*
X73537584Y-101142914D01*
X73702257Y-101089408D01*
X73856525Y-101010803D01*
X73862736Y-101006289D01*
X73862737Y-101006289D01*
X73409410Y-100552962D01*
X73472993Y-100535925D01*
X73587007Y-100470099D01*
X73680099Y-100377007D01*
X73745925Y-100262993D01*
X73762962Y-100199410D01*
X74216289Y-100652737D01*
X74216289Y-100652736D01*
X74220803Y-100646525D01*
X74299410Y-100492252D01*
X74300934Y-100488573D01*
X74344769Y-100434165D01*
X74411060Y-100412093D01*
X74478762Y-100429364D01*
X74526378Y-100480496D01*
X74539500Y-100536013D01*
X74539500Y-100803455D01*
X74519815Y-100870494D01*
X74503181Y-100891136D01*
X73832969Y-101561347D01*
X73771646Y-101594832D01*
X73706970Y-101591597D01*
X73537698Y-101536597D01*
X73406271Y-101515781D01*
X73366611Y-101509500D01*
X73193389Y-101509500D01*
X73153728Y-101515781D01*
X73022302Y-101536597D01*
X73022299Y-101536598D01*
X72862289Y-101588589D01*
X72857552Y-101590128D01*
X72703211Y-101668768D01*
X72623256Y-101726859D01*
X72563072Y-101770586D01*
X72563070Y-101770588D01*
X72563069Y-101770588D01*
X72440588Y-101893069D01*
X72440581Y-101893078D01*
X72394817Y-101956066D01*
X72339487Y-101998732D01*
X72269874Y-102004710D01*
X72208079Y-101972104D01*
X72173722Y-101911265D01*
X72170500Y-101883180D01*
X72170500Y-100773247D01*
X72190185Y-100706208D01*
X72242989Y-100660453D01*
X72304231Y-100649629D01*
X72343710Y-100652736D01*
X72797037Y-100199409D01*
X72814075Y-100262993D01*
G37*
%TD.AperFunction*%
%TA.AperFunction,Conductor*%
G36*
X74478761Y-97890674D02*
G01*
X74526377Y-97941805D01*
X74539500Y-97997323D01*
X74539500Y-99603986D01*
X74519815Y-99671025D01*
X74467011Y-99716780D01*
X74397853Y-99726724D01*
X74334297Y-99697699D01*
X74300936Y-99651431D01*
X74299411Y-99647749D01*
X74220801Y-99493471D01*
X74216290Y-99487262D01*
X74216289Y-99487261D01*
X73762962Y-99940589D01*
X73745925Y-99877007D01*
X73680099Y-99762993D01*
X73587007Y-99669901D01*
X73472993Y-99604075D01*
X73409409Y-99587037D01*
X73862737Y-99133709D01*
X73856525Y-99129196D01*
X73702259Y-99050592D01*
X73537584Y-98997085D01*
X73366571Y-98970000D01*
X73193429Y-98970000D01*
X73022415Y-98997085D01*
X72857740Y-99050592D01*
X72703480Y-99129193D01*
X72703463Y-99129203D01*
X72697261Y-99133708D01*
X72697261Y-99133709D01*
X73150590Y-99587037D01*
X73087007Y-99604075D01*
X72972993Y-99669901D01*
X72879901Y-99762993D01*
X72814075Y-99877007D01*
X72797037Y-99940590D01*
X72343709Y-99487261D01*
X72304235Y-99490370D01*
X72290622Y-99487511D01*
X72276853Y-99489491D01*
X72257104Y-99480472D01*
X72235857Y-99476010D01*
X72225950Y-99466244D01*
X72213297Y-99460466D01*
X72201559Y-99442201D01*
X72186098Y-99426961D01*
X72182270Y-99412187D01*
X72175523Y-99401688D01*
X72170500Y-99366753D01*
X72170500Y-98256819D01*
X72190185Y-98189780D01*
X72242989Y-98144025D01*
X72312147Y-98134081D01*
X72375703Y-98163106D01*
X72394814Y-98183929D01*
X72440586Y-98246928D01*
X72563072Y-98369414D01*
X72703212Y-98471232D01*
X72857555Y-98549873D01*
X73022299Y-98603402D01*
X73193389Y-98630500D01*
X73193390Y-98630500D01*
X73366610Y-98630500D01*
X73366611Y-98630500D01*
X73537701Y-98603402D01*
X73702445Y-98549873D01*
X73856788Y-98471232D01*
X73996928Y-98369414D01*
X74119414Y-98246928D01*
X74221232Y-98106788D01*
X74299873Y-97952445D01*
X74299878Y-97952428D01*
X74300933Y-97949884D01*
X74301599Y-97949056D01*
X74302085Y-97948104D01*
X74302284Y-97948205D01*
X74344768Y-97895475D01*
X74411060Y-97873403D01*
X74478761Y-97890674D01*
G37*
%TD.AperFunction*%
%TA.AperFunction,Conductor*%
G36*
X92131920Y-85467895D02*
G01*
X92166278Y-85528734D01*
X92169500Y-85556819D01*
X92169500Y-86666751D01*
X92149815Y-86733790D01*
X92097011Y-86779545D01*
X92035772Y-86790369D01*
X91996289Y-86787261D01*
X91542962Y-87240589D01*
X91525925Y-87177007D01*
X91460099Y-87062993D01*
X91367007Y-86969901D01*
X91252993Y-86904075D01*
X91189409Y-86887037D01*
X91642737Y-86433709D01*
X91636525Y-86429196D01*
X91482259Y-86350592D01*
X91317584Y-86297085D01*
X91146571Y-86270000D01*
X90973429Y-86270000D01*
X90802415Y-86297085D01*
X90637740Y-86350592D01*
X90483480Y-86429193D01*
X90483463Y-86429203D01*
X90477261Y-86433708D01*
X90477261Y-86433709D01*
X90930590Y-86887037D01*
X90867007Y-86904075D01*
X90752993Y-86969901D01*
X90659901Y-87062993D01*
X90594075Y-87177007D01*
X90577037Y-87240590D01*
X90123709Y-86787261D01*
X90123708Y-86787261D01*
X90119203Y-86793463D01*
X90119193Y-86793480D01*
X90040592Y-86947740D01*
X89987085Y-87112415D01*
X89960000Y-87283428D01*
X89960000Y-87456571D01*
X89987085Y-87627584D01*
X90040592Y-87792259D01*
X90119196Y-87946525D01*
X90123709Y-87952736D01*
X90123709Y-87952737D01*
X90577037Y-87499409D01*
X90594075Y-87562993D01*
X90659901Y-87677007D01*
X90752993Y-87770099D01*
X90867007Y-87835925D01*
X90930589Y-87852962D01*
X90477261Y-88306289D01*
X90477262Y-88306290D01*
X90483471Y-88310801D01*
X90637742Y-88389408D01*
X90802415Y-88442914D01*
X90973429Y-88470000D01*
X91146571Y-88470000D01*
X91317584Y-88442914D01*
X91482257Y-88389408D01*
X91636525Y-88310803D01*
X91642736Y-88306289D01*
X91642737Y-88306289D01*
X91189410Y-87852962D01*
X91252993Y-87835925D01*
X91367007Y-87770099D01*
X91460099Y-87677007D01*
X91525925Y-87562993D01*
X91542962Y-87499409D01*
X91996288Y-87952736D01*
X92035774Y-87949630D01*
X92104151Y-87963996D01*
X92153907Y-88013048D01*
X92169500Y-88073248D01*
X92169500Y-89183180D01*
X92149815Y-89250219D01*
X92097011Y-89295974D01*
X92027853Y-89305918D01*
X91964297Y-89276893D01*
X91945183Y-89256066D01*
X91899418Y-89193078D01*
X91899414Y-89193072D01*
X91776928Y-89070586D01*
X91636788Y-88968768D01*
X91482445Y-88890127D01*
X91317701Y-88836598D01*
X91317699Y-88836597D01*
X91317698Y-88836597D01*
X91186271Y-88815781D01*
X91146611Y-88809500D01*
X90973389Y-88809500D01*
X90933728Y-88815781D01*
X90802302Y-88836597D01*
X90802299Y-88836598D01*
X90640587Y-88889142D01*
X90637552Y-88890128D01*
X90483211Y-88968768D01*
X90419900Y-89014767D01*
X90343072Y-89070586D01*
X90343070Y-89070588D01*
X90343069Y-89070588D01*
X90220588Y-89193069D01*
X90220588Y-89193070D01*
X90220586Y-89193072D01*
X90220582Y-89193078D01*
X90118768Y-89333211D01*
X90040128Y-89487552D01*
X89986597Y-89652302D01*
X89959500Y-89823389D01*
X89959500Y-89996611D01*
X89986598Y-90167701D01*
X90040127Y-90332445D01*
X90118768Y-90486788D01*
X90220586Y-90626928D01*
X90343072Y-90749414D01*
X90483212Y-90851232D01*
X90637555Y-90929873D01*
X90802299Y-90983402D01*
X90973389Y-91010500D01*
X90973390Y-91010500D01*
X91146610Y-91010500D01*
X91146611Y-91010500D01*
X91317701Y-90983402D01*
X91482445Y-90929873D01*
X91636788Y-90851232D01*
X91776928Y-90749414D01*
X91899414Y-90626928D01*
X91945183Y-90563931D01*
X92000512Y-90521268D01*
X92070125Y-90515289D01*
X92131920Y-90547895D01*
X92166278Y-90608734D01*
X92169500Y-90636819D01*
X92169500Y-91723180D01*
X92149815Y-91790219D01*
X92097011Y-91835974D01*
X92027853Y-91845918D01*
X91964297Y-91816893D01*
X91945183Y-91796066D01*
X91899418Y-91733078D01*
X91899414Y-91733072D01*
X91776928Y-91610586D01*
X91636788Y-91508768D01*
X91482445Y-91430127D01*
X91317701Y-91376598D01*
X91317699Y-91376597D01*
X91317698Y-91376597D01*
X91186271Y-91355781D01*
X91146611Y-91349500D01*
X90973389Y-91349500D01*
X90941192Y-91354599D01*
X90802301Y-91376597D01*
X90802297Y-91376598D01*
X90633026Y-91431597D01*
X90563185Y-91433592D01*
X90507028Y-91401347D01*
X90092700Y-90987019D01*
X89660819Y-90555137D01*
X89627334Y-90493814D01*
X89624500Y-90467456D01*
X89624500Y-90177858D01*
X89624500Y-90177856D01*
X89600614Y-90088712D01*
X89554470Y-90008788D01*
X88342625Y-88796943D01*
X88309140Y-88735620D01*
X88314124Y-88665928D01*
X88355996Y-88609995D01*
X88398211Y-88589488D01*
X88422485Y-88582984D01*
X88548015Y-88510509D01*
X88650509Y-88408015D01*
X88722984Y-88282485D01*
X88760500Y-88142475D01*
X88760500Y-88057937D01*
X88761690Y-88049409D01*
X88772670Y-88025097D01*
X88780185Y-87999505D01*
X88789385Y-87988087D01*
X88790449Y-87985733D01*
X88792195Y-87984599D01*
X88796819Y-87978863D01*
X89043700Y-87731982D01*
X89300470Y-87475212D01*
X89346614Y-87395288D01*
X89348904Y-87386741D01*
X89370500Y-87306144D01*
X89370500Y-87199386D01*
X89390185Y-87132347D01*
X89406819Y-87111705D01*
X89416778Y-87101746D01*
X89460509Y-87058015D01*
X89532984Y-86932485D01*
X89570500Y-86792475D01*
X89570500Y-86647525D01*
X89564891Y-86626592D01*
X89566554Y-86556743D01*
X89605717Y-86498881D01*
X89669945Y-86471377D01*
X89684666Y-86470500D01*
X89816142Y-86470500D01*
X89816144Y-86470500D01*
X89905288Y-86446614D01*
X89917556Y-86439531D01*
X89985212Y-86400470D01*
X90507031Y-85878649D01*
X90568352Y-85845166D01*
X90633029Y-85848401D01*
X90637547Y-85849869D01*
X90637555Y-85849873D01*
X90802299Y-85903402D01*
X90973389Y-85930500D01*
X90973390Y-85930500D01*
X91146610Y-85930500D01*
X91146611Y-85930500D01*
X91317701Y-85903402D01*
X91482445Y-85849873D01*
X91636788Y-85771232D01*
X91776928Y-85669414D01*
X91899414Y-85546928D01*
X91945183Y-85483931D01*
X92000512Y-85441268D01*
X92070125Y-85435289D01*
X92131920Y-85467895D01*
G37*
%TD.AperFunction*%
%TA.AperFunction,Conductor*%
G36*
X74216289Y-87952736D02*
G01*
X74220803Y-87946525D01*
X74298603Y-87793837D01*
X74346578Y-87743041D01*
X74414399Y-87726246D01*
X74480534Y-87748784D01*
X74496769Y-87762451D01*
X74564788Y-87830470D01*
X74630658Y-87868500D01*
X74644712Y-87876614D01*
X74733856Y-87900500D01*
X74733857Y-87900500D01*
X74826144Y-87900500D01*
X77214456Y-87900500D01*
X77281495Y-87920185D01*
X77327250Y-87972989D01*
X77337194Y-88042147D01*
X77308169Y-88105703D01*
X77302137Y-88112181D01*
X75891137Y-89523181D01*
X75829814Y-89556666D01*
X75803456Y-89559500D01*
X74412519Y-89559500D01*
X74345480Y-89539815D01*
X74302034Y-89491795D01*
X74221231Y-89333211D01*
X74119414Y-89193072D01*
X73996928Y-89070586D01*
X73856788Y-88968768D01*
X73702445Y-88890127D01*
X73537701Y-88836598D01*
X73537699Y-88836597D01*
X73537698Y-88836597D01*
X73406271Y-88815781D01*
X73366611Y-88809500D01*
X73193389Y-88809500D01*
X73153728Y-88815781D01*
X73022302Y-88836597D01*
X73022299Y-88836598D01*
X72860587Y-88889142D01*
X72857552Y-88890128D01*
X72703211Y-88968768D01*
X72639900Y-89014767D01*
X72563072Y-89070586D01*
X72563070Y-89070588D01*
X72563069Y-89070588D01*
X72440588Y-89193069D01*
X72440581Y-89193078D01*
X72394817Y-89256066D01*
X72339487Y-89298732D01*
X72269874Y-89304710D01*
X72208079Y-89272104D01*
X72173722Y-89211265D01*
X72170500Y-89183180D01*
X72170500Y-88073247D01*
X72190185Y-88006208D01*
X72242989Y-87960453D01*
X72304231Y-87949629D01*
X72343710Y-87952736D01*
X72797037Y-87499409D01*
X72814075Y-87562993D01*
X72879901Y-87677007D01*
X72972993Y-87770099D01*
X73087007Y-87835925D01*
X73150589Y-87852962D01*
X72697261Y-88306289D01*
X72697262Y-88306290D01*
X72703471Y-88310801D01*
X72857742Y-88389408D01*
X73022415Y-88442914D01*
X73193429Y-88470000D01*
X73366571Y-88470000D01*
X73537584Y-88442914D01*
X73702257Y-88389408D01*
X73856525Y-88310803D01*
X73862736Y-88306289D01*
X73862737Y-88306289D01*
X73409410Y-87852962D01*
X73472993Y-87835925D01*
X73587007Y-87770099D01*
X73680099Y-87677007D01*
X73745925Y-87562993D01*
X73762962Y-87499409D01*
X74216289Y-87952736D01*
G37*
%TD.AperFunction*%
%TA.AperFunction,Conductor*%
G36*
X81130482Y-87822431D02*
G01*
X81151124Y-87839065D01*
X81225225Y-87913166D01*
X81258710Y-87974489D01*
X81261544Y-88000847D01*
X81261544Y-88007187D01*
X81281608Y-88082071D01*
X81281614Y-88082091D01*
X81282333Y-88084773D01*
X81285430Y-88096332D01*
X81286970Y-88099000D01*
X81289998Y-88108557D01*
X81290628Y-88138367D01*
X81293815Y-88168023D01*
X81291359Y-88172928D01*
X81291475Y-88178411D01*
X81275887Y-88203831D01*
X81262536Y-88230501D01*
X81257818Y-88233299D01*
X81254952Y-88237975D01*
X81228094Y-88250933D01*
X81202445Y-88266150D01*
X81194484Y-88267149D01*
X81192024Y-88268337D01*
X81188479Y-88267903D01*
X81171787Y-88270000D01*
X81075215Y-88270000D01*
X81075191Y-88270002D01*
X81050130Y-88272908D01*
X81050126Y-88272909D01*
X81020702Y-88285901D01*
X80951423Y-88294970D01*
X80920535Y-88285900D01*
X80889996Y-88272416D01*
X80889991Y-88272415D01*
X80864865Y-88269500D01*
X80675142Y-88269500D01*
X80675118Y-88269502D01*
X80650014Y-88272413D01*
X80650010Y-88272414D01*
X80620083Y-88285628D01*
X80553267Y-88295058D01*
X80535923Y-88292695D01*
X80489991Y-88272415D01*
X80464865Y-88269500D01*
X80365608Y-88269500D01*
X80357278Y-88268366D01*
X80332749Y-88257384D01*
X80306972Y-88249815D01*
X80301348Y-88243325D01*
X80293508Y-88239815D01*
X80278810Y-88217314D01*
X80261217Y-88197011D01*
X80259994Y-88188510D01*
X80255297Y-88181319D01*
X80255097Y-88154448D01*
X80251273Y-88127853D01*
X80254822Y-88117597D01*
X80254777Y-88111451D01*
X80259580Y-88103853D01*
X80266627Y-88083495D01*
X80272984Y-88072485D01*
X80310500Y-87932475D01*
X80310500Y-87926746D01*
X80330185Y-87859707D01*
X80382989Y-87813952D01*
X80434500Y-87802746D01*
X81063443Y-87802746D01*
X81130482Y-87822431D01*
G37*
%TD.AperFunction*%
%TA.AperFunction,Conductor*%
G36*
X87983039Y-86769685D02*
G01*
X88028794Y-86822489D01*
X88040000Y-86874000D01*
X88040000Y-87290040D01*
X88084996Y-87278730D01*
X88162091Y-87239449D01*
X88162098Y-87239444D01*
X88249444Y-87152098D01*
X88249448Y-87152093D01*
X88305536Y-87042015D01*
X88307745Y-87028070D01*
X88337674Y-86964935D01*
X88396985Y-86928003D01*
X88466848Y-86929001D01*
X88525080Y-86967610D01*
X88537605Y-86985467D01*
X88583555Y-87065054D01*
X88581460Y-87066263D01*
X88602227Y-87119986D01*
X88588186Y-87188430D01*
X88566338Y-87217979D01*
X88301137Y-87483181D01*
X88239814Y-87516666D01*
X88213456Y-87519500D01*
X88137525Y-87519500D01*
X88032637Y-87547604D01*
X88032613Y-87547611D01*
X87997510Y-87557017D01*
X87871988Y-87629488D01*
X87871982Y-87629493D01*
X87769493Y-87731982D01*
X87769488Y-87731988D01*
X87697017Y-87857511D01*
X87697016Y-87857513D01*
X87690511Y-87881790D01*
X87654144Y-87941449D01*
X87591297Y-87971977D01*
X87521921Y-87963680D01*
X87483056Y-87937374D01*
X87046207Y-87500525D01*
X87012722Y-87439202D01*
X87017706Y-87369510D01*
X87059578Y-87313577D01*
X87070220Y-87306437D01*
X87086000Y-87296994D01*
X87092175Y-87296017D01*
X87202391Y-87239859D01*
X87233524Y-87208725D01*
X87246685Y-87200851D01*
X87266252Y-87195779D01*
X87283990Y-87186093D01*
X87299380Y-87187193D01*
X87314320Y-87183321D01*
X87333523Y-87189633D01*
X87353682Y-87191075D01*
X87370201Y-87201691D01*
X87380696Y-87205141D01*
X87386289Y-87212029D01*
X87398034Y-87219577D01*
X87417901Y-87239444D01*
X87417906Y-87239447D01*
X87527983Y-87295535D01*
X87540000Y-87297438D01*
X87540000Y-86874000D01*
X87559685Y-86806961D01*
X87612489Y-86761206D01*
X87664000Y-86750000D01*
X87916000Y-86750000D01*
X87983039Y-86769685D01*
G37*
%TD.AperFunction*%
%TA.AperFunction,Conductor*%
G36*
X82581080Y-82972555D02*
G01*
X82613334Y-82974862D01*
X82616032Y-82976596D01*
X82618367Y-82976866D01*
X82648576Y-82995118D01*
X82653330Y-82999012D01*
X82755788Y-83101470D01*
X82823683Y-83140669D01*
X82835712Y-83147614D01*
X82924856Y-83171500D01*
X82924858Y-83171500D01*
X84212916Y-83171500D01*
X84212918Y-83171500D01*
X84302062Y-83147614D01*
X84314091Y-83140669D01*
X84333501Y-83129462D01*
X84401399Y-83112990D01*
X84467426Y-83135842D01*
X84510617Y-83190763D01*
X84519500Y-83236850D01*
X84519500Y-84546368D01*
X84499815Y-84613407D01*
X84447011Y-84659162D01*
X84377853Y-84669106D01*
X84363410Y-84666143D01*
X84342475Y-84660534D01*
X84197525Y-84660534D01*
X84068993Y-84694974D01*
X84057511Y-84698051D01*
X83931988Y-84770522D01*
X83931982Y-84770527D01*
X83829493Y-84873016D01*
X83829488Y-84873022D01*
X83757017Y-84998545D01*
X83757016Y-84998549D01*
X83719500Y-85138559D01*
X83719500Y-85283509D01*
X83734522Y-85339570D01*
X83757017Y-85423522D01*
X83829488Y-85549045D01*
X83829493Y-85549051D01*
X83883181Y-85602739D01*
X83916666Y-85664062D01*
X83919500Y-85690420D01*
X83919500Y-86336143D01*
X83938648Y-86407607D01*
X83943385Y-86425285D01*
X83943387Y-86425290D01*
X83989527Y-86505208D01*
X83989531Y-86505213D01*
X84372627Y-86888309D01*
X84406112Y-86949632D01*
X84401128Y-87019324D01*
X84370796Y-87065465D01*
X84359954Y-87075866D01*
X84351944Y-87080492D01*
X84276375Y-87156060D01*
X84275437Y-87156961D01*
X84245524Y-87172500D01*
X84215944Y-87188652D01*
X84214616Y-87188557D01*
X84213435Y-87189171D01*
X84179860Y-87186070D01*
X84146253Y-87183667D01*
X84144407Y-87182797D01*
X84143861Y-87182747D01*
X84143193Y-87182225D01*
X84127587Y-87174873D01*
X84079997Y-87147397D01*
X84079998Y-87147397D01*
X84068515Y-87144320D01*
X83939984Y-87109880D01*
X83795034Y-87109880D01*
X83714643Y-87131421D01*
X83655019Y-87147397D01*
X83655016Y-87147398D01*
X83559545Y-87202519D01*
X83491645Y-87218992D01*
X83425618Y-87196139D01*
X83409865Y-87182813D01*
X83406544Y-87179492D01*
X83406538Y-87179487D01*
X83281015Y-87107016D01*
X83281016Y-87107016D01*
X83261348Y-87101746D01*
X83141002Y-87069499D01*
X82996052Y-87069499D01*
X82875706Y-87101746D01*
X82856038Y-87107016D01*
X82730515Y-87179487D01*
X82724066Y-87184437D01*
X82722942Y-87182973D01*
X82670620Y-87211544D01*
X82600928Y-87206560D01*
X82565137Y-87183558D01*
X82564461Y-87184440D01*
X82558011Y-87179490D01*
X82432488Y-87107019D01*
X82432489Y-87107019D01*
X82412810Y-87101746D01*
X82292475Y-87069502D01*
X82147525Y-87069502D01*
X82027190Y-87101746D01*
X82007511Y-87107019D01*
X81881988Y-87179490D01*
X81881982Y-87179495D01*
X81773744Y-87287734D01*
X81772248Y-87286238D01*
X81724871Y-87320831D01*
X81655125Y-87324984D01*
X81595245Y-87291822D01*
X81475200Y-87171777D01*
X81475195Y-87171773D01*
X81395277Y-87125633D01*
X81395276Y-87125632D01*
X81395275Y-87125632D01*
X81306131Y-87101746D01*
X81306130Y-87101746D01*
X80568790Y-87101746D01*
X80501751Y-87082061D01*
X80481109Y-87065427D01*
X79857819Y-86442137D01*
X79824334Y-86380814D01*
X79821500Y-86354456D01*
X79821500Y-83394500D01*
X79841185Y-83327461D01*
X79893989Y-83281706D01*
X79945500Y-83270500D01*
X82116142Y-83270500D01*
X82116144Y-83270500D01*
X82205288Y-83246614D01*
X82214125Y-83241512D01*
X82214126Y-83241512D01*
X82285205Y-83200474D01*
X82285204Y-83200474D01*
X82285212Y-83200470D01*
X82482319Y-83003363D01*
X82484780Y-83002019D01*
X82486232Y-82999616D01*
X82515273Y-82985368D01*
X82543642Y-82969878D01*
X82546440Y-82970078D01*
X82548960Y-82968842D01*
X82581080Y-82972555D01*
G37*
%TD.AperFunction*%
%TA.AperFunction,Conductor*%
G36*
X72375703Y-85463106D02*
G01*
X72394814Y-85483929D01*
X72440586Y-85546928D01*
X72563072Y-85669414D01*
X72703212Y-85771232D01*
X72857555Y-85849873D01*
X73022299Y-85903402D01*
X73193389Y-85930500D01*
X73193390Y-85930500D01*
X73366610Y-85930500D01*
X73366611Y-85930500D01*
X73537701Y-85903402D01*
X73702445Y-85849873D01*
X73702447Y-85849871D01*
X73706971Y-85848402D01*
X73776812Y-85846407D01*
X73832970Y-85878652D01*
X74133181Y-86178863D01*
X74147884Y-86205790D01*
X74164477Y-86231609D01*
X74165368Y-86237809D01*
X74166666Y-86240186D01*
X74169500Y-86266544D01*
X74169500Y-86413220D01*
X74149815Y-86480259D01*
X74097011Y-86526014D01*
X74027853Y-86535958D01*
X73972616Y-86513539D01*
X73856527Y-86429197D01*
X73702257Y-86350591D01*
X73537584Y-86297085D01*
X73366571Y-86270000D01*
X73193429Y-86270000D01*
X73022415Y-86297085D01*
X72857740Y-86350592D01*
X72703480Y-86429193D01*
X72703463Y-86429203D01*
X72697261Y-86433708D01*
X72697261Y-86433709D01*
X73150590Y-86887037D01*
X73087007Y-86904075D01*
X72972993Y-86969901D01*
X72879901Y-87062993D01*
X72814075Y-87177007D01*
X72797037Y-87240590D01*
X72343709Y-86787261D01*
X72304235Y-86790370D01*
X72235857Y-86776010D01*
X72186098Y-86726961D01*
X72170500Y-86666753D01*
X72170500Y-85556819D01*
X72190185Y-85489780D01*
X72242989Y-85444025D01*
X72312147Y-85434081D01*
X72375703Y-85463106D01*
G37*
%TD.AperFunction*%
%TA.AperFunction,Conductor*%
G36*
X74492603Y-85117658D02*
G01*
X74525573Y-85141255D01*
X75719531Y-86335212D01*
X75784788Y-86400469D01*
X75784791Y-86400470D01*
X75784794Y-86400473D01*
X75846848Y-86436301D01*
X75895063Y-86486868D01*
X75908285Y-86555476D01*
X75907724Y-86559900D01*
X75907809Y-86560000D01*
X76306000Y-86560000D01*
X76373039Y-86579685D01*
X76418794Y-86632489D01*
X76430000Y-86684000D01*
X76430000Y-86936000D01*
X76410315Y-87003039D01*
X76357511Y-87048794D01*
X76306000Y-87060000D01*
X75907809Y-87060000D01*
X75906488Y-87061546D01*
X75898237Y-87125396D01*
X75853241Y-87178848D01*
X75786489Y-87199487D01*
X75784719Y-87199500D01*
X74994500Y-87199500D01*
X74927461Y-87179815D01*
X74881706Y-87127011D01*
X74870500Y-87075500D01*
X74870500Y-86023858D01*
X74870500Y-86023856D01*
X74846614Y-85934712D01*
X74846613Y-85934711D01*
X74846613Y-85934709D01*
X74828538Y-85903404D01*
X74828537Y-85903402D01*
X74800470Y-85854788D01*
X74328652Y-85382970D01*
X74321359Y-85369614D01*
X74310146Y-85359323D01*
X74304954Y-85339570D01*
X74295167Y-85321647D01*
X74295978Y-85305423D01*
X74292384Y-85291749D01*
X74298402Y-85256972D01*
X74299873Y-85252445D01*
X74319962Y-85190617D01*
X74359398Y-85132943D01*
X74423756Y-85105744D01*
X74492603Y-85117658D01*
G37*
%TD.AperFunction*%
%TA.AperFunction,Conductor*%
G36*
X76959703Y-79415831D02*
G01*
X76966181Y-79421863D01*
X78143681Y-80599363D01*
X78177166Y-80660686D01*
X78180000Y-80687044D01*
X78180000Y-80976000D01*
X78160315Y-81043039D01*
X78107511Y-81088794D01*
X78056000Y-81100000D01*
X77930000Y-81100000D01*
X77930000Y-81226000D01*
X77910315Y-81293039D01*
X77857511Y-81338794D01*
X77806000Y-81350000D01*
X77382562Y-81350000D01*
X77384464Y-81362016D01*
X77440552Y-81472093D01*
X77440555Y-81472098D01*
X77460422Y-81491965D01*
X77493907Y-81553288D01*
X77488923Y-81622980D01*
X77460422Y-81667327D01*
X77440145Y-81687603D01*
X77440142Y-81687608D01*
X77440141Y-81687609D01*
X77427096Y-81713212D01*
X77383981Y-81797827D01*
X77383981Y-81797828D01*
X77369500Y-81889264D01*
X77369500Y-82230739D01*
X77383981Y-82322170D01*
X77383982Y-82322174D01*
X77416370Y-82385738D01*
X77420931Y-82410029D01*
X77429569Y-82433186D01*
X77427267Y-82443765D01*
X77429266Y-82454407D01*
X77419970Y-82477308D01*
X77414717Y-82501459D01*
X77404781Y-82514731D01*
X77402989Y-82519147D01*
X77393566Y-82529713D01*
X77385061Y-82538218D01*
X77323738Y-82571703D01*
X77254046Y-82566719D01*
X77235381Y-82557925D01*
X77216487Y-82547017D01*
X77216486Y-82547016D01*
X77216485Y-82547016D01*
X77076475Y-82509500D01*
X76931525Y-82509500D01*
X76910592Y-82515108D01*
X76840743Y-82513446D01*
X76782881Y-82474283D01*
X76755377Y-82410055D01*
X76754500Y-82395334D01*
X76754500Y-80849999D01*
X77382561Y-80849999D01*
X77382561Y-80850000D01*
X77680000Y-80850000D01*
X77680000Y-80577809D01*
X77637984Y-80584463D01*
X77527906Y-80640551D01*
X77527901Y-80640555D01*
X77440555Y-80727901D01*
X77440550Y-80727908D01*
X77384466Y-80837977D01*
X77384465Y-80837980D01*
X77382561Y-80849999D01*
X76754500Y-80849999D01*
X76754500Y-79509544D01*
X76774185Y-79442505D01*
X76826989Y-79396750D01*
X76896147Y-79386806D01*
X76959703Y-79415831D01*
G37*
%TD.AperFunction*%
%TA.AperFunction,Conductor*%
G36*
X92129976Y-58003769D02*
G01*
X92165642Y-58063850D01*
X92169500Y-58094542D01*
X92169500Y-58726751D01*
X92149815Y-58793790D01*
X92097011Y-58839545D01*
X92035772Y-58850369D01*
X91996289Y-58847261D01*
X91542962Y-59300589D01*
X91525925Y-59237007D01*
X91460099Y-59122993D01*
X91367007Y-59029901D01*
X91252993Y-58964075D01*
X91189409Y-58947037D01*
X91642737Y-58493709D01*
X91636525Y-58489196D01*
X91482259Y-58410592D01*
X91317584Y-58357085D01*
X91146571Y-58330000D01*
X90973429Y-58330000D01*
X90802415Y-58357085D01*
X90637740Y-58410592D01*
X90483480Y-58489193D01*
X90483463Y-58489203D01*
X90477261Y-58493708D01*
X90477261Y-58493709D01*
X90930590Y-58947037D01*
X90867007Y-58964075D01*
X90752993Y-59029901D01*
X90659901Y-59122993D01*
X90594075Y-59237007D01*
X90577037Y-59300590D01*
X90123709Y-58847261D01*
X90123708Y-58847261D01*
X90119203Y-58853463D01*
X90119193Y-58853480D01*
X90040592Y-59007740D01*
X89987085Y-59172415D01*
X89960000Y-59343428D01*
X89960000Y-59516571D01*
X89987085Y-59687584D01*
X90040592Y-59852259D01*
X90119196Y-60006525D01*
X90123709Y-60012736D01*
X90123709Y-60012737D01*
X90577037Y-59559409D01*
X90594075Y-59622993D01*
X90659901Y-59737007D01*
X90752993Y-59830099D01*
X90867007Y-59895925D01*
X90930589Y-59912962D01*
X90477261Y-60366289D01*
X90477262Y-60366290D01*
X90483471Y-60370801D01*
X90637742Y-60449408D01*
X90802415Y-60502914D01*
X90973429Y-60530000D01*
X91146571Y-60530000D01*
X91317584Y-60502914D01*
X91482257Y-60449408D01*
X91636525Y-60370803D01*
X91642736Y-60366289D01*
X91642737Y-60366289D01*
X91189410Y-59912962D01*
X91252993Y-59895925D01*
X91367007Y-59830099D01*
X91460099Y-59737007D01*
X91525925Y-59622993D01*
X91542962Y-59559409D01*
X91996288Y-60012736D01*
X92035774Y-60009630D01*
X92104151Y-60023996D01*
X92153907Y-60073048D01*
X92169500Y-60133248D01*
X92169500Y-61243180D01*
X92149815Y-61310219D01*
X92097011Y-61355974D01*
X92027853Y-61365918D01*
X91964297Y-61336893D01*
X91945183Y-61316066D01*
X91899418Y-61253078D01*
X91899414Y-61253072D01*
X91776928Y-61130586D01*
X91636788Y-61028768D01*
X91523484Y-60971037D01*
X91482447Y-60950128D01*
X91482446Y-60950127D01*
X91482445Y-60950127D01*
X91317701Y-60896598D01*
X91317699Y-60896597D01*
X91317698Y-60896597D01*
X91186271Y-60875781D01*
X91146611Y-60869500D01*
X90973389Y-60869500D01*
X90933728Y-60875781D01*
X90802302Y-60896597D01*
X90637552Y-60950128D01*
X90483211Y-61028768D01*
X90409285Y-61082479D01*
X90343072Y-61130586D01*
X90343070Y-61130588D01*
X90343069Y-61130588D01*
X90220588Y-61253069D01*
X90220588Y-61253070D01*
X90220586Y-61253072D01*
X90185264Y-61301688D01*
X90118768Y-61393211D01*
X90040128Y-61547552D01*
X89986597Y-61712302D01*
X89969536Y-61820023D01*
X89959500Y-61883389D01*
X89959500Y-62056611D01*
X89965781Y-62096271D01*
X89986597Y-62227698D01*
X90041597Y-62396971D01*
X90043592Y-62466812D01*
X90011347Y-62522970D01*
X87650531Y-64883786D01*
X87650529Y-64883789D01*
X87622439Y-64932444D01*
X87622438Y-64932445D01*
X87604387Y-64963709D01*
X87604386Y-64963712D01*
X87580500Y-65052856D01*
X87580500Y-81786000D01*
X87560815Y-81853039D01*
X87508011Y-81898794D01*
X87456500Y-81910000D01*
X87224000Y-81910000D01*
X87156961Y-81890315D01*
X87111206Y-81837511D01*
X87100000Y-81786000D01*
X87100000Y-81433612D01*
X87119685Y-81366573D01*
X87136320Y-81345930D01*
X87169855Y-81312395D01*
X87169859Y-81312391D01*
X87226017Y-81202175D01*
X87226017Y-81202173D01*
X87226018Y-81202172D01*
X87226018Y-81202171D01*
X87233987Y-81151855D01*
X87240500Y-81110735D01*
X87240499Y-80769266D01*
X87240499Y-80769260D01*
X87226018Y-80677829D01*
X87226018Y-80677828D01*
X87226017Y-80677826D01*
X87226017Y-80677825D01*
X87169859Y-80567609D01*
X87149576Y-80547326D01*
X87116092Y-80486006D01*
X87121075Y-80416315D01*
X87149578Y-80371963D01*
X87169448Y-80352093D01*
X87169449Y-80352091D01*
X87225533Y-80242022D01*
X87225534Y-80242019D01*
X87227438Y-80230000D01*
X86114000Y-80230000D01*
X86046961Y-80210315D01*
X86001206Y-80157511D01*
X85990000Y-80106000D01*
X85990000Y-80030000D01*
X85844000Y-80030000D01*
X85776961Y-80010315D01*
X85731206Y-79957511D01*
X85720000Y-79906000D01*
X85720000Y-79654000D01*
X85739685Y-79586961D01*
X85792489Y-79541206D01*
X85844000Y-79530000D01*
X86286000Y-79530000D01*
X86353039Y-79549685D01*
X86398794Y-79602489D01*
X86410000Y-79654000D01*
X86410000Y-79730000D01*
X86430000Y-79730000D01*
X86930000Y-79730000D01*
X87227438Y-79730000D01*
X87225535Y-79717983D01*
X87169447Y-79607906D01*
X87169444Y-79607901D01*
X87082098Y-79520555D01*
X87082093Y-79520551D01*
X86972018Y-79464465D01*
X86930000Y-79457809D01*
X86930000Y-79730000D01*
X86430000Y-79730000D01*
X86430000Y-79503930D01*
X86300899Y-79480203D01*
X86274062Y-79466660D01*
X86246196Y-79455349D01*
X86242366Y-79450664D01*
X86238522Y-79448725D01*
X86232707Y-79438852D01*
X86212827Y-79414538D01*
X86209448Y-79407907D01*
X86209444Y-79407901D01*
X86122098Y-79320555D01*
X86122093Y-79320551D01*
X86012016Y-79264464D01*
X85981473Y-79259626D01*
X85918339Y-79229696D01*
X85881409Y-79170383D01*
X85882407Y-79100521D01*
X85913188Y-79049477D01*
X86027060Y-78935605D01*
X86030012Y-78931543D01*
X86068523Y-78878537D01*
X86081478Y-78860707D01*
X86119703Y-78743062D01*
X86119703Y-78714380D01*
X86139388Y-78647341D01*
X86192192Y-78601586D01*
X86243703Y-78590380D01*
X86271802Y-78590380D01*
X86271808Y-78590379D01*
X86389297Y-78552204D01*
X86389300Y-78552203D01*
X86399142Y-78545052D01*
X86399142Y-78545051D01*
X86099726Y-78245635D01*
X86066241Y-78184312D01*
X86071225Y-78114620D01*
X86099726Y-78070272D01*
X86188821Y-77981177D01*
X86542375Y-77981177D01*
X86752696Y-78191498D01*
X86759849Y-78181654D01*
X86798022Y-78064166D01*
X86798024Y-78064158D01*
X86798024Y-77940623D01*
X86798022Y-77940615D01*
X86759850Y-77823129D01*
X86734843Y-77788710D01*
X86542375Y-77981177D01*
X86188821Y-77981177D01*
X86099726Y-77892082D01*
X86066241Y-77830759D01*
X86071225Y-77761067D01*
X86099726Y-77716720D01*
X86381288Y-77435157D01*
X86346874Y-77410152D01*
X86346869Y-77410149D01*
X86331180Y-77405052D01*
X86273505Y-77365614D01*
X86246308Y-77301255D01*
X86245500Y-77287122D01*
X86245500Y-72720660D01*
X86245500Y-72720658D01*
X86221614Y-72631514D01*
X86221611Y-72631508D01*
X86175473Y-72551596D01*
X86175470Y-72551593D01*
X86175469Y-72551590D01*
X86110212Y-72486333D01*
X84366059Y-70742180D01*
X84332575Y-70680858D01*
X84337559Y-70611166D01*
X84379431Y-70555233D01*
X84444895Y-70530816D01*
X84453741Y-70530500D01*
X84572472Y-70530500D01*
X84572475Y-70530500D01*
X84712485Y-70492984D01*
X84712487Y-70492982D01*
X84712489Y-70492982D01*
X84712490Y-70492981D01*
X84718381Y-70489580D01*
X84805691Y-70439170D01*
X84873591Y-70422697D01*
X84922152Y-70435156D01*
X84936385Y-70442114D01*
X85033482Y-70489582D01*
X85108418Y-70500500D01*
X85108423Y-70500500D01*
X85451577Y-70500500D01*
X85451582Y-70500500D01*
X85526518Y-70489582D01*
X85623615Y-70442114D01*
X85642099Y-70433078D01*
X85642102Y-70433076D01*
X85702319Y-70372860D01*
X85763642Y-70339375D01*
X85833334Y-70344359D01*
X85877681Y-70372860D01*
X85937897Y-70433076D01*
X85937900Y-70433078D01*
X86048656Y-70487222D01*
X86053482Y-70489582D01*
X86128418Y-70500500D01*
X86128423Y-70500500D01*
X86471577Y-70500500D01*
X86471582Y-70500500D01*
X86546518Y-70489582D01*
X86643615Y-70442114D01*
X86662099Y-70433078D01*
X86662102Y-70433076D01*
X86753076Y-70342102D01*
X86753078Y-70342099D01*
X86782036Y-70282863D01*
X86809582Y-70226518D01*
X86820500Y-70151582D01*
X86820500Y-69708418D01*
X86809582Y-69633482D01*
X86779447Y-69571840D01*
X86767688Y-69502967D01*
X86795032Y-69438670D01*
X86836155Y-69409945D01*
X86834669Y-69407133D01*
X86842876Y-69402794D01*
X86842882Y-69402793D01*
X86952150Y-69322150D01*
X87032793Y-69212882D01*
X87064106Y-69123395D01*
X87077646Y-69084701D01*
X87077646Y-69084699D01*
X87080500Y-69054269D01*
X87080500Y-68545730D01*
X87077646Y-68515300D01*
X87077646Y-68515298D01*
X87032793Y-68387119D01*
X87032792Y-68387117D01*
X86952150Y-68277850D01*
X86842882Y-68197207D01*
X86842880Y-68197206D01*
X86714700Y-68152353D01*
X86684270Y-68149500D01*
X86684266Y-68149500D01*
X84975734Y-68149500D01*
X84975730Y-68149500D01*
X84945300Y-68152353D01*
X84945298Y-68152353D01*
X84817119Y-68197206D01*
X84817117Y-68197207D01*
X84707850Y-68277850D01*
X84627207Y-68387117D01*
X84627206Y-68387119D01*
X84582353Y-68515298D01*
X84582353Y-68515300D01*
X84579500Y-68545730D01*
X84579500Y-69054269D01*
X84582353Y-69084699D01*
X84582353Y-69084701D01*
X84627206Y-69212880D01*
X84627209Y-69212886D01*
X84641218Y-69231867D01*
X84665189Y-69297496D01*
X84649873Y-69365666D01*
X84600133Y-69414734D01*
X84541448Y-69429500D01*
X84427525Y-69429500D01*
X84298993Y-69463940D01*
X84287511Y-69467017D01*
X84161988Y-69539488D01*
X84161982Y-69539493D01*
X84059493Y-69641982D01*
X84059488Y-69641988D01*
X83987017Y-69767511D01*
X83987016Y-69767515D01*
X83949500Y-69907525D01*
X83949500Y-69907527D01*
X83949500Y-70026258D01*
X83929815Y-70093297D01*
X83877011Y-70139052D01*
X83807853Y-70148996D01*
X83744297Y-70119971D01*
X83737819Y-70113939D01*
X82281819Y-68657939D01*
X82248334Y-68596616D01*
X82245500Y-68570258D01*
X82245500Y-65050000D01*
X82892676Y-65050000D01*
X82947336Y-65161810D01*
X83038189Y-65252663D01*
X83153625Y-65309096D01*
X83200000Y-65315852D01*
X83700000Y-65315852D01*
X83746370Y-65309097D01*
X83746372Y-65309096D01*
X83861810Y-65252663D01*
X83952663Y-65161810D01*
X84007324Y-65050000D01*
X83700000Y-65050000D01*
X83700000Y-65315852D01*
X83200000Y-65315852D01*
X83200000Y-65050000D01*
X82892676Y-65050000D01*
X82245500Y-65050000D01*
X82245500Y-64854196D01*
X84580001Y-64854196D01*
X84582851Y-64884606D01*
X84627653Y-65012645D01*
X84708207Y-65121792D01*
X84817354Y-65202346D01*
X84945397Y-65247149D01*
X84975792Y-65249999D01*
X85579999Y-65249999D01*
X86080000Y-65249999D01*
X86684196Y-65249999D01*
X86714606Y-65247148D01*
X86842645Y-65202346D01*
X86951792Y-65121792D01*
X87032346Y-65012645D01*
X87077149Y-64884604D01*
X87077149Y-64884600D01*
X87080000Y-64854206D01*
X87080000Y-64850000D01*
X86080000Y-64850000D01*
X86080000Y-65249999D01*
X85579999Y-65249999D01*
X85580000Y-65249998D01*
X85580000Y-64850000D01*
X84580001Y-64850000D01*
X84580001Y-64854196D01*
X82245500Y-64854196D01*
X82245500Y-63565500D01*
X82265185Y-63498461D01*
X82317989Y-63452706D01*
X82369500Y-63441500D01*
X82760444Y-63441500D01*
X82827483Y-63461185D01*
X82873238Y-63513989D01*
X82883181Y-63583146D01*
X82879500Y-63608418D01*
X82879500Y-63951582D01*
X82890418Y-64026518D01*
X82890418Y-64026519D01*
X82890419Y-64026521D01*
X82946921Y-64142099D01*
X82946923Y-64142102D01*
X83007492Y-64202671D01*
X83040977Y-64263994D01*
X83035993Y-64333686D01*
X83007493Y-64378033D01*
X82947335Y-64438191D01*
X82892676Y-64550000D01*
X84007323Y-64550000D01*
X83952663Y-64438189D01*
X83892507Y-64378033D01*
X83874903Y-64345793D01*
X84580000Y-64345793D01*
X84580000Y-64350000D01*
X85580000Y-64350000D01*
X86080000Y-64350000D01*
X87079999Y-64350000D01*
X87079999Y-64345803D01*
X87077148Y-64315393D01*
X87032346Y-64187354D01*
X86951792Y-64078207D01*
X86842645Y-63997653D01*
X86714602Y-63952850D01*
X86684207Y-63950000D01*
X86080000Y-63950000D01*
X86080000Y-64350000D01*
X85580000Y-64350000D01*
X85580000Y-63950000D01*
X84975803Y-63950000D01*
X84945393Y-63952851D01*
X84817354Y-63997653D01*
X84708207Y-64078207D01*
X84627653Y-64187354D01*
X84582850Y-64315395D01*
X84582850Y-64315399D01*
X84580000Y-64345793D01*
X83874903Y-64345793D01*
X83859022Y-64316710D01*
X83864006Y-64247018D01*
X83892505Y-64202672D01*
X83953076Y-64142102D01*
X83953076Y-64142100D01*
X83953078Y-64142099D01*
X84008531Y-64028667D01*
X84009582Y-64026518D01*
X84020500Y-63951582D01*
X84020500Y-63608418D01*
X84009582Y-63533482D01*
X84007222Y-63528656D01*
X83953078Y-63417900D01*
X83953076Y-63417897D01*
X83862105Y-63326926D01*
X83853743Y-63320956D01*
X83855395Y-63318641D01*
X83843297Y-63313117D01*
X83832788Y-63296764D01*
X83818441Y-63283650D01*
X83813892Y-63267362D01*
X83805523Y-63254339D01*
X83800500Y-63219404D01*
X83800500Y-63164500D01*
X83820185Y-63097461D01*
X83872989Y-63051706D01*
X83924500Y-63040500D01*
X84094676Y-63040500D01*
X84170808Y-63025356D01*
X84219192Y-63025356D01*
X84295323Y-63040500D01*
X84295326Y-63040500D01*
X84944674Y-63040500D01*
X84997093Y-63030073D01*
X85045475Y-63030073D01*
X85095376Y-63040000D01*
X85170000Y-63040000D01*
X85170000Y-62825841D01*
X85170500Y-62815673D01*
X85170500Y-61939000D01*
X85173050Y-61930314D01*
X85171762Y-61921353D01*
X85182740Y-61897312D01*
X85190185Y-61871961D01*
X85197025Y-61866033D01*
X85200787Y-61857797D01*
X85223021Y-61843507D01*
X85242989Y-61826206D01*
X85253503Y-61823918D01*
X85259565Y-61820023D01*
X85294500Y-61815000D01*
X85296000Y-61815000D01*
X85363039Y-61834685D01*
X85408794Y-61887489D01*
X85420000Y-61939000D01*
X85420000Y-62065000D01*
X85546000Y-62065000D01*
X85613039Y-62084685D01*
X85658794Y-62137489D01*
X85670000Y-62189000D01*
X85670000Y-63040000D01*
X85744626Y-63040000D01*
X85744628Y-63039999D01*
X85817540Y-63025496D01*
X85817544Y-63025494D01*
X85900239Y-62970239D01*
X85955494Y-62887544D01*
X85955496Y-62887540D01*
X85969999Y-62814628D01*
X85970000Y-62814626D01*
X85970000Y-62481981D01*
X85989685Y-62414942D01*
X86042489Y-62369187D01*
X86111647Y-62359243D01*
X86141453Y-62367420D01*
X86240000Y-62408239D01*
X86240000Y-61866988D01*
X86249940Y-61884205D01*
X86305795Y-61940060D01*
X86374204Y-61979556D01*
X86450504Y-62000000D01*
X86529496Y-62000000D01*
X86605796Y-61979556D01*
X86674205Y-61940060D01*
X86730060Y-61884205D01*
X86740000Y-61866988D01*
X86740000Y-62408240D01*
X86845256Y-62364642D01*
X86845260Y-62364640D01*
X86968092Y-62282566D01*
X86968100Y-62282560D01*
X87072560Y-62178100D01*
X87072563Y-62178096D01*
X87154637Y-62055264D01*
X87154642Y-62055254D01*
X87211177Y-61918767D01*
X87211179Y-61918759D01*
X87239999Y-61773873D01*
X87240000Y-61773871D01*
X87240000Y-61400000D01*
X86790000Y-61400000D01*
X86790000Y-60900000D01*
X87240000Y-60900000D01*
X87240000Y-60526128D01*
X87239999Y-60526126D01*
X87211179Y-60381240D01*
X87211177Y-60381232D01*
X87205068Y-60366483D01*
X87154642Y-60244744D01*
X87154637Y-60244735D01*
X87072563Y-60121903D01*
X87072560Y-60121899D01*
X86968100Y-60017439D01*
X86968096Y-60017436D01*
X86845264Y-59935362D01*
X86845254Y-59935357D01*
X86740000Y-59891759D01*
X86740000Y-60433011D01*
X86730060Y-60415795D01*
X86674205Y-60359940D01*
X86605796Y-60320444D01*
X86529496Y-60300000D01*
X86450504Y-60300000D01*
X86374204Y-60320444D01*
X86305795Y-60359940D01*
X86249940Y-60415795D01*
X86240000Y-60433011D01*
X86240000Y-59891759D01*
X86239999Y-59891759D01*
X86134745Y-59935357D01*
X86134735Y-59935362D01*
X86011903Y-60017436D01*
X86011899Y-60017439D01*
X85907439Y-60121899D01*
X85907436Y-60121903D01*
X85825362Y-60244735D01*
X85825359Y-60244742D01*
X85788958Y-60332620D01*
X85745116Y-60387023D01*
X85678822Y-60409087D01*
X85611123Y-60391807D01*
X85567010Y-60347166D01*
X85522119Y-60269414D01*
X85520515Y-60266635D01*
X85413365Y-60159485D01*
X85348271Y-60121903D01*
X85329408Y-60111012D01*
X85281192Y-60060445D01*
X85267970Y-59991838D01*
X85293938Y-59926973D01*
X85303718Y-59915953D01*
X86761854Y-58457819D01*
X86823177Y-58424334D01*
X86849535Y-58421500D01*
X89925142Y-58421500D01*
X89925144Y-58421500D01*
X90014288Y-58397614D01*
X90094212Y-58351470D01*
X90418863Y-58026819D01*
X90480186Y-57993334D01*
X90506544Y-57990500D01*
X91934676Y-57990500D01*
X91934677Y-57990499D01*
X91951719Y-57987109D01*
X92019719Y-57973584D01*
X92020511Y-57977568D01*
X92067490Y-57972507D01*
X92129976Y-58003769D01*
G37*
%TD.AperFunction*%
%TA.AperFunction,Conductor*%
G36*
X78644955Y-78811728D02*
G01*
X78683196Y-78870204D01*
X78688500Y-78906083D01*
X78688500Y-79281754D01*
X78668815Y-79348793D01*
X78616011Y-79394548D01*
X78546853Y-79404492D01*
X78483297Y-79375467D01*
X78476819Y-79369435D01*
X78131564Y-79024180D01*
X78098079Y-78962857D01*
X78103063Y-78893165D01*
X78144935Y-78837232D01*
X78210399Y-78812815D01*
X78219245Y-78812499D01*
X78439115Y-78812499D01*
X78484633Y-78806507D01*
X78512094Y-78793702D01*
X78581171Y-78783209D01*
X78644955Y-78811728D01*
G37*
%TD.AperFunction*%
%TA.AperFunction,Conductor*%
G36*
X72375703Y-72763106D02*
G01*
X72394814Y-72783929D01*
X72440586Y-72846928D01*
X72563072Y-72969414D01*
X72703212Y-73071232D01*
X72857555Y-73149873D01*
X73022299Y-73203402D01*
X73193389Y-73230500D01*
X73193390Y-73230500D01*
X73366610Y-73230500D01*
X73366611Y-73230500D01*
X73537701Y-73203402D01*
X73702445Y-73149873D01*
X73702447Y-73149871D01*
X73706971Y-73148402D01*
X73776812Y-73146407D01*
X73832970Y-73178652D01*
X75215181Y-74560863D01*
X75248666Y-74622186D01*
X75251500Y-74648544D01*
X75251500Y-78386456D01*
X75231815Y-78453495D01*
X75179011Y-78499250D01*
X75109853Y-78509194D01*
X75046297Y-78480169D01*
X75039819Y-78474137D01*
X74328651Y-77762970D01*
X74295166Y-77701647D01*
X74298401Y-77636970D01*
X74299868Y-77632454D01*
X74299873Y-77632445D01*
X74353402Y-77467701D01*
X74380500Y-77296611D01*
X74380500Y-77123389D01*
X74353402Y-76952299D01*
X74299873Y-76787555D01*
X74221232Y-76633212D01*
X74119414Y-76493072D01*
X73996928Y-76370586D01*
X73856788Y-76268768D01*
X73702445Y-76190127D01*
X73537701Y-76136598D01*
X73537699Y-76136597D01*
X73537698Y-76136597D01*
X73406271Y-76115781D01*
X73366611Y-76109500D01*
X73193389Y-76109500D01*
X73153728Y-76115781D01*
X73022302Y-76136597D01*
X72857552Y-76190128D01*
X72703211Y-76268768D01*
X72645773Y-76310500D01*
X72563072Y-76370586D01*
X72563070Y-76370588D01*
X72563069Y-76370588D01*
X72440588Y-76493069D01*
X72440581Y-76493078D01*
X72394817Y-76556066D01*
X72339487Y-76598732D01*
X72269874Y-76604710D01*
X72208079Y-76572104D01*
X72173722Y-76511265D01*
X72170500Y-76483180D01*
X72170500Y-75373247D01*
X72190185Y-75306208D01*
X72242989Y-75260453D01*
X72304231Y-75249629D01*
X72343710Y-75252736D01*
X72797037Y-74799409D01*
X72814075Y-74862993D01*
X72879901Y-74977007D01*
X72972993Y-75070099D01*
X73087007Y-75135925D01*
X73150589Y-75152962D01*
X72697261Y-75606289D01*
X72697262Y-75606290D01*
X72703471Y-75610801D01*
X72857742Y-75689408D01*
X73022415Y-75742914D01*
X73193429Y-75770000D01*
X73366571Y-75770000D01*
X73537584Y-75742914D01*
X73702257Y-75689408D01*
X73856525Y-75610803D01*
X73862736Y-75606289D01*
X73862737Y-75606289D01*
X73409410Y-75152962D01*
X73472993Y-75135925D01*
X73587007Y-75070099D01*
X73680099Y-74977007D01*
X73745925Y-74862993D01*
X73762962Y-74799410D01*
X74216289Y-75252737D01*
X74216289Y-75252736D01*
X74220803Y-75246525D01*
X74299408Y-75092257D01*
X74352914Y-74927584D01*
X74380000Y-74756571D01*
X74380000Y-74583428D01*
X74352914Y-74412415D01*
X74299408Y-74247742D01*
X74220801Y-74093471D01*
X74216290Y-74087262D01*
X74216289Y-74087261D01*
X73762962Y-74540589D01*
X73745925Y-74477007D01*
X73680099Y-74362993D01*
X73587007Y-74269901D01*
X73472993Y-74204075D01*
X73409409Y-74187037D01*
X73862737Y-73733709D01*
X73856525Y-73729196D01*
X73702259Y-73650592D01*
X73537584Y-73597085D01*
X73366571Y-73570000D01*
X73193429Y-73570000D01*
X73022415Y-73597085D01*
X72857740Y-73650592D01*
X72703480Y-73729193D01*
X72703463Y-73729203D01*
X72697261Y-73733708D01*
X72697261Y-73733709D01*
X73150590Y-74187037D01*
X73087007Y-74204075D01*
X72972993Y-74269901D01*
X72879901Y-74362993D01*
X72814075Y-74477007D01*
X72797037Y-74540590D01*
X72343709Y-74087261D01*
X72304235Y-74090370D01*
X72290622Y-74087511D01*
X72276853Y-74089491D01*
X72257104Y-74080472D01*
X72235857Y-74076010D01*
X72225950Y-74066244D01*
X72213297Y-74060466D01*
X72201559Y-74042201D01*
X72186098Y-74026961D01*
X72182270Y-74012187D01*
X72175523Y-74001688D01*
X72170500Y-73966753D01*
X72170500Y-72856819D01*
X72190185Y-72789780D01*
X72242989Y-72744025D01*
X72312147Y-72734081D01*
X72375703Y-72763106D01*
G37*
%TD.AperFunction*%
%TA.AperFunction,Conductor*%
G36*
X92131920Y-72767895D02*
G01*
X92166278Y-72828734D01*
X92169500Y-72856819D01*
X92169500Y-73966751D01*
X92149815Y-74033790D01*
X92097011Y-74079545D01*
X92035772Y-74090369D01*
X91996289Y-74087261D01*
X91542962Y-74540589D01*
X91525925Y-74477007D01*
X91460099Y-74362993D01*
X91367007Y-74269901D01*
X91252993Y-74204075D01*
X91189409Y-74187037D01*
X91642737Y-73733709D01*
X91636525Y-73729196D01*
X91482259Y-73650592D01*
X91317584Y-73597085D01*
X91146571Y-73570000D01*
X90973429Y-73570000D01*
X90802415Y-73597085D01*
X90637740Y-73650592D01*
X90483480Y-73729193D01*
X90483463Y-73729203D01*
X90477261Y-73733708D01*
X90477261Y-73733709D01*
X90930590Y-74187037D01*
X90867007Y-74204075D01*
X90752993Y-74269901D01*
X90659901Y-74362993D01*
X90594075Y-74477007D01*
X90577037Y-74540590D01*
X90123709Y-74087261D01*
X90123708Y-74087261D01*
X90119203Y-74093463D01*
X90119193Y-74093480D01*
X90040592Y-74247740D01*
X89987085Y-74412415D01*
X89960000Y-74583428D01*
X89960000Y-74756571D01*
X89987085Y-74927584D01*
X90040592Y-75092259D01*
X90119196Y-75246525D01*
X90123709Y-75252736D01*
X90123709Y-75252737D01*
X90577037Y-74799409D01*
X90594075Y-74862993D01*
X90659901Y-74977007D01*
X90752993Y-75070099D01*
X90867007Y-75135925D01*
X90930589Y-75152962D01*
X90477261Y-75606289D01*
X90477262Y-75606290D01*
X90483471Y-75610801D01*
X90637742Y-75689408D01*
X90802415Y-75742914D01*
X90973429Y-75770000D01*
X91146571Y-75770000D01*
X91317584Y-75742914D01*
X91482257Y-75689408D01*
X91636525Y-75610803D01*
X91642736Y-75606289D01*
X91642737Y-75606289D01*
X91189410Y-75152962D01*
X91252993Y-75135925D01*
X91367007Y-75070099D01*
X91460099Y-74977007D01*
X91525925Y-74862993D01*
X91542962Y-74799409D01*
X91996288Y-75252736D01*
X92035774Y-75249630D01*
X92104151Y-75263996D01*
X92153907Y-75313048D01*
X92169500Y-75373248D01*
X92169500Y-76483180D01*
X92149815Y-76550219D01*
X92097011Y-76595974D01*
X92027853Y-76605918D01*
X91964297Y-76576893D01*
X91945183Y-76556066D01*
X91899418Y-76493078D01*
X91899414Y-76493072D01*
X91776928Y-76370586D01*
X91636788Y-76268768D01*
X91482445Y-76190127D01*
X91317701Y-76136598D01*
X91317699Y-76136597D01*
X91317698Y-76136597D01*
X91186271Y-76115781D01*
X91146611Y-76109500D01*
X90973389Y-76109500D01*
X90933728Y-76115781D01*
X90802302Y-76136597D01*
X90637552Y-76190128D01*
X90483211Y-76268768D01*
X90425773Y-76310500D01*
X90343072Y-76370586D01*
X90343070Y-76370588D01*
X90343069Y-76370588D01*
X90220588Y-76493069D01*
X90220588Y-76493070D01*
X90220586Y-76493072D01*
X90196894Y-76525681D01*
X90118768Y-76633211D01*
X90040128Y-76787552D01*
X89986597Y-76952302D01*
X89959500Y-77123389D01*
X89959500Y-77296610D01*
X89986597Y-77467698D01*
X90041597Y-77636970D01*
X90043592Y-77706811D01*
X90011347Y-77762969D01*
X89696181Y-78078136D01*
X89634858Y-78111621D01*
X89565167Y-78106637D01*
X89509233Y-78064766D01*
X89484816Y-77999301D01*
X89484500Y-77990455D01*
X89484500Y-74252542D01*
X89504185Y-74185503D01*
X89520814Y-74164865D01*
X90507030Y-73178649D01*
X90568351Y-73145166D01*
X90633028Y-73148401D01*
X90637549Y-73149869D01*
X90637555Y-73149873D01*
X90802299Y-73203402D01*
X90973389Y-73230500D01*
X90973390Y-73230500D01*
X91146610Y-73230500D01*
X91146611Y-73230500D01*
X91317701Y-73203402D01*
X91482445Y-73149873D01*
X91636788Y-73071232D01*
X91776928Y-72969414D01*
X91899414Y-72846928D01*
X91945183Y-72783931D01*
X92000512Y-72741268D01*
X92070125Y-72735289D01*
X92131920Y-72767895D01*
G37*
%TD.AperFunction*%
%TA.AperFunction,Conductor*%
G36*
X81614883Y-69620002D02*
G01*
X81625912Y-69629792D01*
X85058181Y-73062060D01*
X85091666Y-73123383D01*
X85094500Y-73149741D01*
X85094500Y-76938455D01*
X85074815Y-77005494D01*
X85058181Y-77026136D01*
X84438642Y-77645674D01*
X84433314Y-77648583D01*
X84429912Y-77653610D01*
X84403007Y-77665132D01*
X84377319Y-77679159D01*
X84371264Y-77678726D01*
X84365684Y-77681116D01*
X84336822Y-77676262D01*
X84307627Y-77674175D01*
X84302766Y-77670536D01*
X84296782Y-77669530D01*
X84275126Y-77649844D01*
X84251694Y-77632303D01*
X84248424Y-77625571D01*
X84245081Y-77622533D01*
X84231187Y-77590089D01*
X84218223Y-77541710D01*
X84219884Y-77471860D01*
X84250314Y-77421935D01*
X84269859Y-77402391D01*
X84326017Y-77292175D01*
X84326017Y-77292173D01*
X84326018Y-77292172D01*
X84326018Y-77292171D01*
X84339955Y-77204173D01*
X84340500Y-77200735D01*
X84340499Y-76859266D01*
X84340499Y-76859260D01*
X84326018Y-76767829D01*
X84326018Y-76767828D01*
X84326017Y-76767826D01*
X84326017Y-76767825D01*
X84269859Y-76657609D01*
X84249576Y-76637326D01*
X84216092Y-76576006D01*
X84221075Y-76506315D01*
X84249578Y-76461963D01*
X84269448Y-76442093D01*
X84269449Y-76442091D01*
X84325533Y-76332022D01*
X84325534Y-76332019D01*
X84327438Y-76320000D01*
X83904000Y-76320000D01*
X83836961Y-76300315D01*
X83791206Y-76247511D01*
X83780000Y-76196000D01*
X83780000Y-75944000D01*
X83799685Y-75876961D01*
X83852489Y-75831206D01*
X83904000Y-75820000D01*
X84327438Y-75820000D01*
X84325535Y-75807983D01*
X84269447Y-75697906D01*
X84269444Y-75697901D01*
X84182098Y-75610555D01*
X84182093Y-75610551D01*
X84072015Y-75554463D01*
X84072016Y-75554463D01*
X84007905Y-75544309D01*
X83944770Y-75514379D01*
X83907840Y-75455067D01*
X83908838Y-75385204D01*
X83947449Y-75326972D01*
X84007905Y-75299363D01*
X84092175Y-75286017D01*
X84202391Y-75229859D01*
X84289859Y-75142391D01*
X84346017Y-75032175D01*
X84346017Y-75032173D01*
X84346018Y-75032172D01*
X84346018Y-75032171D01*
X84349901Y-75007650D01*
X84360500Y-74940735D01*
X84360499Y-74599266D01*
X84360499Y-74599264D01*
X84360499Y-74599260D01*
X84346018Y-74507829D01*
X84346018Y-74507828D01*
X84346017Y-74507826D01*
X84346017Y-74507825D01*
X84289859Y-74397609D01*
X84269576Y-74377326D01*
X84236092Y-74316006D01*
X84241075Y-74246315D01*
X84269578Y-74201963D01*
X84289448Y-74182093D01*
X84289449Y-74182091D01*
X84345533Y-74072022D01*
X84345534Y-74072019D01*
X84347438Y-74060000D01*
X83252562Y-74060000D01*
X83254464Y-74072016D01*
X83310552Y-74182093D01*
X83310555Y-74182098D01*
X83330422Y-74201965D01*
X83363907Y-74263288D01*
X83358923Y-74332980D01*
X83330422Y-74377327D01*
X83310145Y-74397603D01*
X83310142Y-74397608D01*
X83253981Y-74507827D01*
X83253981Y-74507828D01*
X83239500Y-74599264D01*
X83239500Y-74783455D01*
X83219815Y-74850494D01*
X83203181Y-74871136D01*
X82650137Y-75424181D01*
X82588814Y-75457666D01*
X82562456Y-75460500D01*
X81457543Y-75460500D01*
X81390504Y-75440815D01*
X81369862Y-75424181D01*
X81086818Y-75141136D01*
X81053333Y-75079813D01*
X81050499Y-75053455D01*
X81050499Y-74869260D01*
X81036018Y-74777829D01*
X81036018Y-74777828D01*
X81036017Y-74777826D01*
X81036017Y-74777825D01*
X80979859Y-74667609D01*
X80979857Y-74667607D01*
X80979854Y-74667603D01*
X80926819Y-74614568D01*
X80893334Y-74553245D01*
X80890500Y-74526887D01*
X80890500Y-73559999D01*
X83252561Y-73559999D01*
X83252561Y-73560000D01*
X83550000Y-73560000D01*
X84050000Y-73560000D01*
X84347438Y-73560000D01*
X84345535Y-73547983D01*
X84289447Y-73437906D01*
X84289444Y-73437901D01*
X84202098Y-73350555D01*
X84202093Y-73350551D01*
X84092018Y-73294465D01*
X84050000Y-73287809D01*
X84050000Y-73560000D01*
X83550000Y-73560000D01*
X83550000Y-73287809D01*
X83549999Y-73287809D01*
X83507984Y-73294463D01*
X83397906Y-73350551D01*
X83397901Y-73350555D01*
X83310555Y-73437901D01*
X83310550Y-73437908D01*
X83254466Y-73547977D01*
X83254465Y-73547980D01*
X83252561Y-73559999D01*
X80890500Y-73559999D01*
X80890500Y-71063858D01*
X80890500Y-71063856D01*
X80866614Y-70974712D01*
X80851628Y-70948756D01*
X80851628Y-70948755D01*
X80820472Y-70894791D01*
X80820468Y-70894786D01*
X80424749Y-70499067D01*
X80391264Y-70437744D01*
X80389141Y-70398128D01*
X80390499Y-70385496D01*
X80390499Y-70385494D01*
X80390500Y-70385485D01*
X80390499Y-69878384D01*
X80410183Y-69811346D01*
X80462987Y-69765591D01*
X80532146Y-69755647D01*
X80595702Y-69784672D01*
X80602180Y-69790704D01*
X80621985Y-69810509D01*
X80621986Y-69810510D01*
X80621988Y-69810511D01*
X80747511Y-69882982D01*
X80747512Y-69882982D01*
X80747515Y-69882984D01*
X80887525Y-69920500D01*
X80887528Y-69920500D01*
X81032472Y-69920500D01*
X81032475Y-69920500D01*
X81172485Y-69882984D01*
X81298015Y-69810509D01*
X81400509Y-69708015D01*
X81430844Y-69655472D01*
X81481411Y-69607257D01*
X81550018Y-69594034D01*
X81614883Y-69620002D01*
G37*
%TD.AperFunction*%
%TA.AperFunction,Conductor*%
G36*
X82437771Y-76181185D02*
G01*
X82473043Y-76218176D01*
X82473582Y-76217763D01*
X82477429Y-76222776D01*
X82478118Y-76223499D01*
X82478530Y-76224212D01*
X82478532Y-76224214D01*
X83033681Y-76779363D01*
X83067166Y-76840686D01*
X83070000Y-76867044D01*
X83070000Y-77276000D01*
X83050315Y-77343039D01*
X82997511Y-77388794D01*
X82946000Y-77400000D01*
X82820000Y-77400000D01*
X82820000Y-77526000D01*
X82800315Y-77593039D01*
X82747511Y-77638794D01*
X82696000Y-77650000D01*
X82264286Y-77650000D01*
X82224479Y-77675984D01*
X82154611Y-77676480D01*
X82101019Y-77644939D01*
X81731162Y-77275082D01*
X81613110Y-77157030D01*
X81609376Y-77154874D01*
X81604437Y-77149999D01*
X82272561Y-77149999D01*
X82272561Y-77150000D01*
X82570000Y-77150000D01*
X82570000Y-76877809D01*
X82527984Y-76884463D01*
X82417906Y-76940551D01*
X82417901Y-76940555D01*
X82330555Y-77027901D01*
X82330550Y-77027908D01*
X82274466Y-77137977D01*
X82274465Y-77137980D01*
X82272561Y-77149999D01*
X81604437Y-77149999D01*
X81600653Y-77146264D01*
X81587300Y-77122184D01*
X81571070Y-77099955D01*
X81570131Y-77091224D01*
X81566769Y-77085161D01*
X81567790Y-77069440D01*
X81564822Y-77041826D01*
X81565500Y-77036679D01*
X81565499Y-76838322D01*
X81559499Y-76792743D01*
X81558261Y-76783334D01*
X81561323Y-76782930D01*
X81561424Y-76729031D01*
X81572950Y-76702186D01*
X81587613Y-76676789D01*
X81587614Y-76676788D01*
X81611500Y-76587643D01*
X81611500Y-76495356D01*
X81611500Y-76285500D01*
X81631185Y-76218461D01*
X81683989Y-76172706D01*
X81735500Y-76161500D01*
X82370732Y-76161500D01*
X82437771Y-76181185D01*
G37*
%TD.AperFunction*%
%TA.AperFunction,Conductor*%
G36*
X77217016Y-56040185D02*
G01*
X77262771Y-56092989D01*
X77272715Y-56162147D01*
X77253079Y-56213391D01*
X77185362Y-56314735D01*
X77185357Y-56314745D01*
X77128822Y-56451232D01*
X77128820Y-56451240D01*
X77100000Y-56596126D01*
X77100000Y-56720000D01*
X77550000Y-56720000D01*
X77550000Y-57220000D01*
X77100000Y-57220000D01*
X77100000Y-57343873D01*
X77128820Y-57488759D01*
X77128822Y-57488767D01*
X77185357Y-57625254D01*
X77185362Y-57625264D01*
X77267436Y-57748096D01*
X77267439Y-57748100D01*
X77371899Y-57852560D01*
X77371907Y-57852566D01*
X77494739Y-57934640D01*
X77494743Y-57934642D01*
X77599999Y-57978240D01*
X77600000Y-57978240D01*
X77600000Y-57436988D01*
X77609940Y-57454205D01*
X77665795Y-57510060D01*
X77734204Y-57549556D01*
X77810504Y-57570000D01*
X77889496Y-57570000D01*
X77965796Y-57549556D01*
X78034205Y-57510060D01*
X78090060Y-57454205D01*
X78100000Y-57436988D01*
X78100000Y-57978240D01*
X78205256Y-57934642D01*
X78205260Y-57934640D01*
X78328092Y-57852566D01*
X78328100Y-57852560D01*
X78432560Y-57748100D01*
X78432563Y-57748096D01*
X78514637Y-57625264D01*
X78514642Y-57625254D01*
X78571177Y-57488767D01*
X78571179Y-57488759D01*
X78599999Y-57343873D01*
X78600000Y-57343871D01*
X78600000Y-57220000D01*
X78150000Y-57220000D01*
X78150000Y-56720000D01*
X78600000Y-56720000D01*
X78600000Y-56596128D01*
X78599999Y-56596126D01*
X78571179Y-56451240D01*
X78571177Y-56451232D01*
X78514642Y-56314745D01*
X78514637Y-56314735D01*
X78446921Y-56213391D01*
X78426043Y-56146713D01*
X78444528Y-56079333D01*
X78496506Y-56032643D01*
X78550023Y-56020500D01*
X85789977Y-56020500D01*
X85857016Y-56040185D01*
X85902771Y-56092989D01*
X85912715Y-56162147D01*
X85893079Y-56213391D01*
X85825362Y-56314735D01*
X85825357Y-56314745D01*
X85768822Y-56451232D01*
X85768820Y-56451240D01*
X85740000Y-56596126D01*
X85740000Y-56720000D01*
X86190000Y-56720000D01*
X86190000Y-57220000D01*
X85740000Y-57220000D01*
X85740000Y-57343873D01*
X85768820Y-57488759D01*
X85768822Y-57488767D01*
X85825357Y-57625254D01*
X85825362Y-57625264D01*
X85907436Y-57748096D01*
X85907439Y-57748100D01*
X86011902Y-57852563D01*
X86104381Y-57914355D01*
X86149186Y-57967967D01*
X86157893Y-58037292D01*
X86127739Y-58100319D01*
X86123171Y-58105138D01*
X84275137Y-59953173D01*
X84213814Y-59986658D01*
X84187456Y-59989492D01*
X80473864Y-59989492D01*
X80386313Y-60012951D01*
X80386312Y-60012950D01*
X80384727Y-60013375D01*
X80384714Y-60013380D01*
X80304799Y-60059519D01*
X80304798Y-60059520D01*
X79985515Y-60378802D01*
X79924192Y-60412286D01*
X79854500Y-60407302D01*
X79798567Y-60365430D01*
X79790447Y-60353120D01*
X79787010Y-60347167D01*
X79740515Y-60266635D01*
X79633365Y-60159485D01*
X79549408Y-60111012D01*
X79502136Y-60083719D01*
X79415274Y-60060445D01*
X79355766Y-60044500D01*
X79204234Y-60044500D01*
X79057863Y-60083719D01*
X78926635Y-60159485D01*
X78926632Y-60159487D01*
X78819487Y-60266632D01*
X78819480Y-60266641D01*
X78772988Y-60347167D01*
X78722421Y-60395382D01*
X78653814Y-60408604D01*
X78588949Y-60382636D01*
X78551041Y-60332619D01*
X78514642Y-60244744D01*
X78514637Y-60244735D01*
X78432563Y-60121903D01*
X78432560Y-60121899D01*
X78328100Y-60017439D01*
X78328096Y-60017436D01*
X78205264Y-59935362D01*
X78205254Y-59935357D01*
X78100000Y-59891759D01*
X78100000Y-60433011D01*
X78090060Y-60415795D01*
X78034205Y-60359940D01*
X77965796Y-60320444D01*
X77889496Y-60300000D01*
X77810504Y-60300000D01*
X77734204Y-60320444D01*
X77665795Y-60359940D01*
X77609940Y-60415795D01*
X77600000Y-60433011D01*
X77600000Y-59891759D01*
X77599999Y-59891759D01*
X77494745Y-59935357D01*
X77494735Y-59935362D01*
X77371903Y-60017436D01*
X77371899Y-60017439D01*
X77267439Y-60121899D01*
X77267436Y-60121903D01*
X77185362Y-60244735D01*
X77185357Y-60244745D01*
X77128822Y-60381232D01*
X77128820Y-60381240D01*
X77100000Y-60526126D01*
X77100000Y-60900000D01*
X77550000Y-60900000D01*
X77550000Y-61400000D01*
X77100000Y-61400000D01*
X77100000Y-61773873D01*
X77128820Y-61918759D01*
X77128822Y-61918767D01*
X77185357Y-62055254D01*
X77185362Y-62055264D01*
X77267436Y-62178096D01*
X77267439Y-62178100D01*
X77371899Y-62282560D01*
X77371907Y-62282566D01*
X77494739Y-62364640D01*
X77494743Y-62364642D01*
X77599999Y-62408240D01*
X77600000Y-62408240D01*
X77600000Y-61866988D01*
X77609940Y-61884205D01*
X77665795Y-61940060D01*
X77734204Y-61979556D01*
X77810504Y-62000000D01*
X77889496Y-62000000D01*
X77965796Y-61979556D01*
X78034205Y-61940060D01*
X78090060Y-61884205D01*
X78100000Y-61866988D01*
X78100000Y-62408239D01*
X78198547Y-62367420D01*
X78268017Y-62359951D01*
X78330496Y-62391226D01*
X78366148Y-62451315D01*
X78370000Y-62481981D01*
X78370000Y-62814628D01*
X78384503Y-62887540D01*
X78384505Y-62887544D01*
X78439760Y-62970239D01*
X78522455Y-63025494D01*
X78522459Y-63025496D01*
X78595371Y-63039999D01*
X78595374Y-63040000D01*
X78670000Y-63040000D01*
X78670000Y-62315000D01*
X78364000Y-62315000D01*
X78296961Y-62295315D01*
X78251206Y-62242511D01*
X78240000Y-62191000D01*
X78240000Y-61939000D01*
X78259685Y-61871961D01*
X78312489Y-61826206D01*
X78364000Y-61815000D01*
X78796000Y-61815000D01*
X78863039Y-61834685D01*
X78908794Y-61887489D01*
X78920000Y-61939000D01*
X78920000Y-62065000D01*
X79045500Y-62065000D01*
X79112539Y-62084685D01*
X79158294Y-62137489D01*
X79169500Y-62189000D01*
X79169500Y-62815673D01*
X79170000Y-62825841D01*
X79170000Y-63066452D01*
X79171666Y-63069504D01*
X79174500Y-63095862D01*
X79174500Y-63563216D01*
X79154815Y-63630255D01*
X79102011Y-63676010D01*
X79093835Y-63679397D01*
X79069776Y-63688370D01*
X79069773Y-63688372D01*
X78960313Y-63770313D01*
X78878372Y-63879772D01*
X78865914Y-63913174D01*
X78824041Y-63969107D01*
X78758576Y-63993522D01*
X78690304Y-63978669D01*
X78640899Y-63929262D01*
X78633551Y-63913170D01*
X78621187Y-63880020D01*
X78621184Y-63880015D01*
X78539329Y-63770670D01*
X78429984Y-63688815D01*
X78429983Y-63688814D01*
X78302010Y-63641083D01*
X78245428Y-63635000D01*
X78225000Y-63635000D01*
X78225000Y-64236000D01*
X78205315Y-64303039D01*
X78152511Y-64348794D01*
X78101000Y-64360000D01*
X77975000Y-64360000D01*
X77975000Y-64486000D01*
X77955315Y-64553039D01*
X77902511Y-64598794D01*
X77851000Y-64610000D01*
X77275001Y-64610000D01*
X77275001Y-64655439D01*
X77281081Y-64712007D01*
X77328813Y-64839981D01*
X77328815Y-64839984D01*
X77410670Y-64949329D01*
X77520015Y-65031184D01*
X77520017Y-65031185D01*
X77535901Y-65037110D01*
X77591834Y-65078982D01*
X77616251Y-65144446D01*
X77601399Y-65212719D01*
X77554569Y-65260678D01*
X77521988Y-65279489D01*
X77521982Y-65279493D01*
X77419493Y-65381982D01*
X77419488Y-65381988D01*
X77347017Y-65507511D01*
X77347016Y-65507515D01*
X77309500Y-65647525D01*
X77309500Y-65792475D01*
X77344156Y-65921810D01*
X77347017Y-65932488D01*
X77419488Y-66058011D01*
X77419490Y-66058013D01*
X77419491Y-66058015D01*
X77521985Y-66160509D01*
X77521986Y-66160510D01*
X77521988Y-66160511D01*
X77647511Y-66232982D01*
X77647512Y-66232982D01*
X77647515Y-66232984D01*
X77787525Y-66270500D01*
X77787528Y-66270500D01*
X77932472Y-66270500D01*
X77932475Y-66270500D01*
X78072485Y-66232984D01*
X78072487Y-66232982D01*
X78072489Y-66232982D01*
X78072490Y-66232981D01*
X78111279Y-66210586D01*
X78173500Y-66174662D01*
X78241399Y-66158189D01*
X78307426Y-66181041D01*
X78350617Y-66235962D01*
X78359500Y-66282049D01*
X78359500Y-66889017D01*
X78370292Y-66957157D01*
X78374354Y-66982804D01*
X78381796Y-66997410D01*
X78394692Y-67066077D01*
X78368416Y-67130818D01*
X78311309Y-67171075D01*
X78241504Y-67174067D01*
X78235807Y-67172438D01*
X78210000Y-67168351D01*
X78210000Y-67895000D01*
X78509999Y-67895000D01*
X78509999Y-67526020D01*
X78495164Y-67432350D01*
X78487858Y-67418012D01*
X78474961Y-67349343D01*
X78501236Y-67284602D01*
X78558342Y-67244344D01*
X78628147Y-67241350D01*
X78634097Y-67243051D01*
X78634695Y-67243145D01*
X78634696Y-67243146D01*
X78728481Y-67258000D01*
X79091518Y-67257999D01*
X79185304Y-67243146D01*
X79185305Y-67243145D01*
X79194943Y-67241619D01*
X79195263Y-67243643D01*
X79252500Y-67242004D01*
X79312335Y-67278080D01*
X79343168Y-67340779D01*
X79335209Y-67410193D01*
X79331472Y-67418226D01*
X79324353Y-67432197D01*
X79324352Y-67432198D01*
X79309500Y-67525975D01*
X79309500Y-68764017D01*
X79315170Y-68799815D01*
X79324354Y-68857804D01*
X79381950Y-68970842D01*
X79471658Y-69060550D01*
X79471660Y-69060551D01*
X79473181Y-69062072D01*
X79487888Y-69089005D01*
X79504477Y-69114819D01*
X79505368Y-69121018D01*
X79506666Y-69123395D01*
X79509500Y-69149754D01*
X79509500Y-69243442D01*
X79489815Y-69310481D01*
X79437011Y-69356236D01*
X79398754Y-69366732D01*
X79362884Y-69370588D01*
X79234773Y-69418372D01*
X79125313Y-69500313D01*
X79043372Y-69609772D01*
X79030914Y-69643174D01*
X78989041Y-69699107D01*
X78923576Y-69723522D01*
X78855304Y-69708669D01*
X78805899Y-69659262D01*
X78798551Y-69643170D01*
X78786187Y-69610020D01*
X78786184Y-69610015D01*
X78704329Y-69500670D01*
X78594984Y-69418815D01*
X78594983Y-69418814D01*
X78467010Y-69371083D01*
X78410428Y-69365000D01*
X78390000Y-69365000D01*
X78390000Y-70814999D01*
X78410433Y-70814999D01*
X78410439Y-70814998D01*
X78467007Y-70808918D01*
X78594981Y-70761186D01*
X78594984Y-70761184D01*
X78704329Y-70679329D01*
X78786184Y-70569984D01*
X78786185Y-70569983D01*
X78798550Y-70536830D01*
X78840420Y-70480895D01*
X78905884Y-70456477D01*
X78974158Y-70471328D01*
X79023564Y-70520732D01*
X79030914Y-70536826D01*
X79037780Y-70555233D01*
X79043372Y-70570226D01*
X79125313Y-70679687D01*
X79208796Y-70742181D01*
X79234183Y-70761186D01*
X79234774Y-70761628D01*
X79362886Y-70809412D01*
X79408815Y-70814349D01*
X79419505Y-70815499D01*
X79419506Y-70815499D01*
X79419515Y-70815500D01*
X79435876Y-70815499D01*
X79502913Y-70835180D01*
X79548671Y-70887982D01*
X79558618Y-70957140D01*
X79529596Y-71020697D01*
X79523562Y-71027179D01*
X79499488Y-71051253D01*
X79427017Y-71176776D01*
X79427016Y-71176780D01*
X79389500Y-71316790D01*
X79389500Y-71316792D01*
X79389500Y-71392721D01*
X79369815Y-71459760D01*
X79353181Y-71480402D01*
X77299531Y-73534051D01*
X77299527Y-73534056D01*
X77253387Y-73613974D01*
X77253386Y-73613977D01*
X77229500Y-73703121D01*
X77229500Y-75173959D01*
X77209815Y-75240998D01*
X77193181Y-75261640D01*
X77126923Y-75327897D01*
X77126921Y-75327900D01*
X77070419Y-75443478D01*
X77070418Y-75443480D01*
X77070418Y-75443482D01*
X77059500Y-75518418D01*
X77059500Y-75961582D01*
X77070418Y-76036518D01*
X77070418Y-76036519D01*
X77070419Y-76036521D01*
X77126921Y-76152099D01*
X77126923Y-76152101D01*
X77126924Y-76152102D01*
X77193182Y-76218360D01*
X77226666Y-76279681D01*
X77229500Y-76306040D01*
X77229500Y-76548649D01*
X77241776Y-76594464D01*
X77240112Y-76664313D01*
X77209682Y-76714236D01*
X76966181Y-76957738D01*
X76904858Y-76991223D01*
X76835167Y-76986239D01*
X76779233Y-76944368D01*
X76754816Y-76878903D01*
X76754500Y-76870057D01*
X76754500Y-70385439D01*
X77440001Y-70385439D01*
X77446081Y-70442007D01*
X77493813Y-70569981D01*
X77493815Y-70569984D01*
X77575670Y-70679329D01*
X77685015Y-70761184D01*
X77685016Y-70761185D01*
X77812991Y-70808917D01*
X77812995Y-70808918D01*
X77869554Y-70814999D01*
X77890000Y-70814998D01*
X77890000Y-70340000D01*
X77440001Y-70340000D01*
X77440001Y-70385439D01*
X76754500Y-70385439D01*
X76754500Y-70127858D01*
X76754500Y-70127856D01*
X76730614Y-70038712D01*
X76684470Y-69958788D01*
X76520253Y-69794571D01*
X77440000Y-69794571D01*
X77440000Y-69840000D01*
X77890000Y-69840000D01*
X77890000Y-69364999D01*
X77869579Y-69365000D01*
X77869560Y-69365001D01*
X77812993Y-69371081D01*
X77685018Y-69418813D01*
X77685015Y-69418815D01*
X77575670Y-69500670D01*
X77493815Y-69610015D01*
X77493814Y-69610016D01*
X77446083Y-69737989D01*
X77440000Y-69794571D01*
X76520253Y-69794571D01*
X75489661Y-68763979D01*
X77410001Y-68763979D01*
X77424835Y-68857649D01*
X77424837Y-68857655D01*
X77482356Y-68970541D01*
X77482363Y-68970550D01*
X77571949Y-69060136D01*
X77571954Y-69060139D01*
X77684854Y-69117665D01*
X77709998Y-69121647D01*
X77710000Y-69121646D01*
X78210000Y-69121646D01*
X78210001Y-69121647D01*
X78235145Y-69117665D01*
X78348045Y-69060139D01*
X78348050Y-69060136D01*
X78437636Y-68970550D01*
X78437639Y-68970546D01*
X78495166Y-68857644D01*
X78510000Y-68763986D01*
X78510000Y-68395000D01*
X78210000Y-68395000D01*
X78210000Y-69121646D01*
X77710000Y-69121646D01*
X77710000Y-68395000D01*
X77410001Y-68395000D01*
X77410001Y-68763979D01*
X75489661Y-68763979D01*
X74328652Y-67602970D01*
X74295167Y-67541647D01*
X74295949Y-67526013D01*
X77410000Y-67526013D01*
X77410000Y-67895000D01*
X77710000Y-67895000D01*
X77710000Y-67168351D01*
X77684856Y-67172333D01*
X77571953Y-67229860D01*
X77571949Y-67229863D01*
X77482363Y-67319449D01*
X77482360Y-67319453D01*
X77424833Y-67432355D01*
X77410000Y-67526013D01*
X74295949Y-67526013D01*
X74298402Y-67476971D01*
X74312188Y-67434543D01*
X74353402Y-67307701D01*
X74380500Y-67136611D01*
X74380500Y-66963389D01*
X74353402Y-66792299D01*
X74299873Y-66627555D01*
X74221232Y-66473212D01*
X74119414Y-66333072D01*
X73996928Y-66210586D01*
X73856788Y-66108768D01*
X73702445Y-66030127D01*
X73537701Y-65976598D01*
X73537699Y-65976597D01*
X73537698Y-65976597D01*
X73406271Y-65955781D01*
X73366611Y-65949500D01*
X73193389Y-65949500D01*
X73153728Y-65955781D01*
X73022302Y-65976597D01*
X72857552Y-66030128D01*
X72703211Y-66108768D01*
X72635190Y-66158189D01*
X72563072Y-66210586D01*
X72563070Y-66210588D01*
X72563069Y-66210588D01*
X72440588Y-66333069D01*
X72440581Y-66333078D01*
X72394817Y-66396066D01*
X72339487Y-66438732D01*
X72269874Y-66444710D01*
X72208079Y-66412104D01*
X72173722Y-66351265D01*
X72170500Y-66323180D01*
X72170500Y-65236819D01*
X72190185Y-65169780D01*
X72242989Y-65124025D01*
X72312147Y-65114081D01*
X72375703Y-65143106D01*
X72394814Y-65163929D01*
X72440586Y-65226928D01*
X72563072Y-65349414D01*
X72703212Y-65451232D01*
X72857555Y-65529873D01*
X73022299Y-65583402D01*
X73193389Y-65610500D01*
X73193390Y-65610500D01*
X73366610Y-65610500D01*
X73366611Y-65610500D01*
X73537701Y-65583402D01*
X73702445Y-65529873D01*
X73856788Y-65451232D01*
X73996928Y-65349414D01*
X74119414Y-65226928D01*
X74221232Y-65086788D01*
X74299873Y-64932445D01*
X74353402Y-64767701D01*
X74380500Y-64596611D01*
X74380500Y-64423389D01*
X74353402Y-64252299D01*
X74299873Y-64087555D01*
X74288162Y-64064571D01*
X77275000Y-64064571D01*
X77275000Y-64110000D01*
X77725000Y-64110000D01*
X77725000Y-63634999D01*
X77704579Y-63635000D01*
X77704560Y-63635001D01*
X77647993Y-63641081D01*
X77520018Y-63688813D01*
X77520015Y-63688815D01*
X77410670Y-63770670D01*
X77328815Y-63880015D01*
X77328814Y-63880016D01*
X77281083Y-64007989D01*
X77275000Y-64064571D01*
X74288162Y-64064571D01*
X74221232Y-63933212D01*
X74119414Y-63793072D01*
X73996928Y-63670586D01*
X73856788Y-63568768D01*
X73702445Y-63490127D01*
X73537701Y-63436598D01*
X73537699Y-63436597D01*
X73537698Y-63436597D01*
X73406271Y-63415781D01*
X73366611Y-63409500D01*
X73193389Y-63409500D01*
X73153728Y-63415781D01*
X73022302Y-63436597D01*
X72857552Y-63490128D01*
X72703211Y-63568768D01*
X72623256Y-63626859D01*
X72563072Y-63670586D01*
X72563070Y-63670588D01*
X72563069Y-63670588D01*
X72440588Y-63793069D01*
X72440581Y-63793078D01*
X72394817Y-63856066D01*
X72339487Y-63898732D01*
X72269874Y-63904710D01*
X72208079Y-63872104D01*
X72173722Y-63811265D01*
X72170500Y-63783180D01*
X72170500Y-62673247D01*
X72190185Y-62606208D01*
X72242989Y-62560453D01*
X72304231Y-62549629D01*
X72343710Y-62552736D01*
X72797037Y-62099409D01*
X72814075Y-62162993D01*
X72879901Y-62277007D01*
X72972993Y-62370099D01*
X73087007Y-62435925D01*
X73150589Y-62452962D01*
X72697261Y-62906289D01*
X72697262Y-62906290D01*
X72703471Y-62910801D01*
X72857742Y-62989408D01*
X73022415Y-63042914D01*
X73193429Y-63070000D01*
X73366571Y-63070000D01*
X73537584Y-63042914D01*
X73702257Y-62989408D01*
X73856525Y-62910803D01*
X73862736Y-62906289D01*
X73862737Y-62906289D01*
X73409410Y-62452962D01*
X73472993Y-62435925D01*
X73587007Y-62370099D01*
X73680099Y-62277007D01*
X73745925Y-62162993D01*
X73762962Y-62099410D01*
X74216289Y-62552737D01*
X74216289Y-62552736D01*
X74220803Y-62546525D01*
X74299408Y-62392257D01*
X74352914Y-62227584D01*
X74380000Y-62056571D01*
X74380000Y-61883428D01*
X74352914Y-61712415D01*
X74299408Y-61547742D01*
X74226642Y-61404933D01*
X74220801Y-61393470D01*
X74216290Y-61387262D01*
X74216289Y-61387261D01*
X73762962Y-61840589D01*
X73745925Y-61777007D01*
X73680099Y-61662993D01*
X73587007Y-61569901D01*
X73472993Y-61504075D01*
X73409409Y-61487037D01*
X73862737Y-61033709D01*
X73856525Y-61029196D01*
X73702259Y-60950592D01*
X73537584Y-60897085D01*
X73366571Y-60870000D01*
X73193429Y-60870000D01*
X73022415Y-60897085D01*
X72857740Y-60950592D01*
X72703480Y-61029193D01*
X72703463Y-61029203D01*
X72697261Y-61033708D01*
X72697261Y-61033709D01*
X73150590Y-61487037D01*
X73087007Y-61504075D01*
X72972993Y-61569901D01*
X72879901Y-61662993D01*
X72814075Y-61777007D01*
X72797037Y-61840590D01*
X72343709Y-61387261D01*
X72304235Y-61390370D01*
X72290622Y-61387511D01*
X72276853Y-61389491D01*
X72257104Y-61380472D01*
X72235857Y-61376010D01*
X72225950Y-61366244D01*
X72213297Y-61360466D01*
X72201559Y-61342201D01*
X72186098Y-61326961D01*
X72182270Y-61312187D01*
X72175523Y-61301688D01*
X72170500Y-61266753D01*
X72170500Y-60156819D01*
X72190185Y-60089780D01*
X72242989Y-60044025D01*
X72312147Y-60034081D01*
X72375703Y-60063106D01*
X72394814Y-60083929D01*
X72440586Y-60146928D01*
X72563072Y-60269414D01*
X72703212Y-60371232D01*
X72857555Y-60449873D01*
X73022299Y-60503402D01*
X73193389Y-60530500D01*
X73193390Y-60530500D01*
X73366610Y-60530500D01*
X73366611Y-60530500D01*
X73537701Y-60503402D01*
X73702445Y-60449873D01*
X73856788Y-60371232D01*
X73996928Y-60269414D01*
X74119414Y-60146928D01*
X74221232Y-60006788D01*
X74299873Y-59852445D01*
X74353402Y-59687701D01*
X74380500Y-59516611D01*
X74380500Y-59343389D01*
X74353402Y-59172299D01*
X74299873Y-59007555D01*
X74221232Y-58853212D01*
X74119414Y-58713072D01*
X73996928Y-58590586D01*
X73856788Y-58488768D01*
X73702445Y-58410127D01*
X73537701Y-58356598D01*
X73537699Y-58356597D01*
X73537698Y-58356597D01*
X73406271Y-58335781D01*
X73366611Y-58329500D01*
X73193389Y-58329500D01*
X73153728Y-58335781D01*
X73022302Y-58356597D01*
X72857552Y-58410128D01*
X72703211Y-58488768D01*
X72623256Y-58546859D01*
X72563072Y-58590586D01*
X72563070Y-58590588D01*
X72563069Y-58590588D01*
X72440588Y-58713069D01*
X72440581Y-58713078D01*
X72394817Y-58776066D01*
X72339487Y-58818732D01*
X72269874Y-58824710D01*
X72208079Y-58792104D01*
X72173722Y-58731265D01*
X72170500Y-58703180D01*
X72170500Y-58094542D01*
X72190185Y-58027503D01*
X72242989Y-57981748D01*
X72312147Y-57971804D01*
X72320195Y-57974012D01*
X72320281Y-57973584D01*
X72405321Y-57990499D01*
X72405324Y-57990500D01*
X72405326Y-57990500D01*
X74154676Y-57990500D01*
X74154677Y-57990499D01*
X74227740Y-57975966D01*
X74310601Y-57920601D01*
X74365966Y-57837740D01*
X74380500Y-57764674D01*
X74380500Y-56144500D01*
X74400185Y-56077461D01*
X74452989Y-56031706D01*
X74504500Y-56020500D01*
X77149977Y-56020500D01*
X77217016Y-56040185D01*
G37*
%TD.AperFunction*%
%TA.AperFunction,Conductor*%
G36*
X80079403Y-71935249D02*
G01*
X80103253Y-71935817D01*
X80112954Y-71942382D01*
X80124413Y-71944819D01*
X80141361Y-71961607D01*
X80161117Y-71974978D01*
X80165728Y-71985745D01*
X80174051Y-71993990D01*
X80179231Y-72017275D01*
X80188623Y-72039205D01*
X80189500Y-72053930D01*
X80189500Y-74486887D01*
X80180855Y-74516327D01*
X80174332Y-74546314D01*
X80170577Y-74551329D01*
X80169815Y-74553926D01*
X80153181Y-74574568D01*
X80127327Y-74600422D01*
X80066004Y-74633907D01*
X79996312Y-74628923D01*
X79951965Y-74600422D01*
X79932098Y-74580555D01*
X79932091Y-74580550D01*
X79822022Y-74524466D01*
X79822019Y-74524465D01*
X79810000Y-74522561D01*
X79810000Y-74946000D01*
X79790315Y-75013039D01*
X79737511Y-75058794D01*
X79686000Y-75070000D01*
X79560000Y-75070000D01*
X79560000Y-75196000D01*
X79540315Y-75263039D01*
X79487511Y-75308794D01*
X79436000Y-75320000D01*
X79096540Y-75320000D01*
X79029501Y-75300315D01*
X79008858Y-75283680D01*
X78962102Y-75236923D01*
X78962099Y-75236921D01*
X78846521Y-75180419D01*
X78846519Y-75180418D01*
X78846518Y-75180418D01*
X78771582Y-75169500D01*
X78428418Y-75169500D01*
X78353482Y-75180418D01*
X78353480Y-75180418D01*
X78353478Y-75180419D01*
X78237900Y-75236921D01*
X78237897Y-75236923D01*
X78177681Y-75297140D01*
X78169735Y-75301478D01*
X78164310Y-75308726D01*
X78139550Y-75317960D01*
X78116358Y-75330625D01*
X78107328Y-75329979D01*
X78098846Y-75333143D01*
X78073025Y-75327526D01*
X78046666Y-75325641D01*
X78037612Y-75319822D01*
X78030573Y-75318291D01*
X78002319Y-75297140D01*
X77966819Y-75261640D01*
X77933334Y-75200317D01*
X77930500Y-75173959D01*
X77930500Y-74820000D01*
X79037809Y-74820000D01*
X79310000Y-74820000D01*
X79310000Y-74522561D01*
X79309999Y-74522561D01*
X79297980Y-74524465D01*
X79297977Y-74524466D01*
X79187908Y-74580550D01*
X79187901Y-74580555D01*
X79100555Y-74667901D01*
X79100551Y-74667906D01*
X79044463Y-74777984D01*
X79037809Y-74820000D01*
X77930500Y-74820000D01*
X77930500Y-73945809D01*
X77950185Y-73878770D01*
X77966819Y-73858128D01*
X79848863Y-71976084D01*
X79871807Y-71963555D01*
X79892663Y-71947789D01*
X79904718Y-71945584D01*
X79910186Y-71942599D01*
X79927114Y-71940124D01*
X79931821Y-71939765D01*
X80012475Y-71939765D01*
X80044564Y-71931166D01*
X80056070Y-71930289D01*
X80079403Y-71935249D01*
G37*
%TD.AperFunction*%
%TA.AperFunction,Conductor*%
G36*
X80304249Y-64899428D02*
G01*
X80367492Y-64962671D01*
X80400977Y-65023994D01*
X80395993Y-65093686D01*
X80367493Y-65138033D01*
X80307335Y-65198191D01*
X80252676Y-65310000D01*
X80686000Y-65310000D01*
X80753039Y-65329685D01*
X80798794Y-65382489D01*
X80810000Y-65434000D01*
X80810000Y-65560000D01*
X80936000Y-65560000D01*
X81003039Y-65579685D01*
X81048794Y-65632489D01*
X81060000Y-65684000D01*
X81060000Y-66081620D01*
X81089444Y-66127343D01*
X81094500Y-66162389D01*
X81094500Y-68695500D01*
X81091949Y-68704185D01*
X81093238Y-68713147D01*
X81082259Y-68737187D01*
X81074815Y-68762539D01*
X81067974Y-68768466D01*
X81064213Y-68776703D01*
X81041978Y-68790992D01*
X81022011Y-68808294D01*
X81011496Y-68810581D01*
X81005435Y-68814477D01*
X80970500Y-68819500D01*
X80956544Y-68819500D01*
X80889505Y-68799815D01*
X80868863Y-68783181D01*
X80446818Y-68361136D01*
X80413333Y-68299813D01*
X80410499Y-68273455D01*
X80410499Y-67525982D01*
X80410498Y-67525975D01*
X80395646Y-67432196D01*
X80338050Y-67319158D01*
X80338046Y-67319154D01*
X80338045Y-67319152D01*
X80248347Y-67229454D01*
X80248344Y-67229452D01*
X80248342Y-67229450D01*
X80162184Y-67185550D01*
X80135301Y-67171852D01*
X80041524Y-67157000D01*
X79678482Y-67157000D01*
X79607649Y-67168218D01*
X79584696Y-67171854D01*
X79584695Y-67171854D01*
X79575057Y-67173381D01*
X79574736Y-67171359D01*
X79517478Y-67172989D01*
X79457649Y-67136902D01*
X79426827Y-67074198D01*
X79434799Y-67004785D01*
X79438514Y-66996800D01*
X79445646Y-66982804D01*
X79460500Y-66889019D01*
X79460499Y-66266542D01*
X79480183Y-66199504D01*
X79496813Y-66178867D01*
X79805469Y-65870212D01*
X79840233Y-65810000D01*
X80252676Y-65810000D01*
X80307336Y-65921810D01*
X80398189Y-66012663D01*
X80513625Y-66069096D01*
X80560000Y-66075852D01*
X80560000Y-65810000D01*
X80252676Y-65810000D01*
X79840233Y-65810000D01*
X79851614Y-65790288D01*
X79858081Y-65766149D01*
X79858084Y-65766145D01*
X79858083Y-65766145D01*
X79861763Y-65752408D01*
X79875500Y-65701144D01*
X79875500Y-65156783D01*
X79895185Y-65089744D01*
X79947989Y-65043989D01*
X79956142Y-65040610D01*
X79980226Y-65031628D01*
X80089687Y-64949687D01*
X80117301Y-64912799D01*
X80173234Y-64870927D01*
X80242926Y-64865943D01*
X80304249Y-64899428D01*
G37*
%TD.AperFunction*%
%TA.AperFunction,Conductor*%
G36*
X89902539Y-56040185D02*
G01*
X89948294Y-56092989D01*
X89959500Y-56144500D01*
X89959500Y-57443456D01*
X89950855Y-57472896D01*
X89944332Y-57502883D01*
X89940577Y-57507898D01*
X89939815Y-57510495D01*
X89923181Y-57531137D01*
X89770137Y-57684181D01*
X89708814Y-57717666D01*
X89682456Y-57720500D01*
X87300770Y-57720500D01*
X87233731Y-57700815D01*
X87187976Y-57648011D01*
X87178032Y-57578853D01*
X87186209Y-57549047D01*
X87211177Y-57488767D01*
X87211179Y-57488759D01*
X87239999Y-57343873D01*
X87240000Y-57343871D01*
X87240000Y-57220000D01*
X86790000Y-57220000D01*
X86790000Y-56720000D01*
X87240000Y-56720000D01*
X87240000Y-56596128D01*
X87239999Y-56596126D01*
X87211179Y-56451240D01*
X87211177Y-56451232D01*
X87154642Y-56314745D01*
X87154637Y-56314735D01*
X87086921Y-56213391D01*
X87066043Y-56146713D01*
X87084528Y-56079333D01*
X87136506Y-56032643D01*
X87190023Y-56020500D01*
X89835500Y-56020500D01*
X89902539Y-56040185D01*
G37*
%TD.AperFunction*%
%TD*%
M02*
