%TF.GenerationSoftware,KiCad,Pcbnew,9.0.6*%
%TF.CreationDate,2025-12-14T11:18:03-08:00*%
%TF.ProjectId,devboard,64657662-6f61-4726-942e-6b696361645f,rev?*%
%TF.SameCoordinates,Original*%
%TF.FileFunction,Copper,L2,Bot*%
%TF.FilePolarity,Positive*%
%FSLAX46Y46*%
G04 Gerber Fmt 4.6, Leading zero omitted, Abs format (unit mm)*
G04 Created by KiCad (PCBNEW 9.0.6) date 2025-12-14 11:18:03*
%MOMM*%
%LPD*%
G01*
G04 APERTURE LIST*
%TA.AperFunction,HeatsinkPad*%
%ADD10O,1.000000X2.100000*%
%TD*%
%TA.AperFunction,HeatsinkPad*%
%ADD11O,1.000000X1.600000*%
%TD*%
%TA.AperFunction,ComponentPad*%
%ADD12R,1.700000X1.700000*%
%TD*%
%TA.AperFunction,ComponentPad*%
%ADD13C,1.700000*%
%TD*%
%TA.AperFunction,ViaPad*%
%ADD14C,0.600000*%
%TD*%
%TA.AperFunction,Conductor*%
%ADD15C,0.200000*%
%TD*%
G04 APERTURE END LIST*
D10*
%TO.P,J1,S1,SHIELD*%
%TO.N,GND*%
X86490000Y-61150000D03*
D11*
X86490000Y-56970000D03*
D10*
X77850000Y-61150000D03*
D11*
X77850000Y-56970000D03*
%TD*%
D12*
%TO.P,J4,1,Pin_1*%
%TO.N,SWD*%
X84660000Y-104900000D03*
D13*
%TO.P,J4,2,Pin_2*%
%TO.N,GND*%
X82120000Y-104900000D03*
%TO.P,J4,3,Pin_3*%
%TO.N,SWCLK*%
X79580000Y-104900000D03*
%TD*%
D12*
%TO.P,J2,1,Pin_1*%
%TO.N,VBUS*%
X91060000Y-56890000D03*
D13*
%TO.P,J2,2,Pin_2*%
%TO.N,GND*%
X91060000Y-59430000D03*
%TO.P,J2,3,Pin_3*%
%TO.N,GPIO29*%
X91060000Y-61970000D03*
%TO.P,J2,4,Pin_4*%
%TO.N,GPIO28*%
X91060000Y-64510000D03*
%TO.P,J2,5,Pin_5*%
%TO.N,+3V3*%
X91060000Y-67050000D03*
%TO.P,J2,6,Pin_6*%
%TO.N,GPIO27*%
X91060000Y-69590000D03*
%TO.P,J2,7,Pin_7*%
%TO.N,GPIO26*%
X91060000Y-72130000D03*
%TO.P,J2,8,Pin_8*%
%TO.N,GND*%
X91060000Y-74670000D03*
%TO.P,J2,9,Pin_9*%
%TO.N,GPIO24*%
X91060000Y-77210000D03*
%TO.P,J2,10,Pin_10*%
%TO.N,GPIO23*%
X91060000Y-79750000D03*
%TO.P,J2,11,Pin_11*%
%TO.N,RUN*%
X91060000Y-82290000D03*
%TO.P,J2,12,Pin_12*%
%TO.N,GPIO22*%
X91060000Y-84830000D03*
%TO.P,J2,13,Pin_13*%
%TO.N,GND*%
X91060000Y-87370000D03*
%TO.P,J2,14,Pin_14*%
%TO.N,GPIO21*%
X91060000Y-89910000D03*
%TO.P,J2,15,Pin_15*%
%TO.N,GPIO20*%
X91060000Y-92450000D03*
%TO.P,J2,16,Pin_16*%
%TO.N,GPIO19*%
X91060000Y-94990000D03*
%TO.P,J2,17,Pin_17*%
%TO.N,GPIO18*%
X91060000Y-97530000D03*
%TO.P,J2,18,Pin_18*%
%TO.N,GND*%
X91060000Y-100070000D03*
%TO.P,J2,19,Pin_19*%
%TO.N,GPIO17*%
X91060000Y-102610000D03*
%TO.P,J2,20,Pin_20*%
%TO.N,GPIO16*%
X91060000Y-105150000D03*
%TD*%
D12*
%TO.P,J3,1,Pin_1*%
%TO.N,GPIO0*%
X73280000Y-56890000D03*
D13*
%TO.P,J3,2,Pin_2*%
%TO.N,GPIO1*%
X73280000Y-59430000D03*
%TO.P,J3,3,Pin_3*%
%TO.N,GND*%
X73280000Y-61970000D03*
%TO.P,J3,4,Pin_4*%
%TO.N,GPIO2*%
X73280000Y-64510000D03*
%TO.P,J3,5,Pin_5*%
%TO.N,GPIO3*%
X73280000Y-67050000D03*
%TO.P,J3,6,Pin_6*%
%TO.N,GPIO4*%
X73280000Y-69590000D03*
%TO.P,J3,7,Pin_7*%
%TO.N,GPIO5*%
X73280000Y-72130000D03*
%TO.P,J3,8,Pin_8*%
%TO.N,GND*%
X73280000Y-74670000D03*
%TO.P,J3,9,Pin_9*%
%TO.N,GPIO6*%
X73280000Y-77210000D03*
%TO.P,J3,10,Pin_10*%
%TO.N,GPIO7*%
X73280000Y-79750000D03*
%TO.P,J3,11,Pin_11*%
%TO.N,GPIO8*%
X73280000Y-82290000D03*
%TO.P,J3,12,Pin_12*%
%TO.N,GPIO9*%
X73280000Y-84830000D03*
%TO.P,J3,13,Pin_13*%
%TO.N,GND*%
X73280000Y-87370000D03*
%TO.P,J3,14,Pin_14*%
%TO.N,GPIO10*%
X73280000Y-89910000D03*
%TO.P,J3,15,Pin_15*%
%TO.N,GPIO11*%
X73280000Y-92450000D03*
%TO.P,J3,16,Pin_16*%
%TO.N,GPIO12*%
X73280000Y-94990000D03*
%TO.P,J3,17,Pin_17*%
%TO.N,GPIO13*%
X73280000Y-97530000D03*
%TO.P,J3,18,Pin_18*%
%TO.N,GND*%
X73280000Y-100070000D03*
%TO.P,J3,19,Pin_19*%
%TO.N,GPIO14*%
X73280000Y-102610000D03*
%TO.P,J3,20,Pin_20*%
%TO.N,GPIO15*%
X73280000Y-105150000D03*
%TD*%
D14*
%TO.N,VBUS*%
X79530000Y-102100000D03*
%TO.N,GPIO25*%
X86560000Y-95380000D03*
%TO.N,+3V3*%
X83680000Y-77660000D03*
X82570000Y-81489566D03*
X80960000Y-69370000D03*
%TO.N,GND*%
X82120000Y-76610000D03*
X89980000Y-75860000D03*
X76020000Y-56960000D03*
X89090000Y-88980000D03*
X79270000Y-73900000D03*
X86470000Y-63030000D03*
X73960000Y-75810000D03*
X88730000Y-105560000D03*
X87409265Y-87510735D03*
X89640000Y-98830000D03*
X77290000Y-80250000D03*
X83850000Y-83450000D03*
X80041446Y-65960425D03*
X78730000Y-95450000D03*
X75620000Y-105510000D03*
X75760000Y-88600000D03*
X81750000Y-74400000D03*
X78439000Y-78978770D03*
X81011044Y-88053246D03*
X89380000Y-57240000D03*
X86920000Y-78920000D03*
X75300000Y-86700000D03*
%TO.N,+1V1*%
X82220000Y-87620002D03*
X83344992Y-78386479D03*
X84810000Y-79880000D03*
%TO.N,VBUS*%
X77860000Y-65720000D03*
%TO.N,GPIO25*%
X88210000Y-88070000D03*
X89020000Y-86720000D03*
X88400000Y-84620000D03*
%TO.N,RUN*%
X84689959Y-87521001D03*
%TO.N,GPIO21*%
X84270000Y-85211034D03*
%TO.N,GPIO23*%
X90230000Y-80810000D03*
X89707044Y-83702786D03*
%TO.N,GPIO1*%
X77004000Y-83060000D03*
%TO.N,GPIO0*%
X77790132Y-82911673D03*
%TO.N,GPIO8*%
X79760000Y-87860000D03*
%TO.N,GPIO2*%
X77004000Y-83920000D03*
%TO.N,SWD*%
X83867509Y-87660380D03*
%TO.N,SWCLK*%
X83068527Y-87619999D03*
%TO.N,QSPI_SS*%
X79940000Y-71389265D03*
X84500000Y-69980000D03*
%TD*%
D15*
%TO.N,VBUS*%
X79460000Y-102030000D02*
X79530000Y-102100000D01*
X79460000Y-100060000D02*
X79460000Y-102030000D01*
X80361000Y-99159000D02*
X79460000Y-100060000D01*
%TO.N,GPIO25*%
X86560000Y-89720000D02*
X86560000Y-95380000D01*
X88210000Y-88070000D02*
X86560000Y-89720000D01*
%TO.N,+3V3*%
X80960000Y-69370000D02*
X88740000Y-69370000D01*
X82060000Y-77890000D02*
X82060000Y-80979566D01*
X83680000Y-77660000D02*
X82290000Y-77660000D01*
X88740000Y-69370000D02*
X91060000Y-67050000D01*
X82060000Y-80979566D02*
X82570000Y-81489566D01*
X82290000Y-77660000D02*
X82060000Y-77890000D01*
%TO.N,GND*%
X78980000Y-78437770D02*
X78439000Y-78978770D01*
X78980000Y-74190000D02*
X78980000Y-78437770D01*
X82690000Y-66590000D02*
X82740000Y-66540000D01*
X77290000Y-80250000D02*
X77290000Y-80127770D01*
X81011044Y-75138956D02*
X81750000Y-74400000D01*
X77290000Y-80127770D02*
X78439000Y-78978770D01*
X81011044Y-88053246D02*
X81011044Y-75138956D01*
X81830000Y-97240000D02*
X81820000Y-97250000D01*
X79270000Y-73900000D02*
X78980000Y-74190000D01*
X78730000Y-95450000D02*
X78750000Y-95470000D01*
%TO.N,+1V1*%
X83344992Y-78414992D02*
X84810000Y-79880000D01*
X84810000Y-79880000D02*
X84900000Y-79880000D01*
X84810000Y-80670000D02*
X84810000Y-79880000D01*
X83344992Y-78386479D02*
X83344992Y-78414992D01*
X82220000Y-87620002D02*
X82220000Y-83260000D01*
X82220000Y-83260000D02*
X84810000Y-80670000D01*
%TO.N,VBUS*%
X77860000Y-70159208D02*
X77860000Y-65720000D01*
X80361000Y-72660208D02*
X77860000Y-70159208D01*
%TO.N,GPIO25*%
X88400000Y-86100000D02*
X89020000Y-86720000D01*
X88400000Y-84620000D02*
X88400000Y-86100000D01*
%TO.N,RUN*%
X89458101Y-84303786D02*
X89956214Y-84303786D01*
X83669000Y-84962091D02*
X85377248Y-83253843D01*
X89956214Y-84303786D02*
X91060000Y-83200000D01*
X91060000Y-83200000D02*
X91060000Y-82290000D01*
X88408158Y-83253843D02*
X89458101Y-84303786D01*
X84689959Y-87521001D02*
X83669000Y-86500042D01*
X85377248Y-83253843D02*
X88408158Y-83253843D01*
X83669000Y-86500042D02*
X83669000Y-84962091D01*
%TO.N,GPIO21*%
X86361034Y-85211034D02*
X91060000Y-89910000D01*
X84270000Y-85211034D02*
X86361034Y-85211034D01*
%TO.N,GPIO23*%
X89707044Y-81332956D02*
X90230000Y-80810000D01*
X89707044Y-83702786D02*
X89707044Y-81332956D01*
%TO.N,GPIO1*%
X73280000Y-59430000D02*
X75788000Y-61938000D01*
X75788000Y-81844000D02*
X77004000Y-83060000D01*
X75788000Y-61938000D02*
X75788000Y-81844000D01*
%TO.N,GPIO0*%
X76189000Y-81310541D02*
X77790132Y-82911673D01*
X73280000Y-56890000D02*
X76189000Y-59799000D01*
X76189000Y-59799000D02*
X76189000Y-81310541D01*
%TO.N,GPIO8*%
X78850000Y-87860000D02*
X73280000Y-82290000D01*
X79760000Y-87860000D02*
X78850000Y-87860000D01*
%TO.N,GPIO2*%
X75387000Y-82292943D02*
X75387000Y-66617000D01*
X76755057Y-83661000D02*
X75387000Y-82292943D01*
X77631748Y-83920000D02*
X77890748Y-83661000D01*
X75387000Y-66617000D02*
X73280000Y-64510000D01*
X77890748Y-83661000D02*
X76755057Y-83661000D01*
X77004000Y-83920000D02*
X77631748Y-83920000D01*
%TO.N,SWD*%
X83550000Y-87977889D02*
X83550000Y-103790000D01*
X83867509Y-87660380D02*
X83550000Y-87977889D01*
X83550000Y-103790000D02*
X84660000Y-104900000D01*
%TO.N,SWCLK*%
X83068527Y-87619999D02*
X83068527Y-101411473D01*
X83068527Y-101411473D02*
X79580000Y-104900000D01*
%TO.N,QSPI_SS*%
X81349265Y-69980000D02*
X84500000Y-69980000D01*
X79940000Y-71389265D02*
X81349265Y-69980000D01*
%TO.N,VBUS*%
X80361000Y-99159000D02*
X80361000Y-72660208D01*
%TD*%
%TA.AperFunction,Conductor*%
%TO.N,GND*%
G36*
X92131920Y-67687895D02*
G01*
X92166278Y-67748734D01*
X92169500Y-67776819D01*
X92169500Y-68863180D01*
X92149815Y-68930219D01*
X92097011Y-68975974D01*
X92027853Y-68985918D01*
X91964297Y-68956893D01*
X91945183Y-68936066D01*
X91899418Y-68873078D01*
X91899414Y-68873072D01*
X91776928Y-68750586D01*
X91636788Y-68648768D01*
X91482445Y-68570127D01*
X91317701Y-68516598D01*
X91317699Y-68516597D01*
X91317698Y-68516597D01*
X91186271Y-68495781D01*
X91146611Y-68489500D01*
X90973389Y-68489500D01*
X90933728Y-68495781D01*
X90802302Y-68516597D01*
X90637552Y-68570128D01*
X90483211Y-68648768D01*
X90403256Y-68706859D01*
X90343072Y-68750586D01*
X90343070Y-68750588D01*
X90343069Y-68750588D01*
X90220588Y-68873069D01*
X90220588Y-68873070D01*
X90220586Y-68873072D01*
X90220582Y-68873078D01*
X90118768Y-69013211D01*
X90040128Y-69167552D01*
X89986597Y-69332302D01*
X89959500Y-69503389D01*
X89959500Y-69676610D01*
X89980707Y-69810510D01*
X89986598Y-69847701D01*
X90040127Y-70012445D01*
X90118768Y-70166788D01*
X90220586Y-70306928D01*
X90343072Y-70429414D01*
X90483212Y-70531232D01*
X90637555Y-70609873D01*
X90802299Y-70663402D01*
X90973389Y-70690500D01*
X90973390Y-70690500D01*
X91146610Y-70690500D01*
X91146611Y-70690500D01*
X91317701Y-70663402D01*
X91482445Y-70609873D01*
X91636788Y-70531232D01*
X91776928Y-70429414D01*
X91899414Y-70306928D01*
X91945183Y-70243931D01*
X92000512Y-70201268D01*
X92070125Y-70195289D01*
X92131920Y-70227895D01*
X92166278Y-70288734D01*
X92169500Y-70316819D01*
X92169500Y-71403180D01*
X92149815Y-71470219D01*
X92097011Y-71515974D01*
X92027853Y-71525918D01*
X91964297Y-71496893D01*
X91945183Y-71476066D01*
X91899418Y-71413078D01*
X91899414Y-71413072D01*
X91776928Y-71290586D01*
X91636788Y-71188768D01*
X91526064Y-71132352D01*
X91482447Y-71110128D01*
X91482446Y-71110127D01*
X91482445Y-71110127D01*
X91317701Y-71056598D01*
X91317699Y-71056597D01*
X91317698Y-71056597D01*
X91186271Y-71035781D01*
X91146611Y-71029500D01*
X90973389Y-71029500D01*
X90933728Y-71035781D01*
X90802302Y-71056597D01*
X90637552Y-71110128D01*
X90483211Y-71188768D01*
X90403256Y-71246859D01*
X90343072Y-71290586D01*
X90343070Y-71290588D01*
X90343069Y-71290588D01*
X90220588Y-71413069D01*
X90220588Y-71413070D01*
X90220586Y-71413072D01*
X90220582Y-71413078D01*
X90118768Y-71553211D01*
X90040128Y-71707552D01*
X89986597Y-71872302D01*
X89981854Y-71902249D01*
X89959500Y-72043389D01*
X89959500Y-72216611D01*
X89986598Y-72387701D01*
X90040127Y-72552445D01*
X90118768Y-72706788D01*
X90220586Y-72846928D01*
X90343072Y-72969414D01*
X90483212Y-73071232D01*
X90637555Y-73149873D01*
X90802299Y-73203402D01*
X90973389Y-73230500D01*
X90973390Y-73230500D01*
X91146610Y-73230500D01*
X91146611Y-73230500D01*
X91317701Y-73203402D01*
X91482445Y-73149873D01*
X91636788Y-73071232D01*
X91776928Y-72969414D01*
X91899414Y-72846928D01*
X91945183Y-72783931D01*
X92000512Y-72741268D01*
X92070125Y-72735289D01*
X92131920Y-72767895D01*
X92166278Y-72828734D01*
X92169500Y-72856819D01*
X92169500Y-73966751D01*
X92149815Y-74033790D01*
X92097011Y-74079545D01*
X92035772Y-74090369D01*
X91996289Y-74087261D01*
X91542962Y-74540589D01*
X91525925Y-74477007D01*
X91460099Y-74362993D01*
X91367007Y-74269901D01*
X91252993Y-74204075D01*
X91189409Y-74187037D01*
X91642737Y-73733709D01*
X91636525Y-73729196D01*
X91482259Y-73650592D01*
X91317584Y-73597085D01*
X91146571Y-73570000D01*
X90973429Y-73570000D01*
X90802415Y-73597085D01*
X90637740Y-73650592D01*
X90483480Y-73729193D01*
X90483463Y-73729203D01*
X90477261Y-73733708D01*
X90477261Y-73733709D01*
X90930590Y-74187037D01*
X90867007Y-74204075D01*
X90752993Y-74269901D01*
X90659901Y-74362993D01*
X90594075Y-74477007D01*
X90577037Y-74540590D01*
X90123709Y-74087261D01*
X90123708Y-74087261D01*
X90119203Y-74093463D01*
X90119193Y-74093480D01*
X90040592Y-74247740D01*
X89987085Y-74412415D01*
X89960000Y-74583428D01*
X89960000Y-74756571D01*
X89987085Y-74927584D01*
X90040592Y-75092259D01*
X90119196Y-75246525D01*
X90123709Y-75252736D01*
X90123709Y-75252737D01*
X90577037Y-74799409D01*
X90594075Y-74862993D01*
X90659901Y-74977007D01*
X90752993Y-75070099D01*
X90867007Y-75135925D01*
X90930589Y-75152962D01*
X90477261Y-75606289D01*
X90477262Y-75606290D01*
X90483471Y-75610801D01*
X90637742Y-75689408D01*
X90802415Y-75742914D01*
X90973429Y-75770000D01*
X91146571Y-75770000D01*
X91317584Y-75742914D01*
X91482257Y-75689408D01*
X91636525Y-75610803D01*
X91642736Y-75606289D01*
X91642737Y-75606289D01*
X91189410Y-75152962D01*
X91252993Y-75135925D01*
X91367007Y-75070099D01*
X91460099Y-74977007D01*
X91525925Y-74862993D01*
X91542962Y-74799409D01*
X91996288Y-75252736D01*
X92035774Y-75249630D01*
X92104151Y-75263996D01*
X92153907Y-75313048D01*
X92169500Y-75373248D01*
X92169500Y-76483180D01*
X92149815Y-76550219D01*
X92097011Y-76595974D01*
X92027853Y-76605918D01*
X91964297Y-76576893D01*
X91945183Y-76556066D01*
X91899418Y-76493078D01*
X91899414Y-76493072D01*
X91776928Y-76370586D01*
X91636788Y-76268768D01*
X91482445Y-76190127D01*
X91317701Y-76136598D01*
X91317699Y-76136597D01*
X91317698Y-76136597D01*
X91186271Y-76115781D01*
X91146611Y-76109500D01*
X90973389Y-76109500D01*
X90933728Y-76115781D01*
X90802302Y-76136597D01*
X90637552Y-76190128D01*
X90483211Y-76268768D01*
X90403256Y-76326859D01*
X90343072Y-76370586D01*
X90343070Y-76370588D01*
X90343069Y-76370588D01*
X90220588Y-76493069D01*
X90220588Y-76493070D01*
X90220586Y-76493072D01*
X90220582Y-76493078D01*
X90118768Y-76633211D01*
X90040128Y-76787552D01*
X89986597Y-76952302D01*
X89961700Y-77109500D01*
X89959500Y-77123389D01*
X89959500Y-77296611D01*
X89986598Y-77467701D01*
X90040127Y-77632445D01*
X90118768Y-77786788D01*
X90220586Y-77926928D01*
X90343072Y-78049414D01*
X90483212Y-78151232D01*
X90637555Y-78229873D01*
X90802299Y-78283402D01*
X90973389Y-78310500D01*
X90973390Y-78310500D01*
X91146610Y-78310500D01*
X91146611Y-78310500D01*
X91317701Y-78283402D01*
X91482445Y-78229873D01*
X91636788Y-78151232D01*
X91776928Y-78049414D01*
X91899414Y-77926928D01*
X91945183Y-77863931D01*
X92000512Y-77821268D01*
X92070125Y-77815289D01*
X92131920Y-77847895D01*
X92166278Y-77908734D01*
X92169500Y-77936819D01*
X92169500Y-79023180D01*
X92149815Y-79090219D01*
X92097011Y-79135974D01*
X92027853Y-79145918D01*
X91964297Y-79116893D01*
X91945183Y-79096066D01*
X91899418Y-79033078D01*
X91899414Y-79033072D01*
X91776928Y-78910586D01*
X91636788Y-78808768D01*
X91482445Y-78730127D01*
X91317701Y-78676598D01*
X91317699Y-78676597D01*
X91317698Y-78676597D01*
X91186271Y-78655781D01*
X91146611Y-78649500D01*
X90973389Y-78649500D01*
X90933728Y-78655781D01*
X90802302Y-78676597D01*
X90802299Y-78676598D01*
X90654892Y-78724494D01*
X90637552Y-78730128D01*
X90483211Y-78808768D01*
X90403256Y-78866859D01*
X90343072Y-78910586D01*
X90343070Y-78910588D01*
X90343069Y-78910588D01*
X90220588Y-79033069D01*
X90220588Y-79033070D01*
X90220586Y-79033072D01*
X90220582Y-79033078D01*
X90118768Y-79173211D01*
X90040128Y-79327552D01*
X89986597Y-79492302D01*
X89978728Y-79541988D01*
X89959500Y-79663389D01*
X89959500Y-79836611D01*
X89986598Y-80007701D01*
X90039608Y-80170847D01*
X90041603Y-80240687D01*
X90005523Y-80300520D01*
X89983678Y-80316550D01*
X89891991Y-80369486D01*
X89891982Y-80369493D01*
X89789493Y-80471982D01*
X89789488Y-80471988D01*
X89717017Y-80597511D01*
X89717016Y-80597515D01*
X89679500Y-80737525D01*
X89679500Y-80737527D01*
X89679500Y-80813456D01*
X89659815Y-80880495D01*
X89643181Y-80901137D01*
X89426575Y-81117742D01*
X89426569Y-81117750D01*
X89388779Y-81183206D01*
X89388779Y-81183207D01*
X89380431Y-81197665D01*
X89380430Y-81197668D01*
X89356544Y-81286812D01*
X89356544Y-83223400D01*
X89349203Y-83248399D01*
X89345654Y-83274214D01*
X89338635Y-83284389D01*
X89336859Y-83290439D01*
X89326756Y-83304023D01*
X89323629Y-83307676D01*
X89266535Y-83364771D01*
X89249456Y-83394351D01*
X89242006Y-83403058D01*
X89221941Y-83416127D01*
X89204611Y-83432652D01*
X89193199Y-83434851D01*
X89183462Y-83441194D01*
X89159517Y-83441341D01*
X89136004Y-83445873D01*
X89125214Y-83441553D01*
X89113594Y-83441625D01*
X89093369Y-83428803D01*
X89071140Y-83419903D01*
X89060113Y-83410116D01*
X88623371Y-82973374D01*
X88623366Y-82973370D01*
X88543446Y-82927229D01*
X88543439Y-82927227D01*
X88534054Y-82924712D01*
X88534053Y-82924712D01*
X88494177Y-82914027D01*
X88454302Y-82903343D01*
X85331104Y-82903343D01*
X85251353Y-82924712D01*
X85251352Y-82924712D01*
X85241962Y-82927227D01*
X85241961Y-82927228D01*
X85162038Y-82973372D01*
X85162032Y-82973376D01*
X83388529Y-84746879D01*
X83377285Y-84766354D01*
X83372533Y-84774587D01*
X83357459Y-84800695D01*
X83342386Y-84826802D01*
X83318500Y-84915947D01*
X83318500Y-86546185D01*
X83342386Y-86635329D01*
X83342387Y-86635332D01*
X83388527Y-86715250D01*
X83388531Y-86715255D01*
X83645772Y-86972496D01*
X83657753Y-86994437D01*
X83673209Y-87014092D01*
X83674210Y-87024576D01*
X83679257Y-87033819D01*
X83677473Y-87058756D01*
X83679850Y-87083645D01*
X83675024Y-87093005D01*
X83674273Y-87103511D01*
X83659289Y-87123526D01*
X83647833Y-87145748D01*
X83635240Y-87155650D01*
X83632401Y-87159444D01*
X83620090Y-87167565D01*
X83559545Y-87202520D01*
X83491645Y-87218992D01*
X83425618Y-87196139D01*
X83409865Y-87182813D01*
X83406544Y-87179492D01*
X83406538Y-87179487D01*
X83281015Y-87107016D01*
X83281016Y-87107016D01*
X83266715Y-87103184D01*
X83141002Y-87069499D01*
X82996052Y-87069499D01*
X82870339Y-87103184D01*
X82856038Y-87107016D01*
X82756500Y-87164485D01*
X82688600Y-87180958D01*
X82622573Y-87158105D01*
X82579382Y-87103184D01*
X82570500Y-87057098D01*
X82570500Y-83456544D01*
X82590185Y-83389505D01*
X82606819Y-83368863D01*
X83793969Y-82181713D01*
X85090470Y-80885212D01*
X85136614Y-80805288D01*
X85147715Y-80763857D01*
X85160500Y-80716144D01*
X85160500Y-80359386D01*
X85180185Y-80292347D01*
X85196819Y-80271705D01*
X85250509Y-80218015D01*
X85322984Y-80092485D01*
X85360500Y-79952475D01*
X85360500Y-79807525D01*
X85322984Y-79667515D01*
X85250509Y-79541985D01*
X85148015Y-79439491D01*
X85148013Y-79439490D01*
X85148011Y-79439488D01*
X85022488Y-79367017D01*
X85022489Y-79367017D01*
X85011006Y-79363940D01*
X84882475Y-79329500D01*
X84882472Y-79329500D01*
X84806544Y-79329500D01*
X84739505Y-79309815D01*
X84718863Y-79293181D01*
X83931811Y-78506129D01*
X83919265Y-78483152D01*
X83903488Y-78462256D01*
X83901295Y-78450244D01*
X83898326Y-78444806D01*
X83895845Y-78427800D01*
X83895492Y-78423132D01*
X83895492Y-78314004D01*
X83883992Y-78271087D01*
X83883119Y-78259538D01*
X83888087Y-78236242D01*
X83888654Y-78212429D01*
X83895241Y-78202696D01*
X83897692Y-78191205D01*
X83914464Y-78174294D01*
X83927817Y-78154567D01*
X83944762Y-78142801D01*
X84018015Y-78100509D01*
X84120509Y-77998015D01*
X84192984Y-77872485D01*
X84230500Y-77732475D01*
X84230500Y-77587525D01*
X84192984Y-77447515D01*
X84153733Y-77379531D01*
X84120511Y-77321988D01*
X84120506Y-77321982D01*
X84018017Y-77219493D01*
X84018011Y-77219488D01*
X83892488Y-77147017D01*
X83892489Y-77147017D01*
X83881006Y-77143940D01*
X83752475Y-77109500D01*
X83607525Y-77109500D01*
X83478993Y-77143940D01*
X83467511Y-77147017D01*
X83341988Y-77219488D01*
X83341982Y-77219493D01*
X83288295Y-77273181D01*
X83226972Y-77306666D01*
X83200614Y-77309500D01*
X82243856Y-77309500D01*
X82154712Y-77333386D01*
X82154709Y-77333387D01*
X82074791Y-77379527D01*
X82074786Y-77379531D01*
X81779531Y-77674786D01*
X81779527Y-77674791D01*
X81733387Y-77754709D01*
X81733386Y-77754712D01*
X81709500Y-77843856D01*
X81709500Y-81025710D01*
X81733157Y-81113997D01*
X81733386Y-81114853D01*
X81733387Y-81114856D01*
X81779527Y-81194774D01*
X81779531Y-81194779D01*
X81983181Y-81398429D01*
X82016666Y-81459752D01*
X82019500Y-81486110D01*
X82019500Y-81562041D01*
X82052614Y-81685622D01*
X82057017Y-81702054D01*
X82129488Y-81827577D01*
X82129490Y-81827579D01*
X82129491Y-81827581D01*
X82231985Y-81930075D01*
X82231986Y-81930076D01*
X82231988Y-81930077D01*
X82357511Y-82002548D01*
X82357512Y-82002548D01*
X82357515Y-82002550D01*
X82497525Y-82040066D01*
X82497528Y-82040066D01*
X82644890Y-82040066D01*
X82711929Y-82059751D01*
X82757684Y-82112555D01*
X82767628Y-82181713D01*
X82738603Y-82245269D01*
X82732571Y-82251747D01*
X81939532Y-83044785D01*
X81939528Y-83044791D01*
X81904106Y-83106142D01*
X81904107Y-83106143D01*
X81893386Y-83124711D01*
X81893386Y-83124712D01*
X81869500Y-83213856D01*
X81869500Y-87140616D01*
X81849815Y-87207655D01*
X81833181Y-87228297D01*
X81779493Y-87281984D01*
X81779488Y-87281990D01*
X81707017Y-87407513D01*
X81707016Y-87407517D01*
X81669500Y-87547527D01*
X81669500Y-87692477D01*
X81696237Y-87792259D01*
X81707017Y-87832490D01*
X81779488Y-87958013D01*
X81779490Y-87958015D01*
X81779491Y-87958017D01*
X81881985Y-88060511D01*
X81881986Y-88060512D01*
X81881988Y-88060513D01*
X82007511Y-88132984D01*
X82007512Y-88132984D01*
X82007515Y-88132986D01*
X82147525Y-88170502D01*
X82147528Y-88170502D01*
X82292472Y-88170502D01*
X82292475Y-88170502D01*
X82432485Y-88132986D01*
X82532028Y-88075514D01*
X82599926Y-88059042D01*
X82665953Y-88081894D01*
X82709144Y-88136815D01*
X82718027Y-88182902D01*
X82718027Y-101214928D01*
X82698342Y-101281967D01*
X82681708Y-101302609D01*
X80132969Y-103851347D01*
X80071646Y-103884832D01*
X80006970Y-103881597D01*
X79837698Y-103826597D01*
X79706271Y-103805781D01*
X79666611Y-103799500D01*
X79493389Y-103799500D01*
X79453728Y-103805781D01*
X79322302Y-103826597D01*
X79157552Y-103880128D01*
X79003211Y-103958768D01*
X78939286Y-104005213D01*
X78863072Y-104060586D01*
X78863070Y-104060588D01*
X78863069Y-104060588D01*
X78740588Y-104183069D01*
X78740588Y-104183070D01*
X78740586Y-104183072D01*
X78721917Y-104208768D01*
X78638768Y-104323211D01*
X78560128Y-104477552D01*
X78506597Y-104642302D01*
X78496349Y-104707007D01*
X78479500Y-104813389D01*
X78479500Y-104986611D01*
X78506598Y-105157701D01*
X78560127Y-105322445D01*
X78638768Y-105476788D01*
X78740586Y-105616928D01*
X78863072Y-105739414D01*
X78911603Y-105774674D01*
X78939830Y-105795182D01*
X78982495Y-105850513D01*
X78988474Y-105920126D01*
X78955868Y-105981921D01*
X78895029Y-106016278D01*
X78866944Y-106019500D01*
X74251928Y-106019500D01*
X74184889Y-105999815D01*
X74139134Y-105947011D01*
X74129190Y-105877853D01*
X74151610Y-105822614D01*
X74157653Y-105814297D01*
X74221232Y-105726788D01*
X74299873Y-105572445D01*
X74353402Y-105407701D01*
X74380500Y-105236611D01*
X74380500Y-105063389D01*
X74353402Y-104892299D01*
X74299873Y-104727555D01*
X74221232Y-104573212D01*
X74119414Y-104433072D01*
X73996928Y-104310586D01*
X73856788Y-104208768D01*
X73702445Y-104130127D01*
X73537701Y-104076598D01*
X73537699Y-104076597D01*
X73537698Y-104076597D01*
X73406271Y-104055781D01*
X73366611Y-104049500D01*
X73193389Y-104049500D01*
X73153728Y-104055781D01*
X73022302Y-104076597D01*
X72857552Y-104130128D01*
X72703211Y-104208768D01*
X72634262Y-104258863D01*
X72563072Y-104310586D01*
X72563070Y-104310588D01*
X72563069Y-104310588D01*
X72440588Y-104433069D01*
X72440581Y-104433078D01*
X72394817Y-104496066D01*
X72339487Y-104538732D01*
X72269874Y-104544710D01*
X72208079Y-104512104D01*
X72173722Y-104451265D01*
X72170500Y-104423180D01*
X72170500Y-103336819D01*
X72190185Y-103269780D01*
X72242989Y-103224025D01*
X72312147Y-103214081D01*
X72375703Y-103243106D01*
X72394814Y-103263929D01*
X72440586Y-103326928D01*
X72563072Y-103449414D01*
X72703212Y-103551232D01*
X72857555Y-103629873D01*
X73022299Y-103683402D01*
X73193389Y-103710500D01*
X73193390Y-103710500D01*
X73366610Y-103710500D01*
X73366611Y-103710500D01*
X73537701Y-103683402D01*
X73702445Y-103629873D01*
X73856788Y-103551232D01*
X73996928Y-103449414D01*
X74119414Y-103326928D01*
X74221232Y-103186788D01*
X74299873Y-103032445D01*
X74353402Y-102867701D01*
X74380500Y-102696611D01*
X74380500Y-102523389D01*
X74353402Y-102352299D01*
X74299873Y-102187555D01*
X74221232Y-102033212D01*
X74119414Y-101893072D01*
X73996928Y-101770586D01*
X73856788Y-101668768D01*
X73702445Y-101590127D01*
X73537701Y-101536598D01*
X73537699Y-101536597D01*
X73537698Y-101536597D01*
X73406271Y-101515781D01*
X73366611Y-101509500D01*
X73193389Y-101509500D01*
X73153728Y-101515781D01*
X73022302Y-101536597D01*
X72857552Y-101590128D01*
X72703211Y-101668768D01*
X72623256Y-101726859D01*
X72563072Y-101770586D01*
X72563070Y-101770588D01*
X72563069Y-101770588D01*
X72440588Y-101893069D01*
X72440581Y-101893078D01*
X72394817Y-101956066D01*
X72339487Y-101998732D01*
X72269874Y-102004710D01*
X72208079Y-101972104D01*
X72173722Y-101911265D01*
X72170500Y-101883180D01*
X72170500Y-100773247D01*
X72190185Y-100706208D01*
X72242989Y-100660453D01*
X72304231Y-100649629D01*
X72343710Y-100652736D01*
X72797037Y-100199409D01*
X72814075Y-100262993D01*
X72879901Y-100377007D01*
X72972993Y-100470099D01*
X73087007Y-100535925D01*
X73150589Y-100552962D01*
X72697261Y-101006289D01*
X72697262Y-101006290D01*
X72703471Y-101010801D01*
X72857742Y-101089408D01*
X73022415Y-101142914D01*
X73193429Y-101170000D01*
X73366571Y-101170000D01*
X73537584Y-101142914D01*
X73702257Y-101089408D01*
X73856525Y-101010803D01*
X73862736Y-101006289D01*
X73862737Y-101006289D01*
X73409410Y-100552962D01*
X73472993Y-100535925D01*
X73587007Y-100470099D01*
X73680099Y-100377007D01*
X73745925Y-100262993D01*
X73762962Y-100199410D01*
X74216289Y-100652737D01*
X74216289Y-100652736D01*
X74220803Y-100646525D01*
X74299408Y-100492257D01*
X74352914Y-100327584D01*
X74380000Y-100156571D01*
X74380000Y-99983428D01*
X74352914Y-99812415D01*
X74299408Y-99647742D01*
X74220801Y-99493471D01*
X74216290Y-99487262D01*
X74216289Y-99487261D01*
X73762962Y-99940589D01*
X73745925Y-99877007D01*
X73680099Y-99762993D01*
X73587007Y-99669901D01*
X73472993Y-99604075D01*
X73409409Y-99587037D01*
X73862737Y-99133709D01*
X73856525Y-99129196D01*
X73702259Y-99050592D01*
X73537584Y-98997085D01*
X73366571Y-98970000D01*
X73193429Y-98970000D01*
X73022415Y-98997085D01*
X72857740Y-99050592D01*
X72703480Y-99129193D01*
X72703463Y-99129203D01*
X72697261Y-99133708D01*
X72697261Y-99133709D01*
X73150590Y-99587037D01*
X73087007Y-99604075D01*
X72972993Y-99669901D01*
X72879901Y-99762993D01*
X72814075Y-99877007D01*
X72797037Y-99940590D01*
X72343709Y-99487261D01*
X72304235Y-99490370D01*
X72290622Y-99487511D01*
X72276853Y-99489491D01*
X72257104Y-99480472D01*
X72235857Y-99476010D01*
X72225950Y-99466244D01*
X72213297Y-99460466D01*
X72201559Y-99442201D01*
X72186098Y-99426961D01*
X72182270Y-99412187D01*
X72175523Y-99401688D01*
X72170500Y-99366753D01*
X72170500Y-98256819D01*
X72190185Y-98189780D01*
X72242989Y-98144025D01*
X72312147Y-98134081D01*
X72375703Y-98163106D01*
X72394814Y-98183929D01*
X72440586Y-98246928D01*
X72563072Y-98369414D01*
X72703212Y-98471232D01*
X72857555Y-98549873D01*
X73022299Y-98603402D01*
X73193389Y-98630500D01*
X73193390Y-98630500D01*
X73366610Y-98630500D01*
X73366611Y-98630500D01*
X73537701Y-98603402D01*
X73702445Y-98549873D01*
X73856788Y-98471232D01*
X73996928Y-98369414D01*
X74119414Y-98246928D01*
X74221232Y-98106788D01*
X74299873Y-97952445D01*
X74353402Y-97787701D01*
X74380500Y-97616611D01*
X74380500Y-97443389D01*
X74353402Y-97272299D01*
X74299873Y-97107555D01*
X74221232Y-96953212D01*
X74119414Y-96813072D01*
X73996928Y-96690586D01*
X73856788Y-96588768D01*
X73702445Y-96510127D01*
X73537701Y-96456598D01*
X73537699Y-96456597D01*
X73537698Y-96456597D01*
X73406271Y-96435781D01*
X73366611Y-96429500D01*
X73193389Y-96429500D01*
X73153728Y-96435781D01*
X73022302Y-96456597D01*
X72857552Y-96510128D01*
X72703211Y-96588768D01*
X72623256Y-96646859D01*
X72563072Y-96690586D01*
X72563070Y-96690588D01*
X72563069Y-96690588D01*
X72440588Y-96813069D01*
X72440581Y-96813078D01*
X72394817Y-96876066D01*
X72339487Y-96918732D01*
X72269874Y-96924710D01*
X72208079Y-96892104D01*
X72173722Y-96831265D01*
X72170500Y-96803180D01*
X72170500Y-95716819D01*
X72190185Y-95649780D01*
X72242989Y-95604025D01*
X72312147Y-95594081D01*
X72375703Y-95623106D01*
X72394814Y-95643929D01*
X72440586Y-95706928D01*
X72563072Y-95829414D01*
X72703212Y-95931232D01*
X72857555Y-96009873D01*
X73022299Y-96063402D01*
X73193389Y-96090500D01*
X73193390Y-96090500D01*
X73366610Y-96090500D01*
X73366611Y-96090500D01*
X73537701Y-96063402D01*
X73702445Y-96009873D01*
X73856788Y-95931232D01*
X73996928Y-95829414D01*
X74119414Y-95706928D01*
X74221232Y-95566788D01*
X74299873Y-95412445D01*
X74353402Y-95247701D01*
X74380500Y-95076611D01*
X74380500Y-94903389D01*
X74353402Y-94732299D01*
X74299873Y-94567555D01*
X74221232Y-94413212D01*
X74119414Y-94273072D01*
X73996928Y-94150586D01*
X73856788Y-94048768D01*
X73702445Y-93970127D01*
X73537701Y-93916598D01*
X73537699Y-93916597D01*
X73537698Y-93916597D01*
X73406271Y-93895781D01*
X73366611Y-93889500D01*
X73193389Y-93889500D01*
X73153728Y-93895781D01*
X73022302Y-93916597D01*
X72857552Y-93970128D01*
X72703211Y-94048768D01*
X72623256Y-94106859D01*
X72563072Y-94150586D01*
X72563070Y-94150588D01*
X72563069Y-94150588D01*
X72440588Y-94273069D01*
X72440581Y-94273078D01*
X72394817Y-94336066D01*
X72339487Y-94378732D01*
X72269874Y-94384710D01*
X72208079Y-94352104D01*
X72173722Y-94291265D01*
X72170500Y-94263180D01*
X72170500Y-93176819D01*
X72190185Y-93109780D01*
X72242989Y-93064025D01*
X72312147Y-93054081D01*
X72375703Y-93083106D01*
X72394814Y-93103929D01*
X72440586Y-93166928D01*
X72563072Y-93289414D01*
X72703212Y-93391232D01*
X72857555Y-93469873D01*
X73022299Y-93523402D01*
X73193389Y-93550500D01*
X73193390Y-93550500D01*
X73366610Y-93550500D01*
X73366611Y-93550500D01*
X73537701Y-93523402D01*
X73702445Y-93469873D01*
X73856788Y-93391232D01*
X73996928Y-93289414D01*
X74119414Y-93166928D01*
X74221232Y-93026788D01*
X74299873Y-92872445D01*
X74353402Y-92707701D01*
X74380500Y-92536611D01*
X74380500Y-92363389D01*
X74353402Y-92192299D01*
X74299873Y-92027555D01*
X74221232Y-91873212D01*
X74119414Y-91733072D01*
X73996928Y-91610586D01*
X73856788Y-91508768D01*
X73702445Y-91430127D01*
X73537701Y-91376598D01*
X73537699Y-91376597D01*
X73537698Y-91376597D01*
X73406271Y-91355781D01*
X73366611Y-91349500D01*
X73193389Y-91349500D01*
X73153728Y-91355781D01*
X73022302Y-91376597D01*
X72857552Y-91430128D01*
X72703211Y-91508768D01*
X72623256Y-91566859D01*
X72563072Y-91610586D01*
X72563070Y-91610588D01*
X72563069Y-91610588D01*
X72440588Y-91733069D01*
X72440581Y-91733078D01*
X72394817Y-91796066D01*
X72339487Y-91838732D01*
X72269874Y-91844710D01*
X72208079Y-91812104D01*
X72173722Y-91751265D01*
X72170500Y-91723180D01*
X72170500Y-90636819D01*
X72190185Y-90569780D01*
X72242989Y-90524025D01*
X72312147Y-90514081D01*
X72375703Y-90543106D01*
X72394814Y-90563929D01*
X72440586Y-90626928D01*
X72563072Y-90749414D01*
X72703212Y-90851232D01*
X72857555Y-90929873D01*
X73022299Y-90983402D01*
X73193389Y-91010500D01*
X73193390Y-91010500D01*
X73366610Y-91010500D01*
X73366611Y-91010500D01*
X73537701Y-90983402D01*
X73702445Y-90929873D01*
X73856788Y-90851232D01*
X73996928Y-90749414D01*
X74119414Y-90626928D01*
X74221232Y-90486788D01*
X74299873Y-90332445D01*
X74353402Y-90167701D01*
X74380500Y-89996611D01*
X74380500Y-89823389D01*
X74353402Y-89652299D01*
X74299873Y-89487555D01*
X74221232Y-89333212D01*
X74119414Y-89193072D01*
X73996928Y-89070586D01*
X73856788Y-88968768D01*
X73702445Y-88890127D01*
X73537701Y-88836598D01*
X73537699Y-88836597D01*
X73537698Y-88836597D01*
X73406271Y-88815781D01*
X73366611Y-88809500D01*
X73193389Y-88809500D01*
X73153728Y-88815781D01*
X73022302Y-88836597D01*
X72857552Y-88890128D01*
X72703211Y-88968768D01*
X72623256Y-89026859D01*
X72563072Y-89070586D01*
X72563070Y-89070588D01*
X72563069Y-89070588D01*
X72440588Y-89193069D01*
X72440581Y-89193078D01*
X72394817Y-89256066D01*
X72339487Y-89298732D01*
X72269874Y-89304710D01*
X72208079Y-89272104D01*
X72173722Y-89211265D01*
X72170500Y-89183180D01*
X72170500Y-88073247D01*
X72190185Y-88006208D01*
X72242989Y-87960453D01*
X72304231Y-87949629D01*
X72343710Y-87952736D01*
X72797037Y-87499409D01*
X72814075Y-87562993D01*
X72879901Y-87677007D01*
X72972993Y-87770099D01*
X73087007Y-87835925D01*
X73150589Y-87852962D01*
X72697261Y-88306289D01*
X72697262Y-88306290D01*
X72703471Y-88310801D01*
X72857742Y-88389408D01*
X73022415Y-88442914D01*
X73193429Y-88470000D01*
X73366571Y-88470000D01*
X73537584Y-88442914D01*
X73702257Y-88389408D01*
X73856525Y-88310803D01*
X73862736Y-88306289D01*
X73862737Y-88306289D01*
X73409410Y-87852962D01*
X73472993Y-87835925D01*
X73587007Y-87770099D01*
X73680099Y-87677007D01*
X73745925Y-87562993D01*
X73762962Y-87499410D01*
X74216289Y-87952737D01*
X74216289Y-87952736D01*
X74220803Y-87946525D01*
X74299408Y-87792257D01*
X74352914Y-87627584D01*
X74380000Y-87456571D01*
X74380000Y-87283428D01*
X74352914Y-87112415D01*
X74299408Y-86947742D01*
X74220801Y-86793471D01*
X74216290Y-86787262D01*
X74216289Y-86787261D01*
X73762962Y-87240589D01*
X73745925Y-87177007D01*
X73680099Y-87062993D01*
X73587007Y-86969901D01*
X73472993Y-86904075D01*
X73409409Y-86887037D01*
X73862737Y-86433709D01*
X73856525Y-86429196D01*
X73702259Y-86350592D01*
X73537584Y-86297085D01*
X73366571Y-86270000D01*
X73193429Y-86270000D01*
X73022415Y-86297085D01*
X72857740Y-86350592D01*
X72703480Y-86429193D01*
X72703463Y-86429203D01*
X72697261Y-86433708D01*
X72697261Y-86433709D01*
X73150590Y-86887037D01*
X73087007Y-86904075D01*
X72972993Y-86969901D01*
X72879901Y-87062993D01*
X72814075Y-87177007D01*
X72797037Y-87240590D01*
X72343709Y-86787261D01*
X72304235Y-86790370D01*
X72290622Y-86787511D01*
X72276853Y-86789491D01*
X72257104Y-86780472D01*
X72235857Y-86776010D01*
X72225950Y-86766244D01*
X72213297Y-86760466D01*
X72201559Y-86742201D01*
X72186098Y-86726961D01*
X72182270Y-86712187D01*
X72175523Y-86701688D01*
X72170500Y-86666753D01*
X72170500Y-85556819D01*
X72190185Y-85489780D01*
X72242989Y-85444025D01*
X72312147Y-85434081D01*
X72375703Y-85463106D01*
X72394814Y-85483929D01*
X72440586Y-85546928D01*
X72563072Y-85669414D01*
X72703212Y-85771232D01*
X72857555Y-85849873D01*
X73022299Y-85903402D01*
X73193389Y-85930500D01*
X73193390Y-85930500D01*
X73366610Y-85930500D01*
X73366611Y-85930500D01*
X73537701Y-85903402D01*
X73702445Y-85849873D01*
X73856788Y-85771232D01*
X73996928Y-85669414D01*
X74119414Y-85546928D01*
X74221232Y-85406788D01*
X74299873Y-85252445D01*
X74353402Y-85087701D01*
X74380500Y-84916611D01*
X74380500Y-84743389D01*
X74353402Y-84572299D01*
X74299873Y-84407555D01*
X74221232Y-84253212D01*
X74119414Y-84113072D01*
X73996928Y-83990586D01*
X73856788Y-83888768D01*
X73702445Y-83810127D01*
X73537701Y-83756598D01*
X73537699Y-83756597D01*
X73537698Y-83756597D01*
X73406271Y-83735781D01*
X73366611Y-83729500D01*
X73193389Y-83729500D01*
X73153728Y-83735781D01*
X73022302Y-83756597D01*
X72857552Y-83810128D01*
X72703211Y-83888768D01*
X72623256Y-83946859D01*
X72563072Y-83990586D01*
X72563070Y-83990588D01*
X72563069Y-83990588D01*
X72440588Y-84113069D01*
X72440581Y-84113078D01*
X72394817Y-84176066D01*
X72339487Y-84218732D01*
X72269874Y-84224710D01*
X72208079Y-84192104D01*
X72173722Y-84131265D01*
X72170500Y-84103180D01*
X72170500Y-83016819D01*
X72190185Y-82949780D01*
X72242989Y-82904025D01*
X72312147Y-82894081D01*
X72375703Y-82923106D01*
X72394814Y-82943929D01*
X72440586Y-83006928D01*
X72563072Y-83129414D01*
X72703212Y-83231232D01*
X72857555Y-83309873D01*
X73022299Y-83363402D01*
X73193389Y-83390500D01*
X73193390Y-83390500D01*
X73366610Y-83390500D01*
X73366611Y-83390500D01*
X73537701Y-83363402D01*
X73702445Y-83309873D01*
X73702447Y-83309871D01*
X73706971Y-83308402D01*
X73776812Y-83306407D01*
X73832970Y-83338652D01*
X78634788Y-88140470D01*
X78634789Y-88140471D01*
X78634791Y-88140472D01*
X78654161Y-88151655D01*
X78704085Y-88180478D01*
X78704087Y-88180480D01*
X78711342Y-88184668D01*
X78714712Y-88186614D01*
X78803856Y-88210500D01*
X78803857Y-88210500D01*
X78896144Y-88210500D01*
X79280614Y-88210500D01*
X79347653Y-88230185D01*
X79368295Y-88246819D01*
X79421985Y-88300509D01*
X79421986Y-88300510D01*
X79421988Y-88300511D01*
X79547511Y-88372982D01*
X79547512Y-88372982D01*
X79547515Y-88372984D01*
X79687525Y-88410500D01*
X79687528Y-88410500D01*
X79832472Y-88410500D01*
X79832475Y-88410500D01*
X79854407Y-88404623D01*
X79924253Y-88406284D01*
X79982117Y-88445445D01*
X80009623Y-88509672D01*
X80010500Y-88524397D01*
X80010500Y-98962456D01*
X79990815Y-99029495D01*
X79974181Y-99050137D01*
X79179531Y-99844786D01*
X79179527Y-99844791D01*
X79133387Y-99924709D01*
X79133386Y-99924712D01*
X79109500Y-100013856D01*
X79109500Y-101694102D01*
X79092887Y-101756102D01*
X79017017Y-101887511D01*
X79015527Y-101893072D01*
X78979500Y-102027525D01*
X78979500Y-102172475D01*
X78983541Y-102187555D01*
X79017017Y-102312488D01*
X79089488Y-102438011D01*
X79089490Y-102438013D01*
X79089491Y-102438015D01*
X79191985Y-102540509D01*
X79191986Y-102540510D01*
X79191988Y-102540511D01*
X79317511Y-102612982D01*
X79317512Y-102612982D01*
X79317515Y-102612984D01*
X79457525Y-102650500D01*
X79457528Y-102650500D01*
X79602472Y-102650500D01*
X79602475Y-102650500D01*
X79742485Y-102612984D01*
X79868015Y-102540509D01*
X79970509Y-102438015D01*
X80042984Y-102312485D01*
X80080500Y-102172475D01*
X80080500Y-102027525D01*
X80042984Y-101887515D01*
X79970509Y-101761985D01*
X79868015Y-101659491D01*
X79868014Y-101659490D01*
X79868011Y-101659487D01*
X79861570Y-101654545D01*
X79863238Y-101652370D01*
X79824277Y-101611499D01*
X79810500Y-101554693D01*
X79810500Y-100256543D01*
X79830185Y-100189504D01*
X79846819Y-100168862D01*
X80203266Y-99812415D01*
X80641469Y-99374212D01*
X80687614Y-99294288D01*
X80711500Y-99205144D01*
X80711500Y-72614064D01*
X80687614Y-72524920D01*
X80664852Y-72485495D01*
X80641470Y-72444996D01*
X80232669Y-72036195D01*
X80199184Y-71974872D01*
X80204168Y-71905180D01*
X80246040Y-71849247D01*
X80258346Y-71841129D01*
X80278015Y-71829774D01*
X80380509Y-71727280D01*
X80452984Y-71601750D01*
X80490500Y-71461740D01*
X80490500Y-71385809D01*
X80510185Y-71318770D01*
X80526819Y-71298128D01*
X81458128Y-70366819D01*
X81519451Y-70333334D01*
X81545809Y-70330500D01*
X84020614Y-70330500D01*
X84087653Y-70350185D01*
X84108295Y-70366819D01*
X84161985Y-70420509D01*
X84161986Y-70420510D01*
X84161988Y-70420511D01*
X84287511Y-70492982D01*
X84287512Y-70492982D01*
X84287515Y-70492984D01*
X84427525Y-70530500D01*
X84427528Y-70530500D01*
X84572472Y-70530500D01*
X84572475Y-70530500D01*
X84712485Y-70492984D01*
X84838015Y-70420509D01*
X84940509Y-70318015D01*
X85012984Y-70192485D01*
X85050500Y-70052475D01*
X85050500Y-69907525D01*
X85042212Y-69876594D01*
X85043874Y-69806745D01*
X85083036Y-69748882D01*
X85147264Y-69721377D01*
X85161986Y-69720500D01*
X88786142Y-69720500D01*
X88786144Y-69720500D01*
X88875288Y-69696614D01*
X88882612Y-69692385D01*
X88909933Y-69676612D01*
X88909934Y-69676611D01*
X88955212Y-69650470D01*
X90507031Y-68098649D01*
X90568352Y-68065166D01*
X90633029Y-68068401D01*
X90637547Y-68069869D01*
X90637555Y-68069873D01*
X90802299Y-68123402D01*
X90973389Y-68150500D01*
X90973390Y-68150500D01*
X91146610Y-68150500D01*
X91146611Y-68150500D01*
X91317701Y-68123402D01*
X91482445Y-68069873D01*
X91636788Y-67991232D01*
X91776928Y-67889414D01*
X91899414Y-67766928D01*
X91945183Y-67703931D01*
X92000512Y-67661268D01*
X92070125Y-67655289D01*
X92131920Y-67687895D01*
G37*
%TD.AperFunction*%
%TA.AperFunction,Conductor*%
G36*
X83118834Y-101959361D02*
G01*
X83174767Y-102001233D01*
X83199184Y-102066697D01*
X83199500Y-102075543D01*
X83199500Y-103836144D01*
X83222850Y-103923285D01*
X83223386Y-103925287D01*
X83223387Y-103925290D01*
X83269527Y-104005208D01*
X83269531Y-104005213D01*
X83523181Y-104258863D01*
X83556666Y-104320186D01*
X83559500Y-104346544D01*
X83559500Y-105774678D01*
X83574032Y-105847737D01*
X83574160Y-105848045D01*
X83574237Y-105848768D01*
X83576416Y-105859719D01*
X83575436Y-105859913D01*
X83581630Y-105917514D01*
X83550357Y-105979994D01*
X83490268Y-106015648D01*
X83459600Y-106019500D01*
X82822462Y-106019500D01*
X82755423Y-105999815D01*
X82709668Y-105947011D01*
X82698844Y-105885775D01*
X82702736Y-105836288D01*
X82249410Y-105382962D01*
X82312993Y-105365925D01*
X82427007Y-105300099D01*
X82520099Y-105207007D01*
X82585925Y-105092993D01*
X82602962Y-105029409D01*
X83056289Y-105482736D01*
X83060803Y-105476525D01*
X83139408Y-105322257D01*
X83192914Y-105157584D01*
X83220000Y-104986571D01*
X83220000Y-104813428D01*
X83192914Y-104642415D01*
X83139408Y-104477742D01*
X83060801Y-104323471D01*
X83056290Y-104317262D01*
X83056289Y-104317261D01*
X82602962Y-104770589D01*
X82585925Y-104707007D01*
X82520099Y-104592993D01*
X82427007Y-104499901D01*
X82312993Y-104434075D01*
X82249409Y-104417037D01*
X82702737Y-103963709D01*
X82696525Y-103959196D01*
X82542259Y-103880592D01*
X82377584Y-103827085D01*
X82206571Y-103800000D01*
X82033429Y-103800000D01*
X81862415Y-103827085D01*
X81697740Y-103880592D01*
X81543480Y-103959193D01*
X81543463Y-103959203D01*
X81537261Y-103963708D01*
X81537261Y-103963709D01*
X81990590Y-104417037D01*
X81927007Y-104434075D01*
X81812993Y-104499901D01*
X81719901Y-104592993D01*
X81654075Y-104707007D01*
X81637037Y-104770590D01*
X81183709Y-104317261D01*
X81183708Y-104317261D01*
X81179203Y-104323463D01*
X81179193Y-104323480D01*
X81100592Y-104477740D01*
X81047085Y-104642415D01*
X81020000Y-104813428D01*
X81020000Y-104986571D01*
X81047085Y-105157584D01*
X81100592Y-105322259D01*
X81179196Y-105476525D01*
X81183709Y-105482736D01*
X81183709Y-105482737D01*
X81637037Y-105029409D01*
X81654075Y-105092993D01*
X81719901Y-105207007D01*
X81812993Y-105300099D01*
X81927007Y-105365925D01*
X81990589Y-105382962D01*
X81537261Y-105836289D01*
X81541156Y-105885771D01*
X81526792Y-105954149D01*
X81477740Y-106003905D01*
X81417538Y-106019500D01*
X80293056Y-106019500D01*
X80226017Y-105999815D01*
X80180262Y-105947011D01*
X80170318Y-105877853D01*
X80199343Y-105814297D01*
X80220170Y-105795182D01*
X80248391Y-105774678D01*
X80296928Y-105739414D01*
X80419414Y-105616928D01*
X80521232Y-105476788D01*
X80599873Y-105322445D01*
X80653402Y-105157701D01*
X80680500Y-104986611D01*
X80680500Y-104813389D01*
X80653402Y-104642299D01*
X80599873Y-104477555D01*
X80599869Y-104477547D01*
X80598401Y-104473029D01*
X80596406Y-104403188D01*
X80628649Y-104347031D01*
X82987821Y-101987860D01*
X83049142Y-101954377D01*
X83118834Y-101959361D01*
G37*
%TD.AperFunction*%
%TA.AperFunction,Conductor*%
G36*
X86231529Y-85581219D02*
G01*
X86252171Y-85597853D01*
X88018802Y-87364484D01*
X88052287Y-87425807D01*
X88047303Y-87495499D01*
X88005431Y-87551432D01*
X87993122Y-87559552D01*
X87871985Y-87629491D01*
X87871982Y-87629493D01*
X87769493Y-87731982D01*
X87769488Y-87731988D01*
X87697017Y-87857511D01*
X87697016Y-87857515D01*
X87659500Y-87997525D01*
X87659500Y-87997527D01*
X87659500Y-88073456D01*
X87639815Y-88140495D01*
X87623181Y-88161137D01*
X86279531Y-89504786D01*
X86279529Y-89504789D01*
X86250827Y-89554504D01*
X86250826Y-89554505D01*
X86233387Y-89584709D01*
X86233386Y-89584712D01*
X86209500Y-89673856D01*
X86209500Y-94900614D01*
X86189815Y-94967653D01*
X86173181Y-94988295D01*
X86119493Y-95041982D01*
X86119488Y-95041988D01*
X86047017Y-95167511D01*
X86047016Y-95167515D01*
X86009500Y-95307525D01*
X86009500Y-95452475D01*
X86047016Y-95592485D01*
X86047017Y-95592488D01*
X86119488Y-95718011D01*
X86119490Y-95718013D01*
X86119491Y-95718015D01*
X86221985Y-95820509D01*
X86221986Y-95820510D01*
X86221988Y-95820511D01*
X86347511Y-95892982D01*
X86347512Y-95892982D01*
X86347515Y-95892984D01*
X86487525Y-95930500D01*
X86487528Y-95930500D01*
X86632472Y-95930500D01*
X86632475Y-95930500D01*
X86772485Y-95892984D01*
X86898015Y-95820509D01*
X87000509Y-95718015D01*
X87072984Y-95592485D01*
X87110500Y-95452475D01*
X87110500Y-95307525D01*
X87072984Y-95167515D01*
X87020500Y-95076611D01*
X87000511Y-95041988D01*
X87000506Y-95041982D01*
X86946819Y-94988295D01*
X86913334Y-94926972D01*
X86910500Y-94900614D01*
X86910500Y-89916543D01*
X86930185Y-89849504D01*
X86946819Y-89828862D01*
X88118862Y-88656819D01*
X88180185Y-88623334D01*
X88206543Y-88620500D01*
X88282472Y-88620500D01*
X88282475Y-88620500D01*
X88422485Y-88582984D01*
X88548015Y-88510509D01*
X88650509Y-88408015D01*
X88720448Y-88286876D01*
X88771014Y-88238663D01*
X88839621Y-88225439D01*
X88904485Y-88251407D01*
X88915515Y-88261197D01*
X90011347Y-89357029D01*
X90044832Y-89418352D01*
X90041597Y-89483028D01*
X89986597Y-89652301D01*
X89959500Y-89823389D01*
X89959500Y-89996611D01*
X89986598Y-90167701D01*
X90040127Y-90332445D01*
X90118768Y-90486788D01*
X90220586Y-90626928D01*
X90343072Y-90749414D01*
X90483212Y-90851232D01*
X90637555Y-90929873D01*
X90802299Y-90983402D01*
X90973389Y-91010500D01*
X90973390Y-91010500D01*
X91146610Y-91010500D01*
X91146611Y-91010500D01*
X91317701Y-90983402D01*
X91482445Y-90929873D01*
X91636788Y-90851232D01*
X91776928Y-90749414D01*
X91899414Y-90626928D01*
X91945183Y-90563931D01*
X92000512Y-90521268D01*
X92070125Y-90515289D01*
X92131920Y-90547895D01*
X92166278Y-90608734D01*
X92169500Y-90636819D01*
X92169500Y-91723180D01*
X92149815Y-91790219D01*
X92097011Y-91835974D01*
X92027853Y-91845918D01*
X91964297Y-91816893D01*
X91945183Y-91796066D01*
X91899418Y-91733078D01*
X91899414Y-91733072D01*
X91776928Y-91610586D01*
X91636788Y-91508768D01*
X91482445Y-91430127D01*
X91317701Y-91376598D01*
X91317699Y-91376597D01*
X91317698Y-91376597D01*
X91186271Y-91355781D01*
X91146611Y-91349500D01*
X90973389Y-91349500D01*
X90933728Y-91355781D01*
X90802302Y-91376597D01*
X90637552Y-91430128D01*
X90483211Y-91508768D01*
X90403256Y-91566859D01*
X90343072Y-91610586D01*
X90343070Y-91610588D01*
X90343069Y-91610588D01*
X90220588Y-91733069D01*
X90220588Y-91733070D01*
X90220586Y-91733072D01*
X90220582Y-91733078D01*
X90118768Y-91873211D01*
X90040128Y-92027552D01*
X89986597Y-92192302D01*
X89959500Y-92363389D01*
X89959500Y-92536611D01*
X89986598Y-92707701D01*
X90040127Y-92872445D01*
X90118768Y-93026788D01*
X90220586Y-93166928D01*
X90343072Y-93289414D01*
X90483212Y-93391232D01*
X90637555Y-93469873D01*
X90802299Y-93523402D01*
X90973389Y-93550500D01*
X90973390Y-93550500D01*
X91146610Y-93550500D01*
X91146611Y-93550500D01*
X91317701Y-93523402D01*
X91482445Y-93469873D01*
X91636788Y-93391232D01*
X91776928Y-93289414D01*
X91899414Y-93166928D01*
X91945183Y-93103931D01*
X92000512Y-93061268D01*
X92070125Y-93055289D01*
X92131920Y-93087895D01*
X92166278Y-93148734D01*
X92169500Y-93176819D01*
X92169500Y-94263180D01*
X92149815Y-94330219D01*
X92097011Y-94375974D01*
X92027853Y-94385918D01*
X91964297Y-94356893D01*
X91945183Y-94336066D01*
X91899418Y-94273078D01*
X91899414Y-94273072D01*
X91776928Y-94150586D01*
X91636788Y-94048768D01*
X91482445Y-93970127D01*
X91317701Y-93916598D01*
X91317699Y-93916597D01*
X91317698Y-93916597D01*
X91186271Y-93895781D01*
X91146611Y-93889500D01*
X90973389Y-93889500D01*
X90933728Y-93895781D01*
X90802302Y-93916597D01*
X90637552Y-93970128D01*
X90483211Y-94048768D01*
X90403256Y-94106859D01*
X90343072Y-94150586D01*
X90343070Y-94150588D01*
X90343069Y-94150588D01*
X90220588Y-94273069D01*
X90220588Y-94273070D01*
X90220586Y-94273072D01*
X90220582Y-94273078D01*
X90118768Y-94413211D01*
X90040128Y-94567552D01*
X89986597Y-94732302D01*
X89959940Y-94900614D01*
X89959500Y-94903389D01*
X89959500Y-95076611D01*
X89986598Y-95247701D01*
X90040127Y-95412445D01*
X90118768Y-95566788D01*
X90220586Y-95706928D01*
X90343072Y-95829414D01*
X90483212Y-95931232D01*
X90637555Y-96009873D01*
X90802299Y-96063402D01*
X90973389Y-96090500D01*
X90973390Y-96090500D01*
X91146610Y-96090500D01*
X91146611Y-96090500D01*
X91317701Y-96063402D01*
X91482445Y-96009873D01*
X91636788Y-95931232D01*
X91776928Y-95829414D01*
X91899414Y-95706928D01*
X91945183Y-95643931D01*
X92000512Y-95601268D01*
X92070125Y-95595289D01*
X92131920Y-95627895D01*
X92166278Y-95688734D01*
X92169500Y-95716819D01*
X92169500Y-96803180D01*
X92149815Y-96870219D01*
X92097011Y-96915974D01*
X92027853Y-96925918D01*
X91964297Y-96896893D01*
X91945183Y-96876066D01*
X91899418Y-96813078D01*
X91899414Y-96813072D01*
X91776928Y-96690586D01*
X91636788Y-96588768D01*
X91482445Y-96510127D01*
X91317701Y-96456598D01*
X91317699Y-96456597D01*
X91317698Y-96456597D01*
X91186271Y-96435781D01*
X91146611Y-96429500D01*
X90973389Y-96429500D01*
X90933728Y-96435781D01*
X90802302Y-96456597D01*
X90637552Y-96510128D01*
X90483211Y-96588768D01*
X90403256Y-96646859D01*
X90343072Y-96690586D01*
X90343070Y-96690588D01*
X90343069Y-96690588D01*
X90220588Y-96813069D01*
X90220588Y-96813070D01*
X90220586Y-96813072D01*
X90220582Y-96813078D01*
X90118768Y-96953211D01*
X90040128Y-97107552D01*
X89986597Y-97272302D01*
X89959500Y-97443389D01*
X89959500Y-97616611D01*
X89986598Y-97787701D01*
X90040127Y-97952445D01*
X90118768Y-98106788D01*
X90220586Y-98246928D01*
X90343072Y-98369414D01*
X90483212Y-98471232D01*
X90637555Y-98549873D01*
X90802299Y-98603402D01*
X90973389Y-98630500D01*
X90973390Y-98630500D01*
X91146610Y-98630500D01*
X91146611Y-98630500D01*
X91317701Y-98603402D01*
X91482445Y-98549873D01*
X91636788Y-98471232D01*
X91776928Y-98369414D01*
X91899414Y-98246928D01*
X91945183Y-98183931D01*
X92000512Y-98141268D01*
X92070125Y-98135289D01*
X92131920Y-98167895D01*
X92166278Y-98228734D01*
X92169500Y-98256819D01*
X92169500Y-99366751D01*
X92149815Y-99433790D01*
X92097011Y-99479545D01*
X92035772Y-99490369D01*
X91996289Y-99487261D01*
X91542962Y-99940589D01*
X91525925Y-99877007D01*
X91460099Y-99762993D01*
X91367007Y-99669901D01*
X91252993Y-99604075D01*
X91189409Y-99587037D01*
X91642737Y-99133709D01*
X91636525Y-99129196D01*
X91482259Y-99050592D01*
X91317584Y-98997085D01*
X91146571Y-98970000D01*
X90973429Y-98970000D01*
X90802415Y-98997085D01*
X90637740Y-99050592D01*
X90483480Y-99129193D01*
X90483463Y-99129203D01*
X90477261Y-99133708D01*
X90477261Y-99133709D01*
X90930590Y-99587037D01*
X90867007Y-99604075D01*
X90752993Y-99669901D01*
X90659901Y-99762993D01*
X90594075Y-99877007D01*
X90577037Y-99940590D01*
X90123709Y-99487261D01*
X90123708Y-99487261D01*
X90119203Y-99493463D01*
X90119193Y-99493480D01*
X90040592Y-99647740D01*
X89987085Y-99812415D01*
X89960000Y-99983428D01*
X89960000Y-100156571D01*
X89987085Y-100327584D01*
X90040592Y-100492259D01*
X90119196Y-100646525D01*
X90123709Y-100652736D01*
X90123709Y-100652737D01*
X90577037Y-100199409D01*
X90594075Y-100262993D01*
X90659901Y-100377007D01*
X90752993Y-100470099D01*
X90867007Y-100535925D01*
X90930589Y-100552962D01*
X90477261Y-101006289D01*
X90477262Y-101006290D01*
X90483471Y-101010801D01*
X90637742Y-101089408D01*
X90802415Y-101142914D01*
X90973429Y-101170000D01*
X91146571Y-101170000D01*
X91317584Y-101142914D01*
X91482257Y-101089408D01*
X91636525Y-101010803D01*
X91642736Y-101006289D01*
X91642737Y-101006289D01*
X91189410Y-100552962D01*
X91252993Y-100535925D01*
X91367007Y-100470099D01*
X91460099Y-100377007D01*
X91525925Y-100262993D01*
X91542962Y-100199409D01*
X91996288Y-100652736D01*
X92035774Y-100649630D01*
X92104151Y-100663996D01*
X92153907Y-100713048D01*
X92169500Y-100773248D01*
X92169500Y-101883180D01*
X92149815Y-101950219D01*
X92097011Y-101995974D01*
X92027853Y-102005918D01*
X91964297Y-101976893D01*
X91945183Y-101956066D01*
X91899418Y-101893078D01*
X91899414Y-101893072D01*
X91776928Y-101770586D01*
X91636788Y-101668768D01*
X91482445Y-101590127D01*
X91317701Y-101536598D01*
X91317699Y-101536597D01*
X91317698Y-101536597D01*
X91186271Y-101515781D01*
X91146611Y-101509500D01*
X90973389Y-101509500D01*
X90933728Y-101515781D01*
X90802302Y-101536597D01*
X90637552Y-101590128D01*
X90483211Y-101668768D01*
X90403256Y-101726859D01*
X90343072Y-101770586D01*
X90343070Y-101770588D01*
X90343069Y-101770588D01*
X90220588Y-101893069D01*
X90220588Y-101893070D01*
X90220586Y-101893072D01*
X90220582Y-101893078D01*
X90118768Y-102033211D01*
X90040128Y-102187552D01*
X89986597Y-102352302D01*
X89959500Y-102523389D01*
X89959500Y-102696611D01*
X89986598Y-102867701D01*
X90040127Y-103032445D01*
X90118768Y-103186788D01*
X90220586Y-103326928D01*
X90343072Y-103449414D01*
X90483212Y-103551232D01*
X90637555Y-103629873D01*
X90802299Y-103683402D01*
X90973389Y-103710500D01*
X90973390Y-103710500D01*
X91146610Y-103710500D01*
X91146611Y-103710500D01*
X91317701Y-103683402D01*
X91482445Y-103629873D01*
X91636788Y-103551232D01*
X91776928Y-103449414D01*
X91899414Y-103326928D01*
X91945183Y-103263931D01*
X92000512Y-103221268D01*
X92070125Y-103215289D01*
X92131920Y-103247895D01*
X92166278Y-103308734D01*
X92169500Y-103336819D01*
X92169500Y-104423180D01*
X92149815Y-104490219D01*
X92097011Y-104535974D01*
X92027853Y-104545918D01*
X91964297Y-104516893D01*
X91945183Y-104496066D01*
X91911239Y-104449348D01*
X91899414Y-104433072D01*
X91776928Y-104310586D01*
X91636788Y-104208768D01*
X91482445Y-104130127D01*
X91317701Y-104076598D01*
X91317699Y-104076597D01*
X91317698Y-104076597D01*
X91186271Y-104055781D01*
X91146611Y-104049500D01*
X90973389Y-104049500D01*
X90933728Y-104055781D01*
X90802302Y-104076597D01*
X90637552Y-104130128D01*
X90483211Y-104208768D01*
X90414262Y-104258863D01*
X90343072Y-104310586D01*
X90343070Y-104310588D01*
X90343069Y-104310588D01*
X90220588Y-104433069D01*
X90220588Y-104433070D01*
X90220586Y-104433072D01*
X90188269Y-104477552D01*
X90118768Y-104573211D01*
X90040128Y-104727552D01*
X89986597Y-104892302D01*
X89959500Y-105063389D01*
X89959500Y-105236610D01*
X89969555Y-105300099D01*
X89986598Y-105407701D01*
X90023086Y-105520000D01*
X90040128Y-105572447D01*
X90118768Y-105726788D01*
X90188390Y-105822614D01*
X90211870Y-105888421D01*
X90196045Y-105956475D01*
X90145939Y-106005170D01*
X90088072Y-106019500D01*
X85860400Y-106019500D01*
X85793361Y-105999815D01*
X85747606Y-105947011D01*
X85737662Y-105877853D01*
X85745840Y-105848045D01*
X85745967Y-105847737D01*
X85760499Y-105774678D01*
X85760500Y-105774676D01*
X85760500Y-104025323D01*
X85760499Y-104025321D01*
X85745967Y-103952264D01*
X85745966Y-103952260D01*
X85690601Y-103869399D01*
X85607740Y-103814034D01*
X85607739Y-103814033D01*
X85607735Y-103814032D01*
X85534677Y-103799500D01*
X85534674Y-103799500D01*
X84106544Y-103799500D01*
X84077103Y-103790855D01*
X84047117Y-103784332D01*
X84042101Y-103780577D01*
X84039505Y-103779815D01*
X84018863Y-103763181D01*
X83936819Y-103681137D01*
X83903334Y-103619814D01*
X83900500Y-103593456D01*
X83900500Y-88316607D01*
X83920185Y-88249568D01*
X83972989Y-88203813D01*
X83992394Y-88196836D01*
X84079994Y-88173364D01*
X84205524Y-88100889D01*
X84280200Y-88026213D01*
X84341523Y-87992728D01*
X84411215Y-87997712D01*
X84429882Y-88006508D01*
X84477468Y-88033982D01*
X84477469Y-88033983D01*
X84477471Y-88033983D01*
X84477474Y-88033985D01*
X84617484Y-88071501D01*
X84617487Y-88071501D01*
X84762431Y-88071501D01*
X84762434Y-88071501D01*
X84902444Y-88033985D01*
X85027974Y-87961510D01*
X85130468Y-87859016D01*
X85202943Y-87733486D01*
X85240459Y-87593476D01*
X85240459Y-87448526D01*
X85202943Y-87308516D01*
X85188458Y-87283428D01*
X85130470Y-87182989D01*
X85130465Y-87182983D01*
X85027976Y-87080494D01*
X85027970Y-87080489D01*
X84902447Y-87008018D01*
X84902448Y-87008018D01*
X84890965Y-87004941D01*
X84762434Y-86970501D01*
X84762431Y-86970501D01*
X84686503Y-86970501D01*
X84619464Y-86950816D01*
X84598822Y-86934182D01*
X84055819Y-86391179D01*
X84022334Y-86329856D01*
X84019500Y-86303498D01*
X84019500Y-85875431D01*
X84039185Y-85808392D01*
X84091989Y-85762637D01*
X84161147Y-85752693D01*
X84175575Y-85755652D01*
X84197525Y-85761534D01*
X84197528Y-85761534D01*
X84342472Y-85761534D01*
X84342475Y-85761534D01*
X84482485Y-85724018D01*
X84608015Y-85651543D01*
X84661705Y-85597853D01*
X84723028Y-85564368D01*
X84749386Y-85561534D01*
X86164490Y-85561534D01*
X86231529Y-85581219D01*
G37*
%TD.AperFunction*%
%TA.AperFunction,Conductor*%
G36*
X89107222Y-84475375D02*
G01*
X89123671Y-84477395D01*
X89153750Y-84495859D01*
X89158139Y-84499506D01*
X89242889Y-84584256D01*
X89290235Y-84611591D01*
X89299372Y-84616866D01*
X89299373Y-84616867D01*
X89322807Y-84630397D01*
X89322808Y-84630397D01*
X89322813Y-84630400D01*
X89411957Y-84654286D01*
X89411958Y-84654286D01*
X89504245Y-84654286D01*
X89835500Y-84654286D01*
X89902539Y-84673971D01*
X89948294Y-84726775D01*
X89959500Y-84778286D01*
X89959500Y-84916611D01*
X89986598Y-85087701D01*
X90040127Y-85252445D01*
X90118768Y-85406788D01*
X90220586Y-85546928D01*
X90343072Y-85669414D01*
X90483212Y-85771232D01*
X90637555Y-85849873D01*
X90802299Y-85903402D01*
X90973389Y-85930500D01*
X90973390Y-85930500D01*
X91146610Y-85930500D01*
X91146611Y-85930500D01*
X91317701Y-85903402D01*
X91482445Y-85849873D01*
X91636788Y-85771232D01*
X91776928Y-85669414D01*
X91899414Y-85546928D01*
X91945183Y-85483931D01*
X92000512Y-85441268D01*
X92070125Y-85435289D01*
X92131920Y-85467895D01*
X92166278Y-85528734D01*
X92169500Y-85556819D01*
X92169500Y-86666751D01*
X92149815Y-86733790D01*
X92097011Y-86779545D01*
X92035772Y-86790369D01*
X91996289Y-86787261D01*
X91542962Y-87240589D01*
X91525925Y-87177007D01*
X91460099Y-87062993D01*
X91367007Y-86969901D01*
X91252993Y-86904075D01*
X91189409Y-86887037D01*
X91642737Y-86433709D01*
X91636525Y-86429196D01*
X91482259Y-86350592D01*
X91317584Y-86297085D01*
X91146571Y-86270000D01*
X90973429Y-86270000D01*
X90802415Y-86297085D01*
X90637740Y-86350592D01*
X90483480Y-86429193D01*
X90483463Y-86429203D01*
X90477261Y-86433708D01*
X90477261Y-86433709D01*
X90930590Y-86887037D01*
X90867007Y-86904075D01*
X90752993Y-86969901D01*
X90659901Y-87062993D01*
X90594075Y-87177007D01*
X90577037Y-87240590D01*
X90123709Y-86787261D01*
X90123708Y-86787261D01*
X90119203Y-86793463D01*
X90119193Y-86793480D01*
X90040592Y-86947740D01*
X89987085Y-87112415D01*
X89960000Y-87283428D01*
X89960000Y-87456571D01*
X89987085Y-87627584D01*
X90040592Y-87792259D01*
X90119196Y-87946525D01*
X90123709Y-87952736D01*
X90123709Y-87952737D01*
X90577037Y-87499409D01*
X90594075Y-87562993D01*
X90659901Y-87677007D01*
X90752993Y-87770099D01*
X90867007Y-87835925D01*
X90930589Y-87852962D01*
X90477261Y-88306289D01*
X90477262Y-88306290D01*
X90483471Y-88310801D01*
X90637742Y-88389408D01*
X90802415Y-88442914D01*
X90973429Y-88470000D01*
X91146571Y-88470000D01*
X91317584Y-88442914D01*
X91482257Y-88389408D01*
X91636525Y-88310803D01*
X91642736Y-88306289D01*
X91642737Y-88306289D01*
X91189410Y-87852962D01*
X91252993Y-87835925D01*
X91367007Y-87770099D01*
X91460099Y-87677007D01*
X91525925Y-87562993D01*
X91542962Y-87499409D01*
X91996288Y-87952736D01*
X92035774Y-87949630D01*
X92104151Y-87963996D01*
X92153907Y-88013048D01*
X92169500Y-88073248D01*
X92169500Y-89183180D01*
X92149815Y-89250219D01*
X92097011Y-89295974D01*
X92027853Y-89305918D01*
X91964297Y-89276893D01*
X91945183Y-89256066D01*
X91899418Y-89193078D01*
X91899414Y-89193072D01*
X91776928Y-89070586D01*
X91636788Y-88968768D01*
X91482445Y-88890127D01*
X91317701Y-88836598D01*
X91317699Y-88836597D01*
X91317698Y-88836597D01*
X91186271Y-88815781D01*
X91146611Y-88809500D01*
X90973389Y-88809500D01*
X90941192Y-88814599D01*
X90802301Y-88836597D01*
X90633028Y-88891597D01*
X90563186Y-88893592D01*
X90507029Y-88861347D01*
X89105304Y-87459622D01*
X89071819Y-87398299D01*
X89076803Y-87328607D01*
X89118675Y-87272674D01*
X89142312Y-87258767D01*
X89151327Y-87254730D01*
X89232485Y-87232984D01*
X89345070Y-87167982D01*
X89345074Y-87167981D01*
X89358008Y-87160513D01*
X89358007Y-87160513D01*
X89358015Y-87160509D01*
X89460509Y-87058015D01*
X89532984Y-86932485D01*
X89570500Y-86792475D01*
X89570500Y-86647525D01*
X89532984Y-86507515D01*
X89490371Y-86433708D01*
X89460511Y-86381988D01*
X89460506Y-86381982D01*
X89358017Y-86279493D01*
X89358011Y-86279488D01*
X89232488Y-86207017D01*
X89232489Y-86207017D01*
X89221006Y-86203940D01*
X89092475Y-86169500D01*
X89092472Y-86169500D01*
X89016543Y-86169500D01*
X88987102Y-86160855D01*
X88957116Y-86154332D01*
X88952100Y-86150577D01*
X88949504Y-86149815D01*
X88928867Y-86133185D01*
X88786817Y-85991135D01*
X88753334Y-85929814D01*
X88750500Y-85903456D01*
X88750500Y-85099386D01*
X88770185Y-85032347D01*
X88786819Y-85011705D01*
X88840509Y-84958015D01*
X88912984Y-84832485D01*
X88950500Y-84692475D01*
X88950500Y-84591229D01*
X88955169Y-84575327D01*
X88954827Y-84558759D01*
X88964809Y-84542496D01*
X88970185Y-84524190D01*
X88982707Y-84513338D01*
X88991379Y-84499213D01*
X89008570Y-84490928D01*
X89022989Y-84478435D01*
X89039390Y-84476076D01*
X89054321Y-84468882D01*
X89073259Y-84471206D01*
X89092147Y-84468491D01*
X89107222Y-84475375D01*
G37*
%TD.AperFunction*%
%TA.AperFunction,Conductor*%
G36*
X77217016Y-56040185D02*
G01*
X77262771Y-56092989D01*
X77272715Y-56162147D01*
X77253079Y-56213391D01*
X77185362Y-56314735D01*
X77185357Y-56314745D01*
X77128822Y-56451232D01*
X77128820Y-56451240D01*
X77100000Y-56596126D01*
X77100000Y-56720000D01*
X77550000Y-56720000D01*
X77550000Y-57220000D01*
X77100000Y-57220000D01*
X77100000Y-57343873D01*
X77128820Y-57488759D01*
X77128822Y-57488767D01*
X77185357Y-57625254D01*
X77185362Y-57625264D01*
X77267436Y-57748096D01*
X77267439Y-57748100D01*
X77371899Y-57852560D01*
X77371907Y-57852566D01*
X77494739Y-57934640D01*
X77494743Y-57934642D01*
X77599999Y-57978240D01*
X77600000Y-57978240D01*
X77600000Y-57436988D01*
X77609940Y-57454205D01*
X77665795Y-57510060D01*
X77734204Y-57549556D01*
X77810504Y-57570000D01*
X77889496Y-57570000D01*
X77965796Y-57549556D01*
X78034205Y-57510060D01*
X78090060Y-57454205D01*
X78100000Y-57436988D01*
X78100000Y-57978240D01*
X78205256Y-57934642D01*
X78205260Y-57934640D01*
X78328092Y-57852566D01*
X78328100Y-57852560D01*
X78432560Y-57748100D01*
X78432563Y-57748096D01*
X78514637Y-57625264D01*
X78514642Y-57625254D01*
X78571177Y-57488767D01*
X78571179Y-57488759D01*
X78599999Y-57343873D01*
X78600000Y-57343871D01*
X78600000Y-57220000D01*
X78150000Y-57220000D01*
X78150000Y-56720000D01*
X78600000Y-56720000D01*
X78600000Y-56596128D01*
X78599999Y-56596126D01*
X78571179Y-56451240D01*
X78571177Y-56451232D01*
X78514642Y-56314745D01*
X78514637Y-56314735D01*
X78446921Y-56213391D01*
X78426043Y-56146713D01*
X78444528Y-56079333D01*
X78496506Y-56032643D01*
X78550023Y-56020500D01*
X85789977Y-56020500D01*
X85857016Y-56040185D01*
X85902771Y-56092989D01*
X85912715Y-56162147D01*
X85893079Y-56213391D01*
X85825362Y-56314735D01*
X85825357Y-56314745D01*
X85768822Y-56451232D01*
X85768820Y-56451240D01*
X85740000Y-56596126D01*
X85740000Y-56720000D01*
X86190000Y-56720000D01*
X86190000Y-57220000D01*
X85740000Y-57220000D01*
X85740000Y-57343873D01*
X85768820Y-57488759D01*
X85768822Y-57488767D01*
X85825357Y-57625254D01*
X85825362Y-57625264D01*
X85907436Y-57748096D01*
X85907439Y-57748100D01*
X86011899Y-57852560D01*
X86011907Y-57852566D01*
X86134739Y-57934640D01*
X86134743Y-57934642D01*
X86239999Y-57978240D01*
X86240000Y-57978240D01*
X86240000Y-57436988D01*
X86249940Y-57454205D01*
X86305795Y-57510060D01*
X86374204Y-57549556D01*
X86450504Y-57570000D01*
X86529496Y-57570000D01*
X86605796Y-57549556D01*
X86674205Y-57510060D01*
X86730060Y-57454205D01*
X86740000Y-57436988D01*
X86740000Y-57978240D01*
X86845256Y-57934642D01*
X86845260Y-57934640D01*
X86968092Y-57852566D01*
X86968100Y-57852560D01*
X87072560Y-57748100D01*
X87072563Y-57748096D01*
X87154637Y-57625264D01*
X87154642Y-57625254D01*
X87211177Y-57488767D01*
X87211179Y-57488759D01*
X87239999Y-57343873D01*
X87240000Y-57343871D01*
X87240000Y-57220000D01*
X86790000Y-57220000D01*
X86790000Y-56720000D01*
X87240000Y-56720000D01*
X87240000Y-56596128D01*
X87239999Y-56596126D01*
X87211179Y-56451240D01*
X87211177Y-56451232D01*
X87154642Y-56314745D01*
X87154637Y-56314735D01*
X87086921Y-56213391D01*
X87066043Y-56146713D01*
X87084528Y-56079333D01*
X87136506Y-56032643D01*
X87190023Y-56020500D01*
X89835500Y-56020500D01*
X89902539Y-56040185D01*
X89948294Y-56092989D01*
X89959500Y-56144500D01*
X89959500Y-57764678D01*
X89974032Y-57837735D01*
X89974033Y-57837739D01*
X89974034Y-57837740D01*
X90029399Y-57920601D01*
X90106031Y-57971804D01*
X90112260Y-57975966D01*
X90112264Y-57975967D01*
X90185321Y-57990499D01*
X90185324Y-57990500D01*
X90185326Y-57990500D01*
X91934676Y-57990500D01*
X91934677Y-57990499D01*
X91951719Y-57987109D01*
X92019719Y-57973584D01*
X92020511Y-57977568D01*
X92067490Y-57972507D01*
X92129976Y-58003769D01*
X92165642Y-58063850D01*
X92169500Y-58094542D01*
X92169500Y-58726751D01*
X92149815Y-58793790D01*
X92097011Y-58839545D01*
X92035772Y-58850369D01*
X91996289Y-58847261D01*
X91542962Y-59300589D01*
X91525925Y-59237007D01*
X91460099Y-59122993D01*
X91367007Y-59029901D01*
X91252993Y-58964075D01*
X91189409Y-58947037D01*
X91642737Y-58493709D01*
X91636525Y-58489196D01*
X91482259Y-58410592D01*
X91317584Y-58357085D01*
X91146571Y-58330000D01*
X90973429Y-58330000D01*
X90802415Y-58357085D01*
X90637740Y-58410592D01*
X90483480Y-58489193D01*
X90483463Y-58489203D01*
X90477261Y-58493708D01*
X90477261Y-58493709D01*
X90930590Y-58947037D01*
X90867007Y-58964075D01*
X90752993Y-59029901D01*
X90659901Y-59122993D01*
X90594075Y-59237007D01*
X90577037Y-59300590D01*
X90123709Y-58847261D01*
X90123708Y-58847261D01*
X90119203Y-58853463D01*
X90119193Y-58853480D01*
X90040592Y-59007740D01*
X89987085Y-59172415D01*
X89960000Y-59343428D01*
X89960000Y-59516571D01*
X89987085Y-59687584D01*
X90040592Y-59852259D01*
X90119196Y-60006525D01*
X90123709Y-60012736D01*
X90123709Y-60012737D01*
X90577037Y-59559409D01*
X90594075Y-59622993D01*
X90659901Y-59737007D01*
X90752993Y-59830099D01*
X90867007Y-59895925D01*
X90930589Y-59912962D01*
X90477261Y-60366289D01*
X90477262Y-60366290D01*
X90483471Y-60370801D01*
X90637742Y-60449408D01*
X90802415Y-60502914D01*
X90973429Y-60530000D01*
X91146571Y-60530000D01*
X91317584Y-60502914D01*
X91482257Y-60449408D01*
X91636525Y-60370803D01*
X91642736Y-60366289D01*
X91642737Y-60366289D01*
X91189410Y-59912962D01*
X91252993Y-59895925D01*
X91367007Y-59830099D01*
X91460099Y-59737007D01*
X91525925Y-59622993D01*
X91542962Y-59559409D01*
X91996288Y-60012736D01*
X92035774Y-60009630D01*
X92104151Y-60023996D01*
X92153907Y-60073048D01*
X92169500Y-60133248D01*
X92169500Y-61243180D01*
X92149815Y-61310219D01*
X92097011Y-61355974D01*
X92027853Y-61365918D01*
X91964297Y-61336893D01*
X91945183Y-61316066D01*
X91899418Y-61253078D01*
X91899414Y-61253072D01*
X91776928Y-61130586D01*
X91636788Y-61028768D01*
X91482445Y-60950127D01*
X91317701Y-60896598D01*
X91317699Y-60896597D01*
X91317698Y-60896597D01*
X91171689Y-60873472D01*
X91146611Y-60869500D01*
X90973389Y-60869500D01*
X90948311Y-60873472D01*
X90802302Y-60896597D01*
X90637552Y-60950128D01*
X90483211Y-61028768D01*
X90403256Y-61086859D01*
X90343072Y-61130586D01*
X90343070Y-61130588D01*
X90343069Y-61130588D01*
X90220588Y-61253069D01*
X90220588Y-61253070D01*
X90220586Y-61253072D01*
X90200196Y-61281137D01*
X90118768Y-61393211D01*
X90040128Y-61547552D01*
X89986597Y-61712302D01*
X89959500Y-61883389D01*
X89959500Y-62056611D01*
X89986598Y-62227701D01*
X90040127Y-62392445D01*
X90118768Y-62546788D01*
X90220586Y-62686928D01*
X90343072Y-62809414D01*
X90483212Y-62911232D01*
X90637555Y-62989873D01*
X90802299Y-63043402D01*
X90973389Y-63070500D01*
X90973390Y-63070500D01*
X91146610Y-63070500D01*
X91146611Y-63070500D01*
X91317701Y-63043402D01*
X91482445Y-62989873D01*
X91636788Y-62911232D01*
X91776928Y-62809414D01*
X91899414Y-62686928D01*
X91945183Y-62623931D01*
X92000512Y-62581268D01*
X92070125Y-62575289D01*
X92131920Y-62607895D01*
X92166278Y-62668734D01*
X92169500Y-62696819D01*
X92169500Y-63783180D01*
X92149815Y-63850219D01*
X92097011Y-63895974D01*
X92027853Y-63905918D01*
X91964297Y-63876893D01*
X91945183Y-63856066D01*
X91899418Y-63793078D01*
X91899414Y-63793072D01*
X91776928Y-63670586D01*
X91636788Y-63568768D01*
X91482445Y-63490127D01*
X91317701Y-63436598D01*
X91317699Y-63436597D01*
X91317698Y-63436597D01*
X91186271Y-63415781D01*
X91146611Y-63409500D01*
X90973389Y-63409500D01*
X90933728Y-63415781D01*
X90802302Y-63436597D01*
X90637552Y-63490128D01*
X90483211Y-63568768D01*
X90403256Y-63626859D01*
X90343072Y-63670586D01*
X90343070Y-63670588D01*
X90343069Y-63670588D01*
X90220588Y-63793069D01*
X90220588Y-63793070D01*
X90220586Y-63793072D01*
X90220582Y-63793078D01*
X90118768Y-63933211D01*
X90040128Y-64087552D01*
X89986597Y-64252302D01*
X89959500Y-64423389D01*
X89959500Y-64596611D01*
X89986598Y-64767701D01*
X90040127Y-64932445D01*
X90118768Y-65086788D01*
X90220586Y-65226928D01*
X90343072Y-65349414D01*
X90483212Y-65451232D01*
X90637555Y-65529873D01*
X90802299Y-65583402D01*
X90973389Y-65610500D01*
X90973390Y-65610500D01*
X91146610Y-65610500D01*
X91146611Y-65610500D01*
X91317701Y-65583402D01*
X91482445Y-65529873D01*
X91636788Y-65451232D01*
X91776928Y-65349414D01*
X91899414Y-65226928D01*
X91945183Y-65163931D01*
X92000512Y-65121268D01*
X92070125Y-65115289D01*
X92131920Y-65147895D01*
X92166278Y-65208734D01*
X92169500Y-65236819D01*
X92169500Y-66323180D01*
X92149815Y-66390219D01*
X92097011Y-66435974D01*
X92027853Y-66445918D01*
X91964297Y-66416893D01*
X91945183Y-66396066D01*
X91899418Y-66333078D01*
X91899414Y-66333072D01*
X91776928Y-66210586D01*
X91636788Y-66108768D01*
X91482445Y-66030127D01*
X91317701Y-65976598D01*
X91317699Y-65976597D01*
X91317698Y-65976597D01*
X91186271Y-65955781D01*
X91146611Y-65949500D01*
X90973389Y-65949500D01*
X90933728Y-65955781D01*
X90802302Y-65976597D01*
X90637552Y-66030128D01*
X90483211Y-66108768D01*
X90450758Y-66132347D01*
X90343072Y-66210586D01*
X90343070Y-66210588D01*
X90343069Y-66210588D01*
X90220588Y-66333069D01*
X90220588Y-66333070D01*
X90220586Y-66333072D01*
X90220582Y-66333078D01*
X90118768Y-66473211D01*
X90040128Y-66627552D01*
X89986597Y-66792302D01*
X89959500Y-66963389D01*
X89959500Y-67136610D01*
X89986597Y-67307698D01*
X90041597Y-67476970D01*
X90043592Y-67546811D01*
X90011347Y-67602969D01*
X88631137Y-68983181D01*
X88569814Y-69016666D01*
X88543456Y-69019500D01*
X81439386Y-69019500D01*
X81372347Y-68999815D01*
X81351705Y-68983181D01*
X81298017Y-68929493D01*
X81298011Y-68929488D01*
X81172488Y-68857017D01*
X81172489Y-68857017D01*
X81161006Y-68853940D01*
X81032475Y-68819500D01*
X80887525Y-68819500D01*
X80758993Y-68853940D01*
X80747511Y-68857017D01*
X80621988Y-68929488D01*
X80621982Y-68929493D01*
X80519493Y-69031982D01*
X80519488Y-69031988D01*
X80447017Y-69157511D01*
X80447016Y-69157515D01*
X80409500Y-69297525D01*
X80409500Y-69442475D01*
X80447016Y-69582485D01*
X80447017Y-69582488D01*
X80519488Y-69708011D01*
X80519490Y-69708013D01*
X80519491Y-69708015D01*
X80621985Y-69810509D01*
X80686403Y-69847701D01*
X80736315Y-69876518D01*
X80784531Y-69927085D01*
X80797753Y-69995692D01*
X80771785Y-70060557D01*
X80761996Y-70071586D01*
X80031137Y-70802446D01*
X79969814Y-70835931D01*
X79943456Y-70838765D01*
X79867525Y-70838765D01*
X79738993Y-70873205D01*
X79727511Y-70876282D01*
X79601988Y-70948753D01*
X79601982Y-70948758D01*
X79499493Y-71051247D01*
X79499486Y-71051256D01*
X79488135Y-71070917D01*
X79437567Y-71119131D01*
X79368960Y-71132352D01*
X79304096Y-71106382D01*
X79293069Y-71096595D01*
X78246819Y-70050345D01*
X78213334Y-69989022D01*
X78210500Y-69962664D01*
X78210500Y-66199386D01*
X78230185Y-66132347D01*
X78246819Y-66111705D01*
X78249756Y-66108768D01*
X78300509Y-66058015D01*
X78372984Y-65932485D01*
X78410500Y-65792475D01*
X78410500Y-65647525D01*
X78372984Y-65507515D01*
X78340488Y-65451231D01*
X78300511Y-65381988D01*
X78300506Y-65381982D01*
X78198017Y-65279493D01*
X78198011Y-65279488D01*
X78072488Y-65207017D01*
X78072489Y-65207017D01*
X78061006Y-65203940D01*
X77932475Y-65169500D01*
X77787525Y-65169500D01*
X77658993Y-65203940D01*
X77647511Y-65207017D01*
X77521988Y-65279488D01*
X77521982Y-65279493D01*
X77419493Y-65381982D01*
X77419488Y-65381988D01*
X77347017Y-65507511D01*
X77347016Y-65507515D01*
X77309500Y-65647525D01*
X77309500Y-65792475D01*
X77347016Y-65932485D01*
X77347017Y-65932488D01*
X77419488Y-66058011D01*
X77419493Y-66058017D01*
X77473181Y-66111705D01*
X77506666Y-66173028D01*
X77509500Y-66199386D01*
X77509500Y-70205352D01*
X77522826Y-70255085D01*
X77533385Y-70294494D01*
X77579527Y-70374416D01*
X77579531Y-70374421D01*
X79974181Y-72769071D01*
X80007666Y-72830394D01*
X80010500Y-72856752D01*
X80010500Y-87195602D01*
X79990815Y-87262641D01*
X79938011Y-87308396D01*
X79868853Y-87318340D01*
X79854411Y-87315377D01*
X79832475Y-87309500D01*
X79687525Y-87309500D01*
X79558993Y-87343940D01*
X79547511Y-87347017D01*
X79421988Y-87419488D01*
X79421982Y-87419493D01*
X79368295Y-87473181D01*
X79341367Y-87487884D01*
X79315549Y-87504477D01*
X79309348Y-87505368D01*
X79306972Y-87506666D01*
X79280614Y-87509500D01*
X79046544Y-87509500D01*
X78979505Y-87489815D01*
X78958863Y-87473181D01*
X74328652Y-82842970D01*
X74295167Y-82781647D01*
X74298402Y-82716971D01*
X74304180Y-82699188D01*
X74353402Y-82547701D01*
X74380500Y-82376611D01*
X74380500Y-82203389D01*
X74353402Y-82032299D01*
X74299873Y-81867555D01*
X74221232Y-81713212D01*
X74119414Y-81573072D01*
X73996928Y-81450586D01*
X73856788Y-81348768D01*
X73702445Y-81270127D01*
X73537701Y-81216598D01*
X73537699Y-81216597D01*
X73537698Y-81216597D01*
X73399910Y-81194774D01*
X73366611Y-81189500D01*
X73193389Y-81189500D01*
X73160090Y-81194774D01*
X73022302Y-81216597D01*
X72857552Y-81270128D01*
X72703211Y-81348768D01*
X72687064Y-81360500D01*
X72563072Y-81450586D01*
X72563070Y-81450588D01*
X72563069Y-81450588D01*
X72440588Y-81573069D01*
X72440581Y-81573078D01*
X72394817Y-81636066D01*
X72339487Y-81678732D01*
X72269874Y-81684710D01*
X72208079Y-81652104D01*
X72173722Y-81591265D01*
X72170500Y-81563180D01*
X72170500Y-80476819D01*
X72190185Y-80409780D01*
X72242989Y-80364025D01*
X72312147Y-80354081D01*
X72375703Y-80383106D01*
X72394814Y-80403929D01*
X72440586Y-80466928D01*
X72563072Y-80589414D01*
X72703212Y-80691232D01*
X72857555Y-80769873D01*
X73022299Y-80823402D01*
X73193389Y-80850500D01*
X73193390Y-80850500D01*
X73366610Y-80850500D01*
X73366611Y-80850500D01*
X73537701Y-80823402D01*
X73702445Y-80769873D01*
X73856788Y-80691232D01*
X73996928Y-80589414D01*
X74119414Y-80466928D01*
X74221232Y-80326788D01*
X74299873Y-80172445D01*
X74353402Y-80007701D01*
X74380500Y-79836611D01*
X74380500Y-79663389D01*
X74353402Y-79492299D01*
X74299873Y-79327555D01*
X74221232Y-79173212D01*
X74119414Y-79033072D01*
X73996928Y-78910586D01*
X73856788Y-78808768D01*
X73702445Y-78730127D01*
X73537701Y-78676598D01*
X73537699Y-78676597D01*
X73537698Y-78676597D01*
X73406271Y-78655781D01*
X73366611Y-78649500D01*
X73193389Y-78649500D01*
X73153728Y-78655781D01*
X73022302Y-78676597D01*
X73022299Y-78676598D01*
X72874892Y-78724494D01*
X72857552Y-78730128D01*
X72703211Y-78808768D01*
X72623256Y-78866859D01*
X72563072Y-78910586D01*
X72563070Y-78910588D01*
X72563069Y-78910588D01*
X72440588Y-79033069D01*
X72440581Y-79033078D01*
X72394817Y-79096066D01*
X72339487Y-79138732D01*
X72269874Y-79144710D01*
X72208079Y-79112104D01*
X72173722Y-79051265D01*
X72170500Y-79023180D01*
X72170500Y-77936819D01*
X72190185Y-77869780D01*
X72242989Y-77824025D01*
X72312147Y-77814081D01*
X72375703Y-77843106D01*
X72394814Y-77863929D01*
X72440586Y-77926928D01*
X72563072Y-78049414D01*
X72703212Y-78151232D01*
X72857555Y-78229873D01*
X73022299Y-78283402D01*
X73193389Y-78310500D01*
X73193390Y-78310500D01*
X73366610Y-78310500D01*
X73366611Y-78310500D01*
X73537701Y-78283402D01*
X73702445Y-78229873D01*
X73856788Y-78151232D01*
X73996928Y-78049414D01*
X74119414Y-77926928D01*
X74221232Y-77786788D01*
X74299873Y-77632445D01*
X74353402Y-77467701D01*
X74380500Y-77296611D01*
X74380500Y-77123389D01*
X74353402Y-76952299D01*
X74299873Y-76787555D01*
X74221232Y-76633212D01*
X74119414Y-76493072D01*
X73996928Y-76370586D01*
X73856788Y-76268768D01*
X73702445Y-76190127D01*
X73537701Y-76136598D01*
X73537699Y-76136597D01*
X73537698Y-76136597D01*
X73406271Y-76115781D01*
X73366611Y-76109500D01*
X73193389Y-76109500D01*
X73153728Y-76115781D01*
X73022302Y-76136597D01*
X72857552Y-76190128D01*
X72703211Y-76268768D01*
X72623256Y-76326859D01*
X72563072Y-76370586D01*
X72563070Y-76370588D01*
X72563069Y-76370588D01*
X72440588Y-76493069D01*
X72440581Y-76493078D01*
X72394817Y-76556066D01*
X72339487Y-76598732D01*
X72269874Y-76604710D01*
X72208079Y-76572104D01*
X72173722Y-76511265D01*
X72170500Y-76483180D01*
X72170500Y-75373247D01*
X72190185Y-75306208D01*
X72242989Y-75260453D01*
X72304231Y-75249629D01*
X72343710Y-75252736D01*
X72797037Y-74799409D01*
X72814075Y-74862993D01*
X72879901Y-74977007D01*
X72972993Y-75070099D01*
X73087007Y-75135925D01*
X73150589Y-75152962D01*
X72697261Y-75606289D01*
X72697262Y-75606290D01*
X72703471Y-75610801D01*
X72857742Y-75689408D01*
X73022415Y-75742914D01*
X73193429Y-75770000D01*
X73366571Y-75770000D01*
X73537584Y-75742914D01*
X73702257Y-75689408D01*
X73856525Y-75610803D01*
X73862736Y-75606289D01*
X73862737Y-75606289D01*
X73409410Y-75152962D01*
X73472993Y-75135925D01*
X73587007Y-75070099D01*
X73680099Y-74977007D01*
X73745925Y-74862993D01*
X73762962Y-74799410D01*
X74216289Y-75252737D01*
X74216289Y-75252736D01*
X74220803Y-75246525D01*
X74299408Y-75092257D01*
X74352914Y-74927584D01*
X74380000Y-74756571D01*
X74380000Y-74583428D01*
X74352914Y-74412415D01*
X74299408Y-74247742D01*
X74220801Y-74093471D01*
X74216290Y-74087262D01*
X74216289Y-74087261D01*
X73762962Y-74540589D01*
X73745925Y-74477007D01*
X73680099Y-74362993D01*
X73587007Y-74269901D01*
X73472993Y-74204075D01*
X73409409Y-74187037D01*
X73862737Y-73733709D01*
X73856525Y-73729196D01*
X73702259Y-73650592D01*
X73537584Y-73597085D01*
X73366571Y-73570000D01*
X73193429Y-73570000D01*
X73022415Y-73597085D01*
X72857740Y-73650592D01*
X72703480Y-73729193D01*
X72703463Y-73729203D01*
X72697261Y-73733708D01*
X72697261Y-73733709D01*
X73150590Y-74187037D01*
X73087007Y-74204075D01*
X72972993Y-74269901D01*
X72879901Y-74362993D01*
X72814075Y-74477007D01*
X72797037Y-74540590D01*
X72343709Y-74087261D01*
X72304235Y-74090370D01*
X72290622Y-74087511D01*
X72276853Y-74089491D01*
X72257104Y-74080472D01*
X72235857Y-74076010D01*
X72225950Y-74066244D01*
X72213297Y-74060466D01*
X72201559Y-74042201D01*
X72186098Y-74026961D01*
X72182270Y-74012187D01*
X72175523Y-74001688D01*
X72170500Y-73966753D01*
X72170500Y-72856819D01*
X72190185Y-72789780D01*
X72242989Y-72744025D01*
X72312147Y-72734081D01*
X72375703Y-72763106D01*
X72394814Y-72783929D01*
X72440586Y-72846928D01*
X72563072Y-72969414D01*
X72703212Y-73071232D01*
X72857555Y-73149873D01*
X73022299Y-73203402D01*
X73193389Y-73230500D01*
X73193390Y-73230500D01*
X73366610Y-73230500D01*
X73366611Y-73230500D01*
X73537701Y-73203402D01*
X73702445Y-73149873D01*
X73856788Y-73071232D01*
X73996928Y-72969414D01*
X74119414Y-72846928D01*
X74221232Y-72706788D01*
X74299873Y-72552445D01*
X74353402Y-72387701D01*
X74380500Y-72216611D01*
X74380500Y-72043389D01*
X74353402Y-71872299D01*
X74299873Y-71707555D01*
X74221232Y-71553212D01*
X74119414Y-71413072D01*
X73996928Y-71290586D01*
X73856788Y-71188768D01*
X73746064Y-71132352D01*
X73702447Y-71110128D01*
X73702446Y-71110127D01*
X73702445Y-71110127D01*
X73537701Y-71056598D01*
X73537699Y-71056597D01*
X73537698Y-71056597D01*
X73406271Y-71035781D01*
X73366611Y-71029500D01*
X73193389Y-71029500D01*
X73153728Y-71035781D01*
X73022302Y-71056597D01*
X72857552Y-71110128D01*
X72703211Y-71188768D01*
X72623256Y-71246859D01*
X72563072Y-71290586D01*
X72563070Y-71290588D01*
X72563069Y-71290588D01*
X72440588Y-71413069D01*
X72440581Y-71413078D01*
X72394817Y-71476066D01*
X72339487Y-71518732D01*
X72269874Y-71524710D01*
X72208079Y-71492104D01*
X72173722Y-71431265D01*
X72170500Y-71403180D01*
X72170500Y-70316819D01*
X72190185Y-70249780D01*
X72242989Y-70204025D01*
X72312147Y-70194081D01*
X72375703Y-70223106D01*
X72394814Y-70243929D01*
X72440586Y-70306928D01*
X72563072Y-70429414D01*
X72703212Y-70531232D01*
X72857555Y-70609873D01*
X73022299Y-70663402D01*
X73193389Y-70690500D01*
X73193390Y-70690500D01*
X73366610Y-70690500D01*
X73366611Y-70690500D01*
X73537701Y-70663402D01*
X73702445Y-70609873D01*
X73856788Y-70531232D01*
X73996928Y-70429414D01*
X74119414Y-70306928D01*
X74221232Y-70166788D01*
X74299873Y-70012445D01*
X74353402Y-69847701D01*
X74380500Y-69676611D01*
X74380500Y-69503389D01*
X74353402Y-69332299D01*
X74299873Y-69167555D01*
X74221232Y-69013212D01*
X74119414Y-68873072D01*
X73996928Y-68750586D01*
X73856788Y-68648768D01*
X73702445Y-68570127D01*
X73537701Y-68516598D01*
X73537699Y-68516597D01*
X73537698Y-68516597D01*
X73406271Y-68495781D01*
X73366611Y-68489500D01*
X73193389Y-68489500D01*
X73153728Y-68495781D01*
X73022302Y-68516597D01*
X72857552Y-68570128D01*
X72703211Y-68648768D01*
X72623256Y-68706859D01*
X72563072Y-68750586D01*
X72563070Y-68750588D01*
X72563069Y-68750588D01*
X72440588Y-68873069D01*
X72440581Y-68873078D01*
X72394817Y-68936066D01*
X72339487Y-68978732D01*
X72269874Y-68984710D01*
X72208079Y-68952104D01*
X72173722Y-68891265D01*
X72170500Y-68863180D01*
X72170500Y-67776819D01*
X72190185Y-67709780D01*
X72242989Y-67664025D01*
X72312147Y-67654081D01*
X72375703Y-67683106D01*
X72394814Y-67703929D01*
X72440586Y-67766928D01*
X72563072Y-67889414D01*
X72703212Y-67991232D01*
X72857555Y-68069873D01*
X73022299Y-68123402D01*
X73193389Y-68150500D01*
X73193390Y-68150500D01*
X73366610Y-68150500D01*
X73366611Y-68150500D01*
X73537701Y-68123402D01*
X73702445Y-68069873D01*
X73856788Y-67991232D01*
X73996928Y-67889414D01*
X74119414Y-67766928D01*
X74221232Y-67626788D01*
X74299873Y-67472445D01*
X74353402Y-67307701D01*
X74380500Y-67136611D01*
X74380500Y-66963389D01*
X74353402Y-66792299D01*
X74299873Y-66627555D01*
X74221232Y-66473212D01*
X74119414Y-66333072D01*
X73996928Y-66210586D01*
X73856788Y-66108768D01*
X73702445Y-66030127D01*
X73537701Y-65976598D01*
X73537699Y-65976597D01*
X73537698Y-65976597D01*
X73406271Y-65955781D01*
X73366611Y-65949500D01*
X73193389Y-65949500D01*
X73153728Y-65955781D01*
X73022302Y-65976597D01*
X72857552Y-66030128D01*
X72703211Y-66108768D01*
X72670758Y-66132347D01*
X72563072Y-66210586D01*
X72563070Y-66210588D01*
X72563069Y-66210588D01*
X72440588Y-66333069D01*
X72440581Y-66333078D01*
X72394817Y-66396066D01*
X72339487Y-66438732D01*
X72269874Y-66444710D01*
X72208079Y-66412104D01*
X72173722Y-66351265D01*
X72170500Y-66323180D01*
X72170500Y-65236819D01*
X72190185Y-65169780D01*
X72242989Y-65124025D01*
X72312147Y-65114081D01*
X72375703Y-65143106D01*
X72394814Y-65163929D01*
X72440586Y-65226928D01*
X72563072Y-65349414D01*
X72703212Y-65451232D01*
X72857555Y-65529873D01*
X73022299Y-65583402D01*
X73193389Y-65610500D01*
X73193390Y-65610500D01*
X73366610Y-65610500D01*
X73366611Y-65610500D01*
X73537701Y-65583402D01*
X73702445Y-65529873D01*
X73702447Y-65529871D01*
X73706971Y-65528402D01*
X73776812Y-65526407D01*
X73832970Y-65558652D01*
X75000181Y-66725863D01*
X75033666Y-66787186D01*
X75036500Y-66813544D01*
X75036500Y-82339088D01*
X75059594Y-82425278D01*
X75060385Y-82428230D01*
X75060386Y-82428231D01*
X75106527Y-82508151D01*
X75106531Y-82508156D01*
X76417181Y-83818806D01*
X76450666Y-83880129D01*
X76453500Y-83906487D01*
X76453500Y-83992475D01*
X76485816Y-84113078D01*
X76491017Y-84132488D01*
X76563488Y-84258011D01*
X76563490Y-84258013D01*
X76563491Y-84258015D01*
X76665985Y-84360509D01*
X76665986Y-84360510D01*
X76665988Y-84360511D01*
X76791511Y-84432982D01*
X76791512Y-84432982D01*
X76791515Y-84432984D01*
X76931525Y-84470500D01*
X76931528Y-84470500D01*
X77076472Y-84470500D01*
X77076475Y-84470500D01*
X77216485Y-84432984D01*
X77342015Y-84360509D01*
X77395705Y-84306819D01*
X77457028Y-84273334D01*
X77483386Y-84270500D01*
X77677890Y-84270500D01*
X77677892Y-84270500D01*
X77767036Y-84246614D01*
X77777660Y-84240480D01*
X77846960Y-84200470D01*
X78171217Y-83876212D01*
X78217362Y-83796288D01*
X78219985Y-83786497D01*
X78225636Y-83765412D01*
X78239567Y-83713416D01*
X78241248Y-83707144D01*
X78241248Y-83614856D01*
X78217362Y-83525712D01*
X78217359Y-83525706D01*
X78168765Y-83441540D01*
X78152291Y-83373640D01*
X78175143Y-83307613D01*
X78188465Y-83291863D01*
X78230641Y-83249688D01*
X78303116Y-83124158D01*
X78340632Y-82984148D01*
X78340632Y-82839198D01*
X78303116Y-82699188D01*
X78230641Y-82573658D01*
X78128147Y-82471164D01*
X78128145Y-82471163D01*
X78128143Y-82471161D01*
X78002620Y-82398690D01*
X78002621Y-82398690D01*
X77991138Y-82395613D01*
X77862607Y-82361173D01*
X77862604Y-82361173D01*
X77786676Y-82361173D01*
X77719637Y-82341488D01*
X77698995Y-82324854D01*
X76575819Y-81201678D01*
X76542334Y-81140355D01*
X76539500Y-81113997D01*
X76539500Y-60526126D01*
X77100000Y-60526126D01*
X77100000Y-60900000D01*
X77550000Y-60900000D01*
X77550000Y-61400000D01*
X77100000Y-61400000D01*
X77100000Y-61773873D01*
X77128820Y-61918759D01*
X77128822Y-61918767D01*
X77185357Y-62055254D01*
X77185362Y-62055264D01*
X77267436Y-62178096D01*
X77267439Y-62178100D01*
X77371899Y-62282560D01*
X77371907Y-62282566D01*
X77494739Y-62364640D01*
X77494743Y-62364642D01*
X77599999Y-62408240D01*
X77600000Y-62408240D01*
X77600000Y-61866988D01*
X77609940Y-61884205D01*
X77665795Y-61940060D01*
X77734204Y-61979556D01*
X77810504Y-62000000D01*
X77889496Y-62000000D01*
X77965796Y-61979556D01*
X78034205Y-61940060D01*
X78090060Y-61884205D01*
X78100000Y-61866988D01*
X78100000Y-62408240D01*
X78205256Y-62364642D01*
X78205260Y-62364640D01*
X78328092Y-62282566D01*
X78328100Y-62282560D01*
X78432560Y-62178100D01*
X78432563Y-62178096D01*
X78514637Y-62055264D01*
X78514642Y-62055254D01*
X78571177Y-61918767D01*
X78571179Y-61918759D01*
X78599999Y-61773873D01*
X78600000Y-61773871D01*
X78600000Y-61400000D01*
X78150000Y-61400000D01*
X78150000Y-60900000D01*
X78601639Y-60900000D01*
X78659347Y-60868488D01*
X78729039Y-60873472D01*
X78784973Y-60915342D01*
X78793091Y-60927649D01*
X78819485Y-60973365D01*
X78926635Y-61080515D01*
X79057865Y-61156281D01*
X79204234Y-61195500D01*
X79204236Y-61195500D01*
X79355764Y-61195500D01*
X79355766Y-61195500D01*
X79502135Y-61156281D01*
X79633365Y-61080515D01*
X79740515Y-60973365D01*
X79816281Y-60842135D01*
X79855500Y-60695766D01*
X79855500Y-60544234D01*
X84484500Y-60544234D01*
X84484500Y-60695765D01*
X84523719Y-60842136D01*
X84561602Y-60907750D01*
X84599485Y-60973365D01*
X84706635Y-61080515D01*
X84837865Y-61156281D01*
X84984234Y-61195500D01*
X84984236Y-61195500D01*
X85135764Y-61195500D01*
X85135766Y-61195500D01*
X85282135Y-61156281D01*
X85413365Y-61080515D01*
X85520515Y-60973365D01*
X85546906Y-60927653D01*
X85597470Y-60879439D01*
X85666077Y-60866215D01*
X85730942Y-60892182D01*
X85739750Y-60900000D01*
X86190000Y-60900000D01*
X86190000Y-61400000D01*
X85740000Y-61400000D01*
X85740000Y-61773873D01*
X85768820Y-61918759D01*
X85768822Y-61918767D01*
X85825357Y-62055254D01*
X85825362Y-62055264D01*
X85907436Y-62178096D01*
X85907439Y-62178100D01*
X86011899Y-62282560D01*
X86011907Y-62282566D01*
X86134739Y-62364640D01*
X86134743Y-62364642D01*
X86239999Y-62408240D01*
X86240000Y-62408240D01*
X86240000Y-61866988D01*
X86249940Y-61884205D01*
X86305795Y-61940060D01*
X86374204Y-61979556D01*
X86450504Y-62000000D01*
X86529496Y-62000000D01*
X86605796Y-61979556D01*
X86674205Y-61940060D01*
X86730060Y-61884205D01*
X86740000Y-61866988D01*
X86740000Y-62408240D01*
X86845256Y-62364642D01*
X86845260Y-62364640D01*
X86968092Y-62282566D01*
X86968100Y-62282560D01*
X87072560Y-62178100D01*
X87072563Y-62178096D01*
X87154637Y-62055264D01*
X87154642Y-62055254D01*
X87211177Y-61918767D01*
X87211179Y-61918759D01*
X87239999Y-61773873D01*
X87240000Y-61773871D01*
X87240000Y-61400000D01*
X86790000Y-61400000D01*
X86790000Y-60900000D01*
X87240000Y-60900000D01*
X87240000Y-60526128D01*
X87239999Y-60526126D01*
X87211179Y-60381240D01*
X87211177Y-60381232D01*
X87205068Y-60366483D01*
X87154642Y-60244744D01*
X87154637Y-60244735D01*
X87072563Y-60121903D01*
X87072560Y-60121899D01*
X86968100Y-60017439D01*
X86968096Y-60017436D01*
X86845264Y-59935362D01*
X86845254Y-59935357D01*
X86740000Y-59891759D01*
X86740000Y-60433011D01*
X86730060Y-60415795D01*
X86674205Y-60359940D01*
X86605796Y-60320444D01*
X86529496Y-60300000D01*
X86450504Y-60300000D01*
X86374204Y-60320444D01*
X86305795Y-60359940D01*
X86249940Y-60415795D01*
X86240000Y-60433011D01*
X86240000Y-59891759D01*
X86239999Y-59891759D01*
X86134745Y-59935357D01*
X86134735Y-59935362D01*
X86011903Y-60017436D01*
X86011899Y-60017439D01*
X85907439Y-60121899D01*
X85907436Y-60121903D01*
X85825362Y-60244735D01*
X85825359Y-60244742D01*
X85788958Y-60332620D01*
X85745116Y-60387023D01*
X85678822Y-60409087D01*
X85611123Y-60391807D01*
X85567010Y-60347166D01*
X85522119Y-60269414D01*
X85520515Y-60266635D01*
X85413365Y-60159485D01*
X85347750Y-60121602D01*
X85282136Y-60083719D01*
X85205205Y-60063106D01*
X85135766Y-60044500D01*
X84984234Y-60044500D01*
X84837863Y-60083719D01*
X84706635Y-60159485D01*
X84706632Y-60159487D01*
X84599487Y-60266632D01*
X84599485Y-60266635D01*
X84523719Y-60397863D01*
X84484500Y-60544234D01*
X79855500Y-60544234D01*
X79816281Y-60397865D01*
X79814847Y-60395382D01*
X79800657Y-60370803D01*
X79740515Y-60266635D01*
X79633365Y-60159485D01*
X79567750Y-60121602D01*
X79502136Y-60083719D01*
X79425205Y-60063106D01*
X79355766Y-60044500D01*
X79204234Y-60044500D01*
X79057863Y-60083719D01*
X78926635Y-60159485D01*
X78926632Y-60159487D01*
X78819487Y-60266632D01*
X78819480Y-60266641D01*
X78772988Y-60347167D01*
X78722421Y-60395382D01*
X78653814Y-60408604D01*
X78588949Y-60382636D01*
X78551041Y-60332619D01*
X78514642Y-60244744D01*
X78514637Y-60244735D01*
X78432563Y-60121903D01*
X78432560Y-60121899D01*
X78328100Y-60017439D01*
X78328096Y-60017436D01*
X78205264Y-59935362D01*
X78205254Y-59935357D01*
X78100000Y-59891759D01*
X78100000Y-60433011D01*
X78090060Y-60415795D01*
X78034205Y-60359940D01*
X77965796Y-60320444D01*
X77889496Y-60300000D01*
X77810504Y-60300000D01*
X77734204Y-60320444D01*
X77665795Y-60359940D01*
X77609940Y-60415795D01*
X77600000Y-60433011D01*
X77600000Y-59891759D01*
X77599999Y-59891759D01*
X77494745Y-59935357D01*
X77494735Y-59935362D01*
X77371903Y-60017436D01*
X77371899Y-60017439D01*
X77267439Y-60121899D01*
X77267436Y-60121903D01*
X77185362Y-60244735D01*
X77185357Y-60244745D01*
X77128822Y-60381232D01*
X77128820Y-60381240D01*
X77100000Y-60526126D01*
X76539500Y-60526126D01*
X76539500Y-59752858D01*
X76539500Y-59752856D01*
X76515614Y-59663712D01*
X76515611Y-59663706D01*
X76469473Y-59583794D01*
X76469470Y-59583791D01*
X76469469Y-59583788D01*
X76404212Y-59518531D01*
X74416819Y-57531137D01*
X74383334Y-57469814D01*
X74380500Y-57443456D01*
X74380500Y-56144500D01*
X74400185Y-56077461D01*
X74452989Y-56031706D01*
X74504500Y-56020500D01*
X77149977Y-56020500D01*
X77217016Y-56040185D01*
G37*
%TD.AperFunction*%
%TA.AperFunction,Conductor*%
G36*
X72375703Y-60063106D02*
G01*
X72394814Y-60083929D01*
X72440586Y-60146928D01*
X72563072Y-60269414D01*
X72703212Y-60371232D01*
X72857555Y-60449873D01*
X73022299Y-60503402D01*
X73193389Y-60530500D01*
X73193390Y-60530500D01*
X73366610Y-60530500D01*
X73366611Y-60530500D01*
X73537701Y-60503402D01*
X73702445Y-60449873D01*
X73702447Y-60449871D01*
X73706971Y-60448402D01*
X73776812Y-60446407D01*
X73832970Y-60478652D01*
X75401181Y-62046863D01*
X75434666Y-62108186D01*
X75437500Y-62134544D01*
X75437500Y-65872456D01*
X75417815Y-65939495D01*
X75365011Y-65985250D01*
X75295853Y-65995194D01*
X75232297Y-65966169D01*
X75225819Y-65960137D01*
X74328652Y-65062970D01*
X74295167Y-65001647D01*
X74298402Y-64936971D01*
X74299873Y-64932445D01*
X74353402Y-64767701D01*
X74380500Y-64596611D01*
X74380500Y-64423389D01*
X74353402Y-64252299D01*
X74299873Y-64087555D01*
X74221232Y-63933212D01*
X74119414Y-63793072D01*
X73996928Y-63670586D01*
X73856788Y-63568768D01*
X73702445Y-63490127D01*
X73537701Y-63436598D01*
X73537699Y-63436597D01*
X73537698Y-63436597D01*
X73406271Y-63415781D01*
X73366611Y-63409500D01*
X73193389Y-63409500D01*
X73153728Y-63415781D01*
X73022302Y-63436597D01*
X72857552Y-63490128D01*
X72703211Y-63568768D01*
X72623256Y-63626859D01*
X72563072Y-63670586D01*
X72563070Y-63670588D01*
X72563069Y-63670588D01*
X72440588Y-63793069D01*
X72440581Y-63793078D01*
X72394817Y-63856066D01*
X72339487Y-63898732D01*
X72269874Y-63904710D01*
X72208079Y-63872104D01*
X72173722Y-63811265D01*
X72170500Y-63783180D01*
X72170500Y-62673247D01*
X72190185Y-62606208D01*
X72242989Y-62560453D01*
X72304231Y-62549629D01*
X72343710Y-62552736D01*
X72797037Y-62099409D01*
X72814075Y-62162993D01*
X72879901Y-62277007D01*
X72972993Y-62370099D01*
X73087007Y-62435925D01*
X73150589Y-62452962D01*
X72697261Y-62906289D01*
X72697262Y-62906290D01*
X72703471Y-62910801D01*
X72857742Y-62989408D01*
X73022415Y-63042914D01*
X73193429Y-63070000D01*
X73366571Y-63070000D01*
X73537584Y-63042914D01*
X73702257Y-62989408D01*
X73856525Y-62910803D01*
X73862736Y-62906289D01*
X73862737Y-62906289D01*
X73409410Y-62452962D01*
X73472993Y-62435925D01*
X73587007Y-62370099D01*
X73680099Y-62277007D01*
X73745925Y-62162993D01*
X73762962Y-62099410D01*
X74216289Y-62552737D01*
X74216289Y-62552736D01*
X74220803Y-62546525D01*
X74299408Y-62392257D01*
X74352914Y-62227584D01*
X74380000Y-62056571D01*
X74380000Y-61883428D01*
X74352914Y-61712415D01*
X74299408Y-61547742D01*
X74220801Y-61393471D01*
X74216290Y-61387262D01*
X74216289Y-61387261D01*
X73762962Y-61840589D01*
X73745925Y-61777007D01*
X73680099Y-61662993D01*
X73587007Y-61569901D01*
X73472993Y-61504075D01*
X73409409Y-61487037D01*
X73862737Y-61033709D01*
X73856525Y-61029196D01*
X73702259Y-60950592D01*
X73537584Y-60897085D01*
X73366571Y-60870000D01*
X73193429Y-60870000D01*
X73022415Y-60897085D01*
X72857740Y-60950592D01*
X72703480Y-61029193D01*
X72703463Y-61029203D01*
X72697261Y-61033708D01*
X72697261Y-61033709D01*
X73150590Y-61487037D01*
X73087007Y-61504075D01*
X72972993Y-61569901D01*
X72879901Y-61662993D01*
X72814075Y-61777007D01*
X72797037Y-61840590D01*
X72343709Y-61387261D01*
X72304235Y-61390370D01*
X72290622Y-61387511D01*
X72276853Y-61389491D01*
X72257104Y-61380472D01*
X72235857Y-61376010D01*
X72225950Y-61366244D01*
X72213297Y-61360466D01*
X72201559Y-61342201D01*
X72186098Y-61326961D01*
X72182270Y-61312187D01*
X72175523Y-61301688D01*
X72170500Y-61266753D01*
X72170500Y-60156819D01*
X72190185Y-60089780D01*
X72242989Y-60044025D01*
X72312147Y-60034081D01*
X72375703Y-60063106D01*
G37*
%TD.AperFunction*%
%TD*%
M02*
