<?xml version="1.0" standalone="no"?>
 <!DOCTYPE svg PUBLIC "-//W3C//DTD SVG 1.1//EN" 
 "http://www.w3.org/Graphics/SVG/1.1/DTD/svg11.dtd"> 
<svg
  xmlns:svg="http://www.w3.org/2000/svg"
  xmlns="http://www.w3.org/2000/svg"
  xmlns:xlink="http://www.w3.org/1999/xlink"
  version="1.1"
  width="297.0022mm" height="210.0072mm" viewBox="0.0000 0.0000 297.0022 210.0072">
<title>SVG Image created as devboard-F_Silkscreen.svg date 2025/12/14 20:50:08 </title>
  <desc>Image generated by PCBNEW </desc>
<g style="fill:#000000; fill-opacity:1.0000;stroke:#000000; stroke-opacity:1.0000;
stroke-linecap:round; stroke-linejoin:round;"
 transform="translate(0 0) scale(1 1)">
<path style="fill:#000000; fill-opacity:1.0000; stroke:none;fill-rule:evenodd;"
d="M 83.7319,72.7449
83.7485,72.7462
83.7649,72.7483
83.7810,72.7512
83.7968,72.7548
83.8123,72.7592
83.8275,72.7644
83.8424,72.7702
83.8569,72.7768
83.8710,72.7840
83.8847,72.7919
83.8979,72.8004
83.9107,72.8095
83.9231,72.8192
83.9350,72.8295
83.9463,72.8404
83.9572,72.8517
83.9675,72.8636
83.9772,72.8759
83.9863,72.8888
83.9948,72.9020
84.0027,72.9157
84.0099,72.9298
84.0165,72.9443
84.0223,72.9592
84.0275,72.9744
84.0319,72.9899
84.0355,73.0057
84.0384,73.0218
84.0405,73.0382
84.0418,73.0548
84.0422,73.0716
84.0418,73.0884
84.0405,73.1050
84.0384,73.1214
84.0355,73.1375
84.0319,73.1533
84.0275,73.1688
84.0223,73.1840
84.0165,73.1988
84.0099,73.2133
84.0027,73.2274
83.9948,73.2411
83.9863,73.2544
83.9772,73.2672
83.9675,73.2796
83.9572,73.2914
83.9463,73.3028
83.9350,73.3136
83.9231,73.3239
83.9107,73.3336
83.8979,73.3428
83.8847,73.3513
83.8710,73.3591
83.8569,73.3664
83.8424,73.3729
83.8275,73.3788
83.8123,73.3839
83.7968,73.3883
83.7810,73.3920
83.7649,73.3949
83.7485,73.3970
83.7319,73.3982
83.7151,73.3986
83.6983,73.3982
83.6817,73.3970
83.6653,73.3949
83.6492,73.3920
83.6334,73.3883
83.6179,73.3839
83.6027,73.3788
83.5879,73.3729
83.5734,73.3664
83.5593,73.3591
83.5456,73.3513
83.5323,73.3428
83.5195,73.3336
83.5071,73.3239
83.4953,73.3136
83.4839,73.3028
83.4731,73.2914
83.4628,73.2796
83.4531,73.2672
83.4439,73.2544
83.4354,73.2411
83.4275,73.2274
83.4203,73.2133
83.4138,73.1988
83.4079,73.1840
83.4028,73.1688
83.3984,73.1533
83.3947,73.1375
83.3918,73.1214
83.3897,73.1050
83.3885,73.0884
83.3880,73.0716
83.3885,73.0548
83.3897,73.0382
83.3918,73.0218
83.3947,73.0057
83.3984,72.9899
83.4028,72.9744
83.4079,72.9592
83.4138,72.9443
83.4203,72.9298
83.4275,72.9157
83.4354,72.9020
83.4439,72.8888
83.4531,72.8759
83.4628,72.8636
83.4731,72.8517
83.4839,72.8404
83.4953,72.8295
83.5071,72.8192
83.5195,72.8095
83.5323,72.8004
83.5456,72.7919
83.5593,72.7840
83.5734,72.7768
83.5879,72.7702
83.6027,72.7644
83.6179,72.7592
83.6334,72.7548
83.6492,72.7512
83.6653,72.7483
83.6817,72.7462
83.6983,72.7449
83.7151,72.7445
Z" /> 
<path style="fill:#000000; fill-opacity:1.0000; stroke:none;fill-rule:evenodd;"
d="M 85.6388,71.0805
85.7779,71.3011
85.9090,71.5178
86.0317,71.7315
86.1458,71.9436
86.2509,72.1550
86.2999,72.2609
86.3467,72.3670
86.3910,72.4735
86.4329,72.5806
86.4724,72.6883
86.5093,72.7969
87.7738,72.3403
87.8385,72.5195
86.5649,72.9793
86.5952,73.0917
86.6229,73.2054
86.6478,73.3206
86.6699,73.4375
86.6892,73.5561
86.7057,73.6767
86.7194,73.7994
86.7301,73.9244
87.2721,73.9949
87.2475,74.1838
86.7406,74.1178
86.7416,74.1473
86.7446,74.2425
86.5542,74.2484
86.5512,74.1532
86.5502,74.1230
86.5490,74.0929
85.1087,73.9056
85.1333,73.7167
86.5370,73.8993
86.5265,73.7867
86.5135,73.6759
86.4980,73.5669
86.4802,73.4596
86.4599,73.3538
86.4373,73.2494
86.4123,73.1462
86.3851,73.0443
85.1817,73.4788
85.1170,73.2996
86.3298,72.8617
86.2959,72.7613
86.2598,72.6617
86.2214,72.5627
86.1810,72.4642
86.0937,72.2683
85.9982,72.0731
85.8949,71.8777
85.7839,71.6809
85.6655,71.4820
85.5400,71.2800
84.4523,72.3004
84.4018,72.2876
84.1121,72.2197
83.8264,72.1634
83.5446,72.1185
83.2667,72.0849
82.9925,72.0624
82.7220,72.0507
82.4552,72.0498
82.1920,72.0593
81.9322,72.0792
81.6760,72.1092
81.4231,72.1491
81.1735,72.1988
80.9272,72.2581
80.6841,72.3267
80.4441,72.4045
80.2072,72.4914
80.1532,72.5124
78.8270,71.3390
78.7466,71.5527
78.6728,71.7636
78.6056,71.9726
78.5454,72.1805
78.4922,72.3881
78.4462,72.5963
78.4075,72.8059
78.3764,73.0177
79.5880,73.4612
79.5225,73.6401
78.3548,73.2127
78.3461,73.3166
78.3391,73.4215
78.3339,73.5275
78.3307,73.6346
78.3292,73.7429
78.3297,73.8526
78.3320,73.9637
78.3363,74.0763
79.4607,74.0484
79.4654,74.2388
78.3477,74.2666
78.3516,74.3183
78.3560,74.3703
78.3607,74.4227
78.3658,74.4755
78.3753,74.5703
78.1858,74.5893
78.1763,74.4945
78.1708,74.4381
78.1658,74.3821
78.1612,74.3265
78.1570,74.2713
77.2207,74.2946
77.2160,74.1042
78.1458,74.0811
78.1412,73.9588
78.1388,73.8382
78.1387,73.7192
78.1406,73.6018
78.1447,73.4857
78.1510,73.3710
78.1593,73.2574
78.1697,73.1449
76.6097,72.5739
76.6752,72.3950
78.1927,72.9504
78.2279,72.7233
78.2716,72.4984
78.3235,72.2748
78.3834,72.0516
78.4512,71.8276
78.5267,71.6021
78.6096,71.3739
78.6999,71.1421
78.7502,71.0167
80.1927,72.2930
80.4308,72.2078
80.6719,72.1315
80.9161,72.0641
81.1634,72.0059
81.4139,71.9571
81.6676,71.9178
81.9247,71.8883
82.1852,71.8687
82.4491,71.8591
82.7165,71.8599
82.9874,71.8710
83.2620,71.8929
83.5403,71.9255
83.8223,71.9692
84.1082,72.0241
84.3979,72.0903
85.5770,70.9841
Z" /> 
<path style="fill:#000000; fill-opacity:1.0000; stroke:none;fill-rule:evenodd;"
d="M 82.5230,73.7398
82.5337,73.7886
82.5471,73.8362
82.5633,73.8824
82.5825,73.9273
82.6045,73.9708
82.6295,74.0129
82.6575,74.0536
82.6886,74.0929
82.7228,74.1307
82.7601,74.1671
82.8007,74.2019
82.8446,74.2353
82.8918,74.2671
82.9423,74.2974
82.9963,74.3261
83.0538,74.3532
83.1481,74.3951
83.0643,74.5837
82.9700,74.5418
82.9200,74.5186
82.8722,74.4944
82.8265,74.4691
82.7830,74.4429
82.7415,74.4157
82.7021,74.3876
82.6647,74.3585
82.6293,74.3284
82.5959,74.2975
82.5644,74.2656
82.5348,74.2328
82.5072,74.1992
82.4814,74.1647
82.4574,74.1294
82.4352,74.0932
82.4149,74.0562
82.3932,74.0941
82.3703,74.1308
82.3461,74.1665
82.3207,74.2010
82.2942,74.2345
82.2665,74.2670
82.2378,74.2985
82.2079,74.3290
82.1770,74.3585
82.1452,74.3871
82.1123,74.4149
82.0785,74.4417
82.0437,74.4678
82.0081,74.4931
81.9717,74.5175
81.9344,74.5413
81.8467,74.5957
81.7379,74.4203
81.8256,74.3659
81.8692,74.3379
81.9116,74.3086
81.9526,74.2781
81.9921,74.2463
82.0300,74.2130
82.0663,74.1783
82.1009,74.1420
82.1338,74.1040
82.1647,74.0644
82.1937,74.0230
82.2206,73.9797
82.2454,73.9345
82.2680,73.8873
82.2883,73.8380
82.3062,73.7865
82.3217,73.7329
Z" /> 
<path style="fill:#000000; fill-opacity:1.0000; stroke:none;fill-rule:evenodd;"
d="M 81.0243,72.9100
81.0409,72.9112
81.0573,72.9133
81.0734,72.9162
81.0892,72.9199
81.1047,72.9243
81.1199,72.9294
81.1348,72.9353
81.1493,72.9418
81.1634,72.9491
81.1771,72.9569
81.1903,72.9654
81.2032,72.9746
81.2155,72.9843
81.2274,72.9946
81.2387,73.0054
81.2496,73.0168
81.2599,73.0286
81.2696,73.0410
81.2787,73.0538
81.2872,73.0671
81.2951,73.0808
81.3023,73.0949
81.3089,73.1094
81.3147,73.1242
81.3199,73.1394
81.3243,73.1549
81.3279,73.1707
81.3308,73.1868
81.3329,73.2032
81.3342,73.2198
81.3346,73.2366
81.3342,73.2534
81.3329,73.2700
81.3308,73.2864
81.3279,73.3025
81.3243,73.3183
81.3199,73.3338
81.3147,73.3490
81.3089,73.3639
81.3023,73.3784
81.2951,73.3925
81.2872,73.4062
81.2787,73.4194
81.2696,73.4322
81.2599,73.4446
81.2496,73.4565
81.2387,73.4678
81.2274,73.4787
81.2155,73.4890
81.2032,73.4987
81.1903,73.5078
81.1771,73.5163
81.1634,73.5242
81.1493,73.5314
81.1348,73.5380
81.1199,73.5438
81.1047,73.5490
81.0892,73.5534
81.0734,73.5570
81.0573,73.5599
81.0409,73.5620
81.0243,73.5633
81.0075,73.5637
80.9907,73.5633
80.9741,73.5620
80.9577,73.5599
80.9416,73.5570
80.9258,73.5534
80.9103,73.5490
80.8951,73.5438
80.8803,73.5380
80.8658,73.5314
80.8517,73.5242
80.8380,73.5163
80.8247,73.5078
80.8119,73.4987
80.7995,73.4890
80.7877,73.4787
80.7763,73.4678
80.7655,73.4565
80.7552,73.4446
80.7455,73.4322
80.7363,73.4194
80.7278,73.4062
80.7200,73.3925
80.7127,73.3784
80.7062,73.3639
80.7003,73.3490
80.6952,73.3338
80.6908,73.3183
80.6871,73.3025
80.6842,73.2864
80.6821,73.2700
80.6809,73.2534
80.6805,73.2366
80.6809,73.2198
80.6821,73.2032
80.6842,73.1868
80.6871,73.1707
80.6908,73.1549
80.6952,73.1394
80.7003,73.1242
80.7062,73.1094
80.7127,73.0949
80.7200,73.0808
80.7278,73.0671
80.7363,73.0538
80.7455,73.0410
80.7552,73.0286
80.7655,73.0168
80.7763,73.0054
80.7877,72.9946
80.7995,72.9843
80.8119,72.9746
80.8247,72.9654
80.8380,72.9569
80.8517,72.9491
80.8658,72.9418
80.8803,72.9353
80.8951,72.9294
80.9103,72.9243
80.9258,72.9199
80.9416,72.9162
80.9577,72.9133
80.9741,72.9112
80.9907,72.9100
81.0075,72.9096
Z" /> 
</g>
<g style="fill:none; 
stroke:#000000; stroke-width:0.0875; stroke-opacity:1; 
stroke-linecap:round; stroke-linejoin:round;">
<text x="87.4700" y="67.4900"
textLength="2.0558" font-size="0.9333" lengthAdjust="spacingAndGlyphs"
text-anchor="start" opacity="0" stroke-opacity="0">3V3</text>
<g class="stroked-text"><desc>3V3</desc>
<path d="M87.6276 66.6998
L88.0609 66.6998
" />
<path d="M88.0609 66.6998
L87.8276 66.9664
" />
<path d="M87.8276 66.9664
L87.9276 66.9664
" />
<path d="M87.9276 66.9664
L87.9942 66.9998
" />
<path d="M87.9942 66.9998
L88.0276 67.0331
" />
<path d="M88.0276 67.0331
L88.0609 67.0998
" />
<path d="M88.0609 67.0998
L88.0609 67.2664
" />
<path d="M88.0609 67.2664
L88.0276 67.3331
" />
<path d="M88.0276 67.3331
L87.9942 67.3665
" />
<path d="M87.9942 67.3665
L87.9276 67.3998
" />
<path d="M87.9276 67.3998
L87.7276 67.3998
" />
<path d="M87.7276 67.3998
L87.6609 67.3665
" />
<path d="M87.6609 67.3665
L87.6276 67.3331
" />
<path d="M88.2609 66.6998
L88.4942 67.3998
" />
<path d="M88.4942 67.3998
L88.7276 66.6998
" />
<path d="M88.8942 66.6998
L89.3276 66.6998
" />
<path d="M89.3276 66.6998
L89.0942 66.9664
" />
<path d="M89.0942 66.9664
L89.1942 66.9664
" />
<path d="M89.1942 66.9664
L89.2609 66.9998
" />
<path d="M89.2609 66.9998
L89.2942 67.0331
" />
<path d="M89.2942 67.0331
L89.3276 67.0998
" />
<path d="M89.3276 67.0998
L89.3276 67.2664
" />
<path d="M89.3276 67.2664
L89.2942 67.3331
" />
<path d="M89.2942 67.3331
L89.2609 67.3665
" />
<path d="M89.2609 67.3665
L89.1942 67.3998
" />
<path d="M89.1942 67.3998
L88.9942 67.3998
" />
<path d="M88.9942 67.3998
L88.9276 67.3665
" />
<path d="M88.9276 67.3665
L88.8942 67.3331
" />
</g><text x="74.9700" y="64.8600"
textLength="0.7892" font-size="0.9333" lengthAdjust="spacingAndGlyphs"
text-anchor="start" opacity="0" stroke-opacity="0">2</text>
<g class="stroked-text"><desc>2</desc>
<path d="M75.1609 64.1364
L75.1942 64.1031
" />
<path d="M75.1942 64.1031
L75.2609 64.0698
" />
<path d="M75.2609 64.0698
L75.4276 64.0698
" />
<path d="M75.4276 64.0698
L75.4942 64.1031
" />
<path d="M75.4942 64.1031
L75.5276 64.1364
" />
<path d="M75.5276 64.1364
L75.5609 64.2031
" />
<path d="M75.5609 64.2031
L75.5609 64.2698
" />
<path d="M75.5609 64.2698
L75.5276 64.3698
" />
<path d="M75.5276 64.3698
L75.1276 64.7698
" />
<path d="M75.1276 64.7698
L75.5609 64.7698
" />
</g><text x="74.9500" y="87.6700"
textLength="2.2558" font-size="0.9333" lengthAdjust="spacingAndGlyphs"
text-anchor="start" opacity="0" stroke-opacity="0">GND</text>
<g class="stroked-text"><desc>GND</desc>
<path d="M75.5409 86.9131
L75.4742 86.8798
" />
<path d="M75.4742 86.8798
L75.3742 86.8798
" />
<path d="M75.3742 86.8798
L75.2742 86.9131
" />
<path d="M75.2742 86.9131
L75.2076 86.9798
" />
<path d="M75.2076 86.9798
L75.1742 87.0464
" />
<path d="M75.1742 87.0464
L75.1409 87.1798
" />
<path d="M75.1409 87.1798
L75.1409 87.2798
" />
<path d="M75.1409 87.2798
L75.1742 87.4131
" />
<path d="M75.1742 87.4131
L75.2076 87.4798
" />
<path d="M75.2076 87.4798
L75.2742 87.5464
" />
<path d="M75.2742 87.5464
L75.3742 87.5798
" />
<path d="M75.3742 87.5798
L75.4409 87.5798
" />
<path d="M75.4409 87.5798
L75.5409 87.5464
" />
<path d="M75.5409 87.5464
L75.5742 87.5131
" />
<path d="M75.5742 87.5131
L75.5742 87.2798
" />
<path d="M75.5742 87.2798
L75.4409 87.2798
" />
<path d="M75.8742 87.5798
L75.8742 86.8798
" />
<path d="M75.8742 86.8798
L76.2742 87.5798
" />
<path d="M76.2742 87.5798
L76.2742 86.8798
" />
<path d="M76.6076 87.5798
L76.6076 86.8798
" />
<path d="M76.6076 86.8798
L76.7742 86.8798
" />
<path d="M76.7742 86.8798
L76.8742 86.9131
" />
<path d="M76.8742 86.9131
L76.9409 86.9798
" />
<path d="M76.9409 86.9798
L76.9742 87.0464
" />
<path d="M76.9742 87.0464
L77.0076 87.1798
" />
<path d="M77.0076 87.1798
L77.0076 87.2798
" />
<path d="M77.0076 87.2798
L76.9742 87.4131
" />
<path d="M76.9742 87.4131
L76.9409 87.4798
" />
<path d="M76.9409 87.4798
L76.8742 87.5464
" />
<path d="M76.8742 87.5464
L76.7742 87.5798
" />
<path d="M76.7742 87.5798
L76.6076 87.5798
" />
</g><text x="87.9300" y="90.3300"
textLength="1.4558" font-size="0.9333" lengthAdjust="spacingAndGlyphs"
text-anchor="start" opacity="0" stroke-opacity="0">21</text>
<g class="stroked-text"><desc>21</desc>
<path d="M88.1209 89.6064
L88.1542 89.5731
" />
<path d="M88.1542 89.5731
L88.2209 89.5398
" />
<path d="M88.2209 89.5398
L88.3876 89.5398
" />
<path d="M88.3876 89.5398
L88.4542 89.5731
" />
<path d="M88.4542 89.5731
L88.4876 89.6064
" />
<path d="M88.4876 89.6064
L88.5209 89.6731
" />
<path d="M88.5209 89.6731
L88.5209 89.7398
" />
<path d="M88.5209 89.7398
L88.4876 89.8398
" />
<path d="M88.4876 89.8398
L88.0876 90.2398
" />
<path d="M88.0876 90.2398
L88.5209 90.2398
" />
<path d="M89.1876 90.2398
L88.7876 90.2398
" />
<path d="M88.9876 90.2398
L88.9876 89.5398
" />
<path d="M88.9876 89.5398
L88.9209 89.6398
" />
<path d="M88.9209 89.6398
L88.8542 89.7064
" />
<path d="M88.8542 89.7064
L88.7876 89.7398
" />
</g><text x="87.9100" y="97.9600"
textLength="1.4558" font-size="0.9333" lengthAdjust="spacingAndGlyphs"
text-anchor="start" opacity="0" stroke-opacity="0">18</text>
<g class="stroked-text"><desc>18</desc>
<path d="M88.5009 97.8698
L88.1009 97.8698
" />
<path d="M88.3009 97.8698
L88.3009 97.1698
" />
<path d="M88.3009 97.1698
L88.2342 97.2698
" />
<path d="M88.2342 97.2698
L88.1676 97.3364
" />
<path d="M88.1676 97.3364
L88.1009 97.3698
" />
<path d="M88.9009 97.4698
L88.8342 97.4364
" />
<path d="M88.8342 97.4364
L88.8009 97.4031
" />
<path d="M88.8009 97.4031
L88.7676 97.3364
" />
<path d="M88.7676 97.3364
L88.7676 97.3031
" />
<path d="M88.7676 97.3031
L88.8009 97.2364
" />
<path d="M88.8009 97.2364
L88.8342 97.2031
" />
<path d="M88.8342 97.2031
L88.9009 97.1698
" />
<path d="M88.9009 97.1698
L89.0342 97.1698
" />
<path d="M89.0342 97.1698
L89.1009 97.2031
" />
<path d="M89.1009 97.2031
L89.1342 97.2364
" />
<path d="M89.1342 97.2364
L89.1676 97.3031
" />
<path d="M89.1676 97.3031
L89.1676 97.3364
" />
<path d="M89.1676 97.3364
L89.1342 97.4031
" />
<path d="M89.1342 97.4031
L89.1009 97.4364
" />
<path d="M89.1009 97.4364
L89.0342 97.4698
" />
<path d="M89.0342 97.4698
L88.9009 97.4698
" />
<path d="M88.9009 97.4698
L88.8342 97.5031
" />
<path d="M88.8342 97.5031
L88.8009 97.5365
" />
<path d="M88.8009 97.5365
L88.7676 97.6031
" />
<path d="M88.7676 97.6031
L88.7676 97.7364
" />
<path d="M88.7676 97.7364
L88.8009 97.8031
" />
<path d="M88.8009 97.8031
L88.8342 97.8364
" />
<path d="M88.8342 97.8364
L88.9009 97.8698
" />
<path d="M88.9009 97.8698
L89.0342 97.8698
" />
<path d="M89.0342 97.8698
L89.1009 97.8364
" />
<path d="M89.1009 97.8364
L89.1342 97.8031
" />
<path d="M89.1342 97.8031
L89.1676 97.7364
" />
<path d="M89.1676 97.7364
L89.1676 97.6031
" />
<path d="M89.1676 97.6031
L89.1342 97.5365
" />
<path d="M89.1342 97.5365
L89.1009 97.5031
" />
<path d="M89.1009 97.5031
L89.0342 97.4698
" />
</g><text x="87.8700" y="95.4100"
textLength="1.4558" font-size="0.9333" lengthAdjust="spacingAndGlyphs"
text-anchor="start" opacity="0" stroke-opacity="0">19</text>
<g class="stroked-text"><desc>19</desc>
<path d="M88.4609 95.3198
L88.0609 95.3198
" />
<path d="M88.2609 95.3198
L88.2609 94.6198
" />
<path d="M88.2609 94.6198
L88.1942 94.7198
" />
<path d="M88.1942 94.7198
L88.1276 94.7865
" />
<path d="M88.1276 94.7865
L88.0609 94.8198
" />
<path d="M88.7942 95.3198
L88.9276 95.3198
" />
<path d="M88.9276 95.3198
L88.9942 95.2865
" />
<path d="M88.9942 95.2865
L89.0276 95.2531
" />
<path d="M89.0276 95.2531
L89.0942 95.1531
" />
<path d="M89.0942 95.1531
L89.1276 95.0198
" />
<path d="M89.1276 95.0198
L89.1276 94.7531
" />
<path d="M89.1276 94.7531
L89.0942 94.6864
" />
<path d="M89.0942 94.6864
L89.0609 94.6531
" />
<path d="M89.0609 94.6531
L88.9942 94.6198
" />
<path d="M88.9942 94.6198
L88.8609 94.6198
" />
<path d="M88.8609 94.6198
L88.7942 94.6531
" />
<path d="M88.7942 94.6531
L88.7609 94.6864
" />
<path d="M88.7609 94.6864
L88.7276 94.7531
" />
<path d="M88.7276 94.7531
L88.7276 94.9198
" />
<path d="M88.7276 94.9198
L88.7609 94.9864
" />
<path d="M88.7609 94.9864
L88.7942 95.0198
" />
<path d="M88.7942 95.0198
L88.8609 95.0531
" />
<path d="M88.8609 95.0531
L88.9942 95.0531
" />
<path d="M88.9942 95.0531
L89.0609 95.0198
" />
<path d="M89.0609 95.0198
L89.0942 94.9864
" />
<path d="M89.0942 94.9864
L89.1276 94.9198
" />
</g><text x="74.9100" y="97.8400"
textLength="1.4558" font-size="0.9333" lengthAdjust="spacingAndGlyphs"
text-anchor="start" opacity="0" stroke-opacity="0">13</text>
<g class="stroked-text"><desc>13</desc>
<path d="M75.5009 97.7498
L75.1009 97.7498
" />
<path d="M75.3009 97.7498
L75.3009 97.0498
" />
<path d="M75.3009 97.0498
L75.2342 97.1498
" />
<path d="M75.2342 97.1498
L75.1676 97.2164
" />
<path d="M75.1676 97.2164
L75.1009 97.2498
" />
<path d="M75.7342 97.0498
L76.1676 97.0498
" />
<path d="M76.1676 97.0498
L75.9342 97.3164
" />
<path d="M75.9342 97.3164
L76.0342 97.3164
" />
<path d="M76.0342 97.3164
L76.1009 97.3498
" />
<path d="M76.1009 97.3498
L76.1342 97.3831
" />
<path d="M76.1342 97.3831
L76.1676 97.4498
" />
<path d="M76.1676 97.4498
L76.1676 97.6165
" />
<path d="M76.1676 97.6165
L76.1342 97.6831
" />
<path d="M76.1342 97.6831
L76.1009 97.7164
" />
<path d="M76.1009 97.7164
L76.0342 97.7498
" />
<path d="M76.0342 97.7498
L75.8342 97.7498
" />
<path d="M75.8342 97.7498
L75.7676 97.7164
" />
<path d="M75.7676 97.7164
L75.7342 97.6831
" />
</g><text x="74.8800" y="75.0900"
textLength="2.2558" font-size="0.9333" lengthAdjust="spacingAndGlyphs"
text-anchor="start" opacity="0" stroke-opacity="0">GND</text>
<g class="stroked-text"><desc>GND</desc>
<path d="M75.4709 74.3331
L75.4042 74.2998
" />
<path d="M75.4042 74.2998
L75.3042 74.2998
" />
<path d="M75.3042 74.2998
L75.2042 74.3331
" />
<path d="M75.2042 74.3331
L75.1376 74.3998
" />
<path d="M75.1376 74.3998
L75.1042 74.4664
" />
<path d="M75.1042 74.4664
L75.0709 74.5998
" />
<path d="M75.0709 74.5998
L75.0709 74.6998
" />
<path d="M75.0709 74.6998
L75.1042 74.8331
" />
<path d="M75.1042 74.8331
L75.1376 74.8998
" />
<path d="M75.1376 74.8998
L75.2042 74.9664
" />
<path d="M75.2042 74.9664
L75.3042 74.9998
" />
<path d="M75.3042 74.9998
L75.3709 74.9998
" />
<path d="M75.3709 74.9998
L75.4709 74.9664
" />
<path d="M75.4709 74.9664
L75.5042 74.9331
" />
<path d="M75.5042 74.9331
L75.5042 74.6998
" />
<path d="M75.5042 74.6998
L75.3709 74.6998
" />
<path d="M75.8042 74.9998
L75.8042 74.2998
" />
<path d="M75.8042 74.2998
L76.2042 74.9998
" />
<path d="M76.2042 74.9998
L76.2042 74.2998
" />
<path d="M76.5376 74.9998
L76.5376 74.2998
" />
<path d="M76.5376 74.2998
L76.7042 74.2998
" />
<path d="M76.7042 74.2998
L76.8042 74.3331
" />
<path d="M76.8042 74.3331
L76.8709 74.3998
" />
<path d="M76.8709 74.3998
L76.9042 74.4664
" />
<path d="M76.9042 74.4664
L76.9376 74.5998
" />
<path d="M76.9376 74.5998
L76.9376 74.6998
" />
<path d="M76.9376 74.6998
L76.9042 74.8331
" />
<path d="M76.9042 74.8331
L76.8709 74.8998
" />
<path d="M76.8709 74.8998
L76.8042 74.9664
" />
<path d="M76.8042 74.9664
L76.7042 74.9998
" />
<path d="M76.7042 74.9998
L76.5376 74.9998
" />
</g><text x="86.7600" y="57.4200"
textLength="2.8225" font-size="0.9333" lengthAdjust="spacingAndGlyphs"
text-anchor="start" opacity="0" stroke-opacity="0">VBUS</text>
<g class="stroked-text"><desc>VBUS</desc>
<path d="M86.8842 56.6298
L87.1176 57.3298
" />
<path d="M87.1176 57.3298
L87.3509 56.6298
" />
<path d="M87.8176 56.9631
L87.9176 56.9964
" />
<path d="M87.9176 56.9964
L87.9509 57.0298
" />
<path d="M87.9509 57.0298
L87.9842 57.0964
" />
<path d="M87.9842 57.0964
L87.9842 57.1964
" />
<path d="M87.9842 57.1964
L87.9509 57.2631
" />
<path d="M87.9509 57.2631
L87.9176 57.2965
" />
<path d="M87.9176 57.2965
L87.8509 57.3298
" />
<path d="M87.8509 57.3298
L87.5842 57.3298
" />
<path d="M87.5842 57.3298
L87.5842 56.6298
" />
<path d="M87.5842 56.6298
L87.8176 56.6298
" />
<path d="M87.8176 56.6298
L87.8842 56.6631
" />
<path d="M87.8842 56.6631
L87.9176 56.6964
" />
<path d="M87.9176 56.6964
L87.9509 56.7631
" />
<path d="M87.9509 56.7631
L87.9509 56.8298
" />
<path d="M87.9509 56.8298
L87.9176 56.8964
" />
<path d="M87.9176 56.8964
L87.8842 56.9298
" />
<path d="M87.8842 56.9298
L87.8176 56.9631
" />
<path d="M87.8176 56.9631
L87.5842 56.9631
" />
<path d="M88.2842 56.6298
L88.2842 57.1964
" />
<path d="M88.2842 57.1964
L88.3176 57.2631
" />
<path d="M88.3176 57.2631
L88.3509 57.2965
" />
<path d="M88.3509 57.2965
L88.4176 57.3298
" />
<path d="M88.4176 57.3298
L88.5509 57.3298
" />
<path d="M88.5509 57.3298
L88.6176 57.2965
" />
<path d="M88.6176 57.2965
L88.6509 57.2631
" />
<path d="M88.6509 57.2631
L88.6842 57.1964
" />
<path d="M88.6842 57.1964
L88.6842 56.6298
" />
<path d="M88.9842 57.2965
L89.0842 57.3298
" />
<path d="M89.0842 57.3298
L89.2509 57.3298
" />
<path d="M89.2509 57.3298
L89.3176 57.2965
" />
<path d="M89.3176 57.2965
L89.3509 57.2631
" />
<path d="M89.3509 57.2631
L89.3842 57.1964
" />
<path d="M89.3842 57.1964
L89.3842 57.1298
" />
<path d="M89.3842 57.1298
L89.3509 57.0631
" />
<path d="M89.3509 57.0631
L89.3176 57.0298
" />
<path d="M89.3176 57.0298
L89.2509 56.9964
" />
<path d="M89.2509 56.9964
L89.1176 56.9631
" />
<path d="M89.1176 56.9631
L89.0509 56.9298
" />
<path d="M89.0509 56.9298
L89.0176 56.8964
" />
<path d="M89.0176 56.8964
L88.9842 56.8298
" />
<path d="M88.9842 56.8298
L88.9842 56.7631
" />
<path d="M88.9842 56.7631
L89.0176 56.6964
" />
<path d="M89.0176 56.6964
L89.0509 56.6631
" />
<path d="M89.0509 56.6631
L89.1176 56.6298
" />
<path d="M89.1176 56.6298
L89.2842 56.6298
" />
<path d="M89.2842 56.6298
L89.3842 56.6631
" />
</g><text x="74.9100" y="85.2000"
textLength="0.7892" font-size="0.9333" lengthAdjust="spacingAndGlyphs"
text-anchor="start" opacity="0" stroke-opacity="0">9</text>
<g class="stroked-text"><desc>9</desc>
<path d="M75.1676 85.1098
L75.3009 85.1098
" />
<path d="M75.3009 85.1098
L75.3676 85.0764
" />
<path d="M75.3676 85.0764
L75.4009 85.0431
" />
<path d="M75.4009 85.0431
L75.4676 84.9431
" />
<path d="M75.4676 84.9431
L75.5009 84.8098
" />
<path d="M75.5009 84.8098
L75.5009 84.5431
" />
<path d="M75.5009 84.5431
L75.4676 84.4764
" />
<path d="M75.4676 84.4764
L75.4342 84.4431
" />
<path d="M75.4342 84.4431
L75.3676 84.4098
" />
<path d="M75.3676 84.4098
L75.2342 84.4098
" />
<path d="M75.2342 84.4098
L75.1676 84.4431
" />
<path d="M75.1676 84.4431
L75.1342 84.4764
" />
<path d="M75.1342 84.4764
L75.1009 84.5431
" />
<path d="M75.1009 84.5431
L75.1009 84.7098
" />
<path d="M75.1009 84.7098
L75.1342 84.7764
" />
<path d="M75.1342 84.7764
L75.1676 84.8098
" />
<path d="M75.1676 84.8098
L75.2342 84.8431
" />
<path d="M75.2342 84.8431
L75.3676 84.8431
" />
<path d="M75.3676 84.8431
L75.4342 84.8098
" />
<path d="M75.4342 84.8098
L75.4676 84.7764
" />
<path d="M75.4676 84.7764
L75.5009 84.7098
" />
</g><text x="74.9800" y="67.3400"
textLength="0.7892" font-size="0.9333" lengthAdjust="spacingAndGlyphs"
text-anchor="start" opacity="0" stroke-opacity="0">3</text>
<g class="stroked-text"><desc>3</desc>
<path d="M75.1376 66.5498
L75.5709 66.5498
" />
<path d="M75.5709 66.5498
L75.3376 66.8165
" />
<path d="M75.3376 66.8165
L75.4376 66.8165
" />
<path d="M75.4376 66.8165
L75.5042 66.8498
" />
<path d="M75.5042 66.8498
L75.5376 66.8831
" />
<path d="M75.5376 66.8831
L75.5709 66.9498
" />
<path d="M75.5709 66.9498
L75.5709 67.1165
" />
<path d="M75.5709 67.1165
L75.5376 67.1831
" />
<path d="M75.5376 67.1831
L75.5042 67.2164
" />
<path d="M75.5042 67.2164
L75.4376 67.2498
" />
<path d="M75.4376 67.2498
L75.2376 67.2498
" />
<path d="M75.2376 67.2498
L75.1709 67.2164
" />
<path d="M75.1709 67.2164
L75.1376 67.1831
" />
</g><text x="87.3200" y="59.8600"
textLength="2.2558" font-size="0.9333" lengthAdjust="spacingAndGlyphs"
text-anchor="start" opacity="0" stroke-opacity="0">GND</text>
<g class="stroked-text"><desc>GND</desc>
<path d="M87.9109 59.1031
L87.8442 59.0698
" />
<path d="M87.8442 59.0698
L87.7442 59.0698
" />
<path d="M87.7442 59.0698
L87.6442 59.1031
" />
<path d="M87.6442 59.1031
L87.5776 59.1698
" />
<path d="M87.5776 59.1698
L87.5442 59.2364
" />
<path d="M87.5442 59.2364
L87.5109 59.3698
" />
<path d="M87.5109 59.3698
L87.5109 59.4698
" />
<path d="M87.5109 59.4698
L87.5442 59.6031
" />
<path d="M87.5442 59.6031
L87.5776 59.6698
" />
<path d="M87.5776 59.6698
L87.6442 59.7364
" />
<path d="M87.6442 59.7364
L87.7442 59.7698
" />
<path d="M87.7442 59.7698
L87.8109 59.7698
" />
<path d="M87.8109 59.7698
L87.9109 59.7364
" />
<path d="M87.9109 59.7364
L87.9442 59.7031
" />
<path d="M87.9442 59.7031
L87.9442 59.4698
" />
<path d="M87.9442 59.4698
L87.8109 59.4698
" />
<path d="M88.2442 59.7698
L88.2442 59.0698
" />
<path d="M88.2442 59.0698
L88.6442 59.7698
" />
<path d="M88.6442 59.7698
L88.6442 59.0698
" />
<path d="M88.9776 59.7698
L88.9776 59.0698
" />
<path d="M88.9776 59.0698
L89.1442 59.0698
" />
<path d="M89.1442 59.0698
L89.2442 59.1031
" />
<path d="M89.2442 59.1031
L89.3109 59.1698
" />
<path d="M89.3109 59.1698
L89.3442 59.2364
" />
<path d="M89.3442 59.2364
L89.3776 59.3698
" />
<path d="M89.3776 59.3698
L89.3776 59.4698
" />
<path d="M89.3776 59.4698
L89.3442 59.6031
" />
<path d="M89.3442 59.6031
L89.3109 59.6698
" />
<path d="M89.3109 59.6698
L89.2442 59.7364
" />
<path d="M89.2442 59.7364
L89.1442 59.7698
" />
<path d="M89.1442 59.7698
L88.9776 59.7698
" />
</g><text x="87.9800" y="80.1800"
textLength="1.4558" font-size="0.9333" lengthAdjust="spacingAndGlyphs"
text-anchor="start" opacity="0" stroke-opacity="0">23</text>
<g class="stroked-text"><desc>23</desc>
<path d="M88.1709 79.4564
L88.2042 79.4231
" />
<path d="M88.2042 79.4231
L88.2709 79.3898
" />
<path d="M88.2709 79.3898
L88.4376 79.3898
" />
<path d="M88.4376 79.3898
L88.5042 79.4231
" />
<path d="M88.5042 79.4231
L88.5376 79.4564
" />
<path d="M88.5376 79.4564
L88.5709 79.5231
" />
<path d="M88.5709 79.5231
L88.5709 79.5898
" />
<path d="M88.5709 79.5898
L88.5376 79.6898
" />
<path d="M88.5376 79.6898
L88.1376 80.0898
" />
<path d="M88.1376 80.0898
L88.5709 80.0898
" />
<path d="M88.8042 79.3898
L89.2376 79.3898
" />
<path d="M89.2376 79.3898
L89.0042 79.6564
" />
<path d="M89.0042 79.6564
L89.1042 79.6564
" />
<path d="M89.1042 79.6564
L89.1709 79.6898
" />
<path d="M89.1709 79.6898
L89.2042 79.7231
" />
<path d="M89.2042 79.7231
L89.2376 79.7898
" />
<path d="M89.2376 79.7898
L89.2376 79.9564
" />
<path d="M89.2376 79.9564
L89.2042 80.0231
" />
<path d="M89.2042 80.0231
L89.1709 80.0564
" />
<path d="M89.1709 80.0564
L89.1042 80.0898
" />
<path d="M89.1042 80.0898
L88.9042 80.0898
" />
<path d="M88.9042 80.0898
L88.8376 80.0564
" />
<path d="M88.8376 80.0564
L88.8042 80.0231
" />
</g><text x="87.8700" y="92.8600"
textLength="1.4558" font-size="0.9333" lengthAdjust="spacingAndGlyphs"
text-anchor="start" opacity="0" stroke-opacity="0">20</text>
<g class="stroked-text"><desc>20</desc>
<path d="M88.0609 92.1364
L88.0942 92.1031
" />
<path d="M88.0942 92.1031
L88.1609 92.0698
" />
<path d="M88.1609 92.0698
L88.3276 92.0698
" />
<path d="M88.3276 92.0698
L88.3942 92.1031
" />
<path d="M88.3942 92.1031
L88.4276 92.1364
" />
<path d="M88.4276 92.1364
L88.4609 92.2031
" />
<path d="M88.4609 92.2031
L88.4609 92.2698
" />
<path d="M88.4609 92.2698
L88.4276 92.3698
" />
<path d="M88.4276 92.3698
L88.0276 92.7698
" />
<path d="M88.0276 92.7698
L88.4609 92.7698
" />
<path d="M88.8942 92.0698
L88.9609 92.0698
" />
<path d="M88.9609 92.0698
L89.0276 92.1031
" />
<path d="M89.0276 92.1031
L89.0609 92.1364
" />
<path d="M89.0609 92.1364
L89.0942 92.2031
" />
<path d="M89.0942 92.2031
L89.1276 92.3364
" />
<path d="M89.1276 92.3364
L89.1276 92.5031
" />
<path d="M89.1276 92.5031
L89.0942 92.6364
" />
<path d="M89.0942 92.6364
L89.0609 92.7031
" />
<path d="M89.0609 92.7031
L89.0276 92.7364
" />
<path d="M89.0276 92.7364
L88.9609 92.7698
" />
<path d="M88.9609 92.7698
L88.8942 92.7698
" />
<path d="M88.8942 92.7698
L88.8276 92.7364
" />
<path d="M88.8276 92.7364
L88.7942 92.7031
" />
<path d="M88.7942 92.7031
L88.7609 92.6364
" />
<path d="M88.7609 92.6364
L88.7276 92.5031
" />
<path d="M88.7276 92.5031
L88.7276 92.3364
" />
<path d="M88.7276 92.3364
L88.7609 92.2031
" />
<path d="M88.7609 92.2031
L88.7942 92.1364
" />
<path d="M88.7942 92.1364
L88.8276 92.1031
" />
<path d="M88.8276 92.1031
L88.8942 92.0698
" />
</g><text x="87.9900" y="77.5800"
textLength="1.4558" font-size="0.9333" lengthAdjust="spacingAndGlyphs"
text-anchor="start" opacity="0" stroke-opacity="0">24</text>
<g class="stroked-text"><desc>24</desc>
<path d="M88.1809 76.8564
L88.2142 76.8231
" />
<path d="M88.2142 76.8231
L88.2809 76.7898
" />
<path d="M88.2809 76.7898
L88.4476 76.7898
" />
<path d="M88.4476 76.7898
L88.5142 76.8231
" />
<path d="M88.5142 76.8231
L88.5476 76.8564
" />
<path d="M88.5476 76.8564
L88.5809 76.9231
" />
<path d="M88.5809 76.9231
L88.5809 76.9898
" />
<path d="M88.5809 76.9898
L88.5476 77.0898
" />
<path d="M88.5476 77.0898
L88.1476 77.4898
" />
<path d="M88.1476 77.4898
L88.5809 77.4898
" />
<path d="M89.1809 77.0231
L89.1809 77.4898
" />
<path d="M89.0142 76.7565
L88.8476 77.2565
" />
<path d="M88.8476 77.2565
L89.2809 77.2565
" />
</g><text x="88.0100" y="70.0100"
textLength="1.4558" font-size="0.9333" lengthAdjust="spacingAndGlyphs"
text-anchor="start" opacity="0" stroke-opacity="0">27</text>
<g class="stroked-text"><desc>27</desc>
<path d="M88.2009 69.2865
L88.2342 69.2531
" />
<path d="M88.2342 69.2531
L88.3009 69.2198
" />
<path d="M88.3009 69.2198
L88.4676 69.2198
" />
<path d="M88.4676 69.2198
L88.5342 69.2531
" />
<path d="M88.5342 69.2531
L88.5676 69.2865
" />
<path d="M88.5676 69.2865
L88.6009 69.3531
" />
<path d="M88.6009 69.3531
L88.6009 69.4198
" />
<path d="M88.6009 69.4198
L88.5676 69.5198
" />
<path d="M88.5676 69.5198
L88.1676 69.9198
" />
<path d="M88.1676 69.9198
L88.6009 69.9198
" />
<path d="M88.8342 69.2198
L89.3009 69.2198
" />
<path d="M89.3009 69.2198
L89.0009 69.9198
" />
</g><text x="87.9000" y="105.4100"
textLength="1.4558" font-size="0.9333" lengthAdjust="spacingAndGlyphs"
text-anchor="start" opacity="0" stroke-opacity="0">16</text>
<g class="stroked-text"><desc>16</desc>
<path d="M88.4909 105.3198
L88.0909 105.3198
" />
<path d="M88.2909 105.3198
L88.2909 104.6198
" />
<path d="M88.2909 104.6198
L88.2242 104.7198
" />
<path d="M88.2242 104.7198
L88.1576 104.7865
" />
<path d="M88.1576 104.7865
L88.0909 104.8198
" />
<path d="M89.0909 104.6198
L88.9576 104.6198
" />
<path d="M88.9576 104.6198
L88.8909 104.6531
" />
<path d="M88.8909 104.6531
L88.8576 104.6864
" />
<path d="M88.8576 104.6864
L88.7909 104.7865
" />
<path d="M88.7909 104.7865
L88.7576 104.9198
" />
<path d="M88.7576 104.9198
L88.7576 105.1864
" />
<path d="M88.7576 105.1864
L88.7909 105.2531
" />
<path d="M88.7909 105.2531
L88.8242 105.2865
" />
<path d="M88.8242 105.2865
L88.8909 105.3198
" />
<path d="M88.8909 105.3198
L89.0242 105.3198
" />
<path d="M89.0242 105.3198
L89.0909 105.2865
" />
<path d="M89.0909 105.2865
L89.1242 105.2531
" />
<path d="M89.1242 105.2531
L89.1576 105.1864
" />
<path d="M89.1576 105.1864
L89.1576 105.0198
" />
<path d="M89.1576 105.0198
L89.1242 104.9531
" />
<path d="M89.1242 104.9531
L89.0909 104.9198
" />
<path d="M89.0909 104.9198
L89.0242 104.8864
" />
<path d="M89.0242 104.8864
L88.8909 104.8864
" />
<path d="M88.8909 104.8864
L88.8242 104.9198
" />
<path d="M88.8242 104.9198
L88.7909 104.9531
" />
<path d="M88.7909 104.9531
L88.7576 105.0198
" />
</g><text x="74.9200" y="57.3400"
textLength="0.7892" font-size="0.9333" lengthAdjust="spacingAndGlyphs"
text-anchor="start" opacity="0" stroke-opacity="0">0</text>
<g class="stroked-text"><desc>0</desc>
<path d="M75.2776 56.5498
L75.3442 56.5498
" />
<path d="M75.3442 56.5498
L75.4109 56.5831
" />
<path d="M75.4109 56.5831
L75.4442 56.6165
" />
<path d="M75.4442 56.6165
L75.4776 56.6831
" />
<path d="M75.4776 56.6831
L75.5109 56.8164
" />
<path d="M75.5109 56.8164
L75.5109 56.9831
" />
<path d="M75.5109 56.9831
L75.4776 57.1165
" />
<path d="M75.4776 57.1165
L75.4442 57.1831
" />
<path d="M75.4442 57.1831
L75.4109 57.2164
" />
<path d="M75.4109 57.2164
L75.3442 57.2498
" />
<path d="M75.3442 57.2498
L75.2776 57.2498
" />
<path d="M75.2776 57.2498
L75.2109 57.2164
" />
<path d="M75.2109 57.2164
L75.1776 57.1831
" />
<path d="M75.1776 57.1831
L75.1442 57.1165
" />
<path d="M75.1442 57.1165
L75.1109 56.9831
" />
<path d="M75.1109 56.9831
L75.1109 56.8164
" />
<path d="M75.1109 56.8164
L75.1442 56.6831
" />
<path d="M75.1442 56.6831
L75.1776 56.6165
" />
<path d="M75.1776 56.6165
L75.2109 56.5831
" />
<path d="M75.2109 56.5831
L75.2776 56.5498
" />
</g><text x="87.2400" y="75.0700"
textLength="2.2558" font-size="0.9333" lengthAdjust="spacingAndGlyphs"
text-anchor="start" opacity="0" stroke-opacity="0">GND</text>
<g class="stroked-text"><desc>GND</desc>
<path d="M87.8309 74.3131
L87.7642 74.2798
" />
<path d="M87.7642 74.2798
L87.6642 74.2798
" />
<path d="M87.6642 74.2798
L87.5642 74.3131
" />
<path d="M87.5642 74.3131
L87.4976 74.3798
" />
<path d="M87.4976 74.3798
L87.4642 74.4464
" />
<path d="M87.4642 74.4464
L87.4309 74.5798
" />
<path d="M87.4309 74.5798
L87.4309 74.6798
" />
<path d="M87.4309 74.6798
L87.4642 74.8131
" />
<path d="M87.4642 74.8131
L87.4976 74.8798
" />
<path d="M87.4976 74.8798
L87.5642 74.9464
" />
<path d="M87.5642 74.9464
L87.6642 74.9798
" />
<path d="M87.6642 74.9798
L87.7309 74.9798
" />
<path d="M87.7309 74.9798
L87.8309 74.9464
" />
<path d="M87.8309 74.9464
L87.8642 74.9131
" />
<path d="M87.8642 74.9131
L87.8642 74.6798
" />
<path d="M87.8642 74.6798
L87.7309 74.6798
" />
<path d="M88.1642 74.9798
L88.1642 74.2798
" />
<path d="M88.1642 74.2798
L88.5642 74.9798
" />
<path d="M88.5642 74.9798
L88.5642 74.2798
" />
<path d="M88.8976 74.9798
L88.8976 74.2798
" />
<path d="M88.8976 74.2798
L89.0642 74.2798
" />
<path d="M89.0642 74.2798
L89.1642 74.3131
" />
<path d="M89.1642 74.3131
L89.2309 74.3798
" />
<path d="M89.2309 74.3798
L89.2642 74.4464
" />
<path d="M89.2642 74.4464
L89.2976 74.5798
" />
<path d="M89.2976 74.5798
L89.2976 74.6798
" />
<path d="M89.2976 74.6798
L89.2642 74.8131
" />
<path d="M89.2642 74.8131
L89.2309 74.8798
" />
<path d="M89.2309 74.8798
L89.1642 74.9464
" />
<path d="M89.1642 74.9464
L89.0642 74.9798
" />
<path d="M89.0642 74.9798
L88.8976 74.9798
" />
</g><text x="74.8700" y="62.3400"
textLength="2.2558" font-size="0.9333" lengthAdjust="spacingAndGlyphs"
text-anchor="start" opacity="0" stroke-opacity="0">GND</text>
<g class="stroked-text"><desc>GND</desc>
<path d="M75.4609 61.5831
L75.3942 61.5498
" />
<path d="M75.3942 61.5498
L75.2942 61.5498
" />
<path d="M75.2942 61.5498
L75.1942 61.5831
" />
<path d="M75.1942 61.5831
L75.1276 61.6498
" />
<path d="M75.1276 61.6498
L75.0942 61.7164
" />
<path d="M75.0942 61.7164
L75.0609 61.8498
" />
<path d="M75.0609 61.8498
L75.0609 61.9498
" />
<path d="M75.0609 61.9498
L75.0942 62.0831
" />
<path d="M75.0942 62.0831
L75.1276 62.1498
" />
<path d="M75.1276 62.1498
L75.1942 62.2164
" />
<path d="M75.1942 62.2164
L75.2942 62.2498
" />
<path d="M75.2942 62.2498
L75.3609 62.2498
" />
<path d="M75.3609 62.2498
L75.4609 62.2164
" />
<path d="M75.4609 62.2164
L75.4942 62.1831
" />
<path d="M75.4942 62.1831
L75.4942 61.9498
" />
<path d="M75.4942 61.9498
L75.3609 61.9498
" />
<path d="M75.7942 62.2498
L75.7942 61.5498
" />
<path d="M75.7942 61.5498
L76.1942 62.2498
" />
<path d="M76.1942 62.2498
L76.1942 61.5498
" />
<path d="M76.5276 62.2498
L76.5276 61.5498
" />
<path d="M76.5276 61.5498
L76.6942 61.5498
" />
<path d="M76.6942 61.5498
L76.7942 61.5831
" />
<path d="M76.7942 61.5831
L76.8609 61.6498
" />
<path d="M76.8609 61.6498
L76.8942 61.7164
" />
<path d="M76.8942 61.7164
L76.9276 61.8498
" />
<path d="M76.9276 61.8498
L76.9276 61.9498
" />
<path d="M76.9276 61.9498
L76.8942 62.0831
" />
<path d="M76.8942 62.0831
L76.8609 62.1498
" />
<path d="M76.8609 62.1498
L76.7942 62.2164
" />
<path d="M76.7942 62.2164
L76.6942 62.2498
" />
<path d="M76.6942 62.2498
L76.5276 62.2498
" />
</g><text x="87.1800" y="100.5100"
textLength="2.2558" font-size="0.9333" lengthAdjust="spacingAndGlyphs"
text-anchor="start" opacity="0" stroke-opacity="0">GND</text>
<g class="stroked-text"><desc>GND</desc>
<path d="M87.7709 99.7531
L87.7042 99.7198
" />
<path d="M87.7042 99.7198
L87.6042 99.7198
" />
<path d="M87.6042 99.7198
L87.5042 99.7531
" />
<path d="M87.5042 99.7531
L87.4376 99.8198
" />
<path d="M87.4376 99.8198
L87.4042 99.8864
" />
<path d="M87.4042 99.8864
L87.3709 100.0198
" />
<path d="M87.3709 100.0198
L87.3709 100.1198
" />
<path d="M87.3709 100.1198
L87.4042 100.2531
" />
<path d="M87.4042 100.2531
L87.4376 100.3198
" />
<path d="M87.4376 100.3198
L87.5042 100.3864
" />
<path d="M87.5042 100.3864
L87.6042 100.4198
" />
<path d="M87.6042 100.4198
L87.6709 100.4198
" />
<path d="M87.6709 100.4198
L87.7709 100.3864
" />
<path d="M87.7709 100.3864
L87.8042 100.3531
" />
<path d="M87.8042 100.3531
L87.8042 100.1198
" />
<path d="M87.8042 100.1198
L87.6709 100.1198
" />
<path d="M88.1042 100.4198
L88.1042 99.7198
" />
<path d="M88.1042 99.7198
L88.5042 100.4198
" />
<path d="M88.5042 100.4198
L88.5042 99.7198
" />
<path d="M88.8376 100.4198
L88.8376 99.7198
" />
<path d="M88.8376 99.7198
L89.0042 99.7198
" />
<path d="M89.0042 99.7198
L89.1042 99.7531
" />
<path d="M89.1042 99.7531
L89.1709 99.8198
" />
<path d="M89.1709 99.8198
L89.2042 99.8864
" />
<path d="M89.2042 99.8864
L89.2376 100.0198
" />
<path d="M89.2376 100.0198
L89.2376 100.1198
" />
<path d="M89.2376 100.1198
L89.2042 100.2531
" />
<path d="M89.2042 100.2531
L89.1709 100.3198
" />
<path d="M89.1709 100.3198
L89.1042 100.3864
" />
<path d="M89.1042 100.3864
L89.0042 100.4198
" />
<path d="M89.0042 100.4198
L88.8376 100.4198
" />
</g><text x="88.0400" y="62.3700"
textLength="1.4558" font-size="0.9333" lengthAdjust="spacingAndGlyphs"
text-anchor="start" opacity="0" stroke-opacity="0">29</text>
<g class="stroked-text"><desc>29</desc>
<path d="M88.2309 61.6464
L88.2642 61.6131
" />
<path d="M88.2642 61.6131
L88.3309 61.5798
" />
<path d="M88.3309 61.5798
L88.4976 61.5798
" />
<path d="M88.4976 61.5798
L88.5642 61.6131
" />
<path d="M88.5642 61.6131
L88.5976 61.6464
" />
<path d="M88.5976 61.6464
L88.6309 61.7131
" />
<path d="M88.6309 61.7131
L88.6309 61.7798
" />
<path d="M88.6309 61.7798
L88.5976 61.8798
" />
<path d="M88.5976 61.8798
L88.1976 62.2798
" />
<path d="M88.1976 62.2798
L88.6309 62.2798
" />
<path d="M88.9642 62.2798
L89.0976 62.2798
" />
<path d="M89.0976 62.2798
L89.1642 62.2464
" />
<path d="M89.1642 62.2464
L89.1976 62.2131
" />
<path d="M89.1976 62.2131
L89.2642 62.1131
" />
<path d="M89.2642 62.1131
L89.2976 61.9798
" />
<path d="M89.2976 61.9798
L89.2976 61.7131
" />
<path d="M89.2976 61.7131
L89.2642 61.6464
" />
<path d="M89.2642 61.6464
L89.2309 61.6131
" />
<path d="M89.2309 61.6131
L89.1642 61.5798
" />
<path d="M89.1642 61.5798
L89.0309 61.5798
" />
<path d="M89.0309 61.5798
L88.9642 61.6131
" />
<path d="M88.9642 61.6131
L88.9309 61.6464
" />
<path d="M88.9309 61.6464
L88.8976 61.7131
" />
<path d="M88.8976 61.7131
L88.8976 61.8798
" />
<path d="M88.8976 61.8798
L88.9309 61.9464
" />
<path d="M88.9309 61.9464
L88.9642 61.9798
" />
<path d="M88.9642 61.9798
L89.0309 62.0131
" />
<path d="M89.0309 62.0131
L89.1642 62.0131
" />
<path d="M89.1642 62.0131
L89.2309 61.9798
" />
<path d="M89.2309 61.9798
L89.2642 61.9464
" />
<path d="M89.2642 61.9464
L89.2976 61.8798
" />
</g><text x="74.9800" y="80.1000"
textLength="0.7892" font-size="0.9333" lengthAdjust="spacingAndGlyphs"
text-anchor="start" opacity="0" stroke-opacity="0">7</text>
<g class="stroked-text"><desc>7</desc>
<path d="M75.1376 79.3098
L75.6042 79.3098
" />
<path d="M75.6042 79.3098
L75.3042 80.0098
" />
</g><text x="87.1900" y="82.7800"
textLength="2.2892" font-size="0.9333" lengthAdjust="spacingAndGlyphs"
text-anchor="start" opacity="0" stroke-opacity="0">RUN</text>
<g class="stroked-text"><desc>RUN</desc>
<path d="M87.8142 82.6898
L87.5809 82.3564
" />
<path d="M87.4142 82.6898
L87.4142 81.9898
" />
<path d="M87.4142 81.9898
L87.6809 81.9898
" />
<path d="M87.6809 81.9898
L87.7476 82.0231
" />
<path d="M87.7476 82.0231
L87.7809 82.0564
" />
<path d="M87.7809 82.0564
L87.8142 82.1231
" />
<path d="M87.8142 82.1231
L87.8142 82.2231
" />
<path d="M87.8142 82.2231
L87.7809 82.2898
" />
<path d="M87.7809 82.2898
L87.7476 82.3231
" />
<path d="M87.7476 82.3231
L87.6809 82.3564
" />
<path d="M87.6809 82.3564
L87.4142 82.3564
" />
<path d="M88.1142 81.9898
L88.1142 82.5564
" />
<path d="M88.1142 82.5564
L88.1476 82.6231
" />
<path d="M88.1476 82.6231
L88.1809 82.6564
" />
<path d="M88.1809 82.6564
L88.2476 82.6898
" />
<path d="M88.2476 82.6898
L88.3809 82.6898
" />
<path d="M88.3809 82.6898
L88.4476 82.6564
" />
<path d="M88.4476 82.6564
L88.4809 82.6231
" />
<path d="M88.4809 82.6231
L88.5142 82.5564
" />
<path d="M88.5142 82.5564
L88.5142 81.9898
" />
<path d="M88.8476 82.6898
L88.8476 81.9898
" />
<path d="M88.8476 81.9898
L89.2476 82.6898
" />
<path d="M89.2476 82.6898
L89.2476 81.9898
" />
</g><text x="87.1500" y="87.7900"
textLength="2.2558" font-size="0.9333" lengthAdjust="spacingAndGlyphs"
text-anchor="start" opacity="0" stroke-opacity="0">GND</text>
<g class="stroked-text"><desc>GND</desc>
<path d="M87.7409 87.0331
L87.6742 86.9998
" />
<path d="M87.6742 86.9998
L87.5742 86.9998
" />
<path d="M87.5742 86.9998
L87.4742 87.0331
" />
<path d="M87.4742 87.0331
L87.4076 87.0998
" />
<path d="M87.4076 87.0998
L87.3742 87.1664
" />
<path d="M87.3742 87.1664
L87.3409 87.2998
" />
<path d="M87.3409 87.2998
L87.3409 87.3998
" />
<path d="M87.3409 87.3998
L87.3742 87.5331
" />
<path d="M87.3742 87.5331
L87.4076 87.5998
" />
<path d="M87.4076 87.5998
L87.4742 87.6664
" />
<path d="M87.4742 87.6664
L87.5742 87.6998
" />
<path d="M87.5742 87.6998
L87.6409 87.6998
" />
<path d="M87.6409 87.6998
L87.7409 87.6664
" />
<path d="M87.7409 87.6664
L87.7742 87.6331
" />
<path d="M87.7742 87.6331
L87.7742 87.3998
" />
<path d="M87.7742 87.3998
L87.6409 87.3998
" />
<path d="M88.0742 87.6998
L88.0742 86.9998
" />
<path d="M88.0742 86.9998
L88.4742 87.6998
" />
<path d="M88.4742 87.6998
L88.4742 86.9998
" />
<path d="M88.8076 87.6998
L88.8076 86.9998
" />
<path d="M88.8076 86.9998
L88.9742 86.9998
" />
<path d="M88.9742 86.9998
L89.0742 87.0331
" />
<path d="M89.0742 87.0331
L89.1409 87.0998
" />
<path d="M89.1409 87.0998
L89.1742 87.1664
" />
<path d="M89.1742 87.1664
L89.2076 87.2998
" />
<path d="M89.2076 87.2998
L89.2076 87.3998
" />
<path d="M89.2076 87.3998
L89.1742 87.5331
" />
<path d="M89.1742 87.5331
L89.1409 87.5998
" />
<path d="M89.1409 87.5998
L89.0742 87.6664
" />
<path d="M89.0742 87.6664
L88.9742 87.6998
" />
<path d="M88.9742 87.6998
L88.8076 87.6998
" />
</g><text x="87.8600" y="85.2400"
textLength="1.4558" font-size="0.9333" lengthAdjust="spacingAndGlyphs"
text-anchor="start" opacity="0" stroke-opacity="0">22</text>
<g class="stroked-text"><desc>22</desc>
<path d="M88.0509 84.5164
L88.0842 84.4831
" />
<path d="M88.0842 84.4831
L88.1509 84.4498
" />
<path d="M88.1509 84.4498
L88.3176 84.4498
" />
<path d="M88.3176 84.4498
L88.3842 84.4831
" />
<path d="M88.3842 84.4831
L88.4176 84.5164
" />
<path d="M88.4176 84.5164
L88.4509 84.5831
" />
<path d="M88.4509 84.5831
L88.4509 84.6498
" />
<path d="M88.4509 84.6498
L88.4176 84.7498
" />
<path d="M88.4176 84.7498
L88.0176 85.1498
" />
<path d="M88.0176 85.1498
L88.4509 85.1498
" />
<path d="M88.7176 84.5164
L88.7509 84.4831
" />
<path d="M88.7509 84.4831
L88.8176 84.4498
" />
<path d="M88.8176 84.4498
L88.9842 84.4498
" />
<path d="M88.9842 84.4498
L89.0509 84.4831
" />
<path d="M89.0509 84.4831
L89.0842 84.5164
" />
<path d="M89.0842 84.5164
L89.1176 84.5831
" />
<path d="M89.1176 84.5831
L89.1176 84.6498
" />
<path d="M89.1176 84.6498
L89.0842 84.7498
" />
<path d="M89.0842 84.7498
L88.6842 85.1498
" />
<path d="M88.6842 85.1498
L89.1176 85.1498
" />
</g><text x="87.9600" y="102.9600"
textLength="1.4558" font-size="0.9333" lengthAdjust="spacingAndGlyphs"
text-anchor="start" opacity="0" stroke-opacity="0">17</text>
<g class="stroked-text"><desc>17</desc>
<path d="M88.5509 102.8698
L88.1509 102.8698
" />
<path d="M88.3509 102.8698
L88.3509 102.1698
" />
<path d="M88.3509 102.1698
L88.2842 102.2698
" />
<path d="M88.2842 102.2698
L88.2176 102.3364
" />
<path d="M88.2176 102.3364
L88.1509 102.3698
" />
<path d="M88.7842 102.1698
L89.2509 102.1698
" />
<path d="M89.2509 102.1698
L88.9509 102.8698
" />
</g><text x="74.9000" y="92.7600"
textLength="1.4558" font-size="0.9333" lengthAdjust="spacingAndGlyphs"
text-anchor="start" opacity="0" stroke-opacity="0">11</text>
<g class="stroked-text"><desc>11</desc>
<path d="M75.4909 92.6698
L75.0909 92.6698
" />
<path d="M75.2909 92.6698
L75.2909 91.9698
" />
<path d="M75.2909 91.9698
L75.2242 92.0698
" />
<path d="M75.2242 92.0698
L75.1576 92.1364
" />
<path d="M75.1576 92.1364
L75.0909 92.1698
" />
<path d="M76.1576 92.6698
L75.7576 92.6698
" />
<path d="M75.9576 92.6698
L75.9576 91.9698
" />
<path d="M75.9576 91.9698
L75.8909 92.0698
" />
<path d="M75.8909 92.0698
L75.8242 92.1364
" />
<path d="M75.8242 92.1364
L75.7576 92.1698
" />
</g><text x="75.0100" y="69.9000"
textLength="0.7892" font-size="0.9333" lengthAdjust="spacingAndGlyphs"
text-anchor="start" opacity="0" stroke-opacity="0">4</text>
<g class="stroked-text"><desc>4</desc>
<path d="M75.5342 69.3431
L75.5342 69.8098
" />
<path d="M75.3676 69.0764
L75.2009 69.5764
" />
<path d="M75.2009 69.5764
L75.6342 69.5764
" />
</g><text x="74.9900" y="72.5600"
textLength="0.7892" font-size="0.9333" lengthAdjust="spacingAndGlyphs"
text-anchor="start" opacity="0" stroke-opacity="0">5</text>
<g class="stroked-text"><desc>5</desc>
<path d="M75.5476 71.7698
L75.2142 71.7698
" />
<path d="M75.2142 71.7698
L75.1809 72.1031
" />
<path d="M75.1809 72.1031
L75.2142 72.0698
" />
<path d="M75.2142 72.0698
L75.2809 72.0365
" />
<path d="M75.2809 72.0365
L75.4476 72.0365
" />
<path d="M75.4476 72.0365
L75.5142 72.0698
" />
<path d="M75.5142 72.0698
L75.5476 72.1031
" />
<path d="M75.5476 72.1031
L75.5809 72.1698
" />
<path d="M75.5809 72.1698
L75.5809 72.3364
" />
<path d="M75.5809 72.3364
L75.5476 72.4031
" />
<path d="M75.5476 72.4031
L75.5142 72.4364
" />
<path d="M75.5142 72.4364
L75.4476 72.4698
" />
<path d="M75.4476 72.4698
L75.2809 72.4698
" />
<path d="M75.2809 72.4698
L75.2142 72.4364
" />
<path d="M75.2142 72.4364
L75.1809 72.4031
" />
</g><text x="75.0200" y="77.6400"
textLength="0.7892" font-size="0.9333" lengthAdjust="spacingAndGlyphs"
text-anchor="start" opacity="0" stroke-opacity="0">6</text>
<g class="stroked-text"><desc>6</desc>
<path d="M75.5442 76.8498
L75.4109 76.8498
" />
<path d="M75.4109 76.8498
L75.3442 76.8831
" />
<path d="M75.3442 76.8831
L75.3109 76.9164
" />
<path d="M75.3109 76.9164
L75.2442 77.0164
" />
<path d="M75.2442 77.0164
L75.2109 77.1498
" />
<path d="M75.2109 77.1498
L75.2109 77.4164
" />
<path d="M75.2109 77.4164
L75.2442 77.4831
" />
<path d="M75.2442 77.4831
L75.2776 77.5164
" />
<path d="M75.2776 77.5164
L75.3442 77.5498
" />
<path d="M75.3442 77.5498
L75.4776 77.5498
" />
<path d="M75.4776 77.5498
L75.5442 77.5164
" />
<path d="M75.5442 77.5164
L75.5776 77.4831
" />
<path d="M75.5776 77.4831
L75.6109 77.4164
" />
<path d="M75.6109 77.4164
L75.6109 77.2498
" />
<path d="M75.6109 77.2498
L75.5776 77.1831
" />
<path d="M75.5776 77.1831
L75.5442 77.1498
" />
<path d="M75.5442 77.1498
L75.4776 77.1165
" />
<path d="M75.4776 77.1165
L75.3442 77.1165
" />
<path d="M75.3442 77.1165
L75.2776 77.1498
" />
<path d="M75.2776 77.1498
L75.2442 77.1831
" />
<path d="M75.2442 77.1831
L75.2109 77.2498
" />
</g><text x="88.0600" y="64.9200"
textLength="1.4558" font-size="0.9333" lengthAdjust="spacingAndGlyphs"
text-anchor="start" opacity="0" stroke-opacity="0">28</text>
<g class="stroked-text"><desc>28</desc>
<path d="M88.2509 64.1964
L88.2842 64.1631
" />
<path d="M88.2842 64.1631
L88.3509 64.1298
" />
<path d="M88.3509 64.1298
L88.5176 64.1298
" />
<path d="M88.5176 64.1298
L88.5842 64.1631
" />
<path d="M88.5842 64.1631
L88.6176 64.1964
" />
<path d="M88.6176 64.1964
L88.6509 64.2631
" />
<path d="M88.6509 64.2631
L88.6509 64.3298
" />
<path d="M88.6509 64.3298
L88.6176 64.4298
" />
<path d="M88.6176 64.4298
L88.2176 64.8298
" />
<path d="M88.2176 64.8298
L88.6509 64.8298
" />
<path d="M89.0509 64.4298
L88.9842 64.3965
" />
<path d="M88.9842 64.3965
L88.9509 64.3631
" />
<path d="M88.9509 64.3631
L88.9176 64.2964
" />
<path d="M88.9176 64.2964
L88.9176 64.2631
" />
<path d="M88.9176 64.2631
L88.9509 64.1964
" />
<path d="M88.9509 64.1964
L88.9842 64.1631
" />
<path d="M88.9842 64.1631
L89.0509 64.1298
" />
<path d="M89.0509 64.1298
L89.1842 64.1298
" />
<path d="M89.1842 64.1298
L89.2509 64.1631
" />
<path d="M89.2509 64.1631
L89.2842 64.1964
" />
<path d="M89.2842 64.1964
L89.3176 64.2631
" />
<path d="M89.3176 64.2631
L89.3176 64.2964
" />
<path d="M89.3176 64.2964
L89.2842 64.3631
" />
<path d="M89.2842 64.3631
L89.2509 64.3965
" />
<path d="M89.2509 64.3965
L89.1842 64.4298
" />
<path d="M89.1842 64.4298
L89.0509 64.4298
" />
<path d="M89.0509 64.4298
L88.9842 64.4631
" />
<path d="M88.9842 64.4631
L88.9509 64.4964
" />
<path d="M88.9509 64.4964
L88.9176 64.5631
" />
<path d="M88.9176 64.5631
L88.9176 64.6964
" />
<path d="M88.9176 64.6964
L88.9509 64.7631
" />
<path d="M88.9509 64.7631
L88.9842 64.7964
" />
<path d="M88.9842 64.7964
L89.0509 64.8298
" />
<path d="M89.0509 64.8298
L89.1842 64.8298
" />
<path d="M89.1842 64.8298
L89.2509 64.7964
" />
<path d="M89.2509 64.7964
L89.2842 64.7631
" />
<path d="M89.2842 64.7631
L89.3176 64.6964
" />
<path d="M89.3176 64.6964
L89.3176 64.5631
" />
<path d="M89.3176 64.5631
L89.2842 64.4964
" />
<path d="M89.2842 64.4964
L89.2509 64.4631
" />
<path d="M89.2509 64.4631
L89.1842 64.4298
" />
</g><text x="74.9000" y="100.4500"
textLength="2.2558" font-size="0.9333" lengthAdjust="spacingAndGlyphs"
text-anchor="start" opacity="0" stroke-opacity="0">GND</text>
<g class="stroked-text"><desc>GND</desc>
<path d="M75.4909 99.6931
L75.4242 99.6598
" />
<path d="M75.4242 99.6598
L75.3242 99.6598
" />
<path d="M75.3242 99.6598
L75.2242 99.6931
" />
<path d="M75.2242 99.6931
L75.1576 99.7598
" />
<path d="M75.1576 99.7598
L75.1242 99.8264
" />
<path d="M75.1242 99.8264
L75.0909 99.9598
" />
<path d="M75.0909 99.9598
L75.0909 100.0598
" />
<path d="M75.0909 100.0598
L75.1242 100.1931
" />
<path d="M75.1242 100.1931
L75.1576 100.2598
" />
<path d="M75.1576 100.2598
L75.2242 100.3264
" />
<path d="M75.2242 100.3264
L75.3242 100.3598
" />
<path d="M75.3242 100.3598
L75.3909 100.3598
" />
<path d="M75.3909 100.3598
L75.4909 100.3264
" />
<path d="M75.4909 100.3264
L75.5242 100.2931
" />
<path d="M75.5242 100.2931
L75.5242 100.0598
" />
<path d="M75.5242 100.0598
L75.3909 100.0598
" />
<path d="M75.8242 100.3598
L75.8242 99.6598
" />
<path d="M75.8242 99.6598
L76.2242 100.3598
" />
<path d="M76.2242 100.3598
L76.2242 99.6598
" />
<path d="M76.5576 100.3598
L76.5576 99.6598
" />
<path d="M76.5576 99.6598
L76.7242 99.6598
" />
<path d="M76.7242 99.6598
L76.8242 99.6931
" />
<path d="M76.8242 99.6931
L76.8909 99.7598
" />
<path d="M76.8909 99.7598
L76.9242 99.8264
" />
<path d="M76.9242 99.8264
L76.9576 99.9598
" />
<path d="M76.9576 99.9598
L76.9576 100.0598
" />
<path d="M76.9576 100.0598
L76.9242 100.1931
" />
<path d="M76.9242 100.1931
L76.8909 100.2598
" />
<path d="M76.8909 100.2598
L76.8242 100.3264
" />
<path d="M76.8242 100.3264
L76.7242 100.3598
" />
<path d="M76.7242 100.3598
L76.5576 100.3598
" />
</g><text x="74.8800" y="102.9000"
textLength="1.4558" font-size="0.9333" lengthAdjust="spacingAndGlyphs"
text-anchor="start" opacity="0" stroke-opacity="0">14</text>
<g class="stroked-text"><desc>14</desc>
<path d="M75.4709 102.8098
L75.0709 102.8098
" />
<path d="M75.2709 102.8098
L75.2709 102.1098
" />
<path d="M75.2709 102.1098
L75.2042 102.2098
" />
<path d="M75.2042 102.2098
L75.1376 102.2764
" />
<path d="M75.1376 102.2764
L75.0709 102.3098
" />
<path d="M76.0709 102.3431
L76.0709 102.8098
" />
<path d="M75.9042 102.0764
L75.7376 102.5764
" />
<path d="M75.7376 102.5764
L76.1709 102.5764
" />
</g><text x="88.0400" y="72.6000"
textLength="1.4558" font-size="0.9333" lengthAdjust="spacingAndGlyphs"
text-anchor="start" opacity="0" stroke-opacity="0">26</text>
<g class="stroked-text"><desc>26</desc>
<path d="M88.2309 71.8764
L88.2642 71.8431
" />
<path d="M88.2642 71.8431
L88.3309 71.8098
" />
<path d="M88.3309 71.8098
L88.4976 71.8098
" />
<path d="M88.4976 71.8098
L88.5642 71.8431
" />
<path d="M88.5642 71.8431
L88.5976 71.8764
" />
<path d="M88.5976 71.8764
L88.6309 71.9431
" />
<path d="M88.6309 71.9431
L88.6309 72.0098
" />
<path d="M88.6309 72.0098
L88.5976 72.1098
" />
<path d="M88.5976 72.1098
L88.1976 72.5098
" />
<path d="M88.1976 72.5098
L88.6309 72.5098
" />
<path d="M89.2309 71.8098
L89.0976 71.8098
" />
<path d="M89.0976 71.8098
L89.0309 71.8431
" />
<path d="M89.0309 71.8431
L88.9976 71.8764
" />
<path d="M88.9976 71.8764
L88.9309 71.9764
" />
<path d="M88.9309 71.9764
L88.8976 72.1098
" />
<path d="M88.8976 72.1098
L88.8976 72.3764
" />
<path d="M88.8976 72.3764
L88.9309 72.4431
" />
<path d="M88.9309 72.4431
L88.9642 72.4764
" />
<path d="M88.9642 72.4764
L89.0309 72.5098
" />
<path d="M89.0309 72.5098
L89.1642 72.5098
" />
<path d="M89.1642 72.5098
L89.2309 72.4764
" />
<path d="M89.2309 72.4764
L89.2642 72.4431
" />
<path d="M89.2642 72.4431
L89.2976 72.3764
" />
<path d="M89.2976 72.3764
L89.2976 72.2098
" />
<path d="M89.2976 72.2098
L89.2642 72.1431
" />
<path d="M89.2642 72.1431
L89.2309 72.1098
" />
<path d="M89.2309 72.1098
L89.1642 72.0764
" />
<path d="M89.1642 72.0764
L89.0309 72.0764
" />
<path d="M89.0309 72.0764
L88.9642 72.1098
" />
<path d="M88.9642 72.1098
L88.9309 72.1431
" />
<path d="M88.9309 72.1431
L88.8976 72.2098
" />
</g><text x="74.8600" y="95.3000"
textLength="1.4558" font-size="0.9333" lengthAdjust="spacingAndGlyphs"
text-anchor="start" opacity="0" stroke-opacity="0">12</text>
<g class="stroked-text"><desc>12</desc>
<path d="M75.4509 95.2098
L75.0509 95.2098
" />
<path d="M75.2509 95.2098
L75.2509 94.5098
" />
<path d="M75.2509 94.5098
L75.1842 94.6098
" />
<path d="M75.1842 94.6098
L75.1176 94.6765
" />
<path d="M75.1176 94.6765
L75.0509 94.7098
" />
<path d="M75.7176 94.5764
L75.7509 94.5431
" />
<path d="M75.7509 94.5431
L75.8176 94.5098
" />
<path d="M75.8176 94.5098
L75.9842 94.5098
" />
<path d="M75.9842 94.5098
L76.0509 94.5431
" />
<path d="M76.0509 94.5431
L76.0842 94.5764
" />
<path d="M76.0842 94.5764
L76.1176 94.6431
" />
<path d="M76.1176 94.6431
L76.1176 94.7098
" />
<path d="M76.1176 94.7098
L76.0842 94.8098
" />
<path d="M76.0842 94.8098
L75.6842 95.2098
" />
<path d="M75.6842 95.2098
L76.1176 95.2098
" />
</g><text x="74.9900" y="82.6900"
textLength="0.7892" font-size="0.9333" lengthAdjust="spacingAndGlyphs"
text-anchor="start" opacity="0" stroke-opacity="0">8</text>
<g class="stroked-text"><desc>8</desc>
<path d="M75.3142 82.1998
L75.2476 82.1664
" />
<path d="M75.2476 82.1664
L75.2142 82.1331
" />
<path d="M75.2142 82.1331
L75.1809 82.0665
" />
<path d="M75.1809 82.0665
L75.1809 82.0331
" />
<path d="M75.1809 82.0331
L75.2142 81.9664
" />
<path d="M75.2142 81.9664
L75.2476 81.9331
" />
<path d="M75.2476 81.9331
L75.3142 81.8998
" />
<path d="M75.3142 81.8998
L75.4476 81.8998
" />
<path d="M75.4476 81.8998
L75.5142 81.9331
" />
<path d="M75.5142 81.9331
L75.5476 81.9664
" />
<path d="M75.5476 81.9664
L75.5809 82.0331
" />
<path d="M75.5809 82.0331
L75.5809 82.0665
" />
<path d="M75.5809 82.0665
L75.5476 82.1331
" />
<path d="M75.5476 82.1331
L75.5142 82.1664
" />
<path d="M75.5142 82.1664
L75.4476 82.1998
" />
<path d="M75.4476 82.1998
L75.3142 82.1998
" />
<path d="M75.3142 82.1998
L75.2476 82.2331
" />
<path d="M75.2476 82.2331
L75.2142 82.2664
" />
<path d="M75.2142 82.2664
L75.1809 82.3331
" />
<path d="M75.1809 82.3331
L75.1809 82.4664
" />
<path d="M75.1809 82.4664
L75.2142 82.5331
" />
<path d="M75.2142 82.5331
L75.2476 82.5665
" />
<path d="M75.2476 82.5665
L75.3142 82.5998
" />
<path d="M75.3142 82.5998
L75.4476 82.5998
" />
<path d="M75.4476 82.5998
L75.5142 82.5665
" />
<path d="M75.5142 82.5665
L75.5476 82.5331
" />
<path d="M75.5476 82.5331
L75.5809 82.4664
" />
<path d="M75.5809 82.4664
L75.5809 82.3331
" />
<path d="M75.5809 82.3331
L75.5476 82.2664
" />
<path d="M75.5476 82.2664
L75.5142 82.2331
" />
<path d="M75.5142 82.2331
L75.4476 82.1998
" />
</g><text x="74.9000" y="90.2900"
textLength="1.4558" font-size="0.9333" lengthAdjust="spacingAndGlyphs"
text-anchor="start" opacity="0" stroke-opacity="0">10</text>
<g class="stroked-text"><desc>10</desc>
<path d="M75.4909 90.1998
L75.0909 90.1998
" />
<path d="M75.2909 90.1998
L75.2909 89.4998
" />
<path d="M75.2909 89.4998
L75.2242 89.5998
" />
<path d="M75.2242 89.5998
L75.1576 89.6664
" />
<path d="M75.1576 89.6664
L75.0909 89.6998
" />
<path d="M75.9242 89.4998
L75.9909 89.4998
" />
<path d="M75.9909 89.4998
L76.0576 89.5331
" />
<path d="M76.0576 89.5331
L76.0909 89.5664
" />
<path d="M76.0909 89.5664
L76.1242 89.6331
" />
<path d="M76.1242 89.6331
L76.1576 89.7664
" />
<path d="M76.1576 89.7664
L76.1576 89.9331
" />
<path d="M76.1576 89.9331
L76.1242 90.0664
" />
<path d="M76.1242 90.0664
L76.0909 90.1331
" />
<path d="M76.0909 90.1331
L76.0576 90.1664
" />
<path d="M76.0576 90.1664
L75.9909 90.1998
" />
<path d="M75.9909 90.1998
L75.9242 90.1998
" />
<path d="M75.9242 90.1998
L75.8576 90.1664
" />
<path d="M75.8576 90.1664
L75.8242 90.1331
" />
<path d="M75.8242 90.1331
L75.7909 90.0664
" />
<path d="M75.7909 90.0664
L75.7576 89.9331
" />
<path d="M75.7576 89.9331
L75.7576 89.7664
" />
<path d="M75.7576 89.7664
L75.7909 89.6331
" />
<path d="M75.7909 89.6331
L75.8242 89.5664
" />
<path d="M75.8242 89.5664
L75.8576 89.5331
" />
<path d="M75.8576 89.5331
L75.9242 89.4998
" />
</g><text x="74.8900" y="59.7900"
textLength="0.7892" font-size="0.9333" lengthAdjust="spacingAndGlyphs"
text-anchor="start" opacity="0" stroke-opacity="0">1</text>
<g class="stroked-text"><desc>1</desc>
<path d="M75.4809 59.6998
L75.0809 59.6998
" />
<path d="M75.2809 59.6998
L75.2809 58.9998
" />
<path d="M75.2809 58.9998
L75.2142 59.0998
" />
<path d="M75.2142 59.0998
L75.1476 59.1664
" />
<path d="M75.1476 59.1664
L75.0809 59.1998
" />
</g><text x="74.9100" y="105.5200"
textLength="1.4558" font-size="0.9333" lengthAdjust="spacingAndGlyphs"
text-anchor="start" opacity="0" stroke-opacity="0">15</text>
<g class="stroked-text"><desc>15</desc>
<path d="M75.5009 105.4298
L75.1009 105.4298
" />
<path d="M75.3009 105.4298
L75.3009 104.7298
" />
<path d="M75.3009 104.7298
L75.2342 104.8298
" />
<path d="M75.2342 104.8298
L75.1676 104.8965
" />
<path d="M75.1676 104.8965
L75.1009 104.9298
" />
<path d="M76.1342 104.7298
L75.8009 104.7298
" />
<path d="M75.8009 104.7298
L75.7676 105.0631
" />
<path d="M75.7676 105.0631
L75.8009 105.0298
" />
<path d="M75.8009 105.0298
L75.8676 104.9964
" />
<path d="M75.8676 104.9964
L76.0342 104.9964
" />
<path d="M76.0342 104.9964
L76.1009 105.0298
" />
<path d="M76.1009 105.0298
L76.1342 105.0631
" />
<path d="M76.1342 105.0631
L76.1676 105.1298
" />
<path d="M76.1676 105.1298
L76.1676 105.2964
" />
<path d="M76.1676 105.2964
L76.1342 105.3631
" />
<path d="M76.1342 105.3631
L76.1009 105.3965
" />
<path d="M76.1009 105.3965
L76.0342 105.4298
" />
<path d="M76.0342 105.4298
L75.8676 105.4298
" />
<path d="M75.8676 105.4298
L75.8009 105.3965
" />
<path d="M75.8009 105.3965
L75.7676 105.3631
" />
</g></g>
<g style="fill:none; 
stroke:#000000; stroke-width:0.1500; stroke-opacity:1; 
stroke-linecap:round; stroke-linejoin:round;">
<text x="79.3600" y="90.5800"
textLength="2.2500" font-size="1.3333" lengthAdjust="spacingAndGlyphs"
text-anchor="middle" opacity="0" stroke-opacity="0">U1</text>
<g class="stroked-text"><desc>U1</desc>
<path d="M78.5981 89.5348
L78.5981 90.3443
" />
<path d="M78.5981 90.3443
L78.6457 90.4396
" />
<path d="M78.6457 90.4396
L78.6933 90.4872
" />
<path d="M78.6933 90.4872
L78.7886 90.5348
" />
<path d="M78.7886 90.5348
L78.9790 90.5348
" />
<path d="M78.9790 90.5348
L79.0743 90.4872
" />
<path d="M79.0743 90.4872
L79.1219 90.4396
" />
<path d="M79.1219 90.4396
L79.1695 90.3443
" />
<path d="M79.1695 90.3443
L79.1695 89.5348
" />
<path d="M80.1695 90.5348
L79.5981 90.5348
" />
<path d="M79.8838 90.5348
L79.8838 89.5348
" />
<path d="M79.8838 89.5348
L79.7886 89.6777
" />
<path d="M79.7886 89.6777
L79.6933 89.7729
" />
<path d="M79.6933 89.7729
L79.5981 89.8205
" />
</g><g transform="rotate(-90.000000 81.3600 67.2100)">
<text x="81.3600" y="67.7100"
textLength="2.2500" font-size="1.3333" lengthAdjust="spacingAndGlyphs"
text-anchor="middle" opacity="0" stroke-opacity="0">U2</text>
</g>
<g class="stroked-text"><desc>U2</desc>
<path d="M80.8148 67.9719
L81.6243 67.9719
" />
<path d="M81.6243 67.9719
L81.7196 67.9243
" />
<path d="M81.7196 67.9243
L81.7672 67.8767
" />
<path d="M81.7672 67.8767
L81.8148 67.7814
" />
<path d="M81.8148 67.7814
L81.8148 67.5910
" />
<path d="M81.8148 67.5910
L81.7672 67.4957
" />
<path d="M81.7672 67.4957
L81.7196 67.4481
" />
<path d="M81.7196 67.4481
L81.6243 67.4005
" />
<path d="M81.6243 67.4005
L80.8148 67.4005
" />
<path d="M80.9101 66.9719
L80.8624 66.9243
" />
<path d="M80.8624 66.9243
L80.8148 66.8290
" />
<path d="M80.8148 66.8290
L80.8148 66.5910
" />
<path d="M80.8148 66.5910
L80.8624 66.4957
" />
<path d="M80.8624 66.4957
L80.9101 66.4481
" />
<path d="M80.9101 66.4481
L81.0053 66.4005
" />
<path d="M81.0053 66.4005
L81.1005 66.4005
" />
<path d="M81.1005 66.4005
L81.2434 66.4481
" />
<path d="M81.2434 66.4481
L81.8148 67.0195
" />
<path d="M81.8148 67.0195
L81.8148 66.4005
" />
</g><g transform="rotate(-90.000000 82.4600 99.4900)">
<text x="82.4600" y="99.9900"
textLength="2.2024" font-size="1.3333" lengthAdjust="spacingAndGlyphs"
text-anchor="middle" opacity="0" stroke-opacity="0">D2</text>
</g>
<g class="stroked-text"><desc>D2</desc>
<path d="M82.9148 100.2281
L81.9148 100.2281
" />
<path d="M81.9148 100.2281
L81.9148 99.9900
" />
<path d="M81.9148 99.9900
L81.9624 99.8471
" />
<path d="M81.9624 99.8471
L82.0577 99.7519
" />
<path d="M82.0577 99.7519
L82.1529 99.7043
" />
<path d="M82.1529 99.7043
L82.3434 99.6567
" />
<path d="M82.3434 99.6567
L82.4862 99.6567
" />
<path d="M82.4862 99.6567
L82.6767 99.7043
" />
<path d="M82.6767 99.7043
L82.7720 99.7519
" />
<path d="M82.7720 99.7519
L82.8672 99.8471
" />
<path d="M82.8672 99.8471
L82.9148 99.9900
" />
<path d="M82.9148 99.9900
L82.9148 100.2281
" />
<path d="M82.0101 99.2757
L81.9624 99.2281
" />
<path d="M81.9624 99.2281
L81.9148 99.1329
" />
<path d="M81.9148 99.1329
L81.9148 98.8948
" />
<path d="M81.9148 98.8948
L81.9624 98.7995
" />
<path d="M81.9624 98.7995
L82.0101 98.7519
" />
<path d="M82.0101 98.7519
L82.1053 98.7043
" />
<path d="M82.1053 98.7043
L82.2005 98.7043
" />
<path d="M82.2005 98.7043
L82.3434 98.7519
" />
<path d="M82.3434 98.7519
L82.9148 99.3233
" />
<path d="M82.9148 99.3233
L82.9148 98.7043
" />
</g><g transform="rotate(-270.000000 80.5600 95.4900)">
<text x="80.5600" y="95.8900"
textLength="1.0519" font-size="1.0667" lengthAdjust="spacingAndGlyphs"
text-anchor="middle" opacity="0" stroke-opacity="0">1</text>
</g>
<g class="stroked-text"><desc>1</desc>
<path d="M80.1977 95.7186
L80.1977 95.2614
" />
<path d="M80.1977 95.4900
L80.9977 95.4900
" />
<path d="M80.9977 95.4900
L80.8834 95.4138
" />
<path d="M80.8834 95.4138
L80.8072 95.3376
" />
<path d="M80.8072 95.3376
L80.7691 95.2614
" />
</g><text x="84.4700" y="94.9400"
textLength="2.0595" font-size="1.3333" lengthAdjust="spacingAndGlyphs"
text-anchor="middle" opacity="0" stroke-opacity="0">Y1</text>
<g class="stroked-text"><desc>Y1</desc>
<path d="M83.9938 94.4186
L83.9938 94.8948
" />
<path d="M83.6605 93.8948
L83.9938 94.4186
" />
<path d="M83.9938 94.4186
L84.3271 93.8948
" />
<path d="M85.1843 94.8948
L84.6129 94.8948
" />
<path d="M84.8986 94.8948
L84.8986 93.8948
" />
<path d="M84.8986 93.8948
L84.8033 94.0377
" />
<path d="M84.8033 94.0377
L84.7081 94.1329
" />
<path d="M84.7081 94.1329
L84.6129 94.1805
" />
</g><text x="80.1900" y="80.2300"
textLength="2.2500" font-size="1.3333" lengthAdjust="spacingAndGlyphs"
text-anchor="middle" opacity="0" stroke-opacity="0">U3</text>
<g class="stroked-text"><desc>U3</desc>
<path d="M79.4281 79.1848
L79.4281 79.9943
" />
<path d="M79.4281 79.9943
L79.4757 80.0896
" />
<path d="M79.4757 80.0896
L79.5233 80.1372
" />
<path d="M79.5233 80.1372
L79.6186 80.1848
" />
<path d="M79.6186 80.1848
L79.8090 80.1848
" />
<path d="M79.8090 80.1848
L79.9043 80.1372
" />
<path d="M79.9043 80.1372
L79.9519 80.0896
" />
<path d="M79.9519 80.0896
L79.9995 79.9943
" />
<path d="M79.9995 79.9943
L79.9995 79.1848
" />
<path d="M80.3805 79.1848
L80.9995 79.1848
" />
<path d="M80.9995 79.1848
L80.6662 79.5658
" />
<path d="M80.6662 79.5658
L80.8090 79.5658
" />
<path d="M80.8090 79.5658
L80.9043 79.6134
" />
<path d="M80.9043 79.6134
L80.9519 79.6610
" />
<path d="M80.9519 79.6610
L80.9995 79.7562
" />
<path d="M80.9995 79.7562
L80.9995 79.9943
" />
<path d="M80.9995 79.9943
L80.9519 80.0896
" />
<path d="M80.9519 80.0896
L80.9043 80.1372
" />
<path d="M80.9043 80.1372
L80.8090 80.1848
" />
<path d="M80.8090 80.1848
L80.5233 80.1848
" />
<path d="M80.5233 80.1848
L80.4281 80.1372
" />
<path d="M80.4281 80.1372
L80.3805 80.0896
" />
</g><g transform="rotate(-90.000000 83.4600 67.3800)">
<text x="83.4600" y="67.8800"
textLength="3.2976" font-size="1.3333" lengthAdjust="spacingAndGlyphs"
text-anchor="middle" opacity="0" stroke-opacity="0">SW1</text>
</g>
<g class="stroked-text"><desc>SW1</desc>
<path d="M83.8672 68.7133
L83.9148 68.5705
" />
<path d="M83.9148 68.5705
L83.9148 68.3324
" />
<path d="M83.9148 68.3324
L83.8672 68.2371
" />
<path d="M83.8672 68.2371
L83.8196 68.1895
" />
<path d="M83.8196 68.1895
L83.7243 68.1419
" />
<path d="M83.7243 68.1419
L83.6291 68.1419
" />
<path d="M83.6291 68.1419
L83.5339 68.1895
" />
<path d="M83.5339 68.1895
L83.4862 68.2371
" />
<path d="M83.4862 68.2371
L83.4386 68.3324
" />
<path d="M83.4386 68.3324
L83.3910 68.5229
" />
<path d="M83.3910 68.5229
L83.3434 68.6181
" />
<path d="M83.3434 68.6181
L83.2958 68.6657
" />
<path d="M83.2958 68.6657
L83.2005 68.7133
" />
<path d="M83.2005 68.7133
L83.1053 68.7133
" />
<path d="M83.1053 68.7133
L83.0101 68.6657
" />
<path d="M83.0101 68.6657
L82.9624 68.6181
" />
<path d="M82.9624 68.6181
L82.9148 68.5229
" />
<path d="M82.9148 68.5229
L82.9148 68.2848
" />
<path d="M82.9148 68.2848
L82.9624 68.1419
" />
<path d="M82.9148 67.8086
L83.9148 67.5705
" />
<path d="M83.9148 67.5705
L83.2005 67.3800
" />
<path d="M83.2005 67.3800
L83.9148 67.1895
" />
<path d="M83.9148 67.1895
L82.9148 66.9514
" />
<path d="M83.9148 66.0467
L83.9148 66.6181
" />
<path d="M83.9148 66.3324
L82.9148 66.3324
" />
<path d="M82.9148 66.3324
L83.0577 66.4276
" />
<path d="M83.0577 66.4276
L83.1529 66.5229
" />
<path d="M83.1529 66.5229
L83.2005 66.6181
" />
</g><text x="82.1900" y="64.1000"
textLength="1.9643" font-size="1.3333" lengthAdjust="spacingAndGlyphs"
text-anchor="middle" opacity="0" stroke-opacity="0">J1</text>
<g class="stroked-text"><desc>J1</desc>
<path d="M81.8567 63.0548
L81.8567 63.7691
" />
<path d="M81.8567 63.7691
L81.8090 63.9120
" />
<path d="M81.8090 63.9120
L81.7138 64.0072
" />
<path d="M81.7138 64.0072
L81.5710 64.0548
" />
<path d="M81.5710 64.0548
L81.4757 64.0548
" />
<path d="M82.8567 64.0548
L82.2852 64.0548
" />
<path d="M82.5710 64.0548
L82.5710 63.0548
" />
<path d="M82.5710 63.0548
L82.4757 63.1977
" />
<path d="M82.4757 63.1977
L82.3805 63.2929
" />
<path d="M82.3805 63.2929
L82.2852 63.3405
" />
</g><g transform="rotate(-90.000000 81.4900 99.4500)">
<text x="81.4900" y="99.9500"
textLength="2.2024" font-size="1.3333" lengthAdjust="spacingAndGlyphs"
text-anchor="middle" opacity="0" stroke-opacity="0">D1</text>
</g>
<g class="stroked-text"><desc>D1</desc>
<path d="M81.9448 100.1881
L80.9448 100.1881
" />
<path d="M80.9448 100.1881
L80.9448 99.9500
" />
<path d="M80.9448 99.9500
L80.9924 99.8071
" />
<path d="M80.9924 99.8071
L81.0877 99.7119
" />
<path d="M81.0877 99.7119
L81.1829 99.6643
" />
<path d="M81.1829 99.6643
L81.3734 99.6167
" />
<path d="M81.3734 99.6167
L81.5162 99.6167
" />
<path d="M81.5162 99.6167
L81.7067 99.6643
" />
<path d="M81.7067 99.6643
L81.8020 99.7119
" />
<path d="M81.8020 99.7119
L81.8972 99.8071
" />
<path d="M81.8972 99.8071
L81.9448 99.9500
" />
<path d="M81.9448 99.9500
L81.9448 100.1881
" />
<path d="M81.9448 98.6643
L81.9448 99.2357
" />
<path d="M81.9448 98.9500
L80.9448 98.9500
" />
<path d="M80.9448 98.9500
L81.0877 99.0452
" />
<path d="M81.0877 99.0452
L81.1829 99.1405
" />
<path d="M81.1829 99.1405
L81.2305 99.2357
" />
</g><g transform="rotate(-90.000000 83.3900 103.4500)">
<text x="83.3900" y="103.8500"
textLength="1.0519" font-size="1.0667" lengthAdjust="spacingAndGlyphs"
text-anchor="middle" opacity="0" stroke-opacity="0">1</text>
</g>
<g class="stroked-text"><desc>1</desc>
<path d="M83.7523 103.2214
L83.7523 103.6786
" />
<path d="M83.7523 103.4500
L82.9523 103.4500
" />
<path d="M82.9523 103.4500
L83.0666 103.5262
" />
<path d="M83.0666 103.5262
L83.1428 103.6024
" />
<path d="M83.1428 103.6024
L83.1809 103.6786
" />
</g></g>
<g style="fill:none; 
stroke:#000000; stroke-width:0.1200; stroke-opacity:1; 
stroke-linecap:round; stroke-linejoin:round;">
<path d="M78.5600 81.9100
L79.2100 81.9100
" />
<path d="M78.5600 82.5600
L78.5600 81.9100
" />
<path d="M78.5600 89.1300
L78.5600 88.4800
" />
<path d="M79.2100 89.1300
L78.5600 89.1300
" />
<path d="M85.1300 81.9100
L85.7800 81.9100
" />
<path d="M85.7800 81.9100
L85.7800 82.5600
" />
<path d="M85.7800 88.4800
L85.7800 89.1300
" />
<path d="M85.7800 89.1300
L85.1300 89.1300
" />
<path style="fill:#000000; fill-opacity:1.0000; 
stroke:#000000; stroke-width:0.1200; stroke-opacity:1; 
stroke-linecap:round; stroke-linejoin:round;fill-rule:evenodd;"
d="M 78.0300,82.9200
77.7000,83.1600
77.7000,82.6800
Z" /> 
</g>
<g style="fill:none; 
stroke:#000000; stroke-width:0.1200; stroke-opacity:1; 
stroke-linecap:round; stroke-linejoin:round;">
<path d="M85.5186 78.1423
L85.6711 77.9898
" />
<path d="M86.0277 78.6514
L86.1802 78.4989
" />
<path d="M82.4836 90.4800
L82.1764 90.4800
" />
<path d="M82.4836 91.2400
L82.1764 91.2400
" />
<path d="M86.3200 80.5678
L86.3200 80.3522
" />
<path d="M87.0400 80.5678
L87.0400 80.3522
" />
<path d="M77.3500 66.4475
L78.3500 66.4475
" />
<path d="M77.3500 67.9675
L77.3500 66.4475
" />
<path d="M77.4000 67.9675
L77.3500 67.9675
" />
<path d="M79.3000 67.9675
L78.5200 67.9675
" />
<path d="M79.4700 66.4475
L80.4700 66.4475
" />
<path d="M80.4700 66.4475
L80.4700 67.9675
" />
<path d="M80.4700 67.9675
L80.4200 67.9675
" />
<path style="fill:#000000; fill-opacity:1.0000; 
stroke:#000000; stroke-width:0.1200; stroke-opacity:1; 
stroke-linecap:round; stroke-linejoin:round;fill-rule:evenodd;"
d="M 78.8600,68.7475
78.5300,68.5075
78.8600,68.2675
Z" /> 
</g>
<g style="fill:none; 
stroke:#000000; stroke-width:0.1200; stroke-opacity:1; 
stroke-linecap:round; stroke-linejoin:round;">
<path d="M84.3800 90.9222
L84.3800 91.1378
" />
<path d="M85.1000 90.9222
L85.1000 91.1378
" />
<path d="M76.2100 95.9900
L76.2100 102.5400
" />
<path d="M76.2100 102.5400
L76.6600 102.9900
" />
<path d="M76.6600 102.9900
L81.7100 102.9900
" />
<path d="M78.0600 96.7900
L79.8600 96.7900
" />
<path d="M78.0600 102.1900
L79.8600 102.1900
" />
<path d="M81.7100 95.9900
L76.2100 95.9900
" />
<path d="M81.7100 95.9900
L81.7100 102.9900
" />
<path d="M80.4300 64.8964
L80.4300 65.2036
" />
<path d="M81.1900 64.8964
L81.1900 65.2036
" />
<path d="M83.2500 91.5200
L83.2500 94.9400
" />
<path d="M83.2500 94.9400
L79.1300 94.9400
" />
<path d="M78.2544 76.5525
L81.0500 76.5525
" />
<path d="M81.0500 78.8225
L77.8300 78.8225
" />
<path style="fill:#000000; fill-opacity:1.0000; 
stroke:#000000; stroke-width:0.1200; stroke-opacity:1; 
stroke-linecap:round; stroke-linejoin:round;fill-rule:evenodd;"
d="M 77.9600,76.5475
77.8200,76.3575
78.1000,76.3575
Z" /> 
</g>
<g style="fill:none; 
stroke:#000000; stroke-width:0.1200; stroke-opacity:1; 
stroke-linecap:round; stroke-linejoin:round;">
<path d="M84.2600 64.6300
L84.5600 64.6300
" />
<path d="M84.2600 68.7700
L84.2600 64.6300
" />
<path d="M84.5600 68.7700
L84.2600 68.7700
" />
<path d="M87.1000 64.6300
L87.4000 64.6300
" />
<path d="M87.4000 64.6300
L87.4000 68.7700
" />
<path d="M87.4000 68.7700
L87.1000 68.7700
" />
<path d="M83.4600 80.0564
L83.4600 80.3636
" />
<path d="M84.2200 80.0564
L84.2200 80.3636
" />
<path d="M86.7622 81.5500
L86.9778 81.5500
" />
<path d="M86.7622 82.2700
L86.9778 82.2700
" />
<path d="M80.1478 74.7100
L79.9322 74.7100
" />
<path d="M80.1478 75.4300
L79.9322 75.4300
" />
<path d="M85.3600 80.3678
L85.3600 80.1522
" />
<path d="M86.0800 80.3678
L86.0800 80.1522
" />
<path d="M83.4300 92.9778
L83.4300 92.7622
" />
<path d="M84.1500 92.9778
L84.1500 92.7622
" />
<path d="M78.1800 93.1622
L78.1800 93.3778
" />
<path d="M78.9000 93.1622
L78.9000 93.3778
" />
<path d="M82.4900 80.0664
L82.4900 80.3736
" />
<path d="M83.2500 80.0664
L83.2500 80.3736
" />
<path d="M83.4200 90.9322
L83.4200 91.1478
" />
<path d="M84.1400 90.9322
L84.1400 91.1478
" />
<path d="M83.0700 64.1364
L83.0700 64.4436
" />
<path d="M83.8300 64.1364
L83.8300 64.4436
" />
<path d="M77.4700 56.0200
L77.4700 54.1200
" />
<path d="M77.4700 59.9200
L77.4700 57.9200
" />
<path d="M86.8700 54.1200
L77.4700 54.1200
" />
<path d="M86.8700 56.0200
L86.8700 54.1200
" />
<path d="M86.8700 59.9200
L86.8700 57.9200
" />
<path d="M78.2436 75.3600
L77.9364 75.3600
" />
<path d="M78.2436 76.1200
L77.9364 76.1200
" />
<path d="M83.4400 74.3978
L83.4400 74.1822
" />
<path d="M84.1600 74.3978
L84.1600 74.1822
" />
<path d="M85.9436 69.5500
L85.6364 69.5500
" />
<path d="M85.9436 70.3100
L85.6364 70.3100
" />
<path d="M77.0178 86.4500
L76.8022 86.4500
" />
<path d="M77.0178 87.1700
L76.8022 87.1700
" />
<path d="M87.2022 86.3900
L87.4178 86.3900
" />
<path d="M87.2022 87.1100
L87.4178 87.1100
" />
<path d="M83.4200 76.6578
L83.4200 76.4422
" />
<path d="M84.1400 76.6578
L84.1400 76.4422
" />
<path d="M77.5700 81.6878
L77.5700 81.4722
" />
<path d="M78.2900 81.6878
L78.2900 81.4722
" />
<path d="M79.0556 69.5800
L78.7744 69.5800
" />
<path d="M79.0556 70.6000
L78.7744 70.6000
" />
<path d="M82.2400 102.9500
L82.2400 95.9500
" />
<path d="M82.2400 102.9500
L87.7400 102.9500
" />
<path d="M85.8900 96.7500
L84.0900 96.7500
" />
<path d="M85.8900 102.1500
L84.0900 102.1500
" />
<path d="M87.2900 95.9500
L82.2400 95.9500
" />
<path d="M87.7400 96.4000
L87.2900 95.9500
" />
<path d="M87.7400 102.9500
L87.7400 96.4000
" />
<path d="M78.2000 103.5200
L78.2000 106.2800
" />
<path d="M83.3900 103.5200
L78.2000 103.5200
" />
<path d="M83.3900 103.5200
L83.3900 106.2800
" />
<path d="M83.3900 106.2800
L78.2000 106.2800
" />
<path d="M84.6600 103.5200
L86.0400 103.5200
" />
<path d="M86.0400 103.5200
L86.0400 104.9000
" />
<path d="M89.6800 55.5100
L91.0600 55.5100
" />
<path d="M89.6800 56.8900
L89.6800 55.5100
" />
<path d="M89.6800 58.1600
L89.6800 106.5300
" />
<path d="M89.6800 58.1600
L92.4400 58.1600
" />
<path d="M89.6800 106.5300
L92.4400 106.5300
" />
<path d="M92.4400 58.1600
L92.4400 106.5300
" />
<path d="M71.9000 55.5100
L73.2800 55.5100
" />
<path d="M71.9000 56.8900
L71.9000 55.5100
" />
<path d="M71.9000 58.1600
L71.9000 106.5300
" />
<path d="M71.9000 58.1600
L74.6600 58.1600
" />
<path d="M71.9000 106.5300
L74.6600 106.5300
" />
<path d="M74.6600 58.1600
L74.6600 106.5300
" />
<path d="M82.4600 77.9878
L82.4600 77.7722
" />
<path d="M83.1800 77.9878
L83.1800 77.7722
" />
<path d="M78.8906 63.8500
L78.6094 63.8500
" />
<path d="M78.8906 64.8700
L78.6094 64.8700
" />
</g> 
</svg>
