<?xml version="1.0" standalone="no"?>
 <!DOCTYPE svg PUBLIC "-//W3C//DTD SVG 1.1//EN" 
 "http://www.w3.org/Graphics/SVG/1.1/DTD/svg11.dtd"> 
<svg
  xmlns:svg="http://www.w3.org/2000/svg"
  xmlns="http://www.w3.org/2000/svg"
  xmlns:xlink="http://www.w3.org/1999/xlink"
  version="1.1"
  width="297.0022mm" height="210.0072mm" viewBox="0.0000 0.0000 297.0022 210.0072">
<title>SVG Image created as devboard-B_Silkscreen.svg date 2025/12/14 20:50:08 </title>
  <desc>Image generated by PCBNEW </desc>
<g style="fill:#000000; fill-opacity:1.0000;stroke:#000000; stroke-opacity:1.0000;
stroke-linecap:round; stroke-linejoin:round;"
 transform="translate(0 0) scale(1 1)">
<path style="fill:#000000; fill-opacity:1.0000; stroke:none;fill-rule:evenodd;"
d="M 78.9490,90.1267
79.1216,90.1398
79.2917,90.1614
79.4591,90.1913
79.6235,90.2293
79.7848,90.2751
79.9428,90.3285
80.0971,90.3894
80.2477,90.4574
80.3942,90.5325
80.5366,90.6143
80.6745,90.7027
80.8077,90.7975
80.9361,90.8984
81.0595,91.0052
81.1775,91.1178
81.2900,91.2358
81.3969,91.3591
81.4978,91.4875
81.5925,91.6208
81.6809,91.7587
81.7628,91.9010
81.8378,92.0476
81.9059,92.1981
81.9668,92.3525
82.0202,92.5104
82.0660,92.6717
82.1040,92.8362
82.1338,93.0036
82.1555,93.1737
82.1686,93.3463
82.1730,93.5212
82.1774,93.3463
82.1905,93.1737
82.2122,93.0036
82.2421,92.8362
82.2800,92.6717
82.3258,92.5104
82.3792,92.3525
82.4401,92.1981
82.5082,92.0476
82.5832,91.9010
82.6651,91.7587
82.7535,91.6208
82.8482,91.4875
82.9491,91.3591
83.0560,91.2358
83.1685,91.1178
83.2865,91.0052
83.4099,90.8984
83.5383,90.7975
83.6715,90.7027
83.8094,90.6143
83.9518,90.5325
84.0983,90.4574
84.2489,90.3894
84.4032,90.3285
84.5612,90.2751
84.7225,90.2293
84.8869,90.1913
85.0543,90.1614
85.2244,90.1398
85.3970,90.1267
85.5719,90.1223
85.5727,90.1223
85.7476,90.1267
85.9202,90.1398
86.0902,90.1614
86.2576,90.1913
86.4220,90.2293
86.5833,90.2751
86.7412,90.3285
86.8956,90.3894
87.0461,90.4574
87.1927,90.5325
87.3350,90.6143
87.4729,90.7027
87.6062,90.7975
87.7346,90.8984
87.8579,91.0052
87.9760,91.1178
88.0885,91.2358
88.1954,91.3591
88.2963,91.4875
88.3911,91.6208
88.4795,91.7587
88.5613,91.9010
88.6364,92.0476
88.7045,92.1981
88.7653,92.3525
88.8188,92.5104
88.8646,92.6717
88.9026,92.8362
88.9325,93.0036
88.9541,93.1737
88.9672,93.3463
88.9716,93.5212
88.9716,96.9205
88.9713,96.9205
88.7963,96.9161
88.6237,96.9030
88.4536,96.8814
88.2862,96.8515
88.1218,96.8135
87.9605,96.7677
87.8026,96.7143
87.6482,96.6534
87.4976,96.5854
87.3511,96.5103
87.2087,96.4285
87.0708,96.3401
86.9376,96.2453
86.8092,96.1444
86.6859,96.0376
86.5678,95.9250
86.4553,95.8070
86.3484,95.6837
86.2475,95.5553
86.1528,95.4220
86.0644,95.2841
85.9825,95.1418
85.9075,94.9952
85.8394,94.8446
85.7786,94.6903
85.7251,94.5323
85.6793,94.3711
85.6414,94.2066
85.6115,94.0392
85.5899,93.8691
85.5767,93.6965
85.5723,93.5216
85.5723,93.5438
85.5668,93.7177
85.5527,93.8894
85.5302,94.0585
85.4996,94.2249
85.4609,94.3884
85.4145,94.5487
85.3605,94.7056
85.2992,94.8590
85.2307,95.0086
85.1554,95.1542
85.0733,95.2956
84.9847,95.4326
84.8898,95.5650
84.7889,95.6925
84.6821,95.8150
84.5696,95.9322
84.4517,96.0440
84.3285,96.1501
84.2004,96.2503
84.0674,96.3443
83.9298,96.4321
83.7879,96.5134
83.6417,96.5879
83.4916,96.6554
83.3378,96.7158
83.1804,96.7689
83.0196,96.8143
82.8558,96.8520
82.6890,96.8817
82.5196,96.9031
82.3476,96.9161
82.1734,96.9205
82.1730,96.9205
82.1726,96.9205
81.9977,96.9161
81.8252,96.9030
81.6551,96.8814
81.4877,96.8515
81.3233,96.8135
81.1620,96.7677
81.0041,96.7143
80.8498,96.6534
80.6992,96.5854
80.5527,96.5103
80.4104,96.4285
80.2725,96.3401
80.1392,96.2453
80.0109,96.1444
79.8875,96.0376
79.7695,95.9250
79.6570,95.8070
79.5502,95.6837
79.4493,95.5553
79.3545,95.4220
79.2661,95.2841
79.1843,95.1418
79.1092,94.9952
79.0411,94.8446
78.9803,94.6903
78.9269,94.5323
78.8811,94.3711
78.8431,94.2066
78.8132,94.0392
78.7916,93.8691
78.7785,93.6965
78.7741,93.5216
78.7696,93.6965
78.7565,93.8691
78.7349,94.0392
78.7050,94.2066
78.6670,94.3711
78.6212,94.5323
78.5678,94.6903
78.5069,94.8446
78.4388,94.9952
78.3638,95.1418
78.2819,95.2841
78.1935,95.4220
78.0987,95.5553
77.9978,95.6837
77.8910,95.8070
77.7784,95.9250
77.6604,96.0376
77.5370,96.1444
77.4086,96.2453
77.2754,96.3401
77.1375,96.4285
76.9951,96.5103
76.8486,96.5854
76.6980,96.6534
76.5437,96.7143
76.3858,96.7677
76.2245,96.8135
76.0600,96.8515
75.8927,96.8814
75.7226,96.9030
75.5500,96.9161
75.3751,96.9205
75.3747,96.9205
75.3747,93.5212
75.3792,93.3463
75.3923,93.1737
75.4139,93.0036
75.4438,92.8362
75.4817,92.6717
75.5275,92.5104
75.5810,92.3525
75.6418,92.1981
75.7099,92.0476
75.7850,91.9010
75.8668,91.7587
75.9552,91.6208
76.0500,91.4875
76.1509,91.3591
76.2577,91.2358
76.3702,91.1178
76.4883,91.0052
76.6116,90.8984
76.7400,90.7975
76.8733,90.7027
77.0112,90.6143
77.1535,90.5325
77.3001,90.4574
77.4506,90.3894
77.6050,90.3285
77.7629,90.2751
77.9242,90.2293
78.0887,90.1913
78.2560,90.1614
78.4262,90.1398
78.5988,90.1267
78.7737,90.1223
78.7741,90.1223
Z" /> 
<path style="fill:#000000; fill-opacity:1.0000; stroke:none;fill-rule:evenodd;"
d="M 84.9377,75.9924
84.7848,75.9924
84.7848,75.2884
84.7828,75.2884
84.4319,75.6727
84.3969,75.7111
84.3797,75.7292
84.3627,75.7467
84.3459,75.7635
84.3293,75.7797
84.3128,75.7952
84.2966,75.8100
84.2805,75.8242
84.2646,75.8378
84.2489,75.8507
84.2333,75.8630
84.2180,75.8747
84.2028,75.8858
84.1878,75.8962
84.1730,75.9061
84.1586,75.9153
84.1440,75.9240
84.1292,75.9321
84.1142,75.9395
84.0990,75.9464
84.0837,75.9527
84.0682,75.9583
84.0524,75.9634
84.0365,75.9679
84.0205,75.9718
84.0042,75.9751
83.9877,75.9778
83.9711,75.9799
83.9543,75.9814
83.9373,75.9822
83.9201,75.9825
83.9044,75.9823
83.8888,75.9816
83.8735,75.9805
83.8584,75.9789
83.8435,75.9768
83.8287,75.9743
83.8143,75.9713
83.8000,75.9678
83.7860,75.9639
83.7721,75.9596
83.7586,75.9547
83.7453,75.9495
83.7322,75.9437
83.7194,75.9375
83.7069,75.9308
83.6946,75.9237
83.6826,75.9162
83.6711,75.9084
83.6598,75.9002
83.6489,75.8917
83.6384,75.8829
83.6282,75.8737
83.6183,75.8642
83.6088,75.8544
83.5996,75.8442
83.5907,75.8336
83.5821,75.8227
83.5738,75.8115
83.5658,75.7999
83.5581,75.7879
83.5507,75.7756
83.5436,75.7629
83.5369,75.7500
83.5306,75.7367
83.5247,75.7233
83.5193,75.7096
83.5144,75.6957
83.5099,75.6816
83.5058,75.6672
83.5022,75.6526
83.4990,75.6378
83.4963,75.6228
83.4939,75.6075
83.4921,75.5920
83.4906,75.5762
83.4895,75.5603
83.4889,75.5441
83.4887,75.5276
83.4889,75.5101
83.4896,75.4929
83.4908,75.4759
83.4924,75.4593
83.4945,75.4429
83.4971,75.4267
83.5001,75.4109
83.5037,75.3953
83.5077,75.3800
83.5122,75.3650
83.5172,75.3502
83.5226,75.3357
83.5286,75.3215
83.5351,75.3076
83.5420,75.2940
83.5495,75.2806
83.5574,75.2676
83.5657,75.2549
83.5743,75.2427
83.5833,75.2309
83.5927,75.2195
83.6024,75.2084
83.6125,75.1977
83.6230,75.1874
83.6339,75.1775
83.6451,75.1680
83.6567,75.1587
83.6686,75.1499
83.6809,75.1414
83.6936,75.1332
83.7067,75.1253
83.7201,75.1178
83.7342,75.1107
83.7484,75.1040
83.7629,75.0978
83.7775,75.0921
83.7924,75.0868
83.8075,75.0820
83.8229,75.0776
83.8385,75.0737
83.8543,75.0703
83.8704,75.0673
83.8868,75.0648
83.9035,75.0627
83.9204,75.0611
83.9376,75.0599
83.9552,75.0592
83.9730,75.0590
83.9730,75.2198
83.9542,75.2201
83.9358,75.2211
83.9180,75.2227
83.9006,75.2249
83.8838,75.2278
83.8674,75.2313
83.8516,75.2354
83.8363,75.2401
83.8214,75.2455
83.8071,75.2515
83.7933,75.2581
83.7800,75.2653
83.7672,75.2731
83.7549,75.2815
83.7431,75.2906
83.7319,75.3002
83.7208,75.3107
83.7105,75.3217
83.7010,75.3332
83.6921,75.3451
83.6840,75.3575
83.6766,75.3704
83.6699,75.3838
83.6640,75.3977
83.6587,75.4121
83.6542,75.4271
83.6503,75.4425
83.6472,75.4585
83.6448,75.4749
83.6430,75.4920
83.6420,75.5095
83.6417,75.5276
83.6420,75.5443
83.6429,75.5606
83.6443,75.5765
83.6464,75.5919
83.6491,75.6069
83.6524,75.6215
83.6563,75.6356
83.6608,75.6492
83.6659,75.6624
83.6715,75.6751
83.6778,75.6874
83.6847,75.6992
83.6921,75.7104
83.7002,75.7212
83.7089,75.7316
83.7181,75.7414
83.7279,75.7510
83.7381,75.7599
83.7487,75.7683
83.7597,75.7760
83.7712,75.7830
83.7830,75.7895
83.7953,75.7953
83.8081,75.8004
83.8213,75.8050
83.8349,75.8089
83.8489,75.8123
83.8634,75.8150
83.8784,75.8171
83.8938,75.8186
83.9097,75.8195
83.9260,75.8198
83.9351,75.8197
83.9442,75.8194
83.9531,75.8189
83.9620,75.8183
83.9707,75.8174
83.9794,75.8163
83.9879,75.8150
83.9963,75.8134
84.0046,75.8117
84.0128,75.8097
84.0209,75.8074
84.0288,75.8049
84.0366,75.8022
84.0443,75.7992
84.0519,75.7959
84.0593,75.7923
84.0670,75.7889
84.0747,75.7853
84.0825,75.7814
84.0902,75.7773
84.0979,75.7729
84.1056,75.7684
84.1133,75.7636
84.1211,75.7585
84.1288,75.7533
84.1365,75.7478
84.1442,75.7420
84.1520,75.7361
84.1597,75.7299
84.1674,75.7235
84.1751,75.7169
84.1828,75.7100
84.1993,75.6948
84.2163,75.6787
84.2338,75.6616
84.2520,75.6436
84.2706,75.6245
84.2898,75.6044
84.3096,75.5832
84.3299,75.5610
84.7926,75.0551
84.9377,75.0551
Z" /> 
<path style="fill:#000000; fill-opacity:1.0000; stroke:none;fill-rule:evenodd;"
d="M 84.5394,82.0728
84.5545,82.0743
84.5695,82.0761
84.5843,82.0785
84.5989,82.0813
84.6132,82.0845
84.6274,82.0883
84.6414,82.0925
84.6552,82.0971
84.6688,82.1022
84.6821,82.1078
84.6952,82.1138
84.7082,82.1203
84.7209,82.1272
84.7333,82.1346
84.7456,82.1425
84.7576,82.1507
84.7692,82.1594
84.7805,82.1684
84.7916,82.1777
84.8023,82.1874
84.8127,82.1975
84.8228,82.2079
84.8326,82.2187
84.8421,82.2298
84.8513,82.2412
84.8602,82.2530
84.8688,82.2652
84.8772,82.2776
84.8852,82.2904
84.8930,82.3035
84.9005,82.3170
84.9073,82.3307
84.9136,82.3446
84.9196,82.3588
84.9251,82.3732
84.9302,82.3879
84.9348,82.4027
84.9391,82.4178
84.9429,82.4331
84.9463,82.4487
84.9492,82.4645
84.9517,82.4805
84.9537,82.4967
84.9553,82.5132
84.9564,82.5299
84.9571,82.5469
84.9573,82.5640
84.9571,82.5816
84.9563,82.5989
84.9551,82.6159
84.9533,82.6327
84.9511,82.6493
84.9484,82.6656
84.9451,82.6816
84.9414,82.6974
84.9372,82.7128
84.9325,82.7280
84.9274,82.7430
84.9218,82.7576
84.9157,82.7719
84.9091,82.7859
84.9021,82.7996
84.8946,82.8130
84.8867,82.8261
84.8784,82.8389
84.8698,82.8513
84.8607,82.8634
84.8513,82.8751
84.8416,82.8865
84.8314,82.8975
84.8208,82.9081
84.8099,82.9184
84.7985,82.9284
84.7868,82.9379
84.7747,82.9471
84.7621,82.9558
84.7492,82.9642
84.7358,82.9722
84.7221,82.9797
84.7083,82.9872
84.6943,82.9941
84.6800,83.0006
84.6654,83.0066
84.6506,83.0121
84.6355,83.0170
84.6201,83.0215
84.6044,83.0255
84.5885,83.0291
84.5722,83.0321
84.5557,83.0347
84.5390,83.0368
84.5219,83.0384
84.5046,83.0396
84.4870,83.0403
84.4691,83.0405
84.4516,83.0403
84.4343,83.0396
84.4172,83.0384
84.4004,83.0369
84.3838,83.0348
84.3675,83.0323
84.3514,83.0294
84.3355,83.0260
84.3199,83.0222
84.3046,83.0180
84.2895,83.0133
84.2747,83.0082
84.2602,83.0027
84.2459,82.9968
84.2319,82.9904
84.2181,82.9836
84.2047,82.9765
84.1917,82.9690
84.1790,82.9612
84.1666,82.9531
84.1546,82.9446
84.1430,82.9358
84.1317,82.9267
84.1208,82.9172
84.1102,82.9074
84.1000,82.8972
84.0901,82.8867
84.0805,82.8758
84.0713,82.8646
84.0624,82.8530
84.0538,82.8410
84.0456,82.8287
84.0381,82.8161
84.0311,82.8032
84.0247,82.7900
84.0187,82.7766
84.0132,82.7629
84.0083,82.7490
84.0038,82.7348
83.9997,82.7204
83.9962,82.7058
83.9932,82.6909
83.9906,82.6758
83.9885,82.6605
83.9869,82.6450
83.9857,82.6293
83.9850,82.6134
83.9848,82.5974
83.9853,82.5723
83.9870,82.5477
83.9898,82.5237
83.9936,82.5003
83.9986,82.4774
84.0046,82.4551
84.0118,82.4333
84.0201,82.4121
84.0295,82.3914
84.0399,82.3713
84.0515,82.3517
84.0642,82.3327
84.0780,82.3142
84.0929,82.2963
84.1089,82.2789
84.1260,82.2621
84.1260,82.2601
83.6652,82.2934
83.6652,82.9621
83.5103,82.9621
83.5103,82.1385
84.3240,82.0895
84.3240,82.2562
84.3131,82.2604
84.3025,82.2651
84.2922,82.2702
84.2822,82.2757
84.2724,82.2816
84.2630,82.2879
84.2539,82.2946
84.2451,82.3018
84.2366,82.3093
84.2285,82.3173
84.2206,82.3257
84.2132,82.3345
84.2060,82.3437
84.1992,82.3533
84.1928,82.3634
84.1868,82.3738
84.1811,82.3846
84.1757,82.3956
84.1708,82.4069
84.1662,82.4183
84.1619,82.4301
84.1581,82.4420
84.1546,82.4543
84.1515,82.4667
84.1487,82.4794
84.1463,82.4924
84.1443,82.5056
84.1426,82.5191
84.1414,82.5329
84.1404,82.5469
84.1399,82.5612
84.1397,82.5758
84.1399,82.5867
84.1403,82.5976
84.1412,82.6082
84.1423,82.6187
84.1438,82.6291
84.1456,82.6393
84.1477,82.6493
84.1502,82.6591
84.1531,82.6688
84.1563,82.6782
84.1598,82.6875
84.1637,82.6966
84.1679,82.7054
84.1725,82.7141
84.1775,82.7225
84.1828,82.7307
84.1881,82.7390
84.1937,82.7471
84.1995,82.7550
84.2056,82.7627
84.2120,82.7701
84.2186,82.7773
84.2255,82.7843
84.2326,82.7910
84.2400,82.7975
84.2476,82.8038
84.2555,82.8098
84.2636,82.8156
84.2720,82.8212
84.2806,82.8266
84.2894,82.8317
84.2985,82.8366
84.3081,82.8409
84.3179,82.8449
84.3278,82.8487
84.3379,82.8523
84.3481,82.8556
84.3585,82.8587
84.3690,82.8615
84.3796,82.8640
84.3905,82.8663
84.4015,82.8682
84.4126,82.8699
84.4240,82.8713
84.4355,82.8724
84.4472,82.8732
84.4590,82.8737
84.4711,82.8738
84.4831,82.8737
84.4950,82.8732
84.5066,82.8724
84.5181,82.8713
84.5294,82.8699
84.5406,82.8681
84.5515,82.8661
84.5622,82.8638
84.5728,82.8611
84.5832,82.8582
84.5934,82.8550
84.6034,82.8515
84.6133,82.8477
84.6229,82.8436
84.6324,82.8393
84.6417,82.8346
84.6511,82.8294
84.6602,82.8239
84.6691,82.8183
84.6777,82.8125
84.6861,82.8065
84.6942,82.8002
84.7020,82.7938
84.7096,82.7871
84.7169,82.7801
84.7239,82.7730
84.7308,82.7656
84.7373,82.7580
84.7437,82.7501
84.7498,82.7419
84.7556,82.7335
84.7613,82.7248
84.7663,82.7162
84.7710,82.7074
84.7754,82.6984
84.7796,82.6892
84.7834,82.6798
84.7870,82.6701
84.7902,82.6603
84.7931,82.6503
84.7957,82.6401
84.7980,82.6297
84.7999,82.6192
84.8015,82.6084
84.8028,82.5976
84.8037,82.5865
84.8042,82.5754
84.8044,82.5640
84.8041,82.5477
84.8031,82.5317
84.8015,82.5160
84.7993,82.5008
84.7964,82.4858
84.7929,82.4713
84.7888,82.4571
84.7841,82.4432
84.7787,82.4297
84.7727,82.4165
84.7661,82.4036
84.7589,82.3911
84.7511,82.3790
84.7427,82.3671
84.7336,82.3556
84.7240,82.3444
84.7142,82.3337
84.7041,82.3236
84.6935,82.3140
84.6826,82.3051
84.6712,82.2967
84.6595,82.2890
84.6475,82.2818
84.6350,82.2753
84.6223,82.2693
84.6092,82.2640
84.5958,82.2592
84.5820,82.2551
84.5680,82.2515
84.5536,82.2486
84.5389,82.2462
84.5240,82.2444
84.5240,82.0719
Z" /> 
<path style="fill:#000000; fill-opacity:1.0000; stroke:none;fill-rule:evenodd;"
d="M 84.8400,76.1690
84.8461,76.1694
84.8521,76.1701
84.8580,76.1711
84.8638,76.1723
84.8695,76.1738
84.8750,76.1756
84.8804,76.1777
84.8856,76.1801
84.8908,76.1827
84.8957,76.1856
84.9005,76.1887
84.9052,76.1922
84.9097,76.1959
84.9140,76.1999
84.9181,76.2042
84.9224,76.2086
84.9264,76.2132
84.9301,76.2178
84.9336,76.2226
84.9367,76.2274
84.9396,76.2324
84.9423,76.2375
84.9446,76.2427
84.9467,76.2480
84.9485,76.2534
84.9500,76.2589
84.9512,76.2646
84.9522,76.2704
84.9529,76.2763
84.9533,76.2823
84.9534,76.2885
84.9533,76.2947
84.9529,76.3008
84.9522,76.3068
84.9512,76.3127
84.9500,76.3185
84.9485,76.3241
84.9467,76.3297
84.9446,76.3351
84.9423,76.3403
84.9396,76.3454
84.9367,76.3504
84.9336,76.3552
84.9301,76.3599
84.9264,76.3644
84.9224,76.3687
84.9181,76.3728
84.9140,76.3771
84.9097,76.3811
84.9052,76.3848
84.9005,76.3882
84.8957,76.3914
84.8908,76.3943
84.8856,76.3969
84.8804,76.3993
84.8750,76.4013
84.8695,76.4031
84.8638,76.4047
84.8580,76.4059
84.8521,76.4069
84.8461,76.4076
84.8400,76.4080
84.8338,76.4081
84.8276,76.4080
84.8216,76.4076
84.8157,76.4069
84.8099,76.4059
84.8042,76.4047
84.7987,76.4031
84.7933,76.4013
84.7880,76.3993
84.7828,76.3969
84.7777,76.3943
84.7728,76.3914
84.7679,76.3882
84.7632,76.3848
84.7585,76.3811
84.7540,76.3771
84.7495,76.3728
84.7452,76.3687
84.7412,76.3644
84.7375,76.3599
84.7341,76.3552
84.7309,76.3504
84.7280,76.3454
84.7254,76.3403
84.7230,76.3351
84.7210,76.3297
84.7192,76.3241
84.7177,76.3185
84.7164,76.3127
84.7154,76.3068
84.7148,76.3008
84.7143,76.2947
84.7142,76.2885
84.7143,76.2823
84.7148,76.2763
84.7154,76.2704
84.7164,76.2646
84.7177,76.2589
84.7192,76.2534
84.7210,76.2480
84.7230,76.2427
84.7254,76.2375
84.7280,76.2324
84.7309,76.2274
84.7341,76.2226
84.7375,76.2178
84.7412,76.2132
84.7452,76.2086
84.7495,76.2042
84.7540,76.1999
84.7585,76.1959
84.7632,76.1922
84.7679,76.1887
84.7728,76.1856
84.7777,76.1827
84.7828,76.1801
84.7880,76.1777
84.7933,76.1756
84.7987,76.1738
84.8042,76.1723
84.8099,76.1711
84.8157,76.1701
84.8216,76.1694
84.8276,76.1690
84.8338,76.1689
Z" /> 
<path style="fill:#000000; fill-opacity:1.0000; stroke:none;fill-rule:evenodd;"
d="M 84.9377,81.9149
84.7848,81.9149
84.7848,81.2110
84.7828,81.2110
84.4319,81.5953
84.3969,81.6337
84.3797,81.6518
84.3627,81.6693
84.3459,81.6861
84.3293,81.7022
84.3128,81.7177
84.2966,81.7326
84.2805,81.7468
84.2646,81.7603
84.2489,81.7733
84.2333,81.7856
84.2180,81.7973
84.2028,81.8083
84.1878,81.8188
84.1730,81.8287
84.1586,81.8379
84.1440,81.8466
84.1292,81.8546
84.1142,81.8621
84.0990,81.8690
84.0837,81.8753
84.0682,81.8809
84.0524,81.8860
84.0365,81.8905
84.0205,81.8944
84.0042,81.8977
83.9877,81.9004
83.9711,81.9024
83.9543,81.9039
83.9373,81.9048
83.9201,81.9051
83.9044,81.9049
83.8888,81.9042
83.8735,81.9031
83.8584,81.9015
83.8435,81.8994
83.8287,81.8969
83.8143,81.8939
83.8000,81.8904
83.7860,81.8865
83.7721,81.8822
83.7586,81.8773
83.7453,81.8720
83.7322,81.8663
83.7194,81.8601
83.7069,81.8534
83.6946,81.8463
83.6826,81.8388
83.6711,81.8310
83.6598,81.8228
83.6489,81.8143
83.6384,81.8055
83.6282,81.7963
83.6183,81.7868
83.6088,81.7769
83.5996,81.7668
83.5907,81.7562
83.5821,81.7453
83.5738,81.7341
83.5658,81.7225
83.5581,81.7105
83.5507,81.6982
83.5436,81.6855
83.5369,81.6725
83.5306,81.6593
83.5247,81.6459
83.5193,81.6322
83.5144,81.6183
83.5099,81.6042
83.5058,81.5898
83.5022,81.5752
83.4990,81.5604
83.4963,81.5454
83.4939,81.5301
83.4921,81.5146
83.4906,81.4988
83.4895,81.4829
83.4889,81.4667
83.4887,81.4502
83.4889,81.4327
83.4896,81.4155
83.4908,81.3985
83.4924,81.3818
83.4945,81.3654
83.4971,81.3493
83.5001,81.3335
83.5037,81.3179
83.5077,81.3026
83.5122,81.2875
83.5172,81.2728
83.5226,81.2583
83.5286,81.2441
83.5351,81.2302
83.5420,81.2165
83.5495,81.2032
83.5574,81.1901
83.5657,81.1775
83.5743,81.1653
83.5833,81.1535
83.5927,81.1420
83.6024,81.1310
83.6125,81.1203
83.6230,81.1100
83.6339,81.1001
83.6451,81.0905
83.6567,81.0813
83.6686,81.0725
83.6809,81.0640
83.6936,81.0558
83.7067,81.0479
83.7201,81.0404
83.7342,81.0333
83.7484,81.0266
83.7629,81.0204
83.7775,81.0147
83.7924,81.0094
83.8075,81.0046
83.8229,81.0002
83.8385,80.9963
83.8543,80.9929
83.8704,80.9899
83.8868,80.9873
83.9035,80.9853
83.9204,80.9837
83.9376,80.9825
83.9552,80.9818
83.9730,80.9816
83.9730,81.1424
83.9542,81.1427
83.9358,81.1437
83.9180,81.1453
83.9006,81.1475
83.8838,81.1504
83.8674,81.1539
83.8516,81.1580
83.8363,81.1627
83.8214,81.1681
83.8071,81.1741
83.7933,81.1807
83.7800,81.1879
83.7672,81.1957
83.7549,81.2041
83.7431,81.2131
83.7319,81.2228
83.7208,81.2333
83.7105,81.2443
83.7010,81.2558
83.6921,81.2677
83.6840,81.2801
83.6766,81.2930
83.6699,81.3064
83.6640,81.3203
83.6587,81.3347
83.6542,81.3497
83.6503,81.3651
83.6472,81.3810
83.6448,81.3975
83.6430,81.4146
83.6420,81.4321
83.6417,81.4502
83.6420,81.4669
83.6429,81.4832
83.6443,81.4991
83.6464,81.5145
83.6491,81.5295
83.6524,81.5440
83.6563,81.5581
83.6608,81.5718
83.6659,81.5850
83.6715,81.5977
83.6778,81.6100
83.6847,81.6217
83.6921,81.6330
83.7002,81.6438
83.7089,81.6541
83.7181,81.6640
83.7279,81.6736
83.7381,81.6825
83.7487,81.6909
83.7597,81.6985
83.7712,81.7056
83.7830,81.7120
83.7953,81.7178
83.8081,81.7230
83.8213,81.7276
83.8349,81.7315
83.8489,81.7349
83.8634,81.7376
83.8784,81.7397
83.8938,81.7412
83.9097,81.7421
83.9260,81.7424
83.9351,81.7423
83.9442,81.7420
83.9531,81.7415
83.9620,81.7409
83.9707,81.7400
83.9794,81.7389
83.9879,81.7376
83.9963,81.7360
84.0046,81.7342
84.0128,81.7322
84.0209,81.7300
84.0288,81.7275
84.0366,81.7248
84.0443,81.7217
84.0519,81.7185
84.0593,81.7149
84.0670,81.7115
84.0747,81.7079
84.0825,81.7040
84.0902,81.6999
84.0979,81.6955
84.1056,81.6909
84.1133,81.6861
84.1211,81.6811
84.1288,81.6758
84.1365,81.6704
84.1442,81.6646
84.1520,81.6587
84.1597,81.6525
84.1674,81.6461
84.1751,81.6395
84.1828,81.6326
84.1993,81.6174
84.2163,81.6013
84.2338,81.5842
84.2520,81.5662
84.2706,81.5471
84.2898,81.5270
84.3096,81.5058
84.3299,81.4836
84.7926,80.9777
84.9377,80.9777
Z" /> 
<path style="fill:#000000; fill-opacity:1.0000; stroke:none;fill-rule:evenodd;"
d="M 84.2537,79.7793
84.2809,79.7801
84.3077,79.7813
84.3341,79.7831
84.3599,79.7853
84.3853,79.7881
84.4103,79.7913
84.4348,79.7950
84.4588,79.7992
84.4824,79.8039
84.5055,79.8090
84.5282,79.8147
84.5504,79.8207
84.5721,79.8273
84.5934,79.8343
84.6142,79.8418
84.6345,79.8501
84.6543,79.8587
84.6735,79.8678
84.6921,79.8772
84.7102,79.8869
84.7277,79.8971
84.7447,79.9076
84.7610,79.9185
84.7768,79.9299
84.7920,79.9416
84.8067,79.9537
84.8207,79.9662
84.8342,79.9791
84.8471,79.9924
84.8594,80.0061
84.8711,80.0203
84.8818,80.0348
84.8918,80.0497
84.9012,80.0649
84.9100,80.0805
84.9181,80.0965
84.9255,80.1128
84.9322,80.1295
84.9382,80.1465
84.9436,80.1638
84.9482,80.1815
84.9522,80.1996
84.9554,80.2180
84.9580,80.2367
84.9598,80.2557
84.9609,80.2751
84.9613,80.2948
84.9609,80.3141
84.9598,80.3332
84.9580,80.3520
84.9554,80.3704
84.9522,80.3886
84.9482,80.4065
84.9436,80.4241
84.9382,80.4413
84.9322,80.4583
84.9255,80.4749
84.9181,80.4912
84.9100,80.5071
84.9012,80.5227
84.8918,80.5379
84.8818,80.5528
84.8711,80.5673
84.8594,80.5818
84.8471,80.5958
84.8342,80.6094
84.8207,80.6225
84.8067,80.6352
84.7920,80.6474
84.7768,80.6592
84.7610,80.6705
84.7447,80.6814
84.7277,80.6919
84.7102,80.7019
84.6921,80.7115
84.6735,80.7207
84.6543,80.7295
84.6345,80.7378
84.6142,80.7458
84.5934,80.7536
84.5721,80.7608
84.5504,80.7676
84.5282,80.7738
84.5055,80.7794
84.4824,80.7846
84.4588,80.7892
84.4348,80.7933
84.4103,80.7969
84.3853,80.8000
84.3341,80.8048
84.2809,80.8076
84.2260,80.8085
84.1703,80.8076
84.1431,80.8064
84.1164,80.8048
84.0902,80.8026
84.0645,80.8000
84.0392,80.7969
84.0145,80.7933
83.9902,80.7892
83.9663,80.7846
83.9430,80.7794
83.9202,80.7738
83.8978,80.7676
83.8760,80.7608
83.8547,80.7536
83.8338,80.7458
83.8135,80.7378
83.7938,80.7295
83.7747,80.7207
83.7562,80.7115
83.7383,80.7019
83.7209,80.6919
83.7042,80.6814
83.6880,80.6705
83.6724,80.6592
83.6573,80.6474
83.6428,80.6352
83.6289,80.6225
83.6156,80.6094
83.6028,80.5958
83.5906,80.5818
83.5789,80.5673
83.5679,80.5528
83.5576,80.5379
83.5480,80.5227
83.5392,80.5071
83.5311,80.4912
83.5237,80.4749
83.5170,80.4583
83.5110,80.4413
83.5058,80.4241
83.5012,80.4065
83.4974,80.3886
83.4943,80.3704
83.4918,80.3520
83.4901,80.3332
83.4891,80.3141
83.4887,80.2948
83.6417,80.2948
83.6423,80.3147
83.6430,80.3245
83.6440,80.3342
83.6454,80.3437
83.6470,80.3531
83.6490,80.3624
83.6512,80.3716
83.6538,80.3806
83.6567,80.3895
83.6598,80.3983
83.6633,80.4069
83.6670,80.4154
83.6711,80.4238
83.6755,80.4320
83.6801,80.4401
83.6851,80.4481
83.6904,80.4559
83.6960,80.4636
83.7019,80.4712
83.7081,80.4787
83.7146,80.4860
83.7214,80.4931
83.7285,80.5002
83.7437,80.5139
83.7601,80.5270
83.7777,80.5396
83.7966,80.5516
83.8165,80.5630
83.8374,80.5737
83.8591,80.5836
83.8819,80.5928
83.9055,80.6013
83.9300,80.6090
83.9555,80.6160
83.9819,80.6222
84.0092,80.6277
84.0374,80.6325
84.0665,80.6366
84.0966,80.6399
84.1275,80.6424
84.1594,80.6443
84.1922,80.6454
84.2260,80.6458
84.2593,80.6454
84.2918,80.6443
84.3233,80.6424
84.3539,80.6399
84.3837,80.6366
84.4125,80.6325
84.4404,80.6277
84.4674,80.6222
84.4935,80.6160
84.5187,80.6090
84.5431,80.6013
84.5665,80.5928
84.5891,80.5836
84.6107,80.5737
84.6315,80.5630
84.6515,80.5516
84.6703,80.5396
84.6880,80.5270
84.7045,80.5139
84.7198,80.5002
84.7339,80.4860
84.7468,80.4712
84.7584,80.4559
84.7689,80.4401
84.7781,80.4238
84.7861,80.4069
84.7929,80.3895
84.7984,80.3716
84.8028,80.3531
84.8058,80.3342
84.8077,80.3147
84.8083,80.2948
84.8082,80.2845
84.8077,80.2745
84.8069,80.2645
84.8058,80.2547
84.8045,80.2450
84.8028,80.2355
84.8007,80.2261
84.7984,80.2168
84.7958,80.2077
84.7929,80.1987
84.7896,80.1899
84.7861,80.1812
84.7822,80.1726
84.7781,80.1642
84.7736,80.1559
84.7689,80.1477
84.7638,80.1397
84.7584,80.1318
84.7527,80.1241
84.7468,80.1165
84.7405,80.1090
84.7339,80.1017
84.7198,80.0874
84.7045,80.0737
84.6880,80.0606
84.6703,80.0480
84.6515,80.0359
84.6315,80.0245
84.6107,80.0139
84.5891,80.0040
84.5665,79.9948
84.5431,79.9863
84.5187,79.9786
84.4935,79.9716
84.4674,79.9654
84.4404,79.9598
84.4125,79.9551
84.3837,79.9510
84.3539,79.9477
84.3233,79.9451
84.2918,79.9433
84.2593,79.9422
84.2260,79.9418
84.1922,79.9422
84.1594,79.9433
84.1275,79.9451
84.0966,79.9477
84.0665,79.9510
84.0374,79.9551
84.0092,79.9598
83.9819,79.9654
83.9555,79.9716
83.9300,79.9786
83.9055,79.9863
83.8819,79.9948
83.8591,80.0040
83.8374,80.0139
83.8165,80.0245
83.7966,80.0359
83.7777,80.0480
83.7601,80.0606
83.7437,80.0737
83.7285,80.0874
83.7146,80.1017
83.7019,80.1165
83.6904,80.1318
83.6801,80.1477
83.6711,80.1642
83.6633,80.1812
83.6567,80.1987
83.6512,80.2168
83.6470,80.2355
83.6440,80.2547
83.6423,80.2745
83.6417,80.2948
83.4887,80.2948
83.4891,80.2751
83.4901,80.2557
83.4918,80.2367
83.4943,80.2180
83.4974,80.1996
83.5012,80.1815
83.5058,80.1638
83.5110,80.1465
83.5170,80.1295
83.5237,80.1128
83.5311,80.0965
83.5392,80.0805
83.5480,80.0649
83.5576,80.0497
83.5679,80.0348
83.5789,80.0203
83.5906,80.0061
83.6028,79.9924
83.6156,79.9791
83.6289,79.9662
83.6428,79.9537
83.6573,79.9416
83.6724,79.9299
83.6880,79.9185
83.7042,79.9076
83.7209,79.8971
83.7383,79.8869
83.7562,79.8772
83.7747,79.8678
83.7938,79.8587
83.8135,79.8501
83.8338,79.8418
83.8547,79.8343
83.8760,79.8273
83.8978,79.8207
83.9202,79.8147
83.9430,79.8090
83.9663,79.8039
84.0145,79.7950
84.0645,79.7881
84.1164,79.7831
84.1703,79.7801
84.2260,79.7791
Z" /> 
<path style="fill:#000000; fill-opacity:1.0000; stroke:none;fill-rule:evenodd;"
d="M 83.6887,76.7141
84.9377,76.7141
84.9377,76.8808
83.5103,76.8808
83.5103,76.7141
83.7495,76.3573
83.9240,76.3573
Z" /> 
<path style="fill:#000000; fill-opacity:1.0000; stroke:none;fill-rule:evenodd;"
d="M 84.8400,78.2485
84.8461,78.2490
84.8521,78.2496
84.8580,78.2506
84.8638,78.2518
84.8695,78.2534
84.8750,78.2552
84.8804,78.2572
84.8856,78.2596
84.8908,78.2622
84.8957,78.2651
84.9005,78.2683
84.9052,78.2717
84.9097,78.2754
84.9140,78.2794
84.9181,78.2837
84.9224,78.2882
84.9264,78.2927
84.9301,78.2974
84.9336,78.3021
84.9367,78.3070
84.9396,78.3119
84.9423,78.3170
84.9446,78.3222
84.9467,78.3275
84.9485,78.3329
84.9500,78.3384
84.9512,78.3441
84.9522,78.3499
84.9529,78.3558
84.9533,78.3618
84.9534,78.3680
84.9533,78.3742
84.9529,78.3803
84.9522,78.3863
84.9512,78.3922
84.9500,78.3980
84.9485,78.4036
84.9467,78.4092
84.9446,78.4146
84.9423,78.4198
84.9396,78.4250
84.9367,78.4299
84.9336,78.4347
84.9301,78.4394
84.9264,78.4439
84.9224,78.4482
84.9181,78.4523
84.9140,78.4566
84.9097,78.4606
84.9052,78.4643
84.9005,78.4678
84.8957,78.4709
84.8908,78.4738
84.8856,78.4765
84.8804,78.4788
84.8750,78.4809
84.8695,78.4827
84.8638,78.4842
84.8580,78.4854
84.8521,78.4864
84.8461,78.4871
84.8400,78.4875
84.8338,78.4876
84.8276,78.4875
84.8216,78.4871
84.8157,78.4864
84.8099,78.4854
84.8042,78.4842
84.7987,78.4827
84.7933,78.4809
84.7880,78.4788
84.7828,78.4765
84.7777,78.4738
84.7728,78.4709
84.7679,78.4678
84.7632,78.4643
84.7585,78.4606
84.7540,78.4566
84.7495,78.4523
84.7452,78.4482
84.7412,78.4439
84.7375,78.4394
84.7341,78.4347
84.7309,78.4299
84.7280,78.4250
84.7254,78.4198
84.7230,78.4146
84.7210,78.4092
84.7192,78.4036
84.7177,78.3980
84.7164,78.3922
84.7154,78.3863
84.7148,78.3803
84.7143,78.3742
84.7142,78.3680
84.7143,78.3618
84.7148,78.3558
84.7154,78.3499
84.7164,78.3441
84.7177,78.3384
84.7192,78.3329
84.7210,78.3275
84.7230,78.3222
84.7254,78.3170
84.7280,78.3119
84.7309,78.3070
84.7341,78.3021
84.7375,78.2974
84.7412,78.2927
84.7452,78.2882
84.7495,78.2837
84.7540,78.2794
84.7585,78.2754
84.7632,78.2717
84.7679,78.2683
84.7728,78.2651
84.7777,78.2622
84.7828,78.2596
84.7880,78.2572
84.7933,78.2552
84.7987,78.2534
84.8042,78.2518
84.8099,78.2506
84.8157,78.2496
84.8216,78.2490
84.8276,78.2485
84.8338,78.2484
Z" /> 
<path style="fill:#000000; fill-opacity:1.0000; stroke:none;fill-rule:evenodd;"
d="M 75.5500,65.0639
75.7226,65.0771
75.8927,65.0987
76.0600,65.1286
76.2245,65.1665
76.3858,65.2123
76.5437,65.2658
76.6980,65.3266
76.8486,65.3947
76.9951,65.4697
77.1375,65.5516
77.2754,65.6400
77.4086,65.7347
77.5370,65.8357
77.6604,65.9425
77.7784,66.0550
77.8910,66.1731
77.9978,66.2964
78.0987,66.4248
78.1935,66.5580
78.2819,66.6960
78.3638,66.8383
78.4388,66.9848
78.5069,67.1354
78.5678,67.2898
78.6212,67.4477
78.6670,67.6090
78.7050,67.7734
78.7349,67.9408
78.7565,68.1109
78.7696,68.2836
78.7741,68.4585
78.7785,68.2836
78.7916,68.1109
78.8132,67.9408
78.8431,67.7734
78.8811,67.6090
78.9269,67.4477
78.9803,67.2898
79.0411,67.1354
79.1092,66.9848
79.1843,66.8383
79.2661,66.6960
79.3545,66.5580
79.4493,66.4248
79.5502,66.2964
79.6570,66.1731
79.7695,66.0550
79.8875,65.9425
80.0109,65.8357
80.1392,65.7347
80.2725,65.6400
80.4104,65.5516
80.5527,65.4697
80.6992,65.3947
80.8498,65.3266
81.0041,65.2658
81.1620,65.2123
81.3233,65.1665
81.4877,65.1286
81.6551,65.0987
81.8252,65.0771
81.9977,65.0639
82.1726,65.0595
82.1730,65.0595
82.1734,65.0595
82.3476,65.0639
82.5196,65.0769
82.6890,65.0984
82.8558,65.1280
83.0196,65.1657
83.1804,65.2112
83.3378,65.2642
83.4916,65.3246
83.6417,65.3922
83.7879,65.4667
83.9298,65.5479
84.0674,65.6357
84.2004,65.7298
84.3285,65.8300
84.4517,65.9360
84.5696,66.0478
84.6821,66.1650
84.7889,66.2875
84.8898,66.4150
84.9847,66.5474
85.0733,66.6844
85.1554,66.8258
85.2307,66.9714
85.2992,67.1210
85.3605,67.2744
85.4145,67.4314
85.4609,67.5917
85.4996,67.7551
85.5302,67.9215
85.5527,68.0907
85.5668,68.2623
85.5723,68.4362
85.5723,68.4585
85.5767,68.2836
85.5899,68.1109
85.6115,67.9408
85.6414,67.7734
85.6793,67.6090
85.7251,67.4477
85.7786,67.2898
85.8394,67.1354
85.9075,66.9848
85.9825,66.8383
86.0644,66.6960
86.1528,66.5580
86.2475,66.4248
86.3484,66.2964
86.4553,66.1731
86.5678,66.0550
86.6859,65.9425
86.8092,65.8357
86.9376,65.7347
87.0708,65.6400
87.2087,65.5516
87.3511,65.4697
87.4976,65.3947
87.6482,65.3266
87.8026,65.2658
87.9605,65.2123
88.1218,65.1665
88.2862,65.1286
88.4536,65.0987
88.6237,65.0771
88.7963,65.0639
88.9713,65.0595
88.9716,65.0595
88.9716,68.4588
88.9672,68.6338
88.9541,68.8064
88.9325,68.9765
88.9026,69.1439
88.8646,69.3083
88.8188,69.4696
88.7653,69.6275
88.7045,69.7819
88.6364,69.9325
88.5613,70.0790
88.4795,70.2214
88.3911,70.3593
88.2963,70.4925
88.1954,70.6209
88.0885,70.7442
87.9760,70.8623
87.8579,70.9748
87.7346,71.0817
87.6062,71.1826
87.4729,71.2773
87.3350,71.3657
87.1927,71.4476
87.0461,71.5226
86.8956,71.5907
86.7412,71.6515
86.5833,71.7050
86.4220,71.7508
86.2576,71.7887
86.0902,71.8186
85.9202,71.8402
85.7476,71.8534
85.5727,71.8578
85.5719,71.8578
85.3970,71.8534
85.2244,71.8402
85.0543,71.8186
84.8869,71.7887
84.7225,71.7508
84.5612,71.7050
84.4032,71.6515
84.2489,71.5907
84.0983,71.5226
83.9518,71.4476
83.8094,71.3657
83.6715,71.2773
83.5383,71.1826
83.4099,71.0817
83.2865,70.9748
83.1685,70.8623
83.0560,70.7442
82.9491,70.6209
82.8482,70.4925
82.7535,70.3593
82.6651,70.2214
82.5832,70.0790
82.5082,69.9325
82.4401,69.7819
82.3792,69.6275
82.3258,69.4696
82.2800,69.3083
82.2421,69.1439
82.2122,68.9765
82.1905,68.8064
82.1774,68.6338
82.1730,68.4588
82.1686,68.6338
82.1555,68.8064
82.1338,68.9765
82.1040,69.1439
82.0660,69.3083
82.0202,69.4696
81.9668,69.6275
81.9059,69.7819
81.8378,69.9325
81.7628,70.0790
81.6809,70.2214
81.5925,70.3593
81.4978,70.4925
81.3969,70.6209
81.2900,70.7442
81.1775,70.8623
81.0595,70.9748
80.9361,71.0817
80.8077,71.1826
80.6745,71.2773
80.5366,71.3657
80.3942,71.4476
80.2477,71.5226
80.0971,71.5907
79.9428,71.6515
79.7848,71.7050
79.6235,71.7508
79.4591,71.7887
79.2917,71.8186
79.1216,71.8402
78.9490,71.8534
78.7741,71.8578
78.7737,71.8578
78.5988,71.8534
78.4262,71.8402
78.2560,71.8186
78.0887,71.7887
77.9242,71.7508
77.7629,71.7050
77.6050,71.6515
77.4506,71.5907
77.3001,71.5226
77.1535,71.4476
77.0112,71.3657
76.8733,71.2773
76.7400,71.1826
76.6116,71.0817
76.4883,70.9748
76.3702,70.8623
76.2577,70.7442
76.1509,70.6209
76.0500,70.4925
75.9552,70.3593
75.8668,70.2214
75.7850,70.0790
75.7099,69.9325
75.6418,69.7819
75.5810,69.6275
75.5275,69.4696
75.4817,69.3083
75.4438,69.1439
75.4139,68.9765
75.3923,68.8064
75.3792,68.6338
75.3747,68.4588
75.3747,65.0595
75.3751,65.0595
Z" /> 
<path style="fill:#000000; fill-opacity:1.0000; stroke:none;fill-rule:evenodd;"
d="M 79.9652,85.9168
82.8624,85.4371
82.8624,86.0438
79.9652,86.5235
79.9652,87.5864
79.4385,87.6711
79.4385,84.9385
79.9652,84.8491
Z" /> 
<path style="fill:#000000; fill-opacity:1.0000; stroke:none;fill-rule:evenodd;"
d="M 78.9490,97.9904
79.1216,98.0036
79.2917,98.0252
79.4591,98.0551
79.6235,98.0930
79.7848,98.1388
79.9428,98.1922
80.0971,98.2531
80.2477,98.3212
80.3942,98.3962
80.5366,98.4781
80.6745,98.5665
80.8077,98.6612
80.9361,98.7621
81.0595,98.8690
81.1775,98.9815
81.2900,99.0995
81.3969,99.2229
81.4978,99.3513
81.5925,99.4845
81.6809,99.6224
81.7628,99.7648
81.8378,99.9113
81.9059,100.0619
81.9668,100.2162
82.0202,100.3742
82.0660,100.5355
82.1040,100.6999
82.1338,100.8673
82.1555,101.0374
82.1686,101.2100
82.1730,101.3850
82.1774,101.2100
82.1905,101.0374
82.2122,100.8673
82.2421,100.6999
82.2800,100.5355
82.3258,100.3742
82.3792,100.2162
82.4401,100.0619
82.5082,99.9113
82.5832,99.7648
82.6651,99.6224
82.7535,99.4845
82.8482,99.3513
82.9491,99.2229
83.0560,99.0995
83.1685,98.9815
83.2865,98.8690
83.4099,98.7621
83.5383,98.6612
83.6715,98.5665
83.8094,98.4781
83.9518,98.3962
84.0983,98.3212
84.2489,98.2531
84.4032,98.1922
84.5612,98.1388
84.7225,98.0930
84.8869,98.0551
85.0543,98.0252
85.2244,98.0036
85.3970,97.9904
85.5719,97.9860
85.5727,97.9860
85.7476,97.9904
85.9202,98.0036
86.0902,98.0252
86.2576,98.0551
86.4220,98.0930
86.5833,98.1388
86.7412,98.1922
86.8956,98.2531
87.0461,98.3212
87.1927,98.3962
87.3350,98.4781
87.4729,98.5665
87.6062,98.6612
87.7346,98.7621
87.8579,98.8690
87.9760,98.9815
88.0885,99.0995
88.1954,99.2229
88.2963,99.3513
88.3911,99.4845
88.4795,99.6224
88.5613,99.7648
88.6364,99.9113
88.7045,100.0619
88.7653,100.2162
88.8188,100.3742
88.8646,100.5355
88.9026,100.6999
88.9325,100.8673
88.9541,101.0374
88.9672,101.2100
88.9716,101.3850
88.9716,104.7843
88.9713,104.7843
88.7963,104.7798
88.6237,104.7667
88.4536,104.7451
88.2862,104.7152
88.1218,104.6773
87.9605,104.6315
87.8026,104.5780
87.6482,104.5172
87.4976,104.4491
87.3511,104.3740
87.2087,104.2922
87.0708,104.2038
86.9376,104.1090
86.8092,104.0081
86.6859,103.9013
86.5678,103.7888
86.4553,103.6707
86.3484,103.5474
86.2475,103.4190
86.1528,103.2857
86.0644,103.1478
85.9825,103.0055
85.9075,102.8589
85.8394,102.7084
85.7786,102.5540
85.7251,102.3961
85.6793,102.2348
85.6414,102.0704
85.6115,101.9030
85.5899,101.7329
85.5767,101.5602
85.5723,101.3853
85.5723,101.4075
85.5668,101.5815
85.5527,101.7531
85.5302,101.9222
85.4996,102.0886
85.4609,102.2521
85.4145,102.4124
85.3605,102.5694
85.2992,102.7228
85.2307,102.8724
85.1554,103.0180
85.0733,103.1594
84.9847,103.2964
84.8898,103.4287
84.7889,103.5563
84.6821,103.6788
84.5696,103.7960
84.4517,103.9077
84.3285,104.0138
84.2004,104.1140
84.0674,104.2081
83.9298,104.2959
83.7879,104.3771
83.6417,104.4516
83.4916,104.5192
83.3378,104.5796
83.1804,104.6326
83.0196,104.6781
82.8558,104.7157
82.6890,104.7454
82.5196,104.7669
82.3476,104.7799
82.1734,104.7843
82.1730,104.7843
82.1726,104.7843
81.9977,104.7798
81.8252,104.7667
81.6551,104.7451
81.4877,104.7152
81.3233,104.6773
81.1620,104.6315
81.0041,104.5780
80.8498,104.5172
80.6992,104.4491
80.5527,104.3740
80.4104,104.2922
80.2725,104.2038
80.1392,104.1090
80.0109,104.0081
79.8875,103.9013
79.7695,103.7888
79.6570,103.6707
79.5502,103.5474
79.4493,103.4190
79.3545,103.2857
79.2661,103.1478
79.1843,103.0055
79.1092,102.8589
79.0411,102.7084
78.9803,102.5540
78.9269,102.3961
78.8811,102.2348
78.8431,102.0704
78.8132,101.9030
78.7916,101.7329
78.7785,101.5602
78.7741,101.3853
78.7696,101.5602
78.7565,101.7329
78.7349,101.9030
78.7050,102.0704
78.6670,102.2348
78.6212,102.3961
78.5678,102.5540
78.5069,102.7084
78.4388,102.8589
78.3638,103.0055
78.2819,103.1478
78.1935,103.2857
78.0987,103.4190
77.9978,103.5474
77.8910,103.6707
77.7784,103.7888
77.6604,103.9013
77.5370,104.0081
77.4086,104.1090
77.2754,104.2038
77.1375,104.2922
76.9951,104.3740
76.8486,104.4491
76.6980,104.5172
76.5437,104.5780
76.3858,104.6315
76.2245,104.6773
76.0600,104.7152
75.8927,104.7451
75.7226,104.7667
75.5500,104.7798
75.3751,104.7843
75.3747,104.7843
75.3747,101.3850
75.3792,101.2100
75.3923,101.0374
75.4139,100.8673
75.4438,100.6999
75.4817,100.5355
75.5275,100.3742
75.5810,100.2162
75.6418,100.0619
75.7099,99.9113
75.7850,99.7648
75.8668,99.6224
75.9552,99.4845
76.0500,99.3513
76.1509,99.2229
76.2577,99.0995
76.3702,98.9815
76.4883,98.8690
76.6116,98.7621
76.7400,98.6612
76.8733,98.5665
77.0112,98.4781
77.1535,98.3962
77.3001,98.3212
77.4506,98.2531
77.6050,98.1922
77.7629,98.1388
77.9242,98.0930
78.0887,98.0551
78.2560,98.0252
78.4262,98.0036
78.5988,97.9904
78.7737,97.9860
78.7741,97.9860
Z" /> 
<path style="fill:#000000; fill-opacity:1.0000; stroke:none;fill-rule:evenodd;"
d="M 82.8624,82.1650
82.0441,82.5836
82.0441,83.9099
82.8624,84.0463
82.8624,84.6953
79.4385,84.0416
79.4385,83.5948
79.9887,83.5948
80.2962,83.6365
80.5719,83.6747
80.8224,83.7100
81.0658,83.7453
81.5455,83.8252
81.5455,82.8376
81.0658,83.0821
80.9450,83.1395
80.8224,83.1985
80.6980,83.2594
80.5719,83.3220
80.2962,83.4496
79.9887,83.5948
79.4385,83.5948
79.4385,83.2797
82.8624,81.4924
Z" /> 
<path style="fill:#000000; fill-opacity:1.0000; stroke:none;fill-rule:evenodd;"
d="M 82.8624,74.9147
81.6302,75.1170
81.6302,75.8084
81.6297,75.8548
81.6282,75.9007
81.6257,75.9461
81.6222,75.9908
81.6176,76.0350
81.6121,76.0786
81.6055,76.1216
81.5978,76.1640
81.5892,76.2058
81.5794,76.2470
81.5686,76.2876
81.5568,76.3276
81.5438,76.3669
81.5298,76.4055
81.5147,76.4436
81.4985,76.4809
81.4821,76.5184
81.4648,76.5550
81.4465,76.5907
81.4272,76.6255
81.4070,76.6595
81.3859,76.6926
81.3639,76.7248
81.3409,76.7561
81.3171,76.7865
81.2924,76.8160
81.2669,76.8447
81.2405,76.8725
81.2133,76.8994
81.1853,76.9254
81.1565,76.9505
81.1269,76.9748
81.0957,76.9981
81.0639,77.0204
81.0314,77.0417
80.9982,77.0620
80.9643,77.0813
80.9298,77.0995
80.8947,77.1167
80.8588,77.1329
80.8224,77.1480
80.7852,77.1621
80.7474,77.1751
80.7089,77.1871
80.6698,77.1979
80.6300,77.2077
80.5895,77.2164
80.5484,77.2240
80.5064,77.2304
80.4651,77.2355
80.4244,77.2392
80.3845,77.2417
80.3452,77.2428
80.3066,77.2426
80.2687,77.2410
80.2315,77.2381
80.1951,77.2340
80.1594,77.2284
80.1243,77.2216
80.0901,77.2135
80.0566,77.2040
80.0238,77.1932
79.9918,77.1810
79.9605,77.1676
79.9301,77.1529
79.9006,77.1372
79.8719,77.1203
79.8441,77.1023
79.8172,77.0833
79.7912,77.0631
79.7661,77.0418
79.7418,77.0194
79.7184,76.9960
79.6960,76.9714
79.6744,76.9457
79.6536,76.9189
79.6338,76.8910
79.6148,76.8620
79.5968,76.8319
79.5796,76.8007
79.5625,76.7685
79.5465,76.7353
79.5316,76.7011
79.5178,76.6659
79.5052,76.6297
79.4936,76.5926
79.4831,76.5546
79.4737,76.5156
79.4655,76.4757
79.4583,76.4348
79.4522,76.3930
79.4473,76.3503
79.4434,76.3067
79.4407,76.2622
79.4390,76.2168
79.4385,76.1705
79.4385,76.0623
79.9605,76.0623
79.9611,76.0996
79.9629,76.1358
79.9660,76.1707
79.9702,76.2044
79.9757,76.2369
79.9823,76.2683
79.9902,76.2985
79.9993,76.3275
80.0096,76.3553
80.0211,76.3821
80.0339,76.4076
80.0478,76.4321
80.0630,76.4554
80.0794,76.4775
80.0969,76.4986
80.1157,76.5185
80.1347,76.5371
80.1547,76.5541
80.1757,76.5694
80.1977,76.5831
80.2206,76.5952
80.2445,76.6057
80.2693,76.6146
80.2950,76.6220
80.3217,76.6279
80.3494,76.6322
80.3779,76.6350
80.4074,76.6363
80.4378,76.6361
80.4691,76.6344
80.5012,76.6313
80.5343,76.6267
80.5674,76.6208
80.5996,76.6135
80.6309,76.6049
80.6613,76.5950
80.6908,76.5839
80.7195,76.5714
80.7473,76.5577
80.7742,76.5427
80.8002,76.5264
80.8253,76.5088
80.8496,76.4900
80.8730,76.4700
80.8954,76.4487
80.9170,76.4262
80.9378,76.4024
80.9576,76.3774
80.9764,76.3515
80.9940,76.3248
81.0104,76.2973
81.0255,76.2690
81.0395,76.2399
81.0522,76.2101
81.0637,76.1795
81.0740,76.1482
81.0831,76.1160
81.0910,76.0831
81.0977,76.0495
81.1031,76.0150
81.1074,75.9798
81.1104,75.9438
81.1122,75.9070
81.1128,75.8695
81.1128,75.2063
79.9605,75.3992
79.9605,76.0623
79.4385,76.0623
79.4385,75.3992
79.4385,74.8771
82.8624,74.3080
Z" /> 
<path style="fill:#000000; fill-opacity:1.0000; stroke:none;fill-rule:evenodd;"
d="M 84.5062,77.1150
84.5234,77.1157
84.5402,77.1170
84.5568,77.1188
84.5731,77.1210
84.5890,77.1238
84.6047,77.1271
84.6201,77.1309
84.6352,77.1352
84.6501,77.1400
84.6646,77.1453
84.6790,77.1511
84.6931,77.1574
84.7069,77.1643
84.7205,77.1716
84.7338,77.1794
84.7472,77.1874
84.7602,77.1958
84.7728,77.2046
84.7849,77.2139
84.7967,77.2236
84.8081,77.2337
84.8191,77.2442
84.8297,77.2552
84.8398,77.2665
84.8496,77.2782
84.8591,77.2902
84.8681,77.3027
84.8768,77.3155
84.8850,77.3286
84.8929,77.3421
84.9005,77.3559
84.9080,77.3700
84.9149,77.3845
84.9214,77.3992
84.9274,77.4143
84.9328,77.4297
84.9378,77.4453
84.9423,77.4612
84.9463,77.4775
84.9498,77.4940
84.9529,77.5107
84.9555,77.5278
84.9576,77.5451
84.9592,77.5626
84.9603,77.5804
84.9610,77.5984
84.9613,77.6167
84.9611,77.6342
84.9604,77.6515
84.9594,77.6686
84.9579,77.6854
84.9560,77.7020
84.9537,77.7184
84.9510,77.7346
84.9478,77.7505
84.9442,77.7662
84.9401,77.7817
84.9356,77.7969
84.9307,77.8119
84.9253,77.8267
84.9194,77.8412
84.9131,77.8555
84.9064,77.8696
84.8996,77.8834
84.8924,77.8968
84.8849,77.9099
84.8770,77.9226
84.8687,77.9349
84.8601,77.9468
84.8512,77.9584
84.8419,77.9696
84.8323,77.9805
84.8223,77.9909
84.8120,78.0011
84.8013,78.0108
84.7903,78.0202
84.7790,78.0292
84.7674,78.0378
84.7554,78.0461
84.7435,78.0539
84.7313,78.0613
84.7189,78.0681
84.7062,78.0744
84.6932,78.0802
84.6800,78.0855
84.6666,78.0903
84.6529,78.0946
84.6390,78.0984
84.6249,78.1017
84.6106,78.1045
84.5960,78.1068
84.5812,78.1085
84.5663,78.1098
84.5511,78.1106
84.5358,78.1108
84.5201,78.1105
84.5047,78.1095
84.4896,78.1079
84.4747,78.1057
84.4602,78.1028
84.4459,78.0992
84.4319,78.0950
84.4181,78.0902
84.4047,78.0847
84.3915,78.0786
84.3786,78.0719
84.3659,78.0645
84.3536,78.0564
84.3415,78.0478
84.3297,78.0384
84.3181,78.0285
84.3070,78.0179
84.2963,78.0070
84.2862,77.9957
84.2766,77.9839
84.2675,77.9718
84.2589,77.9591
84.2509,77.9461
84.2434,77.9326
84.2364,77.9187
84.2299,77.9043
84.2240,77.8896
84.2186,77.8743
84.2137,77.8586
84.2094,77.8425
84.2057,77.8259
84.2024,77.8088
84.2005,77.8088
84.1959,77.8237
84.1908,77.8382
84.1854,77.8522
84.1796,77.8658
84.1734,77.8790
84.1668,77.8918
84.1598,77.9042
84.1524,77.9162
84.1447,77.9278
84.1366,77.9389
84.1282,77.9496
84.1194,77.9599
84.1103,77.9698
84.1008,77.9793
84.0910,77.9884
84.0809,77.9971
84.0701,78.0056
84.0593,78.0135
84.0482,78.0209
84.0371,78.0277
84.0257,78.0338
84.0142,78.0395
84.0025,78.0445
83.9907,78.0490
83.9786,78.0530
83.9664,78.0564
83.9540,78.0593
83.9413,78.0616
83.9285,78.0634
83.9155,78.0647
83.9022,78.0655
83.8887,78.0657
83.8741,78.0655
83.8598,78.0648
83.8456,78.0636
83.8317,78.0620
83.8180,78.0599
83.8045,78.0573
83.7912,78.0543
83.7782,78.0508
83.7653,78.0467
83.7527,78.0422
83.7402,78.0373
83.7280,78.0318
83.7159,78.0258
83.7040,78.0194
83.6924,78.0124
83.6809,78.0049
83.6700,77.9974
83.6594,77.9895
83.6490,77.9812
83.6390,77.9726
83.6292,77.9636
83.6197,77.9542
83.6104,77.9444
83.6015,77.9343
83.5928,77.9239
83.5844,77.9130
83.5762,77.9018
83.5684,77.8902
83.5608,77.8783
83.5535,77.8659
83.5464,77.8533
83.5397,77.8402
83.5336,77.8272
83.5279,77.8140
83.5226,77.8006
83.5177,77.7869
83.5131,77.7730
83.5089,77.7589
83.5051,77.7445
83.5017,77.7299
83.4987,77.7151
83.4961,77.7000
83.4938,77.6848
83.4920,77.6693
83.4906,77.6535
83.4895,77.6375
83.4889,77.6213
83.4887,77.6049
83.4889,77.5881
83.4895,77.5716
83.4906,77.5554
83.4921,77.5394
83.4939,77.5237
83.4963,77.5083
83.4990,77.4931
83.5022,77.4782
83.5058,77.4635
83.5099,77.4491
83.5144,77.4349
83.5193,77.4210
83.5247,77.4073
83.5306,77.3939
83.5369,77.3806
83.5436,77.3677
83.5508,77.3546
83.5582,77.3420
83.5660,77.3298
83.5742,77.3180
83.5826,77.3065
83.5914,77.2955
83.6006,77.2848
83.6100,77.2745
83.6199,77.2646
83.6300,77.2550
83.6406,77.2458
83.6514,77.2370
83.6627,77.2284
83.6742,77.2203
83.6862,77.2124
83.6985,77.2049
83.7111,77.1978
83.7239,77.1911
83.7369,77.1849
83.7501,77.1792
83.7634,77.1739
83.7770,77.1691
83.7909,77.1647
83.8049,77.1608
83.8192,77.1574
83.8337,77.1544
83.8484,77.1518
83.8634,77.1498
83.8787,77.1482
83.8942,77.1470
83.9099,77.1463
83.9260,77.1461
83.9260,77.3108
83.9093,77.3111
83.8931,77.3121
83.8775,77.3137
83.8623,77.3159
83.8476,77.3188
83.8334,77.3223
83.8196,77.3264
83.8064,77.3311
83.7935,77.3365
83.7812,77.3425
83.7692,77.3491
83.7578,77.3563
83.7467,77.3641
83.7361,77.3725
83.7259,77.3816
83.7162,77.3912
83.7069,77.4010
83.6982,77.4113
83.6902,77.4221
83.6827,77.4334
83.6758,77.4452
83.6696,77.4574
83.6639,77.4702
83.6588,77.4834
83.6543,77.4970
83.6504,77.5111
83.6472,77.5256
83.6445,77.5406
83.6424,77.5561
83.6409,77.5719
83.6400,77.5882
83.6397,77.6049
83.6400,77.6213
83.6408,77.6372
83.6422,77.6527
83.6441,77.6678
83.6465,77.6825
83.6495,77.6968
83.6530,77.7108
83.6571,77.7243
83.6617,77.7374
83.6668,77.7502
83.6724,77.7625
83.6786,77.7745
83.6852,77.7861
83.6924,77.7973
83.7001,77.8082
83.7083,77.8186
83.7170,77.8283
83.7261,77.8372
83.7357,77.8455
83.7458,77.8532
83.7562,77.8603
83.7671,77.8667
83.7784,77.8725
83.7902,77.8777
83.8023,77.8823
83.8149,77.8862
83.8279,77.8895
83.8412,77.8923
83.8550,77.8944
83.8691,77.8959
83.8836,77.8968
83.8985,77.8971
83.9112,77.8968
83.9237,77.8958
83.9359,77.8942
83.9477,77.8919
83.9593,77.8890
83.9706,77.8854
83.9815,77.8811
83.9921,77.8762
84.0025,77.8707
84.0125,77.8644
84.0221,77.8575
84.0314,77.8499
84.0404,77.8417
84.0490,77.8327
84.0573,77.8231
84.0652,77.8128
84.0730,77.8019
84.0804,77.7906
84.0872,77.7789
84.0935,77.7668
84.0993,77.7543
84.1046,77.7413
84.1094,77.7280
84.1137,77.7142
84.1175,77.7001
84.1208,77.6855
84.1236,77.6705
84.1258,77.6550
84.1276,77.6392
84.1289,77.6230
84.1296,77.6063
84.1299,77.5892
84.1299,77.4735
84.2828,77.4735
84.2828,77.5892
84.2831,77.6085
84.2839,77.6274
84.2853,77.6458
84.2872,77.6638
84.2897,77.6814
84.2927,77.6985
84.2962,77.7152
84.3002,77.7314
84.3048,77.7472
84.3099,77.7625
84.3156,77.7773
84.3217,77.7916
84.3284,77.8055
84.3356,77.8189
84.3433,77.8318
84.3515,77.8441
84.3604,77.8559
84.3698,77.8669
84.3794,77.8772
84.3894,77.8868
84.3997,77.8955
84.4103,77.9036
84.4213,77.9109
84.4326,77.9174
84.4443,77.9232
84.4563,77.9282
84.4686,77.9325
84.4813,77.9360
84.4944,77.9387
84.5078,77.9406
84.5216,77.9418
84.5358,77.9422
84.5514,77.9418
84.5666,77.9407
84.5813,77.9389
84.5957,77.9363
84.6097,77.9330
84.6232,77.9290
84.6363,77.9243
84.6490,77.9189
84.6613,77.9127
84.6732,77.9059
84.6847,77.8983
84.6957,77.8901
84.7063,77.8811
84.7166,77.8714
84.7264,77.8611
84.7358,77.8500
84.7447,77.8384
84.7531,77.8264
84.7609,77.8140
84.7681,77.8011
84.7748,77.7878
84.7809,77.7741
84.7864,77.7599
84.7914,77.7454
84.7958,77.7303
84.7996,77.7149
84.8029,77.6990
84.8055,77.6826
84.8076,77.6659
84.8091,77.6486
84.8100,77.6309
84.8103,77.6128
84.8099,77.5939
84.8089,77.5755
84.8072,77.5577
84.8048,77.5404
84.8018,77.5236
84.7981,77.5073
84.7937,77.4915
84.7887,77.4762
84.7831,77.4615
84.7768,77.4473
84.7699,77.4337
84.7623,77.4206
84.7541,77.4080
84.7454,77.3960
84.7360,77.3845
84.7260,77.3735
84.7151,77.3632
84.7036,77.3536
84.6917,77.3447
84.6793,77.3364
84.6663,77.3288
84.6528,77.3219
84.6388,77.3156
84.6243,77.3101
84.6092,77.3052
84.5936,77.3009
84.5775,77.2973
84.5608,77.2944
84.5436,77.2921
84.5259,77.2905
84.5076,77.2896
84.4887,77.2892
84.4887,77.1147
Z" /> 
<path style="fill:#000000; fill-opacity:1.0000; stroke:none;fill-rule:evenodd;"
d="M 84.9377,79.6123
84.7848,79.6123
84.7848,78.9084
84.7828,78.9084
84.4319,79.2927
84.3969,79.3311
84.3797,79.3492
84.3627,79.3667
84.3459,79.3835
84.3293,79.3997
84.3128,79.4151
84.2966,79.4300
84.2805,79.4442
84.2646,79.4578
84.2489,79.4707
84.2333,79.4830
84.2180,79.4947
84.2028,79.5058
84.1878,79.5162
84.1730,79.5261
84.1586,79.5353
84.1440,79.5440
84.1292,79.5521
84.1142,79.5595
84.0990,79.5664
84.0837,79.5727
84.0682,79.5783
84.0524,79.5834
84.0365,79.5879
84.0205,79.5918
84.0042,79.5951
83.9877,79.5978
83.9711,79.5999
83.9543,79.6013
83.9373,79.6022
83.9201,79.6025
83.9044,79.6023
83.8888,79.6016
83.8735,79.6005
83.8584,79.5989
83.8435,79.5968
83.8287,79.5943
83.8143,79.5913
83.8000,79.5878
83.7860,79.5839
83.7721,79.5796
83.7586,79.5747
83.7453,79.5695
83.7322,79.5637
83.7194,79.5575
83.7069,79.5508
83.6946,79.5437
83.6826,79.5362
83.6711,79.5284
83.6598,79.5202
83.6489,79.5117
83.6384,79.5029
83.6282,79.4937
83.6183,79.4842
83.6088,79.4744
83.5996,79.4642
83.5907,79.4536
83.5821,79.4427
83.5738,79.4315
83.5658,79.4199
83.5581,79.4079
83.5507,79.3956
83.5436,79.3829
83.5369,79.3700
83.5306,79.3567
83.5247,79.3433
83.5193,79.3296
83.5144,79.3157
83.5099,79.3016
83.5058,79.2872
83.5022,79.2726
83.4990,79.2578
83.4963,79.2428
83.4939,79.2275
83.4921,79.2120
83.4906,79.1962
83.4895,79.1803
83.4889,79.1641
83.4887,79.1476
83.4889,79.1301
83.4896,79.1129
83.4908,79.0959
83.4924,79.0793
83.4945,79.0628
83.4971,79.0467
83.5001,79.0309
83.5037,79.0153
83.5077,79.0000
83.5122,78.9850
83.5172,78.9702
83.5226,78.9557
83.5286,78.9415
83.5351,78.9276
83.5420,78.9140
83.5495,78.9006
83.5574,78.8875
83.5657,78.8749
83.5743,78.8627
83.5833,78.8509
83.5927,78.8395
83.6024,78.8284
83.6125,78.8177
83.6230,78.8074
83.6339,78.7975
83.6451,78.7879
83.6567,78.7787
83.6686,78.7699
83.6809,78.7614
83.6936,78.7532
83.7067,78.7453
83.7201,78.7378
83.7342,78.7307
83.7484,78.7240
83.7629,78.7178
83.7775,78.7121
83.7924,78.7068
83.8075,78.7020
83.8229,78.6976
83.8385,78.6937
83.8543,78.6903
83.8704,78.6873
83.8868,78.6848
83.9035,78.6827
83.9204,78.6811
83.9376,78.6799
83.9552,78.6792
83.9730,78.6790
83.9730,78.8398
83.9542,78.8401
83.9358,78.8411
83.9180,78.8427
83.9006,78.8449
83.8838,78.8478
83.8674,78.8513
83.8516,78.8554
83.8363,78.8601
83.8214,78.8655
83.8071,78.8715
83.7933,78.8781
83.7800,78.8853
83.7672,78.8931
83.7549,78.9015
83.7431,78.9106
83.7319,78.9202
83.7208,78.9307
83.7105,78.9417
83.7010,78.9532
83.6921,78.9651
83.6840,78.9775
83.6766,78.9904
83.6699,79.0038
83.6640,79.0177
83.6587,79.0321
83.6542,79.0471
83.6503,79.0625
83.6472,79.0785
83.6448,79.0949
83.6430,79.1120
83.6420,79.1295
83.6417,79.1476
83.6420,79.1643
83.6429,79.1806
83.6443,79.1965
83.6464,79.2119
83.6491,79.2269
83.6524,79.2415
83.6563,79.2556
83.6608,79.2692
83.6659,79.2824
83.6715,79.2951
83.6778,79.3074
83.6847,79.3191
83.6921,79.3304
83.7002,79.3412
83.7089,79.3516
83.7181,79.3614
83.7279,79.3710
83.7381,79.3799
83.7487,79.3883
83.7597,79.3960
83.7712,79.4030
83.7830,79.4094
83.7953,79.4153
83.8081,79.4204
83.8213,79.4250
83.8349,79.4289
83.8489,79.4323
83.8634,79.4350
83.8784,79.4371
83.8938,79.4386
83.9097,79.4395
83.9260,79.4398
83.9351,79.4397
83.9442,79.4394
83.9531,79.4389
83.9620,79.4383
83.9707,79.4374
83.9794,79.4363
83.9879,79.4350
83.9963,79.4334
84.0046,79.4317
84.0128,79.4296
84.0209,79.4274
84.0288,79.4249
84.0366,79.4222
84.0443,79.4192
84.0519,79.4159
84.0593,79.4123
84.0670,79.4089
84.0747,79.4053
84.0825,79.4014
84.0902,79.3973
84.0979,79.3929
84.1056,79.3884
84.1133,79.3836
84.1211,79.3785
84.1288,79.3733
84.1365,79.3678
84.1442,79.3620
84.1520,79.3561
84.1597,79.3499
84.1674,79.3435
84.1751,79.3369
84.1828,79.3300
84.1993,79.3148
84.2163,79.2987
84.2338,79.2816
84.2520,79.2636
84.2706,79.2445
84.2898,79.2244
84.3096,79.2032
84.3299,79.1810
84.7926,78.6751
84.9377,78.6751
Z" /> 
<path style="fill:#000000; fill-opacity:1.0000; stroke:none;fill-rule:evenodd;"
d="M 83.6887,74.6643
84.9377,74.6643
84.9377,74.8310
83.5103,74.8310
83.5103,74.6643
83.7495,74.3074
83.9240,74.3074
Z" /> 
<path style="fill:#000000; fill-opacity:1.0000; stroke:none;fill-rule:evenodd;"
d="M 75.5500,57.2000
75.7226,57.2131
75.8927,57.2347
76.0600,57.2646
76.2245,57.3026
76.3858,57.3484
76.5437,57.4018
76.6980,57.4627
76.8486,57.5307
76.9951,57.6058
77.1375,57.6876
77.2754,57.7760
77.4086,57.8708
77.5370,57.9717
77.6604,58.0785
77.7784,58.1911
77.8910,58.3091
77.9978,58.4324
78.0987,58.5608
78.1935,58.6941
78.2819,58.8320
78.3638,58.9743
78.4388,59.1209
78.5069,59.2715
78.5678,59.4258
78.6212,59.5837
78.6670,59.7450
78.7050,59.9095
78.7349,60.0769
78.7565,60.2470
78.7696,60.4196
78.7741,60.5945
78.7785,60.4196
78.7916,60.2470
78.8132,60.0769
78.8431,59.9095
78.8811,59.7450
78.9269,59.5837
78.9803,59.4258
79.0411,59.2715
79.1092,59.1209
79.1843,58.9743
79.2661,58.8320
79.3545,58.6941
79.4493,58.5608
79.5502,58.4324
79.6570,58.3091
79.7695,58.1911
79.8875,58.0785
80.0109,57.9717
80.1392,57.8708
80.2725,57.7760
80.4104,57.6876
80.5527,57.6058
80.6992,57.5307
80.8498,57.4627
81.0041,57.4018
81.1620,57.3484
81.3233,57.3026
81.4877,57.2646
81.6551,57.2347
81.8252,57.2131
81.9977,57.2000
82.1726,57.1956
82.1730,57.1956
82.1734,57.1956
82.3476,57.2000
82.5196,57.2130
82.6890,57.2344
82.8558,57.2641
83.0196,57.3018
83.1804,57.3472
83.3378,57.4003
83.4916,57.4607
83.6417,57.5282
83.7879,57.6027
83.9298,57.6840
84.0674,57.7717
84.2004,57.8658
84.3285,57.9660
84.4517,58.0721
84.5696,58.1838
84.6821,58.3011
84.7889,58.4236
84.8898,58.5511
84.9847,58.6835
85.0733,58.8205
85.1554,58.9619
85.2307,59.1075
85.2992,59.2571
85.3605,59.4105
85.4145,59.5674
85.4609,59.7277
85.4996,59.8912
85.5302,60.0576
85.5527,60.2267
85.5668,60.3984
85.5723,60.5723
85.5723,60.5945
85.5767,60.4196
85.5899,60.2470
85.6115,60.0769
85.6414,59.9095
85.6793,59.7450
85.7251,59.5837
85.7786,59.4258
85.8394,59.2715
85.9075,59.1209
85.9825,58.9743
86.0644,58.8320
86.1528,58.6941
86.2475,58.5608
86.3484,58.4324
86.4553,58.3091
86.5678,58.1911
86.6859,58.0785
86.8092,57.9717
86.9376,57.8708
87.0708,57.7760
87.2087,57.6876
87.3511,57.6058
87.4976,57.5307
87.6482,57.4627
87.8026,57.4018
87.9605,57.3484
88.1218,57.3026
88.2862,57.2646
88.4536,57.2347
88.6237,57.2131
88.7963,57.2000
88.9713,57.1956
88.9716,57.1956
88.9716,60.5949
88.9672,60.7698
88.9541,60.9424
88.9325,61.1125
88.9026,61.2799
88.8646,61.4444
88.8188,61.6057
88.7653,61.7636
88.7045,61.9180
88.6364,62.0685
88.5613,62.2151
88.4795,62.3574
88.3911,62.4953
88.2963,62.6286
88.1954,62.7570
88.0885,62.8803
87.9760,62.9983
87.8579,63.1109
87.7346,63.2177
87.6062,63.3186
87.4729,63.4134
87.3350,63.5018
87.1927,63.5836
87.0461,63.6587
86.8956,63.7267
86.7412,63.7876
86.5833,63.8410
86.4220,63.8868
86.2576,63.9248
86.0902,63.9547
85.9202,63.9763
85.7476,63.9894
85.5727,63.9938
85.5719,63.9938
85.3970,63.9894
85.2244,63.9763
85.0543,63.9547
84.8869,63.9248
84.7225,63.8868
84.5612,63.8410
84.4032,63.7876
84.2489,63.7267
84.0983,63.6587
83.9518,63.5836
83.8094,63.5018
83.6715,63.4134
83.5383,63.3186
83.4099,63.2177
83.2865,63.1109
83.1685,62.9983
83.0560,62.8803
82.9491,62.7570
82.8482,62.6286
82.7535,62.4953
82.6651,62.3574
82.5832,62.2151
82.5082,62.0685
82.4401,61.9180
82.3792,61.7636
82.3258,61.6057
82.2800,61.4444
82.2421,61.2799
82.2122,61.1125
82.1905,60.9424
82.1774,60.7698
82.1730,60.5949
82.1686,60.7698
82.1555,60.9424
82.1338,61.1125
82.1040,61.2799
82.0660,61.4444
82.0202,61.6057
81.9668,61.7636
81.9059,61.9180
81.8378,62.0685
81.7628,62.2151
81.6809,62.3574
81.5925,62.4953
81.4978,62.6286
81.3969,62.7570
81.2900,62.8803
81.1775,62.9983
81.0595,63.1109
80.9361,63.2177
80.8077,63.3186
80.6745,63.4134
80.5366,63.5018
80.3942,63.5836
80.2477,63.6587
80.0971,63.7267
79.9428,63.7876
79.7848,63.8410
79.6235,63.8868
79.4591,63.9248
79.2917,63.9547
79.1216,63.9763
78.9490,63.9894
78.7741,63.9938
78.7737,63.9938
78.5988,63.9894
78.4262,63.9763
78.2560,63.9547
78.0887,63.9248
77.9242,63.8868
77.7629,63.8410
77.6050,63.7876
77.4506,63.7267
77.3001,63.6587
77.1535,63.5836
77.0112,63.5018
76.8733,63.4134
76.7400,63.3186
76.6116,63.2177
76.4883,63.1109
76.3702,62.9983
76.2577,62.8803
76.1509,62.7570
76.0500,62.6286
75.9552,62.4953
75.8668,62.3574
75.7850,62.2151
75.7099,62.0685
75.6418,61.9180
75.5810,61.7636
75.5275,61.6057
75.4817,61.4444
75.4438,61.2799
75.4139,61.1125
75.3923,60.9424
75.3792,60.7698
75.3747,60.5949
75.3747,57.1956
75.3751,57.1956
Z" /> 
<path style="fill:#000000; fill-opacity:1.0000; stroke:none;fill-rule:evenodd;"
d="M 81.5565,78.5627
81.6090,78.5647
81.6606,78.5680
81.7113,78.5726
81.7611,78.5786
81.8101,78.5858
81.8581,78.5944
81.9053,78.6044
81.9516,78.6156
81.9970,78.6282
82.0416,78.6421
82.0852,78.6573
82.1280,78.6738
82.1699,78.6917
82.2109,78.7108
82.2510,78.7313
82.2901,78.7539
82.3282,78.7774
82.3651,78.8020
82.4009,78.8275
82.4356,78.8540
82.4693,78.8815
82.5018,78.9100
82.5332,78.9395
82.5635,78.9699
82.5927,79.0014
82.6208,79.0339
82.6478,79.0673
82.6737,79.1018
82.6985,79.1372
82.7222,79.1737
82.7448,79.2111
82.7654,79.2503
82.7847,79.2904
82.8028,79.3314
82.8197,79.3733
82.8352,79.4160
82.8495,79.4595
82.8625,79.5039
82.8742,79.5491
82.8845,79.5952
82.8936,79.6420
82.9012,79.6897
82.9076,79.7382
82.9125,79.7875
82.9160,79.8376
82.9182,79.8884
82.9189,79.9401
82.9183,79.9875
82.9165,80.0345
82.9134,80.0810
82.9092,80.1271
82.9039,80.1728
82.8973,80.2181
82.8896,80.2630
82.8807,80.3075
82.8706,80.3516
82.8594,80.3954
82.8470,80.4388
82.8335,80.4818
82.8189,80.5244
82.8032,80.5667
82.7863,80.6087
82.7684,80.6503
82.7485,80.6913
82.7278,80.7316
82.7062,80.7712
82.6836,80.8100
82.6602,80.8482
82.6358,80.8856
82.6106,80.9223
82.5843,80.9583
82.5572,80.9937
82.5291,81.0285
82.5001,81.0626
82.4701,81.0961
82.4391,81.1289
82.4072,81.1612
82.3743,81.1929
82.3404,81.2241
82.3064,81.2536
82.2716,81.2823
82.2359,81.3100
82.1993,81.3369
82.1618,81.3628
82.1234,81.3879
82.0842,81.4120
82.0441,81.4351
82.0031,81.4574
81.9612,81.4787
81.9184,81.4990
81.8747,81.5184
81.8302,81.5368
81.7848,81.5543
81.7385,81.5707
81.6913,81.5862
81.6913,80.9701
81.7321,80.9537
81.7716,80.9361
81.8098,80.9175
81.8467,80.8978
81.8823,80.8770
81.9167,80.8550
81.9498,80.8320
81.9817,80.8078
82.0124,80.7826
82.0419,80.7562
82.0703,80.7288
82.0974,80.7002
82.1234,80.6706
82.1482,80.6398
82.1720,80.6080
82.1946,80.5750
82.2159,80.5421
82.2360,80.5085
82.2547,80.4742
82.2721,80.4393
82.2881,80.4038
82.3028,80.3676
82.3161,80.3308
82.3280,80.2934
82.3386,80.2554
82.3477,80.2168
82.3555,80.1776
82.3619,80.1378
82.3669,80.0975
82.3704,80.0566
82.3726,80.0151
82.3733,79.9730
82.3724,79.9252
82.3696,79.8787
82.3649,79.8335
82.3584,79.7897
82.3500,79.7473
82.3398,79.7063
82.3278,79.6667
82.3139,79.6285
82.2982,79.5917
82.2807,79.5564
82.2614,79.5226
82.2403,79.4902
82.2175,79.4593
82.1928,79.4299
82.1663,79.4020
82.1381,79.3757
82.1083,79.3501
82.0771,79.3263
82.0444,79.3042
82.0104,79.2838
81.9750,79.2652
81.9382,79.2482
81.9001,79.2329
81.8606,79.2193
81.8199,79.2073
81.7778,79.1970
81.7344,79.1883
81.6897,79.1812
81.6438,79.1758
81.5966,79.1719
81.5481,79.1695
81.4985,79.1688
81.4264,79.1701
81.3547,79.1740
81.2835,79.1807
81.2128,79.1899
81.1424,79.2018
81.0725,79.2164
81.0031,79.2336
80.9341,79.2534
80.8990,79.2643
80.8644,79.2757
80.8303,79.2877
80.7965,79.3003
80.7632,79.3135
80.7304,79.3273
80.6980,79.3418
80.6660,79.3569
80.6345,79.3726
80.6034,79.3891
80.5728,79.4062
80.5425,79.4241
80.5128,79.4426
80.4835,79.4619
80.4546,79.4819
80.4261,79.5027
80.3983,79.5232
80.3710,79.5444
80.3445,79.5660
80.3186,79.5883
80.2935,79.6111
80.2690,79.6345
80.2452,79.6586
80.2221,79.6832
80.1998,79.7084
80.1782,79.7342
80.1573,79.7607
80.1371,79.7877
80.1177,79.8155
80.0990,79.8438
80.0811,79.8728
80.0640,79.9025
80.0477,79.9319
80.0325,79.9620
80.0182,79.9927
80.0050,80.0240
79.9928,80.0559
79.9816,80.0885
79.9714,80.1216
79.9623,80.1553
79.9542,80.1895
79.9472,80.2242
79.9412,80.2595
79.9363,80.2953
79.9325,80.3316
79.9298,80.3684
79.9281,80.4056
79.9276,80.4433
79.9283,80.4825
79.9305,80.5207
79.9340,80.5579
79.9391,80.5941
79.9455,80.6292
79.9534,80.6633
79.9627,80.6964
79.9735,80.7285
79.9856,80.7595
79.9992,80.7894
80.0143,80.8183
80.0308,80.8461
80.0487,80.8729
80.0680,80.8985
80.0888,80.9231
80.1110,80.9466
80.1337,80.9697
80.1575,80.9914
80.1826,81.0116
80.2088,81.0305
80.2363,81.0480
80.2649,81.0641
80.2947,81.0789
80.3256,81.0924
80.3577,81.1045
80.3910,81.1153
80.4254,81.1249
80.4609,81.1331
80.4976,81.1401
80.5354,81.1458
80.5743,81.1503
80.6143,81.1535
80.6143,81.7649
80.5671,81.7643
80.5208,81.7625
80.4753,81.7595
80.4308,81.7552
80.3871,81.7496
80.3442,81.7429
80.3021,81.7348
80.2609,81.7256
80.2206,81.7150
80.1810,81.7032
80.1423,81.6901
80.1043,81.6757
80.0672,81.6600
80.0309,81.6430
79.9953,81.6247
79.9605,81.6050
79.9266,81.5842
79.8937,81.5623
79.8618,81.5393
79.8308,81.5152
79.8008,81.4900
79.7718,81.4637
79.7437,81.4364
79.7165,81.4081
79.6903,81.3787
79.6651,81.3482
79.6407,81.3168
79.6173,81.2843
79.5947,81.2507
79.5731,81.2162
79.5524,81.1807
79.5325,81.1441
79.5146,81.1075
79.4979,81.0701
79.4824,81.0317
79.4681,80.9926
79.4549,80.9526
79.4430,80.9118
79.4322,80.8702
79.4226,80.8278
79.4141,80.7847
79.4068,80.7408
79.4006,80.6961
79.3956,80.6507
79.3917,80.6046
79.3889,80.5578
79.3873,80.5103
79.3867,80.4621
79.3874,80.4087
79.3894,80.3559
79.3927,80.3037
79.3973,80.2522
79.4033,80.2013
79.4105,80.1510
79.4191,80.1014
79.4291,80.0524
79.4403,80.0040
79.4529,79.9561
79.4668,79.9089
79.4820,79.8623
79.4985,79.8162
79.5164,79.7707
79.5355,79.7258
79.5560,79.6814
79.5785,79.6385
79.6019,79.5963
79.6262,79.5548
79.6514,79.5140
79.6774,79.4739
79.7044,79.4345
79.7324,79.3959
79.7612,79.3581
79.7910,79.3210
79.8217,79.2847
79.8534,79.2492
79.8861,79.2145
79.9197,79.1806
79.9543,79.1476
79.9898,79.1154
80.0264,79.0841
80.0637,79.0528
80.1018,79.0226
80.1405,78.9933
80.1799,78.9650
80.2200,78.9376
80.2607,78.9112
80.3022,78.8858
80.3444,78.8613
80.3873,78.8377
80.4310,78.8151
80.4753,78.7934
80.5204,78.7726
80.5663,78.7527
80.6129,78.7337
80.6602,78.7156
80.7083,78.6984
80.8040,78.6669
80.9007,78.6394
80.9983,78.6160
81.0969,78.5967
81.1467,78.5886
81.1967,78.5816
81.2470,78.5757
81.2976,78.5708
81.3486,78.5670
81.3998,78.5642
81.4513,78.5626
81.5032,78.5620
Z" /> 
<path style="fill:#000000; fill-opacity:1.0000; stroke:none;fill-rule:evenodd;"
d="M 82.8624,77.8543
79.4385,78.4234
79.4385,77.8166
82.8624,77.2476
Z" /> 
</g> 
</svg>
