<?xml version="1.0" encoding="UTF-8" standalone="no"?>
<!DOCTYPE svg PUBLIC "-//W3C//DTD SVG 1.1//EN" "http://www.w3.org/Graphics/SVG/1.1/DTD/svg11.dtd">
<svg width="100%" height="100%" viewBox="0 0 43 131" version="1.1" xmlns="http://www.w3.org/2000/svg" xmlns:xlink="http://www.w3.org/1999/xlink" xml:space="preserve" xmlns:serif="http://www.serif.com/" style="fill-rule:evenodd;clip-rule:evenodd;stroke-linejoin:round;stroke-miterlimit:2;">
    <rect id="Artboard1" x="0" y="0" width="42.576" height="130.394" style="fill:none;"/>
    <g id="Artboard11" serif:id="Artboard1">
        <g transform="matrix(6.47896e-17,1.0581,1.0581,-6.47896e-17,-40.1368,33.8175)">
            <g transform="matrix(12,0,0,12,12.3918,59.811)">
                <path d="M0.018,-0L0.139,-0.728L0.414,-0.728C0.467,-0.728 0.512,-0.718 0.548,-0.698C0.584,-0.679 0.61,-0.652 0.626,-0.617C0.642,-0.582 0.646,-0.54 0.638,-0.492C0.63,-0.445 0.612,-0.404 0.585,-0.369C0.558,-0.335 0.523,-0.308 0.48,-0.29C0.438,-0.271 0.39,-0.262 0.337,-0.262L0.19,-0.262L0.147,-0L0.018,-0ZM0.209,-0.372L0.35,-0.372C0.393,-0.372 0.429,-0.383 0.458,-0.405C0.487,-0.427 0.505,-0.457 0.511,-0.495C0.517,-0.533 0.51,-0.563 0.488,-0.584C0.466,-0.606 0.434,-0.617 0.391,-0.617L0.25,-0.617L0.209,-0.372Z" style="fill-rule:nonzero;"/>
            </g>
            <g transform="matrix(12,0,0,12,19.8918,59.811)">
                <path d="M0.268,-0.728L0.147,-0L0.018,-0L0.139,-0.728L0.268,-0.728Z" style="fill-rule:nonzero;"/>
            </g>
            <g transform="matrix(12,0,0,12,22.8976,59.811)">
                <path d="M0.34,0.012C0.281,0.012 0.229,-0.001 0.185,-0.025C0.142,-0.05 0.108,-0.085 0.083,-0.13C0.059,-0.175 0.047,-0.228 0.047,-0.289C0.047,-0.348 0.057,-0.404 0.076,-0.458C0.095,-0.513 0.122,-0.561 0.158,-0.603C0.193,-0.645 0.236,-0.678 0.285,-0.703C0.335,-0.727 0.39,-0.739 0.451,-0.739C0.506,-0.739 0.555,-0.729 0.596,-0.708C0.638,-0.686 0.671,-0.656 0.694,-0.617C0.717,-0.578 0.728,-0.532 0.728,-0.478L0.598,-0.478C0.595,-0.524 0.581,-0.56 0.554,-0.585C0.528,-0.611 0.492,-0.624 0.447,-0.624C0.404,-0.624 0.365,-0.614 0.332,-0.595C0.298,-0.576 0.27,-0.55 0.247,-0.518C0.223,-0.486 0.206,-0.45 0.194,-0.41C0.182,-0.371 0.176,-0.331 0.176,-0.29C0.176,-0.233 0.19,-0.187 0.22,-0.154C0.249,-0.121 0.292,-0.104 0.347,-0.104C0.395,-0.104 0.438,-0.117 0.475,-0.142C0.513,-0.167 0.541,-0.202 0.559,-0.249L0.69,-0.249C0.673,-0.195 0.647,-0.149 0.613,-0.111C0.578,-0.072 0.538,-0.042 0.491,-0.02C0.444,0.001 0.394,0.012 0.34,0.012Z" style="fill-rule:nonzero;"/>
            </g>
            <g transform="matrix(12,0,0,12,31.3703,59.811)">
                <path d="M-0.036,-0L0.344,-0.728L0.506,-0.728L0.645,-0L0.507,-0L0.478,-0.174L0.196,-0.174L0.107,-0L-0.036,-0ZM0.25,-0.28L0.46,-0.28L0.443,-0.382C0.438,-0.416 0.433,-0.451 0.428,-0.487C0.423,-0.524 0.417,-0.565 0.411,-0.611C0.389,-0.565 0.37,-0.524 0.353,-0.487C0.335,-0.451 0.318,-0.416 0.302,-0.382L0.25,-0.28Z" style="fill-rule:nonzero;"/>
            </g>
            <g transform="matrix(12,0,0,12,38.5187,59.811)">
                <path d="M0.082,-0.616L0.101,-0.728L0.682,-0.728L0.664,-0.616L0.438,-0.616L0.336,-0L0.207,-0L0.309,-0.616L0.082,-0.616Z" style="fill-rule:nonzero;"/>
            </g>
        </g>
        <g transform="matrix(2.7011e-17,0.441123,0.441123,-2.7011e-17,2.36785,41.5682)">
            <g transform="matrix(12,0,0,12,12.3918,59.811)">
                <path d="M0.29,-0.728L0.29,-0L0.205,-0L0.205,-0.637L0.205,-0.637L0.023,-0.517L0.023,-0.606L0.205,-0.728L0.29,-0.728Z" style="fill-rule:nonzero;"/>
            </g>
            <g transform="matrix(12,0,0,12,16.7394,59.811)">
                <path d="M0.042,-0L0.042,-0.074L0.3,-0.31C0.331,-0.338 0.356,-0.363 0.376,-0.385C0.395,-0.406 0.409,-0.427 0.418,-0.448C0.428,-0.468 0.432,-0.491 0.432,-0.516C0.432,-0.561 0.419,-0.596 0.392,-0.622C0.366,-0.648 0.329,-0.661 0.283,-0.661C0.233,-0.661 0.195,-0.646 0.167,-0.615C0.14,-0.585 0.126,-0.544 0.126,-0.492L0.044,-0.492C0.044,-0.541 0.054,-0.583 0.074,-0.621C0.094,-0.658 0.121,-0.687 0.157,-0.708C0.193,-0.729 0.235,-0.739 0.283,-0.739C0.328,-0.739 0.368,-0.73 0.403,-0.711C0.438,-0.692 0.465,-0.667 0.485,-0.634C0.505,-0.601 0.515,-0.562 0.515,-0.519C0.515,-0.472 0.502,-0.429 0.476,-0.39C0.45,-0.35 0.411,-0.306 0.357,-0.258L0.161,-0.079L0.161,-0.078L0.52,-0.078L0.52,-0L0.042,-0Z" style="fill-rule:nonzero;"/>
            </g>
            <g transform="matrix(12,0,0,12,23.4718,59.811)">
                <path d="M0.11,0.008C0.093,0.008 0.079,0.002 0.067,-0.01C0.055,-0.021 0.049,-0.036 0.049,-0.053C0.049,-0.07 0.055,-0.084 0.067,-0.096C0.079,-0.108 0.093,-0.114 0.11,-0.114C0.127,-0.114 0.142,-0.108 0.153,-0.096C0.165,-0.084 0.171,-0.07 0.171,-0.053C0.171,-0.036 0.165,-0.021 0.153,-0.01C0.142,0.002 0.127,0.008 0.11,0.008Z" style="fill-rule:nonzero;"/>
            </g>
            <g transform="matrix(12,0,0,12,24.9367,59.811)">
                <path d="M0.29,-0.728L0.29,-0L0.205,-0L0.205,-0.637L0.205,-0.637L0.023,-0.517L0.023,-0.606L0.205,-0.728L0.29,-0.728Z" style="fill-rule:nonzero;"/>
            </g>
            <g transform="matrix(12,0,0,12,29.2843,59.811)">
                <path d="M0.303,0.012C0.253,0.012 0.208,0.002 0.17,-0.019C0.132,-0.039 0.101,-0.067 0.08,-0.104C0.058,-0.14 0.047,-0.181 0.047,-0.229L0.136,-0.229C0.136,-0.177 0.15,-0.137 0.179,-0.108C0.208,-0.08 0.249,-0.065 0.301,-0.065C0.351,-0.065 0.391,-0.078 0.422,-0.103C0.453,-0.128 0.469,-0.162 0.469,-0.205C0.469,-0.244 0.452,-0.275 0.419,-0.299C0.386,-0.322 0.342,-0.334 0.289,-0.334L0.23,-0.334L0.23,-0.412L0.289,-0.412C0.336,-0.412 0.374,-0.423 0.403,-0.445C0.432,-0.466 0.446,-0.495 0.446,-0.53C0.446,-0.571 0.433,-0.604 0.406,-0.627C0.378,-0.65 0.342,-0.662 0.297,-0.662C0.251,-0.662 0.214,-0.649 0.188,-0.623C0.161,-0.597 0.147,-0.562 0.147,-0.516L0.063,-0.516C0.063,-0.56 0.073,-0.598 0.093,-0.632C0.113,-0.666 0.14,-0.692 0.176,-0.711C0.211,-0.73 0.251,-0.739 0.297,-0.739C0.342,-0.739 0.382,-0.73 0.417,-0.713C0.453,-0.695 0.481,-0.671 0.501,-0.641C0.522,-0.61 0.532,-0.575 0.532,-0.535C0.532,-0.498 0.521,-0.466 0.497,-0.437C0.474,-0.409 0.442,-0.388 0.401,-0.376L0.401,-0.375C0.448,-0.367 0.485,-0.347 0.513,-0.316C0.541,-0.285 0.555,-0.248 0.555,-0.205C0.555,-0.163 0.544,-0.125 0.522,-0.093C0.5,-0.06 0.47,-0.034 0.432,-0.016C0.394,0.003 0.351,0.012 0.303,0.012Z" style="fill-rule:nonzero;"/>
            </g>
            <g transform="matrix(12,0,0,12,36.1984,59.811)">
                <path d="M0.11,0.008C0.093,0.008 0.079,0.002 0.067,-0.01C0.055,-0.021 0.049,-0.036 0.049,-0.053C0.049,-0.07 0.055,-0.084 0.067,-0.096C0.079,-0.108 0.093,-0.114 0.11,-0.114C0.127,-0.114 0.142,-0.108 0.153,-0.096C0.165,-0.084 0.171,-0.07 0.171,-0.053C0.171,-0.036 0.165,-0.021 0.153,-0.01C0.142,0.002 0.127,0.008 0.11,0.008Z" style="fill-rule:nonzero;"/>
            </g>
            <g transform="matrix(12,0,0,12,38.8937,59.811)">
                <path d="M0.042,-0L0.042,-0.074L0.3,-0.31C0.331,-0.338 0.356,-0.363 0.376,-0.385C0.395,-0.406 0.409,-0.427 0.418,-0.448C0.428,-0.468 0.432,-0.491 0.432,-0.516C0.432,-0.561 0.419,-0.596 0.392,-0.622C0.366,-0.648 0.329,-0.661 0.283,-0.661C0.233,-0.661 0.195,-0.646 0.167,-0.615C0.14,-0.585 0.126,-0.544 0.126,-0.492L0.044,-0.492C0.044,-0.541 0.054,-0.583 0.074,-0.621C0.094,-0.658 0.121,-0.687 0.157,-0.708C0.193,-0.729 0.235,-0.739 0.283,-0.739C0.328,-0.739 0.368,-0.73 0.403,-0.711C0.438,-0.692 0.465,-0.667 0.485,-0.634C0.505,-0.601 0.515,-0.562 0.515,-0.519C0.515,-0.472 0.502,-0.429 0.476,-0.39C0.45,-0.35 0.411,-0.306 0.357,-0.258L0.161,-0.079L0.161,-0.078L0.52,-0.078L0.52,-0L0.042,-0Z" style="fill-rule:nonzero;"/>
            </g>
            <g transform="matrix(12,0,0,12,45.6261,59.811)">
                <path d="M0.307,0.012C0.253,0.012 0.206,-0.004 0.167,-0.034C0.128,-0.065 0.098,-0.109 0.076,-0.165C0.055,-0.221 0.044,-0.287 0.044,-0.363C0.044,-0.44 0.055,-0.507 0.076,-0.563C0.098,-0.619 0.128,-0.662 0.167,-0.693C0.206,-0.724 0.253,-0.739 0.307,-0.739C0.36,-0.739 0.407,-0.724 0.446,-0.693C0.486,-0.662 0.516,-0.619 0.537,-0.563C0.559,-0.507 0.569,-0.44 0.569,-0.363C0.569,-0.287 0.559,-0.221 0.537,-0.165C0.516,-0.109 0.486,-0.065 0.446,-0.034C0.407,-0.004 0.36,0.012 0.307,0.012ZM0.307,-0.066C0.362,-0.066 0.406,-0.093 0.438,-0.146C0.47,-0.199 0.486,-0.271 0.486,-0.363C0.486,-0.456 0.47,-0.529 0.438,-0.582C0.406,-0.635 0.362,-0.661 0.307,-0.661C0.251,-0.661 0.207,-0.635 0.175,-0.582C0.143,-0.529 0.127,-0.456 0.127,-0.363C0.127,-0.271 0.143,-0.199 0.175,-0.146C0.207,-0.093 0.251,-0.066 0.307,-0.066Z" style="fill-rule:nonzero;"/>
            </g>
            <g transform="matrix(12,0,0,12,52.9855,59.811)">
                <path d="M0.042,-0L0.042,-0.074L0.3,-0.31C0.331,-0.338 0.356,-0.363 0.376,-0.385C0.395,-0.406 0.409,-0.427 0.418,-0.448C0.428,-0.468 0.432,-0.491 0.432,-0.516C0.432,-0.561 0.419,-0.596 0.392,-0.622C0.366,-0.648 0.329,-0.661 0.283,-0.661C0.233,-0.661 0.195,-0.646 0.167,-0.615C0.14,-0.585 0.126,-0.544 0.126,-0.492L0.044,-0.492C0.044,-0.541 0.054,-0.583 0.074,-0.621C0.094,-0.658 0.121,-0.687 0.157,-0.708C0.193,-0.729 0.235,-0.739 0.283,-0.739C0.328,-0.739 0.368,-0.73 0.403,-0.711C0.438,-0.692 0.465,-0.667 0.485,-0.634C0.505,-0.601 0.515,-0.562 0.515,-0.519C0.515,-0.472 0.502,-0.429 0.476,-0.39C0.45,-0.35 0.411,-0.306 0.357,-0.258L0.161,-0.079L0.161,-0.078L0.52,-0.078L0.52,-0L0.042,-0Z" style="fill-rule:nonzero;"/>
            </g>
            <g transform="matrix(12,0,0,12,59.7179,59.811)">
                <path d="M0.29,0.01C0.243,0.01 0.201,0 0.164,-0.019C0.127,-0.039 0.097,-0.065 0.075,-0.098C0.053,-0.131 0.041,-0.169 0.039,-0.211L0.127,-0.211C0.131,-0.17 0.148,-0.135 0.178,-0.109C0.208,-0.082 0.245,-0.068 0.29,-0.068C0.321,-0.068 0.349,-0.076 0.372,-0.09C0.396,-0.105 0.414,-0.125 0.428,-0.151C0.441,-0.176 0.448,-0.205 0.448,-0.238C0.448,-0.271 0.441,-0.3 0.429,-0.326C0.416,-0.351 0.398,-0.371 0.375,-0.385C0.353,-0.4 0.326,-0.407 0.296,-0.407C0.256,-0.407 0.222,-0.399 0.193,-0.383C0.164,-0.367 0.144,-0.343 0.133,-0.313L0.048,-0.313L0.073,-0.728L0.493,-0.728L0.493,-0.649L0.152,-0.649L0.135,-0.414L0.136,-0.414C0.181,-0.462 0.238,-0.486 0.307,-0.486C0.351,-0.486 0.391,-0.476 0.425,-0.455C0.459,-0.433 0.485,-0.404 0.504,-0.367C0.523,-0.33 0.533,-0.287 0.533,-0.239C0.533,-0.19 0.523,-0.147 0.502,-0.11C0.482,-0.072 0.453,-0.043 0.417,-0.022C0.381,-0.001 0.338,0.01 0.29,0.01Z" style="fill-rule:nonzero;"/>
            </g>
        </g>
        <g transform="matrix(1,0,0,-1,7.10543e-15,133.27)">
            <path d="M30.466,92.727C35.533,92.727 39.642,96.835 39.642,101.903L39.642,111.08L39.641,111.08C34.573,111.08 30.465,106.972 30.465,101.904L30.465,101.964C30.433,107.004 26.337,111.08 21.289,111.08L21.288,111.08L21.288,111.08L21.287,111.08C16.22,111.08 12.112,106.972 12.112,101.904L12.112,101.904L12.112,101.904C12.112,106.972 8.003,111.08 2.936,111.08L2.935,111.08L2.935,101.903C2.935,96.835 7.043,92.727 12.111,92.727L12.112,92.727C17.18,92.727 21.288,96.835 21.288,101.903C21.288,96.835 25.396,92.727 30.464,92.727L30.466,92.727Z"/>
        </g>
        <g transform="matrix(1,0,0,-1,7.10543e-15,112.04)">
            <path d="M30.466,92.727C35.533,92.727 39.642,96.835 39.642,101.903L39.642,111.08L39.641,111.08C34.573,111.08 30.465,106.972 30.465,101.904L30.465,101.964C30.433,107.004 26.337,111.08 21.289,111.08L21.288,111.08L21.288,111.08L21.287,111.08C16.22,111.08 12.112,106.972 12.112,101.904L12.112,101.904L12.112,101.904C12.112,106.972 8.003,111.08 2.936,111.08L2.935,111.08L2.935,101.903C2.935,96.835 7.043,92.727 12.111,92.727L12.112,92.727C17.18,92.727 21.288,96.835 21.288,101.903C21.288,96.835 25.396,92.727 30.464,92.727L30.466,92.727Z"/>
        </g>
        <g transform="matrix(1,0,0,1,7.10543e-15,-2.87607)">
            <path d="M30.466,92.727C35.533,92.727 39.642,96.835 39.642,101.903L39.642,111.08L39.641,111.08C34.573,111.08 30.465,106.972 30.465,101.904L30.465,101.964C30.433,107.004 26.337,111.08 21.289,111.08L21.288,111.08L21.288,111.08L21.287,111.08C16.22,111.08 12.112,106.972 12.112,101.904L12.112,101.904L12.112,101.904C12.112,106.972 8.003,111.08 2.936,111.08L2.935,111.08L2.935,101.903C2.935,96.835 7.043,92.727 12.111,92.727L12.112,92.727C17.18,92.727 21.288,96.835 21.288,101.903C21.288,96.835 25.396,92.727 30.464,92.727L30.466,92.727Z"/>
        </g>
        <g transform="matrix(1,0,0,1,7.10543e-15,18.3534)">
            <path d="M30.466,92.727C35.533,92.727 39.642,96.835 39.642,101.903L39.642,111.08L39.641,111.08C34.573,111.08 30.465,106.972 30.465,101.904L30.465,101.964C30.433,107.004 26.337,111.08 21.289,111.08L21.288,111.08L21.288,111.08L21.287,111.08C16.22,111.08 12.112,106.972 12.112,101.904L12.112,101.904L12.112,101.904C12.112,106.972 8.003,111.08 2.936,111.08L2.935,111.08L2.935,101.903C2.935,96.835 7.043,92.727 12.111,92.727L12.112,92.727C17.18,92.727 21.288,96.835 21.288,101.903C21.288,96.835 25.396,92.727 30.464,92.727L30.466,92.727Z"/>
        </g>
    </g>
</svg>
