<?xml version="1.0" encoding="UTF-8" standalone="no"?>
<!DOCTYPE svg PUBLIC "-//W3C//DTD SVG 1.1//EN" "http://www.w3.org/Graphics/SVG/1.1/DTD/svg11.dtd">
<svg width="100%" height="100%" viewBox="0 0 800 600" version="1.1" xmlns="http://www.w3.org/2000/svg" xmlns:xlink="http://www.w3.org/1999/xlink" xml:space="preserve" xmlns:serif="http://www.serif.com/" style="fill-rule:evenodd;clip-rule:evenodd;stroke-linejoin:round;stroke-miterlimit:2;">
    <path d="M375.477,434.722C388.134,426.867 398.677,417.097 405.742,404.163C412.294,416.733 423.553,427.131 440.713,434.755L446.653,437.395L451.931,425.514L445.991,422.875C426.093,414.035 415.677,400.864 412.556,384.234L399.876,383.799C395.092,402.208 383.5,414.443 368.622,423.676L363.099,427.103L369.954,438.149L375.477,434.722ZM139.78,334.512L44.187,299.523L40.062,310.791L138.328,346.759C136.41,365.577 135.871,385.037 136.822,405.732L78.254,407.189L78.552,419.185L137.53,417.718C137.863,422.339 138.267,427.022 138.744,431.776L139.343,437.746L151.283,436.548L150.684,430.578C150.238,426.131 149.857,421.748 149.542,417.42L219.948,415.669L219.65,403.672L148.826,405.434C147.945,386.386 148.366,368.412 149.993,351.029L223.548,377.952L227.673,366.683L151.352,338.748C155.935,302.935 165.688,269.176 179.735,233.001C179.735,233.002 263.272,306.916 263.272,306.916L266.679,305.594C345.763,274.93 432.913,267.963 530.903,292.759L534.086,293.564L602.601,229.287C624.262,263.543 641.332,295.049 652.354,328.922L575.958,356.509L580.034,367.795L655.835,340.424C660.601,357.455 663.85,375.201 665.405,394.28L576.98,382.778L575.432,394.678L666.16,406.479C666.214,407.737 666.261,409.005 666.3,410.279L666.486,416.276L678.48,415.904L678.294,409.907C678.275,409.287 678.254,408.669 678.232,408.049L710.162,412.202L711.71,400.303L677.566,395.862C676.014,374.68 672.478,355.097 667.164,336.332L747.389,307.363L743.313,296.077L663.658,324.84C651.677,288.204 632.856,254.178 608.824,216.72L604.929,210.649L530.656,280.328C432.668,256.149 345.255,263.025 265.761,293.096C265.762,293.096 174.9,212.701 174.9,212.701L171.73,220.6C155.962,259.893 144.979,296.107 139.78,334.512ZM317.09,331.936C328.461,331.936 337.693,341.168 337.693,352.538C337.693,363.909 328.461,373.141 317.09,373.141C305.72,373.141 296.488,363.909 296.488,352.538C296.488,341.168 305.72,331.936 317.09,331.936ZM487.648,321.54C499.018,321.54 508.25,330.772 508.25,342.143C508.25,353.513 499.018,362.745 487.648,362.745C476.277,362.745 467.045,353.513 467.045,342.143C467.045,330.772 476.277,321.54 487.648,321.54Z"/>
</svg>
